<svg width="90" height="90" viewBox="0 0 90 90" fill="none" xmlns="http://www.w3.org/2000/svg">
<path d="M45 90C69.7362 90 89.7889 69.8528 89.7889 45C89.7889 20.1472 69.7362 0 45 0C20.2638 0 0.211166 20.1472 0.211166 45C0.211166 69.8528 20.2638 90 45 90Z" fill="url(#paint0_linear_3901_2891)"/>
<path d="M45 90C69.7362 90 89.7889 69.8528 89.7889 45C89.7889 20.1472 69.7362 0 45 0C20.2638 0 0.211166 20.1472 0.211166 45C0.211166 69.8528 20.2638 90 45 90Z" fill="url(#paint1_linear_3901_2891)" fill-opacity="0.3"/>
<path d="M49.8756 8.06288C50.3123 8.00734 50.7557 8.04257 51.1783 8.1664C51.6009 8.29022 51.9936 8.5 52.3321 8.78269C52.6706 9.06539 52.9477 9.41498 53.1461 9.80977C53.3446 10.2045 53.4601 10.6361 53.4856 11.0776C53.5111 11.5191 53.446 11.9612 53.2943 12.3764C53.1426 12.7916 52.9076 13.171 52.6039 13.4911C52.3002 13.8112 51.9342 14.0652 51.5287 14.2373C51.1232 14.4094 50.6869 14.4959 50.2467 14.4915H40.5467C39.9611 14.3799 39.4325 14.0665 39.0523 13.6052C38.6721 13.144 38.4641 12.5639 38.4641 11.965C38.4641 11.3661 38.6721 10.786 39.0523 10.3248C39.4325 9.86358 39.9611 9.55014 40.5467 9.43859H40.7259C40.5833 8.40709 40.8545 7.36094 41.4796 6.53029C42.1048 5.69964 43.0328 5.15253 44.0594 5.00931C45.0861 4.86609 46.1273 5.1385 46.9541 5.76662C47.7808 6.39473 48.3254 7.32709 48.4679 8.3586C48.9039 8.13723 49.3872 8.02685 49.8756 8.03717V8.06288Z" fill="white"/>
<path d="M14.646 40.9243C14.9203 40.8933 15.1981 40.9188 15.4624 40.9991C15.7267 41.0794 15.972 41.213 16.1832 41.3916C16.3945 41.5702 16.5674 41.7901 16.6914 42.038C16.8153 42.2859 16.8878 42.5566 16.9043 42.8335C16.9208 43.1104 16.8811 43.3878 16.7875 43.6488C16.6939 43.9098 16.5484 44.1489 16.3598 44.3516C16.1713 44.5543 15.9437 44.7163 15.6908 44.8278C15.438 44.9393 15.1652 44.9979 14.8891 45H8.75942C8.55103 45 8.34469 44.9588 8.15217 44.8787C7.95965 44.7985 7.78472 44.6811 7.63738 44.5331C7.49003 44.385 7.37314 44.2093 7.2934 44.0158C7.21366 43.8224 7.17261 43.6151 7.17261 43.4057C7.17261 43.1964 7.21366 42.989 7.2934 42.7956C7.37314 42.6022 7.49003 42.4264 7.63738 42.2784C7.78472 42.1304 7.95965 42.0129 8.15217 41.9328C8.34469 41.8527 8.55103 41.8114 8.75942 41.8114H8.87459C8.79942 41.1682 8.97849 40.521 9.3733 40.0089C9.76811 39.4969 10.3471 39.161 10.9859 39.0734C11.6246 38.9859 12.272 39.1536 12.7889 39.5406C13.3059 39.9276 13.651 40.5029 13.7502 41.1429C14.0309 41.0114 14.3362 40.9413 14.646 40.9372V40.9243Z" fill="white"/>
<path d="M70.3372 74.3653H57.3212V61.6548H58.8036C59.255 61.6548 59.621 61.2889 59.621 60.8375C59.621 60.3861 59.255 60.0202 58.8036 60.0202H55.7602V47.3056H57.1618C57.6131 47.3056 57.9791 46.9397 57.9791 46.4883C57.9791 46.0369 57.6131 45.671 57.1618 45.671C56.8562 45.6708 53.5386 45.6687 53.7248 45.6688V37.8604H54.4699C54.9213 37.8604 55.2873 37.4945 55.2873 37.0431C55.2873 36.5917 54.9213 36.2258 54.4699 36.2258H52.6379V25.7721H53.55C54.0014 25.7721 54.3674 25.4061 54.3674 24.9548C54.3674 24.5034 54.0014 24.1374 53.55 24.1374H51.7709C51.4269 21.3352 49.7847 19.0315 47.5542 18.0184C47.5621 17.9859 47.5621 17.9612 47.5621 17.9286C47.5621 16.6863 46.8348 15.6319 45.8213 15.256C45.8201 15.2554 45.8185 15.2554 45.8173 15.2548V12.8173C45.8173 12.366 45.4514 12 45 12C44.5486 12 44.1827 12.366 44.1827 12.8173V15.2496C43.1632 15.6269 42.4295 16.6797 42.4295 17.9286C42.4295 17.9612 42.4295 17.9939 42.4375 18.0266C40.2153 19.0315 38.5727 21.3352 38.2287 24.1374H36.45C35.9986 24.1374 35.6326 24.5034 35.6326 24.9548C35.6326 25.4061 35.9986 25.7721 36.45 25.7721H37.3619V36.2258H35.5301C35.0787 36.2258 34.7127 36.5917 34.7127 37.0431C34.7127 37.4945 35.0787 37.8604 35.5301 37.8604H36.275V45.6688C36.1927 45.6688 32.6101 45.6711 32.8382 45.671C32.3869 45.671 32.0209 46.0369 32.0209 46.4883C32.0209 46.9397 32.3869 47.3056 32.8382 47.3056H34.2398V60.0202H31.1964C30.745 60.0202 30.379 60.3861 30.379 60.8375C30.379 61.2889 30.745 61.6548 31.1964 61.6548H32.6786V74.3653H19.6628C19.2114 74.3653 18.8454 74.7313 18.8454 75.1827C18.8454 75.634 19.2114 76 19.6628 76C23.6036 76 61.6204 76 70.3372 76C70.7886 76 71.1546 75.634 71.1546 75.1827C71.1546 74.7313 70.7886 74.3653 70.3372 74.3653ZM47.1944 45.6688V43.1078C47.1944 41.1258 45.7352 40.3906 45.4143 40.0015C45.1708 39.7822 44.829 39.7822 44.5857 40.0015C44.2472 40.4119 42.8056 41.125 42.8056 43.1078V45.6688H39.7255V37.8632H50.2173V45.6688H47.1944ZM50.7171 47.3056V60.0202H48.2663V55.8076C48.2663 52.856 46.0971 51.7664 45.6166 51.184C45.2544 50.8575 44.7456 50.8575 44.3834 51.184C43.8911 51.7808 41.7337 52.8516 41.7337 55.8076V60.0202H39.2827V47.3056H50.7171ZM48.6475 74.3653V69.5747C48.6475 66.278 46.2265 65.0637 45.6884 64.4115C45.284 64.0471 44.7159 64.0471 44.3116 64.4115C43.7617 65.0781 41.3525 66.2731 41.3525 69.5747V74.3653H38.3999V61.6558H38.4653H51.5345H51.5999V74.3653H48.6475ZM38.9965 25.7749H51.0033V36.2258H38.9965V25.7749Z" fill="url(#paint2_linear_3901_2891)"/>
<path d="M45.004 26.6249C42.5847 26.6249 40.6312 28.5865 40.6312 30.9977C40.6312 33.4088 42.5847 35.3703 45.004 35.3703C47.4151 35.3703 49.3686 33.4088 49.3686 30.9977C49.3686 28.5865 47.4151 26.6249 45.004 26.6249ZM46.2545 32.2565C45.9983 32.4952 45.6453 32.4961 45.3881 32.2565L44.5626 31.431C44.4483 31.3164 44.391 31.1612 44.391 30.9977V29.1833C44.391 28.8399 44.6608 28.5703 45.004 28.5703C45.3392 28.5703 45.617 28.8399 45.617 29.1833V30.7443L46.2545 31.39C46.4916 31.6271 46.4916 32.0112 46.2545 32.2565Z" fill="url(#paint3_linear_3901_2891)"/>
<path d="M20.2642 30.3678H32.3849C32.8362 30.3678 33.2022 30.0022 33.2022 29.5505C33.2022 29.0995 32.8362 28.7331 32.3849 28.7331H31.3011C30.9833 27.5119 29.5072 25.4905 27.4697 25.7368C26.3119 25.8765 25.3037 26.4727 24.9219 27.5071C23.5571 26.8511 21.965 27.3958 21.2894 28.7331H20.2642C19.8128 28.7331 19.4469 29.0995 19.4469 29.5505C19.4469 30.0022 19.8128 30.3678 20.2642 30.3678Z" fill="url(#paint4_linear_3901_2891)"/>
<path d="M58.7565 39.0759H68.879C69.3303 39.0759 69.6963 38.7103 69.6963 38.2585C69.6963 37.8076 69.3303 37.4412 68.879 37.4412H67.9335C67.6007 36.4148 66.4026 34.8767 64.774 35.0734C63.807 35.1904 62.9653 35.688 62.6464 36.552C61.5738 36.0356 60.2992 36.4034 59.6844 37.4412H58.7565C58.3052 37.4412 57.9392 37.8076 57.9392 38.2585C57.9392 38.7103 58.3052 39.0759 58.7565 39.0759Z" fill="url(#paint5_linear_3901_2891)"/>
<defs>
<linearGradient id="paint0_linear_3901_2891" x1="45.256" y1="0.257143" x2="45.256" y2="86.6571" gradientUnits="userSpaceOnUse">
<stop stop-color="#EAF7FF"/>
<stop offset="1" stop-color="white"/>
</linearGradient>
<linearGradient id="paint1_linear_3901_2891" x1="45.256" y1="0.257143" x2="45.256" y2="90.2571" gradientUnits="userSpaceOnUse">
<stop stop-color="#E90808" stop-opacity="0.3"/>
<stop offset="1" stop-color="#E90808" stop-opacity="0"/>
</linearGradient>
<linearGradient id="paint2_linear_3901_2891" x1="45" y1="12" x2="45" y2="76" gradientUnits="userSpaceOnUse">
<stop stop-color="#E90808"/>
<stop offset="1" stop-color="#E90808" stop-opacity="0"/>
</linearGradient>
<linearGradient id="paint3_linear_3901_2891" x1="44.9999" y1="26.6249" x2="44.9999" y2="35.3703" gradientUnits="userSpaceOnUse">
<stop stop-color="#E90808"/>
<stop offset="1" stop-color="#E90808" stop-opacity="0"/>
</linearGradient>
<linearGradient id="paint4_linear_3901_2891" x1="26.3245" y1="25.7162" x2="26.3245" y2="30.3678" gradientUnits="userSpaceOnUse">
<stop stop-color="#E90808"/>
<stop offset="1" stop-color="#E90808" stop-opacity="0"/>
</linearGradient>
<linearGradient id="paint5_linear_3901_2891" x1="63.8178" y1="35.0562" x2="63.8178" y2="39.0759" gradientUnits="userSpaceOnUse">
<stop stop-color="#E90808"/>
<stop offset="1" stop-color="#E90808" stop-opacity="0"/>
</linearGradient>
</defs>
</svg>
