<svg width="90" height="90" viewBox="0 0 90 90" fill="none" xmlns="http://www.w3.org/2000/svg">
<path d="M44.7889 90C69.5251 90 89.5777 69.8528 89.5777 45C89.5777 20.1472 69.5251 0 44.7889 0C20.0527 0 0 20.1472 0 45C0 69.8528 20.0527 90 44.7889 90Z" fill="url(#paint0_linear_3901_2889)"/>
<path d="M44.7889 90C69.5251 90 89.5777 69.8528 89.5777 45C89.5777 20.1472 69.5251 0 44.7889 0C20.0527 0 0 20.1472 0 45C0 69.8528 20.0527 90 44.7889 90Z" fill="url(#paint1_linear_3901_2889)" fill-opacity="0.3"/>
<path d="M49.6644 8.06288C50.1011 8.00734 50.5445 8.04257 50.9671 8.1664C51.3897 8.29022 51.7824 8.5 52.121 8.78269C52.4595 9.06539 52.7365 9.41498 52.935 9.80977C53.1334 10.2045 53.2489 10.6361 53.2744 11.0776C53.2999 11.5191 53.2348 11.9612 53.0831 12.3764C52.9315 12.7916 52.6965 13.171 52.3928 13.4911C52.089 13.8112 51.7231 14.0652 51.3176 14.2373C50.9121 14.4094 50.4757 14.4959 50.0355 14.4915H40.3355C39.7499 14.3799 39.2214 14.0665 38.8412 13.6052C38.461 13.144 38.2529 12.5639 38.2529 11.965C38.2529 11.3661 38.461 10.786 38.8412 10.3248C39.2214 9.86358 39.7499 9.55014 40.3355 9.43859H40.5147C40.3722 8.40709 40.6433 7.36094 41.2685 6.53029C41.8936 5.69964 42.8216 5.15253 43.8483 5.00931C44.8749 4.86609 45.9162 5.1385 46.7429 5.76662C47.5697 6.39473 48.1142 7.32709 48.2568 8.3586C48.6927 8.13723 49.1761 8.02685 49.6644 8.03717V8.06288Z" fill="white"/>
<path d="M14.4348 40.9243C14.7092 40.8933 14.987 40.9188 15.2513 40.9991C15.5156 41.0794 15.7608 41.213 15.9721 41.3916C16.1834 41.5702 16.3562 41.7901 16.4802 42.038C16.6042 42.2859 16.6766 42.5566 16.6931 42.8335C16.7097 43.1104 16.6699 43.3878 16.5763 43.6488C16.4827 43.9098 16.3372 44.1489 16.1487 44.3516C15.9601 44.5543 15.7325 44.7163 15.4797 44.8278C15.2268 44.9393 14.954 44.9979 14.6779 45H8.54826C8.33988 45 8.13354 44.9588 7.94102 44.8787C7.7485 44.7985 7.57357 44.6811 7.42622 44.5331C7.27887 44.385 7.16199 44.2093 7.08224 44.0158C7.0025 43.8224 6.96146 43.6151 6.96146 43.4057C6.96146 43.1964 7.0025 42.989 7.08224 42.7956C7.16199 42.6022 7.27887 42.4264 7.42622 42.2784C7.57357 42.1304 7.7485 42.0129 7.94102 41.9328C8.13354 41.8527 8.33988 41.8114 8.54826 41.8114H8.66343C8.58827 41.1682 8.76734 40.521 9.16215 40.0089C9.55696 39.4969 10.136 39.161 10.7747 39.0734C11.4134 38.9859 12.0609 39.1536 12.5778 39.5406C13.0947 39.9276 13.4399 40.5029 13.539 41.1429C13.8198 41.0114 14.1251 40.9413 14.4348 40.9372V40.9243Z" fill="white"/>
<g clip-path="url(#clip0_3901_2889)">
<path d="M37.5838 44.9059V56.9131H39.367V43.0717L37.5838 44.9059Z" fill="url(#paint2_linear_3901_2889)"/>
<path d="M40.5562 41.8485V56.9131H41.7459V40.6248L40.5562 41.8485Z" fill="url(#paint3_linear_3901_2889)"/>
<path d="M35.2048 47.3528V56.9131H36.3946V46.129L35.2048 47.3528Z" fill="url(#paint4_linear_3901_2889)"/>
<path d="M45.3135 36.9553L42.9351 39.4016V56.9131H47.6919V39.4016L45.3135 36.9553Z" fill="url(#paint5_linear_3901_2889)"/>
<path d="M48.8811 40.6248V56.9131H50.0709V41.8485L48.8811 40.6248Z" fill="url(#paint6_linear_3901_2889)"/>
<path d="M51.2601 43.0717V56.9131H53.0433V44.9059L51.2601 43.0717Z" fill="url(#paint7_linear_3901_2889)"/>
<path d="M63.7459 64.6429H26.8811V67.0212H63.7459V64.6429Z" fill="url(#paint8_linear_3901_2889)"/>
<path d="M54.2324 46.129V56.9131H55.4222V47.3528L54.2324 46.129Z" fill="url(#paint9_linear_3901_2889)"/>
<path d="M67.3135 58.1023H23.3135V59.8861H67.3135V58.1023Z" fill="url(#paint10_linear_3901_2889)"/>
<path d="M66.1243 67.0212V61.0753H24.5027V67.0212H25.6919V64.0483C25.6919 63.7199 25.9581 63.4537 26.2865 63.4537H64.3406C64.6689 63.4537 64.9352 63.7199 64.9352 64.0483V67.0212H66.1243Z" fill="url(#paint11_linear_3901_2889)"/>
<path d="M25.9101 56.9131H28.6643V54.0802L25.9101 56.9131Z" fill="url(#paint12_linear_3901_2889)"/>
<path d="M32.2324 50.41V56.9131H34.0156V48.576L32.2324 50.41Z" fill="url(#paint13_linear_3901_2889)"/>
<path d="M29.8535 52.8571V56.9131H31.0432V51.6333L29.8535 52.8571Z" fill="url(#paint14_linear_3901_2889)"/>
<path d="M46.4315 27.5037C46.1998 20.3463 45.5887 18.3589 45.3135 17.8211C45.0384 18.3589 44.4273 20.3464 44.1955 27.5037L45.3135 29.9264L46.4315 27.5037Z" fill="url(#paint15_linear_3901_2889)"/>
<path d="M41.725 24.988L37.5211 33.3953C37.4482 33.5409 37.3187 33.6503 37.163 33.6979L16.1055 40.1322L11.9868 63.3006L44.5985 31.2149L41.725 24.988Z" fill="url(#paint16_linear_3901_2889)"/>
<path d="M22.5118 61.036C22.286 60.9518 22.1243 60.7358 22.1243 60.4807V57.5077C22.1243 57.1794 22.3905 56.9131 22.7189 56.9131H24.2515L44.7189 35.8609V32.7647L9.90094 67.0212H16.5268L22.5118 61.036Z" fill="url(#paint17_linear_3901_2889)"/>
<path d="M56.6114 48.576V56.9131H58.3946V50.41L56.6114 48.576Z" fill="url(#paint18_linear_3901_2889)"/>
<path d="M81.5838 68.2104H9.04324V69.9942H81.5838V68.2104Z" fill="url(#paint19_linear_3901_2889)"/>
<path d="M23.3135 67.0212V61.9162L18.2085 67.0212H23.3135Z" fill="url(#paint20_linear_3901_2889)"/>
<path d="M50.5892 15C49.6117 16.3313 48.1511 17.2598 46.4956 17.5627C46.6616 17.9756 46.8048 18.5163 46.9319 19.2008C48.8415 18.5961 50.255 16.9636 50.5892 15Z" fill="url(#paint21_linear_3901_2889)"/>
<path d="M43.6953 19.2008C43.8224 18.5163 43.9656 17.9756 44.1316 17.5627C42.476 17.2598 41.0152 16.3313 40.0378 15C40.372 16.9636 41.7855 18.5961 43.6953 19.2008Z" fill="url(#paint22_linear_3901_2889)"/>
<path d="M59.5838 51.6333V56.9131H60.7736V52.8571L59.5838 51.6333Z" fill="url(#paint23_linear_3901_2889)"/>
<path d="M61.9628 56.9131H64.7169L61.9628 54.0802V56.9131Z" fill="url(#paint24_linear_3901_2889)"/>
<path d="M46.0287 31.2149L78.6404 63.3006L74.5216 40.1322L53.4642 33.6979C53.3084 33.6503 53.179 33.5409 53.1061 33.3953L48.9022 24.988L46.0287 31.2149Z" fill="url(#paint25_linear_3901_2889)"/>
<path d="M80.7261 67.0212L45.9081 32.7647V35.8609L66.3755 56.9131H67.9081C68.2365 56.9131 68.5027 57.1794 68.5027 57.5077V60.4807C68.5027 60.7359 68.341 60.9518 68.1152 61.036L74.1004 67.0212H80.7261Z" fill="url(#paint26_linear_3901_2889)"/>
<path d="M67.3135 61.9162V67.0212H72.4185L67.3135 61.9162Z" fill="url(#paint27_linear_3901_2889)"/>
</g>
<defs>
<linearGradient id="paint0_linear_3901_2889" x1="45.0448" y1="0.257143" x2="45.0448" y2="86.6571" gradientUnits="userSpaceOnUse">
<stop stop-color="#EAF7FF"/>
<stop offset="1" stop-color="white"/>
</linearGradient>
<linearGradient id="paint1_linear_3901_2889" x1="45.0448" y1="0.257143" x2="45.0448" y2="90.2571" gradientUnits="userSpaceOnUse">
<stop stop-color="#E90808" stop-opacity="0.3"/>
<stop offset="1" stop-color="#E90808" stop-opacity="0"/>
</linearGradient>
<linearGradient id="paint2_linear_3901_2889" x1="38.4754" y1="43.0717" x2="38.4754" y2="56.9131" gradientUnits="userSpaceOnUse">
<stop stop-color="#E90808"/>
<stop offset="1" stop-color="#E90808" stop-opacity="0"/>
</linearGradient>
<linearGradient id="paint3_linear_3901_2889" x1="41.151" y1="40.6248" x2="41.151" y2="56.9131" gradientUnits="userSpaceOnUse">
<stop stop-color="#E90808"/>
<stop offset="1" stop-color="#E90808" stop-opacity="0"/>
</linearGradient>
<linearGradient id="paint4_linear_3901_2889" x1="35.7997" y1="46.129" x2="35.7997" y2="56.9131" gradientUnits="userSpaceOnUse">
<stop stop-color="#E90808"/>
<stop offset="1" stop-color="#E90808" stop-opacity="0"/>
</linearGradient>
<linearGradient id="paint5_linear_3901_2889" x1="45.3135" y1="36.9553" x2="45.3135" y2="56.9131" gradientUnits="userSpaceOnUse">
<stop stop-color="#E90808"/>
<stop offset="1" stop-color="#E90808" stop-opacity="0"/>
</linearGradient>
<linearGradient id="paint6_linear_3901_2889" x1="49.476" y1="40.6248" x2="49.476" y2="56.9131" gradientUnits="userSpaceOnUse">
<stop stop-color="#E90808"/>
<stop offset="1" stop-color="#E90808" stop-opacity="0"/>
</linearGradient>
<linearGradient id="paint7_linear_3901_2889" x1="52.1517" y1="43.0717" x2="52.1517" y2="56.9131" gradientUnits="userSpaceOnUse">
<stop stop-color="#E90808"/>
<stop offset="1" stop-color="#E90808" stop-opacity="0"/>
</linearGradient>
<linearGradient id="paint8_linear_3901_2889" x1="45.3135" y1="64.6429" x2="45.3135" y2="67.0212" gradientUnits="userSpaceOnUse">
<stop stop-color="#E90808"/>
<stop offset="1" stop-color="#E90808" stop-opacity="0"/>
</linearGradient>
<linearGradient id="paint9_linear_3901_2889" x1="54.8273" y1="46.129" x2="54.8273" y2="56.9131" gradientUnits="userSpaceOnUse">
<stop stop-color="#E90808"/>
<stop offset="1" stop-color="#E90808" stop-opacity="0"/>
</linearGradient>
<linearGradient id="paint10_linear_3901_2889" x1="45.3135" y1="58.1023" x2="45.3135" y2="59.8861" gradientUnits="userSpaceOnUse">
<stop stop-color="#E90808"/>
<stop offset="1" stop-color="#E90808" stop-opacity="0"/>
</linearGradient>
<linearGradient id="paint11_linear_3901_2889" x1="45.3135" y1="61.0753" x2="45.3135" y2="67.0212" gradientUnits="userSpaceOnUse">
<stop stop-color="#E90808"/>
<stop offset="1" stop-color="#E90808" stop-opacity="0"/>
</linearGradient>
<linearGradient id="paint12_linear_3901_2889" x1="27.2872" y1="54.0802" x2="27.2872" y2="56.9131" gradientUnits="userSpaceOnUse">
<stop stop-color="#E90808"/>
<stop offset="1" stop-color="#E90808" stop-opacity="0"/>
</linearGradient>
<linearGradient id="paint13_linear_3901_2889" x1="33.124" y1="48.576" x2="33.124" y2="56.9131" gradientUnits="userSpaceOnUse">
<stop stop-color="#E90808"/>
<stop offset="1" stop-color="#E90808" stop-opacity="0"/>
</linearGradient>
<linearGradient id="paint14_linear_3901_2889" x1="30.4483" y1="51.6333" x2="30.4483" y2="56.9131" gradientUnits="userSpaceOnUse">
<stop stop-color="#E90808"/>
<stop offset="1" stop-color="#E90808" stop-opacity="0"/>
</linearGradient>
<linearGradient id="paint15_linear_3901_2889" x1="45.3135" y1="17.8211" x2="45.3135" y2="29.9264" gradientUnits="userSpaceOnUse">
<stop stop-color="#E90808"/>
<stop offset="1" stop-color="#E90808" stop-opacity="0"/>
</linearGradient>
<linearGradient id="paint16_linear_3901_2889" x1="28.2927" y1="24.988" x2="28.2927" y2="63.3006" gradientUnits="userSpaceOnUse">
<stop stop-color="#E90808"/>
<stop offset="1" stop-color="#E90808" stop-opacity="0"/>
</linearGradient>
<linearGradient id="paint17_linear_3901_2889" x1="27.3099" y1="32.7647" x2="27.3099" y2="67.0212" gradientUnits="userSpaceOnUse">
<stop stop-color="#E90808"/>
<stop offset="1" stop-color="#E90808" stop-opacity="0"/>
</linearGradient>
<linearGradient id="paint18_linear_3901_2889" x1="57.503" y1="48.576" x2="57.503" y2="56.9131" gradientUnits="userSpaceOnUse">
<stop stop-color="#E90808"/>
<stop offset="1" stop-color="#E90808" stop-opacity="0"/>
</linearGradient>
<linearGradient id="paint19_linear_3901_2889" x1="45.3135" y1="68.2104" x2="45.3135" y2="69.9942" gradientUnits="userSpaceOnUse">
<stop stop-color="#E90808"/>
<stop offset="1" stop-color="#E90808" stop-opacity="0"/>
</linearGradient>
<linearGradient id="paint20_linear_3901_2889" x1="20.761" y1="61.9162" x2="20.761" y2="67.0212" gradientUnits="userSpaceOnUse">
<stop stop-color="#E90808"/>
<stop offset="1" stop-color="#E90808" stop-opacity="0"/>
</linearGradient>
<linearGradient id="paint21_linear_3901_2889" x1="48.5424" y1="15" x2="48.5424" y2="19.2008" gradientUnits="userSpaceOnUse">
<stop stop-color="#E90808"/>
<stop offset="1" stop-color="#E90808" stop-opacity="0"/>
</linearGradient>
<linearGradient id="paint22_linear_3901_2889" x1="42.0847" y1="15" x2="42.0847" y2="19.2008" gradientUnits="userSpaceOnUse">
<stop stop-color="#E90808"/>
<stop offset="1" stop-color="#E90808" stop-opacity="0"/>
</linearGradient>
<linearGradient id="paint23_linear_3901_2889" x1="60.1787" y1="51.6333" x2="60.1787" y2="56.9131" gradientUnits="userSpaceOnUse">
<stop stop-color="#E90808"/>
<stop offset="1" stop-color="#E90808" stop-opacity="0"/>
</linearGradient>
<linearGradient id="paint24_linear_3901_2889" x1="63.3399" y1="54.0802" x2="63.3399" y2="56.9131" gradientUnits="userSpaceOnUse">
<stop stop-color="#E90808"/>
<stop offset="1" stop-color="#E90808" stop-opacity="0"/>
</linearGradient>
<linearGradient id="paint25_linear_3901_2889" x1="62.3345" y1="24.988" x2="62.3345" y2="63.3006" gradientUnits="userSpaceOnUse">
<stop stop-color="#E90808"/>
<stop offset="1" stop-color="#E90808" stop-opacity="0"/>
</linearGradient>
<linearGradient id="paint26_linear_3901_2889" x1="63.3171" y1="32.7647" x2="63.3171" y2="67.0212" gradientUnits="userSpaceOnUse">
<stop stop-color="#E90808"/>
<stop offset="1" stop-color="#E90808" stop-opacity="0"/>
</linearGradient>
<linearGradient id="paint27_linear_3901_2889" x1="69.866" y1="61.9162" x2="69.866" y2="67.0212" gradientUnits="userSpaceOnUse">
<stop stop-color="#E90808"/>
<stop offset="1" stop-color="#E90808" stop-opacity="0"/>
</linearGradient>
<clipPath id="clip0_3901_2889">
<rect width="72.5405" height="55" fill="white" transform="translate(9.04324 15)"/>
</clipPath>
</defs>
</svg>
