<svg width="91" height="90" viewBox="0 0 91 90" fill="none" xmlns="http://www.w3.org/2000/svg">
<path d="M46 90C70.7362 90 90.7889 69.8528 90.7889 45C90.7889 20.1472 70.7362 0 46 0C21.2638 0 1.21118 20.1472 1.21118 45C1.21118 69.8528 21.2638 90 46 90Z" fill="url(#paint0_linear_3901_2893)"/>
<path d="M46 90C70.7362 90 90.7889 69.8528 90.7889 45C90.7889 20.1472 70.7362 0 46 0C21.2638 0 1.21118 20.1472 1.21118 45C1.21118 69.8528 21.2638 90 46 90Z" fill="url(#paint1_linear_3901_2893)" fill-opacity="0.3"/>
<path d="M50.8756 8.06288C51.3123 8.00734 51.7557 8.04257 52.1783 8.1664C52.6009 8.29022 52.9936 8.5 53.3321 8.78269C53.6707 9.06539 53.9477 9.41498 54.1462 9.80977C54.3446 10.2045 54.4601 10.6361 54.4856 11.0776C54.5111 11.5191 54.446 11.9612 54.2943 12.3764C54.1427 12.7916 53.9077 13.171 53.6039 13.4911C53.3002 13.8112 52.9343 14.0652 52.5288 14.2373C52.1233 14.4094 51.6869 14.4959 51.2467 14.4915H41.5467C40.9611 14.3799 40.4326 14.0665 40.0524 13.6052C39.6721 13.144 39.4641 12.5639 39.4641 11.965C39.4641 11.3661 39.6721 10.786 40.0524 10.3248C40.4326 9.86358 40.9611 9.55014 41.5467 9.43859H41.7259C41.5833 8.40709 41.8545 7.36094 42.4796 6.53029C43.1048 5.69964 44.0328 5.15253 45.0595 5.00931C46.0861 4.86609 47.1274 5.1385 47.9541 5.76662C48.7809 6.39473 49.3254 7.32709 49.468 8.3586C49.9039 8.13723 50.3873 8.02685 50.8756 8.03717V8.06288Z" fill="white"/>
<path d="M15.6459 40.9243C15.9203 40.8933 16.1981 40.9188 16.4624 40.9991C16.7267 41.0794 16.972 41.213 17.1832 41.3916C17.3945 41.5702 17.5674 41.7901 17.6914 42.038C17.8153 42.2859 17.8878 42.5566 17.9043 42.8335C17.9208 43.1104 17.8811 43.3878 17.7875 43.6488C17.6938 43.9098 17.5484 44.1489 17.3598 44.3516C17.1713 44.5543 16.9437 44.7163 16.6908 44.8278C16.438 44.9393 16.1652 44.9979 15.8891 45H9.75941C9.55103 45 9.34469 44.9588 9.15217 44.8787C8.95965 44.7985 8.78472 44.6811 8.63737 44.5331C8.49002 44.385 8.37314 44.2093 8.2934 44.0158C8.21365 43.8224 8.17261 43.6151 8.17261 43.4057C8.17261 43.1964 8.21365 42.989 8.2934 42.7956C8.37314 42.6022 8.49002 42.4264 8.63737 42.2784C8.78472 42.1304 8.95965 42.0129 9.15217 41.9328C9.34469 41.8527 9.55103 41.8114 9.75941 41.8114H9.87458C9.79942 41.1682 9.97849 40.521 10.3733 40.0089C10.7681 39.4969 11.3471 39.161 11.9858 39.0734C12.6246 38.9859 13.272 39.1536 13.7889 39.5406C14.3059 39.9276 14.651 40.5029 14.7502 41.1429C15.0309 41.0114 15.3362 40.9413 15.6459 40.9372V40.9243Z" fill="white"/>
<mask id="mask0_3901_2893" style="mask-type:alpha" maskUnits="userSpaceOnUse" x="0" y="0" width="91" height="90">
<path d="M45.6715 90C70.4077 90 90.4604 69.8528 90.4604 45C90.4604 20.1472 70.4077 0 45.6715 0C20.9353 0 0.88269 20.1472 0.88269 45C0.88269 69.8528 20.9353 90 45.6715 90Z" fill="url(#paint2_linear_3901_2893)"/>
<path d="M45.6715 90C70.4077 90 90.4604 69.8528 90.4604 45C90.4604 20.1472 70.4077 0 45.6715 0C20.9353 0 0.88269 20.1472 0.88269 45C0.88269 69.8528 20.9353 90 45.6715 90Z" fill="url(#paint3_linear_3901_2893)" fill-opacity="0.3"/>
</mask>
<g mask="url(#mask0_3901_2893)">
<g clip-path="url(#clip0_3901_2893)">
<path d="M45.8843 22.8834C51.3379 22.8961 56.7731 23.519 62.0882 24.7404L62.4959 24.831L62.3487 24.446C61.1979 21.3292 59.1724 18.6106 56.5152 16.6162C53.858 14.6217 50.6818 13.4362 47.3676 13.2018V12.0128C47.3676 11.7125 47.2483 11.4245 47.036 11.2121C46.8236 10.9997 46.5356 10.8804 46.2353 10.8804C45.935 10.8804 45.6469 10.9997 45.4346 11.2121C45.2222 11.4245 45.1029 11.7125 45.1029 12.0128V13.2018C41.8025 13.43 38.6372 14.6014 35.9834 16.5767C33.3295 18.552 31.299 21.2481 30.1332 24.3441L29.986 24.7291L30.3937 24.6385C35.4745 23.4714 40.6711 22.8826 45.8843 22.8834Z" fill="url(#paint4_linear_3901_2893)"/>
<path d="M81.0098 70.6573H77.024V67.6566H74.6687V64.6446H72.0303L67.8406 32.4971H61.4541L61.0351 35.645C60.9967 35.9171 60.8606 36.1659 60.6523 36.3451C60.4439 36.5242 60.1776 36.6215 59.9028 36.6188H32.5451C32.2704 36.6215 32.004 36.5242 31.7957 36.3451C31.5873 36.1659 31.4513 35.9171 31.4128 35.645L30.9938 32.4971H24.6187L20.4403 64.6446H17.8019V67.6566H15.4466V70.6573H11.4607C11.0733 70.6573 10.7018 70.8113 10.4278 71.0852C10.1539 71.3591 10 71.7307 10 72.1181C10 72.5055 10.1539 72.877 10.4278 73.151C10.7018 73.4249 11.0733 73.5788 11.4607 73.5788H81.0098C81.3973 73.5788 81.7688 73.4249 82.0427 73.151C82.3167 72.877 82.4706 72.5055 82.4706 72.1181C82.4706 71.7307 82.3167 71.3591 82.0427 71.0852C81.7688 70.8113 81.3973 70.6573 81.0098 70.6573ZM62.9941 37.151H65.2588C65.5591 37.151 65.8472 37.2703 66.0595 37.4827C66.2719 37.695 66.3912 37.9831 66.3912 38.2834C66.3912 38.5837 66.2719 38.8717 66.0595 39.0841C65.8472 39.2964 65.5591 39.4157 65.2588 39.4157H62.9941C62.6938 39.4157 62.4058 39.2964 62.1934 39.0841C61.9811 38.8717 61.8618 38.5837 61.8618 38.2834C61.8618 37.9831 61.9811 37.695 62.1934 37.4827C62.4058 37.2703 62.6938 37.151 62.9941 37.151ZM27.2684 37.151H29.4765C29.7768 37.151 30.0648 37.2703 30.2772 37.4827C30.4895 37.695 30.6088 37.9831 30.6088 38.2834C30.6088 38.5837 30.4895 38.8717 30.2772 39.0841C30.0648 39.2964 29.7768 39.4157 29.4765 39.4157H27.2684C26.9681 39.4157 26.68 39.2964 26.4677 39.0841C26.2553 38.8717 26.136 38.5837 26.136 38.2834C26.136 37.9831 26.2553 37.695 26.4677 37.4827C26.68 37.2703 26.9681 37.151 27.2684 37.151ZM26.2266 61.1003H23.9619C23.6616 61.1003 23.3736 60.981 23.1612 60.7686C22.9489 60.5563 22.8296 60.2683 22.8296 59.9679C22.8296 59.6676 22.9489 59.3796 23.1612 59.1672C23.3736 58.9549 23.6616 58.8356 23.9619 58.8356H26.2266C26.5269 58.8356 26.815 58.9549 27.0273 59.1672C27.2397 59.3796 27.359 59.6676 27.359 59.9679C27.359 60.2683 27.2397 60.5563 27.0273 60.7686C26.815 60.981 26.5269 61.1003 26.2266 61.1003ZM27.2571 53.8759H24.9924C24.692 53.8759 24.404 53.7566 24.1917 53.5442C23.9793 53.3319 23.86 53.0438 23.86 52.7435C23.86 52.4432 23.9793 52.1552 24.1917 51.9428C24.404 51.7305 24.692 51.6112 24.9924 51.6112H27.2571C27.5574 51.6112 27.8454 51.7305 28.0578 51.9428C28.2701 52.1552 28.3894 52.4432 28.3894 52.7435C28.3894 53.0438 28.2701 53.3319 28.0578 53.5442C27.8454 53.7566 27.5574 53.8759 27.2571 53.8759ZM28.3894 46.6288H26.1247C25.8244 46.6288 25.5364 46.5095 25.324 46.2972C25.1117 46.0848 24.9924 45.7968 24.9924 45.4965C24.9924 45.1961 25.1117 44.9081 25.324 44.6958C25.5364 44.4834 25.8244 44.3641 26.1247 44.3641H28.3894C28.6897 44.3641 28.9777 44.4834 29.1901 44.6958C29.4025 44.9081 29.5218 45.1961 29.5218 45.4965C29.5218 45.7968 29.4025 46.0848 29.1901 46.2972C28.9777 46.5095 28.6897 46.6288 28.3894 46.6288ZM33.5529 57.4768H31.3335C31.0332 57.4768 30.7452 57.3575 30.5328 57.1451C30.3205 56.9327 30.2012 56.6447 30.2012 56.3444C30.2012 56.0441 30.3205 55.7561 30.5328 55.5437C30.7452 55.3314 31.0332 55.2121 31.3335 55.2121H33.5416C33.8419 55.2121 34.13 55.3314 34.3423 55.5437C34.5547 55.7561 34.674 56.0441 34.674 56.3444C34.674 56.6447 34.5547 56.9327 34.3423 57.1451C34.13 57.3575 33.8419 57.4768 33.5416 57.4768H33.5529ZM34.6853 50.241H32.4206C32.1203 50.241 31.8323 50.1217 31.6199 49.9094C31.4075 49.697 31.2882 49.409 31.2882 49.1087C31.2882 48.8084 31.4075 48.5203 31.6199 48.308C31.8323 48.0956 32.1203 47.9763 32.4206 47.9763H34.6853C34.9856 47.9763 35.2736 48.0956 35.486 48.308C35.6983 48.5203 35.8176 48.8084 35.8176 49.1087C35.8176 49.409 35.6983 49.697 35.486 49.9094C35.2736 50.1217 34.9856 50.241 34.6853 50.241ZM35.8176 42.994H33.5529C33.2526 42.994 32.9646 42.8747 32.7522 42.6623C32.5399 42.45 32.4206 42.1619 32.4206 41.8616C32.4206 41.5613 32.5399 41.2733 32.7522 41.0609C32.9646 40.8486 33.2526 40.7293 33.5529 40.7293H35.8176C36.118 40.7293 36.406 40.8486 36.6183 41.0609C36.8307 41.2733 36.95 41.5613 36.95 41.8616C36.95 42.1619 36.8307 42.45 36.6183 42.6623C36.406 42.8747 36.118 42.994 35.8176 42.994ZM37.4935 64.6446C37.8446 56.2312 42.0229 45.7116 46.2806 45.7116C50.5382 45.7116 54.7053 56.2312 55.0563 64.6446H37.4935ZM55.6112 41.8729C55.6112 41.5726 55.7305 41.2846 55.9428 41.0722C56.1552 40.8599 56.4432 40.7406 56.7435 40.7406H58.9516C59.2519 40.7406 59.54 40.8599 59.7523 41.0722C59.9647 41.2846 60.084 41.5726 60.084 41.8729C60.084 42.1733 59.9647 42.4613 59.7523 42.6736C59.54 42.886 59.2519 43.0053 58.9516 43.0053H56.6982C56.3999 43.0023 56.1148 42.8817 55.9049 42.6697C55.6949 42.4576 55.5772 42.1713 55.5772 41.8729H55.6112ZM56.7435 49.1087C56.7435 48.8084 56.8628 48.5203 57.0752 48.308C57.2875 48.0956 57.5756 47.9763 57.8759 47.9763H60.1406C60.4409 47.9763 60.7289 48.0956 60.9413 48.308C61.1536 48.5203 61.2729 48.8084 61.2729 49.1087C61.2729 49.409 61.1536 49.697 60.9413 49.9094C60.7289 50.1217 60.4409 50.241 60.1406 50.241H57.8759C57.7216 50.2503 57.567 50.2279 57.4217 50.1751C57.2763 50.1224 57.1433 50.0405 57.0309 49.9344C56.9184 49.8283 56.8289 49.7003 56.7678 49.5583C56.7067 49.4163 56.6753 49.2633 56.6756 49.1087H56.7435ZM61.205 57.4768H58.9403C58.64 57.4768 58.352 57.3575 58.1396 57.1451C57.9272 56.9327 57.8079 56.6447 57.8079 56.3444C57.8079 56.0441 57.9272 55.7561 58.1396 55.5437C58.352 55.3314 58.64 55.2121 58.9403 55.2121H61.205C61.5053 55.2121 61.7933 55.3314 62.0057 55.5437C62.2181 55.7561 62.3374 56.0441 62.3374 56.3444C62.3374 56.6447 62.2181 56.9327 62.0057 57.1451C61.7933 57.3575 61.5053 57.4768 61.205 57.4768ZM63.0394 45.5078C63.0394 45.2075 63.1587 44.9195 63.3711 44.7071C63.5834 44.4947 63.8714 44.3754 64.1718 44.3754H66.3799C66.6802 44.3754 66.9682 44.4947 67.1805 44.7071C67.3929 44.9195 67.5122 45.2075 67.5122 45.5078C67.5122 45.8081 67.3929 46.0961 67.1805 46.3085C66.9682 46.5208 66.6802 46.6401 66.3799 46.6401H64.0925C63.7941 46.6372 63.509 46.5165 63.2991 46.3045C63.0892 46.0925 62.9715 45.8062 62.9715 45.5078H63.0394ZM64.1718 52.7435C64.1718 52.4432 64.2911 52.1552 64.5034 51.9428C64.7158 51.7305 65.0038 51.6112 65.3041 51.6112H67.5688C67.8691 51.6112 68.1572 51.7305 68.3695 51.9428C68.5819 52.1552 68.7012 52.4432 68.7012 52.7435C68.7012 53.0438 68.5819 53.3319 68.3695 53.5442C68.1572 53.7566 67.8691 53.8759 67.5688 53.8759H65.3041C65.148 53.8884 64.9909 53.8684 64.8429 53.8171C64.6949 53.7659 64.5591 53.6845 64.4442 53.578C64.3293 53.4716 64.2376 53.3425 64.1752 53.1989C64.1127 53.0552 64.0807 52.9002 64.0812 52.7435H64.1718ZM68.554 61.1003H66.2893C65.9889 61.1003 65.7009 60.981 65.4886 60.7686C65.2762 60.5563 65.1569 60.2683 65.1569 59.9679C65.1569 59.6676 65.2762 59.3796 65.4886 59.1672C65.7009 58.9549 65.9889 58.8356 66.2893 58.8356H68.554C68.8543 58.8356 69.1423 58.9549 69.3547 59.1672C69.567 59.3796 69.6863 59.6676 69.6863 59.9679C69.6863 60.2683 69.567 60.5563 69.3547 60.7686C69.1423 60.981 68.8543 61.1003 68.554 61.1003Z" fill="url(#paint5_linear_3901_2893)"/>
<path d="M36.8934 31.7837V34.5919H39.1581V31.7837C39.1581 31.4834 39.0388 31.1953 38.8264 30.983C38.6141 30.7706 38.326 30.6513 38.0257 30.6513C37.7254 30.6513 37.4374 30.7706 37.225 30.983C37.0127 31.1953 36.8934 31.4834 36.8934 31.7837Z" fill="url(#paint6_linear_3901_2893)"/>
<path d="M45.1029 31.7837V34.5919H47.3676V31.7837C47.3676 31.4834 47.2483 31.1953 47.036 30.983C46.8236 30.7706 46.5356 30.6513 46.2353 30.6513C45.935 30.6513 45.647 30.7706 45.4346 30.983C45.2222 31.1953 45.1029 31.4834 45.1029 31.7837Z" fill="url(#paint7_linear_3901_2893)"/>
<path d="M32.8736 31.2515L33.3265 34.5919H35.093V31.7837C35.068 31.3824 35.1256 30.9804 35.262 30.6022C35.3984 30.2241 35.6108 29.8779 35.8861 29.5849C36.1614 29.292 36.4937 29.0585 36.8627 28.899C37.2317 28.7394 37.6294 28.6571 38.0314 28.6571C38.4334 28.6571 38.8312 28.7394 39.2001 28.899C39.5691 29.0585 39.9015 29.292 40.1768 29.5849C40.4521 29.8779 40.6645 30.2241 40.8009 30.6022C40.9373 30.9804 40.9948 31.3824 40.9699 31.7837V34.5919H43.2346V31.7837C43.2346 31.0028 43.5448 30.254 44.0969 29.7019C44.649 29.1497 45.3979 28.8396 46.1787 28.8396C46.9595 28.8396 47.7084 29.1497 48.2605 29.7019C48.8126 30.254 49.1228 31.0028 49.1228 31.7837V34.5919H51.3875V31.7837C51.3626 31.3824 51.4201 30.9804 51.5565 30.6022C51.6929 30.2241 51.9053 29.8779 52.1806 29.5849C52.4559 29.292 52.7883 29.0585 53.1573 28.899C53.5262 28.7394 53.924 28.6571 54.326 28.6571C54.728 28.6571 55.1257 28.7394 55.4947 28.899C55.8637 29.0585 56.196 29.292 56.4713 29.5849C56.7466 29.8779 56.959 30.2241 57.0954 30.6022C57.2318 30.9804 57.2894 31.3824 57.2644 31.7837V34.5919H59.0309L59.4839 31.2515C59.5138 31.0383 59.6196 30.8432 59.7819 30.7017C59.9441 30.5603 60.1519 30.4821 60.3671 30.4815H63.3225V30.255C63.3139 29.1446 63.2001 28.0375 62.9828 26.9485V26.8013H62.8469C57.2877 25.4363 51.586 24.7369 45.8616 24.7178C40.3605 24.718 34.8803 25.395 29.5444 26.7334H29.4086V26.8693C29.1739 27.9866 29.0525 29.1247 29.0462 30.2663V30.4928H32.0016C32.2139 30.4934 32.4188 30.5704 32.5789 30.7097C32.739 30.849 32.8436 31.0413 32.8736 31.2515Z" fill="url(#paint8_linear_3901_2893)"/>
<path d="M53.2785 31.7837V34.5919H55.5432V31.7837C55.5432 31.4834 55.4239 31.1953 55.2116 30.983C54.9992 30.7706 54.7112 30.6513 54.4109 30.6513C54.1106 30.6513 53.8225 30.7706 53.6102 30.983C53.3978 31.1953 53.2785 31.4834 53.2785 31.7837Z" fill="url(#paint9_linear_3901_2893)"/>
</g>
</g>
<defs>
<linearGradient id="paint0_linear_3901_2893" x1="46.256" y1="0.257143" x2="46.256" y2="86.6571" gradientUnits="userSpaceOnUse">
<stop stop-color="#EAF7FF"/>
<stop offset="1" stop-color="white"/>
</linearGradient>
<linearGradient id="paint1_linear_3901_2893" x1="46.256" y1="0.257143" x2="46.256" y2="90.2571" gradientUnits="userSpaceOnUse">
<stop stop-color="#E90808" stop-opacity="0.3"/>
<stop offset="1" stop-color="#E90808" stop-opacity="0"/>
</linearGradient>
<linearGradient id="paint2_linear_3901_2893" x1="45.9275" y1="0.257143" x2="45.9275" y2="86.6571" gradientUnits="userSpaceOnUse">
<stop stop-color="#EAF7FF"/>
<stop offset="1" stop-color="white"/>
</linearGradient>
<linearGradient id="paint3_linear_3901_2893" x1="45.9275" y1="0.257143" x2="45.9275" y2="90.2571" gradientUnits="userSpaceOnUse">
<stop stop-color="#E90808" stop-opacity="0.3"/>
<stop offset="1" stop-color="#E90808" stop-opacity="0.4"/>
</linearGradient>
<linearGradient id="paint4_linear_3901_2893" x1="46.2409" y1="10.8804" x2="46.2409" y2="24.831" gradientUnits="userSpaceOnUse">
<stop stop-color="#EB2321" stop-opacity="0.89"/>
<stop offset="1" stop-color="#F75D34" stop-opacity="0.46"/>
</linearGradient>
<linearGradient id="paint5_linear_3901_2893" x1="46.2353" y1="32.4971" x2="46.2353" y2="73.5788" gradientUnits="userSpaceOnUse">
<stop stop-color="#EB2321" stop-opacity="0.89"/>
<stop offset="1" stop-color="#F75D34" stop-opacity="0.46"/>
</linearGradient>
<linearGradient id="paint6_linear_3901_2893" x1="38.0257" y1="30.6513" x2="38.0257" y2="34.5919" gradientUnits="userSpaceOnUse">
<stop stop-color="#EB2321" stop-opacity="0.89"/>
<stop offset="1" stop-color="#F75D34" stop-opacity="0.46"/>
</linearGradient>
<linearGradient id="paint7_linear_3901_2893" x1="46.2353" y1="30.6513" x2="46.2353" y2="34.5919" gradientUnits="userSpaceOnUse">
<stop stop-color="#EB2321" stop-opacity="0.89"/>
<stop offset="1" stop-color="#F75D34" stop-opacity="0.46"/>
</linearGradient>
<linearGradient id="paint8_linear_3901_2893" x1="46.1844" y1="24.7178" x2="46.1844" y2="34.5919" gradientUnits="userSpaceOnUse">
<stop stop-color="#EB2321" stop-opacity="0.89"/>
<stop offset="1" stop-color="#F75D34" stop-opacity="0.46"/>
</linearGradient>
<linearGradient id="paint9_linear_3901_2893" x1="54.4109" y1="30.6513" x2="54.4109" y2="34.5919" gradientUnits="userSpaceOnUse">
<stop stop-color="#EB2321" stop-opacity="0.89"/>
<stop offset="1" stop-color="#F75D34" stop-opacity="0.46"/>
</linearGradient>
<clipPath id="clip0_3901_2893">
<rect width="72.4706" height="77" fill="white" transform="translate(10 6)"/>
</clipPath>
</defs>
</svg>
