<svg width="90" height="90" viewBox="0 0 90 90" fill="none" xmlns="http://www.w3.org/2000/svg">
<path d="M45 90C69.7362 90 89.7889 69.8528 89.7889 45C89.7889 20.1472 69.7362 0 45 0C20.2638 0 0.211166 20.1472 0.211166 45C0.211166 69.8528 20.2638 90 45 90Z" fill="url(#paint0_linear_3901_2890)"/>
<path d="M45 90C69.7362 90 89.7889 69.8528 89.7889 45C89.7889 20.1472 69.7362 0 45 0C20.2638 0 0.211166 20.1472 0.211166 45C0.211166 69.8528 20.2638 90 45 90Z" fill="url(#paint1_linear_3901_2890)" fill-opacity="0.3"/>
<path d="M49.8756 8.06288C50.3123 8.00734 50.7557 8.04257 51.1783 8.1664C51.6009 8.29022 51.9936 8.5 52.3321 8.78269C52.6706 9.06539 52.9477 9.41498 53.1461 9.80977C53.3445 10.2045 53.4601 10.6361 53.4856 11.0776C53.5111 11.5191 53.446 11.9612 53.2943 12.3764C53.1426 12.7916 52.9076 13.171 52.6039 13.4911C52.3002 13.8112 51.9342 14.0652 51.5287 14.2373C51.1232 14.4094 50.6868 14.4959 50.2467 14.4915H40.5467C39.9611 14.3799 39.4325 14.0665 39.0523 13.6052C38.6721 13.144 38.4641 12.5639 38.4641 11.965C38.4641 11.3661 38.6721 10.786 39.0523 10.3248C39.4325 9.86358 39.9611 9.55014 40.5467 9.43859H40.7259C40.5833 8.40709 40.8544 7.36094 41.4796 6.53029C42.1048 5.69964 43.0328 5.15253 44.0594 5.00931C45.0861 4.86609 46.1273 5.1385 46.9541 5.76662C47.7808 6.39473 48.3254 7.32709 48.4679 8.3586C48.9039 8.13723 49.3872 8.02685 49.8756 8.03717V8.06288Z" fill="white"/>
<path d="M14.6459 40.9243C14.9203 40.8933 15.1981 40.9188 15.4624 40.9991C15.7267 41.0794 15.972 41.213 16.1832 41.3916C16.3945 41.5702 16.5674 41.7901 16.6914 42.038C16.8153 42.2859 16.8878 42.5566 16.9043 42.8335C16.9208 43.1104 16.8811 43.3878 16.7875 43.6488C16.6938 43.9098 16.5484 44.1489 16.3598 44.3516C16.1713 44.5543 15.9437 44.7163 15.6908 44.8278C15.438 44.9393 15.1652 44.9979 14.8891 45H8.75941C8.55103 45 8.34469 44.9588 8.15217 44.8787C7.95965 44.7985 7.78472 44.6811 7.63737 44.5331C7.49002 44.385 7.37314 44.2093 7.2934 44.0158C7.21365 43.8224 7.17261 43.6151 7.17261 43.4057C7.17261 43.1964 7.21365 42.989 7.2934 42.7956C7.37314 42.6022 7.49002 42.4264 7.63737 42.2784C7.78472 42.1304 7.95965 42.0129 8.15217 41.9328C8.34469 41.8527 8.55103 41.8114 8.75941 41.8114H8.87458C8.79942 41.1682 8.97849 40.521 9.3733 40.0089C9.76811 39.4969 10.3471 39.161 10.9858 39.0734C11.6246 38.9859 12.272 39.1536 12.7889 39.5406C13.3059 39.9276 13.651 40.5029 13.7502 41.1429C14.0309 41.0114 14.3362 40.9413 14.6459 40.9372V40.9243Z" fill="white"/>
<g clip-path="url(#clip0_3901_2890)">
<path d="M49.27 26.37H40.73V28.44H49.27V26.37Z" fill="url(#paint2_linear_3901_2890)"/>
<path d="M47.93 17.98H42.08V19.77H47.93V17.98Z" fill="url(#paint3_linear_3901_2890)"/>
<path d="M46.67 16.56V13C46.4209 12.6179 46.11 12.28 45.75 12V10.75C45.75 10.5511 45.671 10.3603 45.5303 10.2197C45.3897 10.079 45.1989 10 45 10C44.8011 10 44.6103 10.079 44.4697 10.2197C44.329 10.3603 44.25 10.5511 44.25 10.75V12C43.8437 12.3396 43.5248 12.7717 43.32 13.26V16.56H46.67Z" fill="url(#paint4_linear_3901_2890)"/>
<path d="M47.15 21.2H42.85V24.94H47.15V21.2Z" fill="url(#paint5_linear_3901_2890)"/>
<path d="M41.84 42.34H44.29V29.87H42.36V30.18C42.36 32.29 42.36 36.64 41.87 42.01L41.84 42.34Z" fill="url(#paint6_linear_3901_2890)"/>
<path d="M47.62 29.87H45.71V42.34H48.13V42.01C47.66 36.32 47.63 31.84 47.64 30.18L47.62 29.87Z" fill="url(#paint7_linear_3901_2890)"/>
<path d="M41.7 44.05C41.56 45.38 41.37 47.14 41.12 48.96L41.07 49.3H44.29V43.77H41.73L41.7 44.05Z" fill="url(#paint8_linear_3901_2890)"/>
<path d="M45.71 49.3H48.92L48.87 49C48.64 47.35 48.45 45.7 48.29 44.09V43.81H45.71V49.3Z" fill="url(#paint9_linear_3901_2890)"/>
<path d="M44.29 50.73H40.87L40.82 50.99C40.66 51.99 40.48 53.05 40.29 54.09L40.22 54.45H44.29V50.73Z" fill="url(#paint10_linear_3901_2890)"/>
<path d="M49.12 50.73H45.71V54.45H49.77L49.7 54.09C49.51 53.09 49.33 52.02 49.16 50.99L49.12 50.73Z" fill="url(#paint11_linear_3901_2890)"/>
<path d="M50.35 61.76L50.26 61.83C49.1507 63.0054 48.538 64.5638 48.55 66.18V66.59L48.95 66.48C49.2486 66.3904 49.5583 66.3432 49.87 66.34C50.0715 66.3398 50.2725 66.3599 50.47 66.4L50.8 66.47V66.13C50.9741 64.4037 51.783 62.8036 53.07 61.64L53.49 61.27L53 61.14C52.7469 61.065 52.484 61.0279 52.22 61.03H51.84C51.4831 61.0946 51.143 61.2306 50.84 61.43C50.66 61.5129 50.4945 61.6243 50.35 61.76Z" fill="url(#paint12_linear_3901_2890)"/>
<path d="M52.17 66.73L52.57 66.66C52.8405 66.6096 53.1149 66.5828 53.39 66.58C53.6351 66.578 53.8797 66.6015 54.12 66.65L54.42 66.7V66.4C54.5401 65.6465 54.8199 64.9274 55.2407 64.291C55.6616 63.6546 56.2137 63.1155 56.86 62.71L57.33 62.42L56.84 62.18C56.5301 62.0214 56.1881 61.9359 55.84 61.93C55.5941 61.9287 55.35 61.9728 55.12 62.06H55.06C54.2406 62.4469 53.5396 63.0459 53.0297 63.795C52.5198 64.544 52.2195 65.4158 52.16 66.32L52.17 66.73Z" fill="url(#paint13_linear_3901_2890)"/>
<path d="M35.53 66.4V66.71L35.84 66.65C36.0698 66.5993 36.3047 66.5758 36.54 66.58C36.8217 66.5842 37.1026 66.6109 37.38 66.66L37.77 66.72V66.33C37.7105 65.4258 37.4102 64.554 36.9003 63.805C36.3904 63.0559 35.6894 62.4569 34.87 62.07C34.6199 61.9791 34.3561 61.9318 34.09 61.93C33.7413 61.931 33.3981 62.0168 33.09 62.18L32.6 62.42L33.07 62.71C33.7209 63.1124 34.2775 63.6503 34.702 64.287C35.1265 64.9237 35.4089 65.6444 35.53 66.4Z" fill="url(#paint14_linear_3901_2890)"/>
<path d="M39.2 66.15V66.49L39.52 66.42C39.7208 66.3798 39.9252 66.3597 40.13 66.36C40.4421 66.3585 40.7525 66.4058 41.05 66.5L41.45 66.62V66.2C41.4578 64.6021 40.8571 63.0611 39.77 61.89L39.66 61.8C39.5219 61.679 39.3748 61.5687 39.22 61.47C38.8101 61.1856 38.3283 61.0227 37.83 61C37.5655 61.0014 37.3027 61.0419 37.05 61.12L36.51 61.28L36.93 61.64C38.2214 62.8086 39.0307 64.4166 39.2 66.15Z" fill="url(#paint15_linear_3901_2890)"/>
<path d="M41.41 61.54L41.62 61.86C42.4476 63.1427 42.8948 64.6336 42.91 66.16V66.56L43.29 66.45C43.8461 66.2896 44.4213 66.2055 45 66.2C45.5693 66.199 46.1356 66.2832 46.68 66.45L47.06 66.56V66.16C47.076 64.6351 47.5195 63.1454 48.34 61.86L48.55 61.54L48.2 61.4C46.1277 60.5471 43.8023 60.5471 41.73 61.4L41.41 61.54Z" fill="url(#paint16_linear_3901_2890)"/>
<path d="M40 60.24L40.22 60.38L40.36 60.47L40.5 60.39C41.6036 59.8568 42.7911 59.5185 44.01 59.39H44.29V55.88H39.92L39.87 56.12C39.61 57.33 39.35 58.44 39.07 59.51L39 59.78L39.26 59.88C39.5186 59.9736 39.7667 60.0943 40 60.24Z" fill="url(#paint17_linear_3901_2890)"/>
<path d="M45.71 59.37H45.99C47.2052 59.5012 48.3889 59.8394 49.49 60.37H49.71L49.86 60.26C49.8959 60.2277 49.9363 60.2007 49.98 60.18C50.2216 60.0283 50.4759 59.8978 50.74 59.79L50.99 59.69L50.92 59.43C50.64 58.37 50.38 57.27 50.12 56.05V55.81H45.71V59.37Z" fill="url(#paint18_linear_3901_2890)"/>
<path d="M74.92 71.35H57.27C56.2699 70.4907 55.3889 69.502 54.65 68.41V68.31H54.56V68.25H54.46C54.1437 68.115 53.8039 68.0437 53.46 68.04C53.2552 68.0406 53.051 68.0607 52.85 68.1L52.48 68.18L52.64 68.53C53.1669 69.6017 53.8815 70.5703 54.75 71.39H52.76C51.9668 70.4808 51.3679 69.4191 51 68.27L50.93 68.05H50.78C50.497 67.8859 50.177 67.7965 49.85 67.79C49.5548 67.798 49.2649 67.8696 49 68L48.75 68.1L48.82 68.36C49.0878 69.3977 49.4667 70.4035 49.95 71.36H48.38C47.9506 70.3946 47.6157 69.3899 47.38 68.36V68.22L47.25 68.16C46.5487 67.8196 45.7796 67.6418 45 67.64C44.2368 67.6452 43.4847 67.823 42.8 68.16L42.67 68.22V68.36C42.4251 69.3873 42.0905 70.3912 41.67 71.36H40C40.488 70.4055 40.867 69.3992 41.13 68.36L41.2 68.1L41 68C40.7479 67.8888 40.4755 67.831 40.2 67.83C39.8721 67.8303 39.5505 67.9202 39.27 68.09H39.11L39.05 68.31C38.6633 69.4473 38.051 70.4948 37.25 71.39H35.3C36.1661 70.5659 36.8833 69.5983 37.42 68.53L37.58 68.18L37.2 68.1C37.0024 68.0607 36.8015 68.0406 36.6 68.04C36.2562 68.0442 35.9165 68.1155 35.6 68.25H35.5V68.31H35.41V68.41C34.6719 69.5026 33.7907 70.4914 32.79 71.35H15.08C14.8963 71.334 14.7113 71.3564 14.5368 71.4158C14.3622 71.4751 14.2019 71.5701 14.066 71.6947C13.9301 71.8193 13.8216 71.9707 13.7473 72.1395C13.6731 72.3083 13.6348 72.4906 13.6348 72.675C13.6348 72.8594 13.6731 73.0417 13.7473 73.2105C13.8216 73.3793 13.9301 73.5307 14.066 73.6553C14.2019 73.7799 14.3622 73.8749 14.5368 73.9342C14.7113 73.9936 14.8963 74.016 15.08 74H74.92C75.1037 74.016 75.2887 73.9936 75.4632 73.9342C75.6378 73.8749 75.7981 73.7799 75.934 73.6553C76.0699 73.5307 76.1784 73.3793 76.2526 73.2105C76.3269 73.0417 76.3652 72.8594 76.3652 72.675C76.3652 72.4906 76.3269 72.3083 76.2526 72.1395C76.1784 71.9707 76.0699 71.8193 75.934 71.6947C75.7981 71.5701 75.6378 71.4751 75.4632 71.4158C75.2887 71.3564 75.1037 71.334 74.92 71.35Z" fill="url(#paint19_linear_3901_2890)"/>
</g>
<defs>
<linearGradient id="paint0_linear_3901_2890" x1="45.256" y1="0.257143" x2="45.256" y2="86.6571" gradientUnits="userSpaceOnUse">
<stop stop-color="#EAF7FF"/>
<stop offset="1" stop-color="white"/>
</linearGradient>
<linearGradient id="paint1_linear_3901_2890" x1="45.256" y1="0.257143" x2="45.256" y2="90.2571" gradientUnits="userSpaceOnUse">
<stop stop-color="#E90808" stop-opacity="0.3"/>
<stop offset="1" stop-color="#E90808" stop-opacity="0"/>
</linearGradient>
<linearGradient id="paint2_linear_3901_2890" x1="45" y1="26.37" x2="45" y2="28.44" gradientUnits="userSpaceOnUse">
<stop stop-color="#E90808"/>
<stop offset="1" stop-color="#E90808" stop-opacity="0"/>
</linearGradient>
<linearGradient id="paint3_linear_3901_2890" x1="45.005" y1="17.98" x2="45.005" y2="19.77" gradientUnits="userSpaceOnUse">
<stop stop-color="#E90808"/>
<stop offset="1" stop-color="#E90808" stop-opacity="0"/>
</linearGradient>
<linearGradient id="paint4_linear_3901_2890" x1="44.995" y1="10" x2="44.995" y2="16.56" gradientUnits="userSpaceOnUse">
<stop stop-color="#E90808"/>
<stop offset="1" stop-color="#E90808" stop-opacity="0"/>
</linearGradient>
<linearGradient id="paint5_linear_3901_2890" x1="45" y1="21.2" x2="45" y2="24.94" gradientUnits="userSpaceOnUse">
<stop stop-color="#E90808"/>
<stop offset="1" stop-color="#E90808" stop-opacity="0"/>
</linearGradient>
<linearGradient id="paint6_linear_3901_2890" x1="43.065" y1="29.87" x2="43.065" y2="42.34" gradientUnits="userSpaceOnUse">
<stop stop-color="#E90808"/>
<stop offset="1" stop-color="#E90808" stop-opacity="0"/>
</linearGradient>
<linearGradient id="paint7_linear_3901_2890" x1="46.92" y1="29.87" x2="46.92" y2="42.34" gradientUnits="userSpaceOnUse">
<stop stop-color="#E90808"/>
<stop offset="1" stop-color="#E90808" stop-opacity="0"/>
</linearGradient>
<linearGradient id="paint8_linear_3901_2890" x1="42.68" y1="43.77" x2="42.68" y2="49.3" gradientUnits="userSpaceOnUse">
<stop stop-color="#E90808"/>
<stop offset="1" stop-color="#E90808" stop-opacity="0"/>
</linearGradient>
<linearGradient id="paint9_linear_3901_2890" x1="47.315" y1="43.81" x2="47.315" y2="49.3" gradientUnits="userSpaceOnUse">
<stop stop-color="#E90808"/>
<stop offset="1" stop-color="#E90808" stop-opacity="0"/>
</linearGradient>
<linearGradient id="paint10_linear_3901_2890" x1="42.255" y1="50.73" x2="42.255" y2="54.45" gradientUnits="userSpaceOnUse">
<stop stop-color="#E90808"/>
<stop offset="1" stop-color="#E90808" stop-opacity="0"/>
</linearGradient>
<linearGradient id="paint11_linear_3901_2890" x1="47.74" y1="50.73" x2="47.74" y2="54.45" gradientUnits="userSpaceOnUse">
<stop stop-color="#E90808"/>
<stop offset="1" stop-color="#E90808" stop-opacity="0"/>
</linearGradient>
<linearGradient id="paint12_linear_3901_2890" x1="51.0199" y1="61.0299" x2="51.0199" y2="66.59" gradientUnits="userSpaceOnUse">
<stop stop-color="#E90808"/>
<stop offset="1" stop-color="#E90808" stop-opacity="0"/>
</linearGradient>
<linearGradient id="paint13_linear_3901_2890" x1="54.745" y1="61.93" x2="54.745" y2="66.73" gradientUnits="userSpaceOnUse">
<stop stop-color="#E90808"/>
<stop offset="1" stop-color="#E90808" stop-opacity="0"/>
</linearGradient>
<linearGradient id="paint14_linear_3901_2890" x1="35.185" y1="61.93" x2="35.185" y2="66.72" gradientUnits="userSpaceOnUse">
<stop stop-color="#E90808"/>
<stop offset="1" stop-color="#E90808" stop-opacity="0"/>
</linearGradient>
<linearGradient id="paint15_linear_3901_2890" x1="38.98" y1="61" x2="38.98" y2="66.62" gradientUnits="userSpaceOnUse">
<stop stop-color="#E90808"/>
<stop offset="1" stop-color="#E90808" stop-opacity="0"/>
</linearGradient>
<linearGradient id="paint16_linear_3901_2890" x1="44.98" y1="60.7603" x2="44.98" y2="66.56" gradientUnits="userSpaceOnUse">
<stop stop-color="#E90808"/>
<stop offset="1" stop-color="#E90808" stop-opacity="0"/>
</linearGradient>
<linearGradient id="paint17_linear_3901_2890" x1="41.645" y1="55.88" x2="41.645" y2="60.47" gradientUnits="userSpaceOnUse">
<stop stop-color="#E90808"/>
<stop offset="1" stop-color="#E90808" stop-opacity="0"/>
</linearGradient>
<linearGradient id="paint18_linear_3901_2890" x1="48.35" y1="55.81" x2="48.35" y2="60.37" gradientUnits="userSpaceOnUse">
<stop stop-color="#E90808"/>
<stop offset="1" stop-color="#E90808" stop-opacity="0"/>
</linearGradient>
<linearGradient id="paint19_linear_3901_2890" x1="45" y1="67.64" x2="45" y2="74.005" gradientUnits="userSpaceOnUse">
<stop stop-color="#E90808"/>
<stop offset="1" stop-color="#E90808" stop-opacity="0"/>
</linearGradient>
<clipPath id="clip0_3901_2890">
<rect width="64" height="64" fill="white" transform="translate(13 10)"/>
</clipPath>
</defs>
</svg>
