<svg width="379" height="152" viewBox="0 0 379 152" fill="none" xmlns="http://www.w3.org/2000/svg">
<path fill-rule="evenodd" clip-rule="evenodd" d="M154.095 60.9452C154.645 46.3474 167.557 38.0372 192.831 36.0153C230.744 32.9833 229.37 7.79941 254.645 1.49866C279.919 -4.80209 324.974 8.89517 330.194 40.1252C335.413 71.3552 373.325 106.968 330.194 111.351C287.062 115.734 275.799 130.801 244.479 126.418C213.161 122.035 165.908 121.213 158.216 97.9277C153.088 82.4038 151.714 70.0767 154.095 60.9452Z" fill="url(#paint0_linear_89_1572)"/>
<path d="M316.329 65.9694C319.608 65.9694 322.266 63.3112 322.266 60.0321C322.266 56.7531 319.608 54.0949 316.329 54.0949C313.05 54.0949 310.392 56.7531 310.392 60.0321C310.392 63.3112 313.05 65.9694 316.329 65.9694Z" fill="url(#paint1_linear_89_1572)"/>
<path fill-rule="evenodd" clip-rule="evenodd" d="M203.471 79.823H252.338C251.886 78.5564 250.217 77.2304 247.333 75.8477C247.333 73.0644 244.923 71.0761 242.914 70.4883C241.452 70.0595 239.827 70.0595 238.039 70.4883C234.861 67.4339 231.551 67.6305 228.11 71.0761C226.844 65.9074 224.836 65.1125 222.425 64.3169C220.015 63.5213 213.611 63.6994 210.082 70.4883C203.87 70.7186 201.666 73.8303 203.471 79.823ZM178.81 65.3097H207.479C207.214 64.5709 206.235 63.7977 204.543 62.9909C204.543 61.3674 203.128 60.207 201.95 59.8639C201.093 59.6146 200.139 59.6146 199.09 59.8639C197.225 58.0827 195.284 58.1975 193.265 60.207C192.522 57.1922 191.344 56.7284 189.93 56.2646C188.516 55.8009 184.759 55.9044 182.689 59.8646C179.044 59.9985 177.751 61.8133 178.81 65.3097Z" fill="#E90808" fill-opacity="0.1"/>
<path fill-rule="evenodd" clip-rule="evenodd" d="M328.975 40.0025C332.501 41.2473 334.265 42.5951 334.265 44.0477C334.472 43.01 336.65 41.973 340.798 40.9359C336.65 43.2178 334.368 44.7734 333.953 45.6033C333.331 43.5285 331.672 41.6623 328.975 40.0025ZM341.776 44.0029C344.295 44.8921 345.554 45.8546 345.554 46.8923C345.703 46.1515 347.258 45.4107 350.221 44.6692C347.258 46.2993 345.629 47.4109 345.332 48.0033C344.888 46.5216 343.703 45.1883 341.777 44.0029H341.776Z" fill="#967146"/>
<path fill-rule="evenodd" clip-rule="evenodd" d="M378.754 149.61V133.122H349.49V120.239H343.799V95.8365H334.957L329.247 84.7285L323.717 95.6557H317.424V88.4597H310.233V80.0057H297.366V120.538H288.655V113.927H280.91V120.232H265.586V101.658H258.989V98.216H257.187L256.287 92.2207L255.389 98.216H253.901V101.282H247.899V118.907H242.207V112.407H234.71V134.626H225.768V149.61H378.754ZM307.534 82.4598V85.4568H304.537V82.4591L307.534 82.4598ZM302.739 82.4598V85.4568H299.742V82.4591L302.739 82.4598ZM307.534 87.2558V90.2535H304.537V87.2558H307.534ZM302.739 87.2558V90.2535H299.742V87.2558H302.739ZM340.5 100.446V103.444H337.503V100.446H340.5ZM335.705 100.446V103.444H332.708V100.446H335.705ZM340.5 105.242V108.241H337.503V105.242H340.5ZM335.705 105.242V108.241H332.708V105.242H335.705ZM330.31 100.446V103.444H327.313V100.446H330.31ZM325.516 100.446V103.444H322.519V100.446H325.516ZM330.31 105.242V108.241H327.313V105.242H330.31ZM325.516 105.242V108.241H322.519V105.242H325.516ZM320.121 100.446V103.444H317.124V100.446H320.121ZM320.121 105.242V108.241H317.124V105.242H320.121Z" fill="url(#paint2_linear_89_1572)" fill-opacity="0.6"/>
<path fill-rule="evenodd" clip-rule="evenodd" d="M326.778 147.555C329.655 147.67 331.208 147.095 331.438 145.83C331.783 143.932 329.604 142.034 329.366 141.344C329.13 140.654 329.712 139.791 330.575 138.756C331.438 137.721 332.646 135.995 330.575 134.443C328.504 132.89 330.747 130.992 329.367 129.784C327.986 128.577 324.708 126.161 324.018 127.714C323.328 129.267 324.535 130.647 324.881 132.027C325.226 133.407 323.5 133.925 322.983 134.96C322.465 135.995 322.12 136.858 323.5 138.411C324.881 139.964 321.775 141.344 321.775 142.725C321.775 144.105 323.705 146.175 325.226 146.866C326.239 147.326 326.757 147.556 326.778 147.556V147.555Z" fill="url(#paint3_linear_89_1572)" fill-opacity="0.2"/>
<path fill-rule="evenodd" clip-rule="evenodd" d="M326.813 150.411C326.373 148.389 325.989 146.873 325.66 145.863C325.166 144.346 324.672 143.167 325.66 141.314C325.84 140.978 326.019 140.546 326.19 140.054C326.217 139.976 325.063 138.531 325.09 138.45C325.121 138.353 326.334 139.618 326.365 139.517C327.044 137.318 327.515 134.29 327.142 132.891C327.383 133.693 327.389 134.879 327.274 136.118C327.267 136.193 327.802 136.072 328.877 135.755C327.773 136.332 327.218 136.647 327.211 136.701C326.974 138.665 326.482 140.634 326.182 141.314C325.796 142.187 325.635 142.876 325.834 144.201C325.848 144.291 327.873 143.408 327.889 143.504C327.903 143.583 325.908 144.639 325.925 144.723C325.991 145.062 326.076 145.438 326.182 145.863C326.602 147.547 326.923 149.063 327.142 150.411H326.813Z" fill="#E90808" fill-opacity="0.1"/>
<path fill-rule="evenodd" clip-rule="evenodd" d="M345.059 145.57C348.785 145.719 350.796 144.974 351.095 143.335C351.541 140.875 348.719 138.417 348.412 137.523C348.104 136.628 348.859 135.511 349.977 134.169C351.094 132.828 352.659 130.592 349.977 128.58C347.294 126.568 350.2 124.109 348.412 122.544C346.623 120.979 342.376 117.85 341.482 119.862C340.588 121.874 342.153 123.662 342.6 125.451C343.047 127.239 340.812 127.91 340.141 129.251C339.47 130.592 339.024 131.71 340.812 133.722C342.599 135.734 338.576 137.521 338.576 139.31C338.576 141.098 341.076 143.781 343.047 144.676C344.36 145.271 345.031 145.57 345.059 145.57Z" fill="url(#paint4_linear_89_1572)"/>
<path fill-rule="evenodd" clip-rule="evenodd" d="M345.386 149.61C344.789 146.928 344.268 144.916 343.821 143.574C343.15 141.563 342.48 139.998 343.821 137.539C344.065 137.092 344.309 136.52 344.54 135.867C344.577 135.763 343.01 133.847 343.047 133.739C343.09 133.609 344.737 135.288 344.779 135.154C345.699 132.237 346.339 128.217 345.833 126.362C346.16 127.426 346.168 128.999 346.011 130.643C346.002 130.744 346.728 130.583 348.188 130.162C346.689 130.927 345.936 131.346 345.927 131.417C345.606 134.024 344.937 136.637 344.529 137.539C344.004 138.698 343.787 139.612 344.058 141.371C344.076 141.489 346.824 140.318 346.847 140.445C346.866 140.551 344.158 141.951 344.181 142.062C344.27 142.512 344.385 143.012 344.529 143.575C345.1 145.81 345.535 147.822 345.833 149.611L345.386 149.61Z" fill="#53B973"/>
<path fill-rule="evenodd" clip-rule="evenodd" d="M27.0475 150.063L99.6154 151.142L66.085 128.818C65.5653 128.472 64.958 128.281 64.3338 128.266C63.7097 128.252 63.0942 128.415 62.559 128.736L27.0475 150.063Z" fill="url(#paint5_linear_89_1572)"/>
<path fill-rule="evenodd" clip-rule="evenodd" d="M4.1264 147.08C6.49734 147.175 7.77781 146.7 7.96781 145.657C8.25214 144.092 6.45578 142.527 6.26051 141.958C6.06458 141.389 6.54484 140.678 7.25665 139.824C7.96781 138.971 8.96395 137.548 7.25665 136.267C5.5487 134.987 7.39849 133.422 6.26051 132.426C5.12188 131.43 2.4191 129.438 1.84979 130.718C1.28047 131.998 2.27661 133.137 2.56094 134.275C2.84593 135.413 1.42296 135.84 0.996141 136.693C0.569318 137.547 0.284329 138.258 1.42296 139.539C2.56094 140.82 0 141.958 0 143.096C0 144.234 1.59185 145.942 2.84593 146.51C3.68176 146.89 4.10925 147.08 4.1264 147.08Z" fill="url(#paint6_linear_89_1572)" fill-opacity="0.2"/>
<path fill-rule="evenodd" clip-rule="evenodd" d="M4.15411 149.434C3.79194 147.767 3.47528 146.517 3.20415 145.684C2.79646 144.434 2.38876 143.461 3.20415 141.933C3.35192 141.656 3.49969 141.3 3.64087 140.895C3.6633 140.83 2.71136 139.639 2.73313 139.572C2.75951 139.492 3.75961 140.535 3.78534 140.452C4.34476 138.639 4.73332 136.141 4.42525 134.988C4.62447 135.649 4.62975 136.627 4.5341 137.649C4.52882 137.711 4.96949 137.611 5.85679 137.35C4.9464 137.825 4.48858 138.085 4.48264 138.13C4.28803 139.75 3.88232 141.373 3.63361 141.933C3.31498 142.654 3.18304 143.222 3.3473 144.315C3.35852 144.387 5.02821 143.66 5.04206 143.739C5.05328 143.805 3.40865 144.675 3.42185 144.744C3.4766 145.023 3.54653 145.334 3.63361 145.684C3.98061 147.073 4.24449 148.322 4.42525 149.434H4.15411Z" fill="#E90808" fill-opacity="0.1"/>
<path fill-rule="evenodd" clip-rule="evenodd" d="M89.0589 150.596H135.06L113.722 136.75C113.184 136.401 112.557 136.217 111.917 136.219C111.276 136.221 110.65 136.409 110.115 136.761L89.0589 150.596Z" fill="url(#paint7_linear_89_1572)"/>
<defs>
<linearGradient id="paint0_linear_89_1572" x1="10033.7" y1="0" x2="10033.7" y2="12720.9" gradientUnits="userSpaceOnUse">
<stop stop-color="white" stop-opacity="0.5"/>
<stop offset="1" stop-color="white"/>
</linearGradient>
<linearGradient id="paint1_linear_89_1572" x1="310.392" y1="54.0949" x2="1497.84" y2="1241.55" gradientUnits="userSpaceOnUse">
<stop stop-color="#FDD339"/>
<stop offset="1" stop-color="#FCA222"/>
</linearGradient>
<linearGradient id="paint2_linear_89_1572" x1="-7270.55" y1="80.0057" x2="-7270.55" y2="6750.62" gradientUnits="userSpaceOnUse">
<stop stop-color="#EC5556" stop-opacity="0.22"/>
<stop offset="1" stop-color="#EFE8EE"/>
</linearGradient>
<linearGradient id="paint3_linear_89_1572" x1="818.962" y1="127.209" x2="818.962" y2="2163.28" gradientUnits="userSpaceOnUse">
<stop stop-color="#E90808"/>
<stop offset="1" stop-color="#F5BBBC"/>
</linearGradient>
<linearGradient id="paint4_linear_89_1572" x1="982.67" y1="119.208" x2="982.67" y2="2757.24" gradientUnits="userSpaceOnUse">
<stop stop-color="#78D695"/>
<stop offset="1" stop-color="#A6F693"/>
</linearGradient>
<linearGradient id="paint5_linear_89_1572" x1="3655.44" y1="128.265" x2="3655.44" y2="2320.68" gradientUnits="userSpaceOnUse">
<stop stop-color="#F6F4F6"/>
<stop offset="1" stop-color="white"/>
</linearGradient>
<linearGradient id="paint6_linear_89_1572" x1="409.964" y1="130.302" x2="409.964" y2="1809.21" gradientUnits="userSpaceOnUse">
<stop stop-color="#E90808"/>
<stop offset="1" stop-color="#F5BBBC"/>
</linearGradient>
<linearGradient id="paint7_linear_89_1572" x1="2389.09" y1="136.219" x2="2389.09" y2="1514.05" gradientUnits="userSpaceOnUse">
<stop stop-color="#F6F4F6"/>
<stop offset="1" stop-color="white"/>
</linearGradient>
</defs>
</svg>
