<svg width="56" height="56" viewBox="0 0 56 56" fill="none" xmlns="http://www.w3.org/2000/svg">
    <path d="M27.9993 51.9343C34.3471 51.9343 40.4349 49.4127 44.9235 44.9241C49.412 40.4356 51.9337 34.3477 51.9337 28C51.9337 21.6522 49.412 15.5643 44.9235 11.0758C40.4349 6.5872 34.3471 4.06555 27.9993 4.06555C27.3833 4.06555 26.7785 4.06555 26.1737 4.13275C19.9956 4.59661 14.2381 7.43803 10.1119 12.0595C5.98567 16.681 3.81226 22.7224 4.0487 28.9134C4.28514 35.1043 6.91301 40.9624 11.3797 45.2557C15.8464 49.549 21.8038 51.9431 27.9993 51.9343Z" fill="white"/>
    <path fill-rule="evenodd" clip-rule="evenodd" d="M33.1509 36.568V36.4784C32.924 36.5067 32.6945 36.5067 32.4677 36.4784L32.3445 36.5456H32.2885H32.2325H32.1653H32.0981H32.0197H31.9525H31.8741H31.7957H31.7173H31.5829H31.4933H31.4037H31.3141H31.2245H31.1237H31.0229H30.8661H30.7653H30.5973H30.4853H30.3173H30.1381H29.9477H29.8245L29.6229 36.6016H29.4325C29.3704 36.6172 29.3103 36.6397 29.2533 36.6688L21.4133 40.0288L17.3477 48.2832L18.0421 48.6192L21.8949 40.7792L29.7909 37.4192L29.9589 37.3632H30.1605L30.3509 37.3072H30.4853L30.2389 38.08H30.4181H30.5973H30.7093H30.8661H30.9781H31.1349H31.2357H31.3253H31.4261H31.5157H31.6053H31.6949H31.8181H31.8965H31.9749H32.0533H32.1317H32.1989H32.2661H32.3333H32.3893H32.4565H32.5125H32.5685H32.6245C32.8377 37.9946 33.0106 37.8316 33.1083 37.6237C33.206 37.4158 33.2212 37.1786 33.1509 36.96C33.1811 36.8615 33.1811 36.7561 33.1509 36.6576V36.6016V36.568Z" fill="#7A8B9E"/>
    <path fill-rule="evenodd" clip-rule="evenodd" d="M28.3934 18.1441L27.0718 20.3841C26.0667 21.6918 24.9419 22.9029 23.7118 24.0017H23.5886H23.4878H23.3982H23.3086H23.1406C22.8046 23.9345 22.6142 23.8673 22.6814 23.8337C23.5886 23.1281 29.155 17.9425 28.035 15.2657L27.755 14.5601C28.089 14.98 28.3571 15.4483 28.5502 15.9489C28.7789 16.6739 28.7228 17.4589 28.3934 18.1441Z" fill="#7A8B9E"/>
    <path fill-rule="evenodd" clip-rule="evenodd" d="M13.2939 31.36L13.6411 30.4864L13.8203 30.0272L13.9659 29.6576L14.0667 29.4L14.2347 28.9968L14.3467 28.7168L14.5147 28.2912V28.1456L14.6379 27.8544L14.7611 27.552L14.8283 27.4064L14.9515 27.104V26.9472L15.0859 26.6448L15.2091 26.3424C16.5307 23.2064 18.0539 19.936 18.8043 19.544C19.1931 19.3177 19.5672 19.0671 19.9243 18.7936L20.0251 18.704L20.1259 18.6144L20.2379 18.5248L20.3499 18.4352L20.4731 18.3344L20.5963 18.2336L20.7195 18.1328L20.8427 18.0208L20.9771 17.9088L21.1115 17.7968L21.2571 17.6736L21.4027 17.5504L21.5483 17.4272L21.6939 17.2928L21.8507 17.1584L22.0075 17.024L22.3995 16.8L22.5675 16.6656L22.7355 16.5088L22.9035 16.3632L23.0715 16.2064L23.2507 16.0496L23.4299 15.8816L23.5195 15.68L23.7995 15.4224L23.9899 15.2432L24.1915 15.064L24.4939 14.7952L24.8075 14.504L25.0091 14.3136L25.2331 14.1232L25.4459 13.9216L25.6699 13.72C25.7852 13.5966 25.9268 13.5009 26.0843 13.44C25.9167 13.2986 25.7044 13.2211 25.4851 13.2211C25.2658 13.2211 25.0536 13.2986 24.8859 13.44L24.6619 13.6416L24.4491 13.8432L24.2363 14.0336L24.0235 14.224L23.7099 14.5152L23.4075 14.784L23.2171 14.9632L23.0267 15.1424L22.7355 15.4L22.5563 15.5568L22.3995 15.68L22.2203 15.8368L22.0411 15.9936L21.8731 16.1392L21.7051 16.296L21.5371 16.4416L21.3803 16.576L21.2235 16.7104L21.0667 16.8448L20.9211 16.9792L20.7755 17.1024L20.6299 17.2256L20.4955 17.3488L20.3611 17.4608L20.2267 17.5728L20.0923 17.6848L19.9691 17.7856L19.8235 17.92L19.7115 18.0208H19.6443L19.5323 18.1104L19.4203 18.2L19.3195 18.2896H19.2635L19.1627 18.368C18.8086 18.6456 18.4342 18.8965 18.0427 19.1184C17.2923 19.5104 15.8027 22.792 14.4587 25.9168L14.3243 26.2192L14.2011 26.5328L14.1339 26.6784L14.0107 26.9808L13.9435 27.1376L13.8203 27.4288L13.7083 27.72L13.6411 27.8656L13.4731 28.2912L13.3611 28.5712L13.2043 28.9744L13.0923 29.232L12.9467 29.6016L12.7675 30.0608L12.4203 30.9456C12.1963 32.0208 10.3296 34.7946 6.82031 39.2672C6.96591 39.536 7.12271 39.7936 7.27951 40.0624C11.0576 35.3509 13.0624 32.4501 13.2939 31.36Z" fill="white"/>
    <path fill-rule="evenodd" clip-rule="evenodd" d="M23.1949 31.4272C22.9418 31.2845 22.7199 31.0926 22.5422 30.8627C22.3646 30.6328 22.2349 30.3697 22.1608 30.0888C22.0866 29.8079 22.0696 29.515 22.1106 29.2274C22.1516 28.9398 22.2499 28.6633 22.3997 28.4144L24.8637 24.2032H24.6509H24.5277H24.3261H24.2029H24.0797H23.9677H23.8557H23.7437H23.6317H23.5309H23.4413H23.3517H23.1837C22.8477 24.136 22.6573 24.0688 22.7245 24.0352C23.6317 23.3296 29.1981 18.144 28.0781 15.4672C27.3277 13.6864 26.5437 13.2272 25.7149 13.9664L25.5021 14.1792L25.2781 14.3696L25.0653 14.5712L24.8525 14.7616L24.2477 15.3216L24.0461 15.5008L23.8557 15.6688L23.5757 15.9264L23.3853 16.0944L23.2061 16.2624L23.0269 16.4192L22.8477 16.576L22.6797 16.7216L22.5117 16.8672L22.3997 16.8L22.2317 16.9456L22.0749 17.08L21.9293 17.2144L21.7725 17.3488L21.6269 17.472L21.4925 17.5952L21.3469 17.7072L21.2125 17.8304L21.0781 17.9424L20.9549 18.0432L20.8205 18.1552L20.6973 18.256L20.5853 18.3568C20.5669 18.352 20.5476 18.352 20.5293 18.3568L20.4173 18.4464L20.3053 18.536L20.1933 18.6256L20.0925 18.704C19.7416 18.9861 19.3668 19.2371 18.9725 19.4544C18.2221 19.8464 16.7325 23.128 15.3885 26.264L15.2541 26.5664L15.1309 26.8688L15.0637 27.0256L14.9405 27.328C14.9359 27.3764 14.9359 27.4251 14.9405 27.4736L14.8173 27.776L14.5597 28.112C14.5597 28.112 14.5597 28.2016 14.5597 28.2576L14.3805 28.6832L14.2685 28.952L14.1117 29.3552L14.0109 29.6128L13.8653 29.9936L13.6749 30.4528L13.3277 31.3264C13.1037 32.4464 11.0877 35.3696 7.41406 40.1072C9.68939 43.9721 12.998 47.1255 16.9677 49.2128L21.0445 40.9584L28.8845 37.5984C28.9415 37.5693 29.0016 37.5468 29.0637 37.5312H29.2541L29.4557 37.4752H29.5789H29.7693H29.9485H30.1165H30.2285H30.3965H30.4973H30.6541H30.7549H30.8557H30.9453H31.0349H31.1245H31.2141H31.3485H31.4269H31.5053H31.5837H31.6509H31.7293H31.7965H31.8525H31.9197H31.9757H32.0317H32.0877L32.2109 37.408C31.9717 37.3741 31.7404 37.2983 31.5277 37.184L23.1949 31.4272Z" fill="#D7B9B9"/>
    <path fill-rule="evenodd" clip-rule="evenodd" d="M22.8477 16.3296L22.6797 16.4752C22.9972 16.5293 23.3227 16.5142 23.6338 16.4311C23.945 16.348 24.2346 16.1988 24.4829 15.9936L26.3085 14.4144L26.4093 14.3248C26.6457 14.0923 26.8258 13.8088 26.9357 13.496C26.7444 13.3791 26.5169 13.3362 26.2962 13.3754C26.0754 13.4146 25.8766 13.5331 25.7373 13.7088L25.5245 13.9216L25.3005 14.112L25.0877 14.3136L24.8749 14.504L24.2701 15.064L24.0685 15.2432L23.8781 15.4112L23.5981 15.6688L23.4077 15.8368L23.2285 16.0048L23.0493 16.1616L22.8477 16.3296Z" fill="#97A5B5"/>
    <path fill-rule="evenodd" clip-rule="evenodd" d="M44.9228 16.9456H44.8108L44.3516 17.0464L46.0092 13.6864C46.0868 13.8121 46.1471 13.9477 46.1884 14.0896L46.278 14.4032C46.3621 14.6589 46.3935 14.9291 46.3704 15.1973C46.3473 15.4655 46.2701 15.7263 46.1435 15.9639C46.0168 16.2015 45.8434 16.4109 45.6336 16.5797C45.4238 16.7484 45.182 16.8729 44.9228 16.9456Z" fill="#7A8B9E"/>
    <path d="M45.9207 8.0752H42.7735H42.6727H39.7719H39.6375H36.4903C35.835 8.11604 35.1988 8.31199 34.6341 8.64692C34.0694 8.98185 33.5924 9.44616 33.2423 10.0016L28.3927 18.144L27.0711 20.384L24.8311 24.1584L22.4007 28.4144C22.251 28.6633 22.1527 28.9398 22.1116 29.2274C22.0706 29.515 22.0877 29.8079 22.1618 30.0888C22.2359 30.3697 22.3656 30.6329 22.5433 30.8627C22.7209 31.0926 22.9428 31.2846 23.1959 31.4272L31.7415 36.1872C31.9542 36.3015 32.1855 36.3774 32.4247 36.4112C32.6515 36.4395 32.881 36.4395 33.1079 36.4112C33.6102 36.3883 34.0985 36.2387 34.5273 35.9763C34.9562 35.7139 35.3117 35.3472 35.5607 34.9104L44.3527 17.08L46.0103 13.72L46.9511 11.816C48.1607 9.52 47.0407 8.0864 45.9207 8.0752ZM46.2455 10.5952L45.1255 12.8352L42.8855 17.3824L34.3847 34.4736C34.2406 34.8009 34.0143 35.0853 33.7278 35.2993C33.4412 35.5132 33.1042 35.6493 32.7495 35.6944H32.6151C32.4193 35.6928 32.2269 35.6428 32.0551 35.5488L23.5207 30.8784C23.3306 30.7742 23.1639 30.6322 23.0307 30.4612C22.8975 30.2903 22.8006 30.0938 22.7461 29.8841C22.6916 29.6743 22.6805 29.4556 22.7135 29.2414C22.7466 29.0272 22.8231 28.822 22.9383 28.6384L25.4807 24.248L33.7463 9.9568C34.0019 9.54779 34.352 9.20614 34.7672 8.96057C35.1823 8.715 35.6503 8.57268 36.1319 8.5456H38.7863H38.9879C38.9415 8.57826 38.9085 8.62658 38.8949 8.68166C38.8814 8.73674 38.8882 8.79486 38.9141 8.84532C38.94 8.89578 38.9833 8.93517 39.036 8.95625C39.0886 8.97732 39.1471 8.97865 39.2007 8.96H42.1239C42.2345 8.95042 42.3421 8.91872 42.4402 8.86677C42.5383 8.81482 42.625 8.74369 42.6951 8.6576H42.9191H45.5399C46.3911 8.7472 46.6823 9.5872 46.1895 10.5952H46.2455Z" fill="#42090D"/>
    <path d="M23.5218 30.912L31.9666 35.504C32.1901 35.5928 32.4289 35.6367 32.6694 35.633C32.9099 35.6292 33.1473 35.578 33.368 35.4823C33.5886 35.3865 33.7881 35.2481 33.9551 35.075C34.1221 34.9019 34.2532 34.6975 34.341 34.4736L46.1906 10.5952C46.6834 9.58716 46.4034 8.74716 45.541 8.73596H42.9202H42.6962C42.6279 8.82407 42.5417 8.89662 42.4432 8.94876C42.3447 9.00091 42.2362 9.03145 42.125 9.03836L39.2018 8.95996C39.1629 8.96145 39.1242 8.9537 39.0889 8.93737C39.0536 8.92103 39.0227 8.89656 38.9986 8.86597C38.9746 8.83538 38.9582 8.79953 38.9506 8.76136C38.9431 8.72319 38.9447 8.68378 38.9554 8.64636H38.7538H36.0994C35.638 8.67083 35.1885 8.80188 34.7863 9.02924C34.384 9.2566 34.0399 9.57408 33.781 9.95676L22.917 28.7056C22.715 29.0806 22.6651 29.519 22.7777 29.9298C22.8903 30.3407 23.1568 30.6924 23.5218 30.912Z" fill="white"/>
    <path d="M35.7041 16.2288C35.763 16.0982 35.7905 15.9557 35.7845 15.8126C35.7785 15.6695 35.7391 15.5298 35.6694 15.4047C35.5998 15.2795 35.5018 15.1724 35.3834 15.0919C35.2649 15.0113 35.1293 14.9596 34.9873 14.9408C34.6303 14.9187 34.2732 14.9824 33.9458 15.1266C33.6185 15.2708 33.3304 15.4913 33.1057 15.7696L31.8849 15.5568C31.7843 15.551 31.6841 15.5731 31.5952 15.6205C31.5063 15.6679 31.4322 15.7389 31.3809 15.8256C31.3548 15.8577 31.3376 15.896 31.3311 15.9369C31.3245 15.9777 31.3289 16.0195 31.3436 16.0581C31.3584 16.0967 31.3831 16.1308 31.4152 16.1568C31.4473 16.1828 31.4857 16.1999 31.5265 16.2064L32.7361 16.4304C32.6882 16.5626 32.6699 16.7037 32.6823 16.8437C32.6948 16.9838 32.7377 17.1194 32.8082 17.2411C32.8786 17.3628 32.9748 17.4676 33.0901 17.5481C33.2054 17.6286 33.3368 17.6829 33.4753 17.7072C33.826 17.7481 34.1813 17.6962 34.5056 17.5566C34.8299 17.4171 35.1119 17.1948 35.3233 16.912L37.6865 17.36C37.9181 17.0918 38.1996 16.8712 38.5153 16.7104L35.7041 16.2288ZM34.9761 16.464C34.9147 16.5928 34.827 16.7073 34.7185 16.8C34.6013 16.9147 34.4602 17.0022 34.3054 17.0564C34.1506 17.1106 33.9857 17.1301 33.8225 17.1136C33.6906 17.0968 33.5706 17.0285 33.4887 16.9236C33.4069 16.8187 33.3699 16.6857 33.3857 16.5536C33.3986 16.4278 33.4367 16.3059 33.4977 16.1952C33.5676 16.0785 33.6545 15.9729 33.7553 15.8816C33.873 15.7598 34.0168 15.6663 34.1759 15.6081C34.335 15.5499 34.5052 15.5285 34.6737 15.5456C34.7405 15.5522 34.8051 15.5726 34.8635 15.6056C34.9219 15.6386 34.9727 15.6834 35.0128 15.7372C35.0528 15.7909 35.0812 15.8525 35.0961 15.9178C35.111 15.9832 35.1121 16.051 35.0993 16.1168C35.0892 16.2413 35.0467 16.361 34.9761 16.464Z" fill="#848E9C"/>
    <path d="M37.8464 21.6608C37.81 21.6496 37.7709 21.6496 37.7344 21.6608L35.9648 21.28C36.088 21.1406 36.1934 20.9863 36.2784 20.8208C36.3252 20.7354 36.3628 20.6453 36.3904 20.552L37.1744 20.7536C37.3326 21.0996 37.5615 21.4087 37.8464 21.6608Z" fill="#848E9C"/>
    <path d="M35.4163 24.7073L32.7843 23.8225C32.8428 23.6803 32.8715 23.5276 32.8684 23.3739C32.8654 23.2202 32.8308 23.0688 32.7667 22.929C32.7026 22.7893 32.6104 22.6643 32.4959 22.5617C32.3814 22.4591 32.247 22.3812 32.1011 22.3329C31.7631 22.2557 31.4103 22.2758 31.0833 22.3908C30.7562 22.5057 30.4684 22.7108 30.2531 22.9825L28.0131 22.2433C27.919 22.2167 27.8186 22.2234 27.7289 22.2622C27.6392 22.3009 27.5655 22.3694 27.5203 22.4561C27.4953 22.4913 27.4788 22.5319 27.4721 22.5746C27.4654 22.6173 27.4687 22.661 27.4817 22.7022C27.4948 22.7435 27.5172 22.7811 27.5472 22.8122C27.5772 22.8434 27.614 22.8671 27.6547 22.8817L29.8947 23.6545C29.7886 23.9458 29.8006 24.2671 29.9283 24.5496C30.056 24.8322 30.2891 25.0536 30.5779 25.1665C30.9126 25.2603 31.268 25.2494 31.5964 25.1353C31.9248 25.0212 32.2103 24.8093 32.4147 24.5281L35.5507 25.6481C35.4526 25.3444 35.4071 25.0262 35.4163 24.7073ZM32.0563 24.0017C31.9978 24.1293 31.9047 24.2379 31.7875 24.3153C31.6737 24.4324 31.5302 24.5162 31.3722 24.5576C31.2143 24.5991 31.0481 24.5966 30.8915 24.5505C30.7546 24.5023 30.639 24.4074 30.5653 24.2824C30.4915 24.1574 30.4642 24.0104 30.4883 23.8673C30.4898 23.7375 30.5245 23.6103 30.5891 23.4977C30.6566 23.376 30.748 23.2694 30.8579 23.1841C30.976 23.0736 31.1197 22.9942 31.2761 22.9532C31.4326 22.9121 31.5967 22.9106 31.7539 22.9489C31.8899 22.9948 32.0052 23.0876 32.079 23.2107C32.1529 23.3338 32.1806 23.4792 32.1571 23.6209C32.1589 23.7532 32.1282 23.884 32.0675 24.0017H32.0563Z" fill="#848E9C"/>
    <path d="M38.6496 9.85596L40.128 9.94556L41.6064 10.08L40.7664 11.6704L38.952 12.208L37.832 11.48L38.6496 9.85596Z" fill="#ED1C24"/>
    <path fill-rule="evenodd" clip-rule="evenodd" d="M42.4697 23.3072C42.054 22.6548 41.3982 22.1921 40.6441 22.0192L39.6361 21.784L39.1321 21.672C38.7081 21.577 38.2682 21.577 37.8441 21.672C37.8077 21.6607 37.7686 21.6607 37.7321 21.672C37.2036 21.7984 36.7201 22.0681 36.3348 22.4515C35.9495 22.8348 35.6773 23.3169 35.5481 23.8448V24.0352C35.5024 24.2492 35.4725 24.4663 35.4585 24.6848C35.4483 24.9956 35.49 25.306 35.5817 25.6032C35.7144 26.0742 35.9619 26.505 36.302 26.8569C36.6421 27.2087 37.0642 27.4707 37.5305 27.6192L39.0201 28.0896H39.2105C39.5923 28.1866 39.9895 28.2069 40.3791 28.1495C40.7688 28.092 41.1432 27.9578 41.4806 27.7547C41.8181 27.5516 42.1119 27.2836 42.3452 26.9662C42.5784 26.6488 42.7463 26.2883 42.8393 25.9056L42.9177 25.592C43.0029 25.2007 43.0071 24.7962 42.93 24.4032C42.853 24.0103 42.6964 23.6373 42.4697 23.3072ZM42.1113 25.4352L42.0329 25.7712C41.8824 26.3313 41.5205 26.8112 41.0234 27.1099C40.5262 27.4086 39.9326 27.5028 39.3673 27.3728H39.2329L37.7321 26.88C37.2707 26.7121 36.8772 26.3973 36.6121 25.984C36.4504 25.7307 36.3413 25.4475 36.2912 25.1512C36.2412 24.8549 36.2513 24.5515 36.3209 24.2592V24.0576C36.4715 23.5069 36.8265 23.0345 37.3136 22.7369C37.8007 22.4392 38.3831 22.3387 38.9417 22.456L40.4537 22.8032C41.0171 22.9418 41.5047 23.2936 41.8139 23.7845C42.123 24.2755 42.2297 24.8672 42.1113 25.4352Z" fill="#EBE0E0"/>
    <path fill-rule="evenodd" clip-rule="evenodd" d="M36.2875 24.2592C36.1634 24.7988 36.2435 25.3652 36.5124 25.8491C36.7812 26.3331 37.2198 26.7003 37.7435 26.88L39.2219 27.3504H39.3675C39.9295 27.4777 40.5191 27.3834 41.0134 27.0872C41.5078 26.791 41.869 26.3157 42.0219 25.76L42.1115 25.424C42.2334 24.856 42.1299 24.2627 41.8227 23.7696C41.5155 23.2764 41.0287 22.9219 40.4651 22.7808L38.9531 22.4336C38.3929 22.3168 37.8092 22.4189 37.3219 22.7188C36.8345 23.0187 36.4804 23.4937 36.3323 24.0464L36.2875 24.2592Z" fill="#BAA0A0"/>
    <path fill-rule="evenodd" clip-rule="evenodd" d="M36.2539 25.0096C37.1198 25.0902 37.9877 24.8772 38.7179 24.4048C39.2924 23.979 39.6908 23.3574 39.8379 22.6576L38.9867 22.456C38.4265 22.3392 37.8429 22.4412 37.3555 22.7411C36.8682 23.041 36.5141 23.5161 36.3659 24.0688V24.2592C36.3496 24.3856 36.3496 24.5136 36.3659 24.64C36.317 24.7594 36.2795 24.8831 36.2539 25.0096Z" fill="#D7B9B9"/>
    <path fill-rule="evenodd" clip-rule="evenodd" d="M43.3879 17.0912L40.6215 16.4416C39.9089 16.2773 39.1608 16.3767 38.5159 16.7216C38.2001 16.8824 37.9186 17.103 37.6871 17.3712C37.3754 17.7285 37.1528 18.1545 37.0375 18.6144V18.7824C36.8749 19.4224 36.9382 20.0989 37.2167 20.6976C37.3679 21.0638 37.5973 21.3925 37.8887 21.6608C37.9173 21.703 37.9557 21.7376 38.0007 21.7616C38.3246 22.0412 38.7075 22.2441 39.1207 22.3552L41.8423 23.184H41.9991C42.1847 23.2375 42.3771 23.2639 42.5703 23.2624C43.2621 23.3086 43.948 23.1093 44.5072 22.6995C45.0665 22.2898 45.4634 21.6959 45.6279 21.0224L45.7175 20.6752C45.8043 20.2866 45.8127 19.8846 45.7421 19.4928C45.6715 19.101 45.5233 18.7272 45.3063 18.3933C45.0894 18.0595 44.8079 17.7724 44.4785 17.5488C44.149 17.3252 43.7783 17.1696 43.3879 17.0912ZM44.8439 20.4512L44.7655 20.8096C44.6103 21.3656 44.2464 21.8402 43.7498 22.1344C43.2531 22.4286 42.6621 22.5198 42.0999 22.3888H41.9879L39.7479 21.672L39.3335 21.5488C38.9672 21.4303 38.6362 21.2225 38.3703 20.944C38.1216 20.6807 37.9431 20.3591 37.8511 20.0088C37.7591 19.6585 37.7567 19.2907 37.8439 18.9392V18.7824C37.9716 18.2714 38.2825 17.825 38.7175 17.528C38.9717 17.3541 39.2591 17.2345 39.5617 17.1767C39.8642 17.1189 40.1754 17.1241 40.4759 17.192L41.7863 17.4944L43.2423 17.8416C43.7917 18.0015 44.2591 18.3656 44.5486 18.8592C44.8381 19.3528 44.9277 19.9384 44.7991 20.496L44.8439 20.4512Z" fill="#F1F1F1"/>
    <path fill-rule="evenodd" clip-rule="evenodd" d="M43.209 17.92L40.4426 17.2704C39.8855 17.1527 39.3044 17.2516 38.8175 17.5471C38.3307 17.8425 37.9747 18.3123 37.8218 18.8608V19.0176C37.7026 19.5599 37.7889 20.1271 38.0642 20.6092C38.3394 21.0914 38.7839 21.4542 39.3114 21.6272L42.0218 22.4672H42.145C42.7071 22.5945 43.2966 22.5002 43.791 22.204C44.2853 21.9078 44.6465 21.4325 44.7994 20.8768L44.889 20.5296C45.0002 19.9619 44.8874 19.3732 44.5742 18.8867C44.2611 18.4003 43.7718 18.0539 43.209 17.92Z" fill="#BAA0A0"/>
    <path fill-rule="evenodd" clip-rule="evenodd" d="M41.3724 17.4496L40.4428 17.2256C39.8856 17.1079 39.3045 17.2068 38.8177 17.5023C38.3308 17.7977 37.9748 18.2675 37.822 18.816V18.9728C37.7833 19.1989 37.7833 19.4299 37.822 19.656C38.6485 19.7107 39.4703 19.4945 40.1628 19.04C40.7231 18.6502 41.1463 18.0937 41.3724 17.4496Z" fill="#D7B9B9"/>
    <path fill-rule="evenodd" clip-rule="evenodd" d="M33.3655 29.12L33.4215 28.8736C33.5047 28.5084 33.6592 28.1634 33.8761 27.8581C34.0929 27.5528 34.3679 27.2934 34.6853 27.0946C35.0027 26.8959 35.3562 26.7618 35.7255 26.6999C36.0948 26.6381 36.4727 26.6498 36.8375 26.7344H36.9159L37.5095 26.88C38.244 27.0661 38.8779 27.5291 39.2788 28.1721C39.6796 28.8151 39.8162 29.5882 39.6599 30.3296L39.5927 30.6208C39.5082 30.9877 39.3522 31.3345 39.1336 31.6412C38.9151 31.9479 38.6383 32.2085 38.319 32.4082C37.9997 32.6079 37.6442 32.7427 37.2727 32.805C36.9013 32.8673 36.5213 32.8558 36.1543 32.7712C36.0331 32.7442 35.9134 32.7105 35.7959 32.6704L35.2247 32.48C34.5585 32.2428 34.0019 31.7704 33.6595 31.1516C33.3172 30.5329 33.2126 29.8104 33.3655 29.12ZM36.7255 27.5072H36.6695C36.3992 27.4416 36.1184 27.4317 35.8441 27.4781C35.5699 27.5245 35.308 27.6262 35.0743 27.7771C34.8407 27.928 34.6401 28.1249 34.485 28.3557C34.3299 28.5866 34.2233 28.8466 34.1719 29.12L34.1159 29.3776C34.0065 29.8812 34.0835 30.4074 34.3328 30.8585C34.582 31.3096 34.9865 31.6549 35.4711 31.8304L36.0311 32.0432L36.2887 32.1104C36.8263 32.2345 37.3912 32.1403 37.8595 31.8485C38.3277 31.5566 38.661 31.0909 38.7863 30.5536V30.2512C38.908 29.711 38.8131 29.1446 38.5221 28.6735C38.2311 28.2024 37.767 27.8641 37.2295 27.7312L36.7255 27.5072Z" fill="#EBE0E0"/>
    <path fill-rule="evenodd" clip-rule="evenodd" d="M37.2845 27.6977L36.7021 27.5521H36.6461C36.3805 27.4894 36.105 27.4804 35.8359 27.5257C35.5667 27.5709 35.3093 27.6694 35.0788 27.8155C34.8482 27.9615 34.6491 28.1522 34.4933 28.3762C34.3374 28.6002 34.2278 28.8531 34.1709 29.1201L34.1149 29.3777C34.0055 29.8813 34.0826 30.4075 34.3318 30.8586C34.581 31.3097 34.9855 31.655 35.4701 31.8305L36.0301 32.0433L36.2877 32.1105C36.8253 32.2346 37.3902 32.1404 37.8585 31.8486C38.3267 31.5567 38.6601 31.091 38.7853 30.5537V30.2513C38.9189 29.7139 38.8365 29.1456 38.556 28.6682C38.2754 28.1909 37.819 27.8424 37.2845 27.6977Z" fill="#BAA0A0"/>
    <path fill-rule="evenodd" clip-rule="evenodd" d="M36.2096 29.4336C36.7834 29.012 37.182 28.3941 37.3296 27.6976L36.7472 27.552H36.6912C36.4225 27.4825 36.1425 27.4683 35.8682 27.5103C35.5939 27.5522 35.3309 27.6495 35.0953 27.7961C34.8597 27.9427 34.6563 28.1356 34.4974 28.3632C34.3386 28.5908 34.2276 28.8482 34.1712 29.12L34.1152 29.3776C34.0762 29.6111 34.0762 29.8496 34.1152 30.0832C34.8646 30.0946 35.5982 29.8671 36.2096 29.4336Z" fill="#D7B9B9"/>
    <path fill-rule="evenodd" clip-rule="evenodd" d="M17.6628 35.4256C17.3926 35.2538 17.0661 35.194 16.7525 35.2588C16.4388 35.3236 16.1628 35.508 15.9828 35.7728L10.7748 43.4448L10.3828 44.1616C12.2583 46.2116 14.4752 47.9206 16.9348 49.2128L21.0116 40.9584L27.4516 38.2032C27.1135 38.3357 26.7651 38.4406 26.41 38.5168C24.4836 38.9723 21.5679 37.9419 17.6628 35.4256Z" fill="#BAA0A0"/>
    <path d="M33.7921 19.8352C33.7395 19.9111 33.6909 19.9896 33.6465 20.0704C33.5626 20.2198 33.5057 20.3829 33.4785 20.552L29.6257 19.5216C29.5845 19.5115 29.5465 19.4914 29.515 19.463C29.4834 19.4346 29.4594 19.3989 29.445 19.359C29.4306 19.3191 29.4263 19.2763 29.4324 19.2343C29.4385 19.1924 29.4549 19.1526 29.4801 19.1184C29.5291 19.031 29.6036 18.9606 29.6936 18.9165C29.7837 18.8725 29.885 18.857 29.9841 18.872L33.7921 19.8352Z" fill="#848E9C"/>
    <path fill-rule="evenodd" clip-rule="evenodd" d="M35.739 18.8944C35.3582 18.8483 34.9721 18.9125 34.6267 19.0793C34.2813 19.246 33.991 19.5084 33.7902 19.8352C33.7376 19.911 33.689 19.9895 33.6446 20.0704C33.5607 20.2198 33.5038 20.3828 33.4766 20.552C33.3904 20.8283 33.4146 21.1273 33.544 21.3862C33.6735 21.6452 33.8982 21.8439 34.171 21.9408C34.5068 22.0007 34.8527 21.9652 35.1694 21.8386C35.4862 21.7119 35.7611 21.499 35.963 21.224C36.0862 21.0845 36.1915 20.9303 36.2766 20.7648C36.3234 20.6794 36.3609 20.5893 36.3886 20.496C36.6574 19.7344 36.3998 19.04 35.739 18.8944ZM35.739 20.608C35.6473 20.7808 35.5216 20.9332 35.3694 21.056C35.2587 21.1525 35.1278 21.2228 34.9862 21.2616C34.8446 21.3003 34.6961 21.3066 34.5518 21.28C34.4296 21.2472 34.3221 21.1739 34.2469 21.0723C34.1716 20.9706 34.133 20.8464 34.1374 20.72C34.1217 20.548 34.1609 20.3755 34.2494 20.2272C34.2923 20.1402 34.349 20.0608 34.4174 19.992C34.5347 19.837 34.6904 19.7152 34.8691 19.6386C35.0478 19.562 35.2434 19.5333 35.4366 19.5552C35.5173 19.5775 35.5923 19.6166 35.6568 19.67C35.7214 19.7234 35.7739 19.7898 35.8109 19.8649C35.8479 19.94 35.8686 20.0221 35.8717 20.1057C35.8747 20.1894 35.86 20.2728 35.8286 20.3504C35.8036 20.4431 35.7618 20.5304 35.7054 20.608H35.739Z" fill="#39811B"/>
    </svg>
    