<svg width="56" height="56" viewBox="0 0 56 56" fill="none" xmlns="http://www.w3.org/2000/svg">
    <path d="M27.9993 51.9343C34.3471 51.9343 40.4349 49.4127 44.9235 44.9241C49.412 40.4356 51.9337 34.3477 51.9337 28C51.9337 21.6522 49.412 15.5643 44.9235 11.0758C40.4349 6.5872 34.3471 4.06555 27.9993 4.06555C27.3833 4.06555 26.7785 4.06555 26.1737 4.13275C19.9956 4.59661 14.2381 7.43803 10.1119 12.0595C5.98567 16.681 3.81226 22.7224 4.0487 28.9134C4.28514 35.1043 6.91301 40.9624 11.3797 45.2557C15.8464 49.549 21.8038 51.9431 27.9993 51.9343Z" fill="white"/>
    <path fill-rule="evenodd" clip-rule="evenodd" d="M39.7251 41.9104C36.4568 44.6566 32.3235 46.1599 28.0547 46.1552H27.4387C27.1027 46.1552 26.7555 46.1552 26.4195 46.1552C26.0835 46.1552 25.8259 46.088 25.5347 46.0432L24.6947 45.92L23.7539 45.7072L22.9923 45.5168C22.6899 45.4272 22.3875 45.3152 22.0851 45.2144L21.2787 44.856C20.9987 44.7552 20.7299 44.632 20.4611 44.5088L19.6659 44.128L19.0387 43.68C18.7587 43.5232 18.4899 43.3664 18.2211 43.1872C17.9523 43.008 17.7843 42.896 17.5715 42.7504L16.7987 42.2128C16.5747 42.0448 16.3731 41.8544 16.1603 41.6752C15.9475 41.496 15.7011 41.2832 15.4883 41.0704C15.2755 40.8576 15.0291 40.6 14.8051 40.3536C14.5811 40.1072 14.5027 40.0624 14.3683 39.9056L14.1779 39.6816C11.4937 36.4903 9.99076 32.4719 9.92188 28.3024V28H13.6291C13.6287 31.5625 14.9496 34.9984 17.3363 37.6432C17.5155 37.856 17.7059 38.0576 17.8963 38.248L18.4115 38.7296L18.9379 39.1888C19.1283 39.3456 19.3299 39.4912 19.5427 39.648C19.7555 39.8048 19.8787 39.9056 20.0579 40.0176L20.6963 40.4208L21.2675 40.7456L21.9059 41.0592L22.5555 41.3504L23.1603 41.5856L23.8883 41.832L24.4819 41.9888C24.7395 42.056 24.9859 42.1232 25.2435 42.168L25.8931 42.28L26.6211 42.3808H27.3715C29.7172 42.503 32.0573 42.0515 34.1891 41.0653C36.3209 40.0792 38.1802 38.5881 39.6058 36.7213C41.0314 34.8545 41.9804 32.6683 42.3705 30.3521C42.7606 28.0358 42.5801 25.6594 41.8447 23.4286C41.1092 21.1979 39.841 19.18 38.1498 17.55C36.4586 15.9199 34.3955 14.7267 32.1392 14.0738C29.8829 13.4209 27.5015 13.3279 25.2011 13.803C22.9008 14.278 20.751 15.3067 18.9379 16.8H18.8819L21.2115 19.6896L21.7267 20.3168H11.6467L13.7747 10.4832L16.5635 13.944C18.6119 12.2627 21.0055 11.0529 23.5741 10.4006C26.1427 9.74825 28.8234 9.66941 31.4259 10.1696C32.7394 10.3877 34.0218 10.7638 35.2451 11.2896C37.8504 12.3915 40.1545 14.1003 41.9651 16.2736C43.5051 18.1023 44.6691 20.217 45.3902 22.4965C46.1113 24.7759 46.3754 27.1753 46.1673 29.5571C45.9592 31.9388 45.283 34.256 44.1775 36.3759C43.072 38.4957 41.559 40.3765 39.7251 41.9104Z" fill="#E90808"/>
    <path fill-rule="evenodd" clip-rule="evenodd" d="M22.264 21.0112L21.256 21.0224L19.7776 21.0336L11.4336 21.1232L11.624 20.328H21.7152L21.8384 20.4848L22.264 21.0112Z" fill="#4C1216"/>
    <path fill-rule="evenodd" clip-rule="evenodd" d="M49.2794 13.44C49.3039 13.4922 49.3178 13.5487 49.3204 13.6063C49.3229 13.6638 49.314 13.7214 49.2943 13.7755C49.2745 13.8296 49.2442 13.8793 49.2051 13.9217C49.166 13.9641 49.119 13.9983 49.0666 14.0224L47.129 14.9296C47.0232 14.9761 46.9036 14.9799 46.795 14.9402C46.6865 14.9006 46.5975 14.8205 46.5466 14.7168C46.5221 14.6646 46.5082 14.6081 46.5056 14.5505C46.5031 14.4929 46.5119 14.4354 46.5317 14.3813C46.5515 14.3271 46.5818 14.2775 46.6209 14.2351C46.66 14.1927 46.707 14.1585 46.7594 14.1344L48.697 13.2272C48.7492 13.2027 48.8057 13.1888 48.8633 13.1862C48.9208 13.1837 48.9784 13.1925 49.0325 13.2123C49.0866 13.2321 49.1363 13.2624 49.1787 13.3015C49.2211 13.3406 49.2553 13.3876 49.2794 13.44ZM45.9194 10.2032C45.9739 10.2219 46.0241 10.2514 46.0669 10.2901C46.1096 10.3287 46.1441 10.3756 46.1682 10.428C46.1923 10.4804 46.2055 10.5371 46.207 10.5947C46.2085 10.6523 46.1983 10.7096 46.177 10.7632L45.449 12.7792C45.4303 12.8337 45.4008 12.8839 45.3621 12.9267C45.3235 12.9694 45.2766 13.0039 45.2242 13.028C45.1718 13.0521 45.1151 13.0653 45.0575 13.0668C44.9999 13.0683 44.9425 13.0581 44.889 13.0368C44.7805 12.9963 44.6919 12.9153 44.6418 12.8109C44.5917 12.7065 44.5839 12.5868 44.6202 12.4768L45.3594 10.4608C45.3997 10.3525 45.4812 10.2646 45.5862 10.2164C45.6912 10.1681 45.811 10.1633 45.9194 10.2032Z" fill="#42090D"/>
    <path d="M42.4938 28.3583C42.4527 30.2807 42.0268 32.1754 41.2412 33.9304C40.4556 35.6854 39.3263 37.2652 37.92 38.5765C36.5137 39.8878 34.8589 40.904 33.0533 41.5651C31.2477 42.2262 29.328 42.5188 27.4074 42.4255H27.3402H26.5898L26.041 42.3471H25.8618L25.2122 42.2351L24.7978 42.1455L24.4506 42.0559L23.857 41.8991L23.129 41.6527L22.849 41.4399L22.5242 41.3055L21.8746 41.0143H21.8074L21.281 40.7455L20.7098 40.4207L20.0714 40.0175L19.7018 39.7599L19.5562 39.6479C19.3434 39.4911 19.1418 39.3455 18.9514 39.1887L18.425 38.7295L17.921 38.2479C17.7306 38.0575 17.5402 37.8559 17.361 37.6431C17.0011 37.2478 16.6681 36.8287 16.3642 36.3887C15.3282 34.9428 14.5687 33.3175 14.1242 31.5951C14.0676 31.3926 14.0227 31.1869 13.9898 30.9791C13.9898 30.7887 13.9114 30.5983 13.8778 30.4079C13.753 29.6676 13.6856 28.9187 13.6762 28.1679V27.9999H9.89062V27.1711H13.9338V27.9999C13.9327 28.7126 13.9889 29.4243 14.1018 30.1279C14.1018 30.3295 14.1578 30.5199 14.1914 30.7215C14.2255 30.9291 14.2704 31.1347 14.3258 31.3375C15.1194 34.6071 17.0585 37.484 19.7914 39.4463C20.4936 39.9614 21.2437 40.4078 22.0314 40.7791C22.3782 40.9467 22.7333 41.0962 23.0954 41.2271C23.7321 41.4734 24.3876 41.6682 25.0554 41.8095C25.4698 41.8991 25.8842 41.9663 26.3098 42.0223C26.7742 42.0808 27.2418 42.1107 27.7098 42.1119H28.0234C31.6495 42.113 35.1367 40.7172 37.7605 38.2143C40.3843 35.7115 41.9431 32.2941 42.113 28.6719L42.4938 28.3583Z" fill="white"/>
    <path fill-rule="evenodd" clip-rule="evenodd" d="M42.4917 28.3584L42.1445 28.6832V28.672L42.4917 28.3584Z" fill="#747F8D"/>
    <path d="M35.2452 11.3344L32.8932 8.80322L31.426 10.1696L27.8084 13.5296L21.2116 19.6896L21.7268 20.3168L22.2756 21H19.7892L13.2148 27.1376H13.9428V28C13.9418 28.7127 13.9979 29.4243 14.1108 30.128C14.1108 30.3296 14.1668 30.52 14.2004 30.7216C14.2345 30.9291 14.2794 31.1348 14.3348 31.3376C15.1284 34.6072 17.0675 37.4841 19.8004 39.4464C20.5026 39.9615 21.2528 40.4078 22.0404 40.7792C22.3872 40.9467 22.7423 41.0963 23.1044 41.2272L41.8756 23.7328L44.5188 21.28L35.2452 11.3344Z" fill="white"/>
    <path fill-rule="evenodd" clip-rule="evenodd" d="M40.2541 18.1887L35.6509 13.2495C34.8503 13.9935 33.787 14.389 32.6949 14.3491C31.6027 14.3092 30.5711 13.8371 29.8269 13.0367L21.8413 20.4847L22.2669 21.0111H21.2813L13.9453 27.8543V27.9999C13.9442 28.7126 14.0004 29.4243 14.1133 30.1279C14.1133 30.3295 14.1693 30.5199 14.2029 30.7215C14.237 30.9291 14.2819 31.1347 14.3373 31.3375C15.1309 34.6071 17.07 37.484 19.8029 39.4463C20.5051 39.9614 21.2552 40.4078 22.0429 40.7791L40.0301 23.9791C39.3007 23.1774 38.9154 22.1212 38.9573 21.0381C38.9992 19.955 39.4649 18.9317 40.2541 18.1887Z" fill="#B6BEC8"/>
    <path fill-rule="evenodd" clip-rule="evenodd" d="M45.921 25.1663L42.4938 28.3583L42.1466 28.6719L27.7434 42.1119C27.2753 42.1107 26.8078 42.0808 26.3434 42.0223C25.9178 41.9663 25.5034 41.8991 25.089 41.8095C23.1768 41.4025 21.3717 40.5973 19.7914 39.4463C17.0629 37.4896 15.1242 34.6213 14.3258 31.3599C14.2703 31.1571 14.2255 30.9515 14.1914 30.7439L33.937 12.3199L45.921 25.1663Z" fill="#747F8D"/>
    <path d="M44.5208 25.0656L26.3432 42.0224C25.9176 41.9664 25.5032 41.8992 25.0888 41.8096C23.1765 41.4026 21.3715 40.5974 19.7912 39.4464C17.0626 37.4896 15.124 34.6213 14.3256 31.36C14.2219 30.9627 14.147 30.5584 14.1016 30.1504L32.8952 12.6L44.5208 25.0656Z" fill="white"/>
    <path fill-rule="evenodd" clip-rule="evenodd" d="M40.3194 21.9856L35.705 17.0464C34.9045 17.789 33.8427 18.1846 32.7514 18.1468C31.6602 18.1091 30.6283 17.641 29.881 16.8448L14.3242 31.36C14.958 33.9382 16.3028 36.2865 18.2057 38.1379C20.1085 39.9893 22.4929 41.2692 25.0874 41.832L40.1066 27.832C39.7335 27.4359 39.4427 26.9695 39.2513 26.4601C39.0598 25.9506 38.9714 25.4083 38.9912 24.8644C39.0109 24.3205 39.1386 23.786 39.3666 23.2918C39.5946 22.7976 39.9185 22.3537 40.3194 21.9856ZM29.6794 35.5152C28.8068 36.3299 27.7121 36.8676 26.5339 37.0602C25.3557 37.2528 24.1469 37.0918 23.0602 36.5975C21.9735 36.1031 21.0578 35.2977 20.4288 34.283C19.7998 33.2682 19.4859 32.0898 19.5266 30.8967C19.5673 29.7035 19.9609 28.5492 20.6575 27.5797C21.3542 26.6102 22.3227 25.8691 23.4405 25.45C24.5584 25.0308 25.7754 24.9526 26.9377 25.2251C28.1001 25.4976 29.1555 26.1086 29.9706 26.9808C31.0585 28.1537 31.6385 29.7092 31.5839 31.3081C31.5294 32.9069 30.8448 34.4193 29.6794 35.5152Z" fill="#B6BEC8"/>
    <path d="M33.6768 25.9951C35.0623 25.9951 36.1856 24.8719 36.1856 23.4863C36.1856 22.1008 35.0623 20.9775 33.6768 20.9775C32.2912 20.9775 31.168 22.1008 31.168 23.4863C31.168 24.8719 32.2912 25.9951 33.6768 25.9951Z" fill="#99A2AE"/>
    <path d="M19.7897 39.4464C18.562 38.5641 17.4843 37.4901 16.5977 36.2656C17.0415 36.1127 17.5193 36.0874 17.9768 36.1925C18.4343 36.2977 18.8532 36.5291 19.1857 36.8605C19.5182 37.1918 19.7511 37.6098 19.8579 38.067C19.9646 38.5241 19.941 39.002 19.7897 39.4464Z" fill="#99A2AE"/>
    <path d="M28.7183 33.7792L28.0016 33.0176C28.2694 32.6991 28.4067 32.2911 28.386 31.8756C28.3652 31.46 28.1878 31.0677 27.8896 30.7776C27.735 30.5957 27.54 30.4524 27.3203 30.3591C27.1006 30.2657 26.8622 30.225 26.624 30.24C26.3946 30.2407 26.1658 30.2632 25.9408 30.3072L25.2912 30.4304C24.8357 30.5125 24.5221 30.4565 24.3504 30.2624C24.104 29.9936 24.216 29.6464 24.6864 29.2096C24.9418 28.9667 25.2478 28.7831 25.5824 28.672L24.9216 27.7648C24.5594 27.9439 24.2177 28.1617 23.9024 28.4144C23.8016 28.28 23.6895 28.1456 23.5775 28.0224C23.4627 27.8973 23.3543 27.7665 23.2528 27.6304L22.4688 28.3584L23.1967 29.1536C22.9716 29.4845 22.8471 29.8735 22.8383 30.2736C22.8439 30.6895 23.0035 31.0886 23.2864 31.3936C23.445 31.566 23.6396 31.7015 23.8563 31.7905C24.0731 31.8795 24.3067 31.9199 24.5408 31.9088C24.7661 31.9127 24.9912 31.8939 25.2128 31.8528C25.4368 31.8528 25.6496 31.7856 25.8512 31.7632C26.3104 31.7632 26.624 31.7632 26.7808 31.92C26.9376 32.0768 26.9936 32.5584 26.624 32.9056C26.2503 33.1882 25.8395 33.4181 25.4032 33.5888L25.9296 34.5408C26.4279 34.3971 26.8898 34.1489 27.2848 33.8128L27.9232 34.552L28.7183 33.7792Z" fill="#1BC744"/>
    </svg>
    