<svg width="40" height="40" viewBox="0 0 40 40" fill="none" xmlns="http://www.w3.org/2000/svg">
    <rect width="40" height="40" rx="4" fill="#E90808" />
    <g clip-path="url(#clip0_458_6798)">
        <path
            d="M12.8047 17.3599C11.2166 17.3599 10.765 21.7118 10.7129 23.635H14.8966C14.8441 21.7118 14.3922 17.3599 12.8047 17.3599Z"
            fill="white" />
        <path
            d="M9.40749 22.2144C9.22801 22.8079 8.94843 23.3233 8.75781 23.6347H10.3185C10.3348 23.144 10.3991 21.7966 10.6377 20.4624C11.0527 18.1419 11.7815 16.9653 12.8036 16.9653C13.8257 16.9653 14.5544 18.1419 14.9694 20.4624C15.208 21.7966 15.2724 23.144 15.2886 23.6347H16.8493C16.6587 23.3232 16.3792 22.8079 16.1997 22.2144C16.0727 21.7945 16.0456 21.0494 16.0142 20.1867C15.9749 19.1056 15.9303 17.8803 15.6643 17.303C15.2487 16.4009 14.0844 16.056 13.9154 16.0103H11.6919C11.5228 16.0564 10.3568 16.4042 9.94278 17.303C9.67686 17.8803 9.63226 19.1057 9.59293 20.1867C9.56154 21.0494 9.53449 21.7945 9.40749 22.2144Z"
            fill="white" />
        <path
            d="M22.3196 23.8283C21.8589 23.66 21.0483 23.4331 20.0241 23.4331C18.9999 23.4331 18.1893 23.66 17.7286 23.8283C17.8954 23.9729 18.0015 24.1857 18.0015 24.4233V26.4399C18.0015 26.7443 17.8276 27.0085 17.5742 27.1397C17.6765 27.2099 17.8279 27.2725 18.0439 27.2725C18.3935 27.2725 18.5741 27.1091 18.6502 27.0132C18.5646 26.8059 18.5164 26.5761 18.5164 26.3341C18.5164 25.4231 19.1928 24.6819 20.0241 24.6819C20.8555 24.6819 21.5319 25.4231 21.5319 26.3341C21.5319 26.5762 21.4838 26.8059 21.3981 27.0132C21.4741 27.1091 21.6548 27.2725 22.0044 27.2725C22.2203 27.2725 22.3716 27.21 22.474 27.1397C22.2206 27.0085 22.0468 26.7443 22.0468 26.4399V24.4233C22.0467 24.1857 22.1528 23.9729 22.3196 23.8283Z"
            fill="white" />
        <path
            d="M11.6694 15.6164H13.9385C14.6038 15.6164 15.1451 15.0752 15.1451 14.4099V12.6441C15.1451 11.9788 14.6038 11.4375 13.9385 11.4375H11.6694C11.0041 11.4375 10.4629 11.9788 10.4629 12.6441V14.4099C10.4629 15.0752 11.0041 15.6164 11.6694 15.6164Z"
            fill="white" />
        <path
            d="M21.139 26.3341C21.139 25.6405 20.6395 25.0762 20.0256 25.0762C19.4116 25.0762 18.9121 25.6405 18.9121 26.3341C18.9121 27.0278 19.4116 27.5921 20.0256 27.5921C20.6395 27.5921 21.139 27.0278 21.139 26.3341Z"
            fill="white" />
        <path
            d="M24.76 23.6347C24.7762 23.144 24.8405 21.7966 25.0792 20.4624C25.4943 18.1419 26.223 16.9653 27.2451 16.9653C28.2672 16.9653 28.9959 18.1419 29.4109 20.4624C29.6496 21.7966 29.7139 23.144 29.7302 23.6347H31.2908C31.1002 23.3232 30.8206 22.8079 30.6411 22.2144C30.5142 21.7945 30.4871 21.0494 30.4556 20.1867C30.4163 19.1056 30.3718 17.8803 30.1058 17.303C29.6902 16.4009 28.5259 16.056 28.357 16.0103H26.1333C25.9642 16.0564 24.7983 16.4042 24.3842 17.303C24.1183 17.8803 24.0737 19.1057 24.0343 20.1867C24.0029 21.0494 23.9758 21.7945 23.8488 22.2144C23.6694 22.8079 23.3898 23.3233 23.1992 23.6347H24.76Z"
            fill="white" />
        <path
            d="M17.2825 23.5812C17.6559 23.4149 18.652 23.0385 20.0243 23.0385C21.3966 23.0385 22.3926 23.4149 22.766 23.5812C22.929 23.3317 23.2717 22.7613 23.4715 22.1004C23.5237 21.9276 23.5575 21.6708 23.5817 21.3656C23.1712 21.1992 21.7808 20.6943 20.0243 20.6943C18.2677 20.6943 16.8773 21.1992 16.4668 21.3656C16.491 21.6708 16.5248 21.9276 16.577 22.1004C16.7769 22.7613 17.1195 23.3317 17.2825 23.5812Z"
            fill="white" />
        <path
            d="M26.1109 15.6164H28.3799C29.0452 15.6164 29.5865 15.0752 29.5865 14.4099V12.6441C29.5865 11.9788 29.0452 11.4375 28.3799 11.4375H26.1109C25.4456 11.4375 24.9043 11.9788 24.9043 12.6441V14.4099C24.9043 15.0752 25.4456 15.6164 26.1109 15.6164Z"
            fill="white" />
        <path
            d="M27.2461 17.3599C25.658 17.3599 25.2064 21.7118 25.1543 23.635H29.338C29.2856 21.7118 28.8336 17.3599 27.2461 17.3599Z"
            fill="white" />
        <path
            d="M19.7737 27.9629L19.6133 29.4649C19.744 29.4509 19.8808 29.443 20.0247 29.443C20.1687 29.443 20.3055 29.4509 20.4362 29.4649L20.2757 27.9629C20.194 27.978 20.1102 27.9862 20.0247 27.9862C19.9392 27.9862 19.8554 27.978 19.7737 27.9629Z"
            fill="white" />
        <path
            d="M24.0686 29.4982H30.4199C30.6093 28.7102 30.9035 27.9631 31.314 27.2275H23.1758C23.582 27.9568 23.8786 28.7102 24.0686 29.4982Z"
            fill="white" />
        <path
            d="M22.0048 27.6665C21.6091 27.6665 21.3519 27.5161 21.1964 27.3721C21.0521 27.5672 20.8682 27.7256 20.6582 27.8327L20.8398 29.5326C21.6475 29.72 22.1601 30.1687 22.467 30.5601C22.7656 30.941 22.9166 31.321 22.983 31.5262H23.9291C23.8997 30.023 23.5316 28.661 22.8079 27.3769C22.6518 27.5195 22.3961 27.6665 22.0048 27.6665Z"
            fill="white" />
        <path
            d="M31.6553 24.0293H22.8353C22.6181 24.0293 22.4414 24.206 22.4414 24.4232V26.4397C22.4414 26.6569 22.6181 26.8336 22.8353 26.8336H31.6553C31.8725 26.8336 32.0492 26.6569 32.0492 26.4397V24.4232C32.0492 24.206 31.8725 24.0293 31.6553 24.0293Z"
            fill="white" />
        <path
            d="M19.2104 29.5326L19.392 27.8327C19.182 27.7256 18.9981 27.5672 18.8538 27.3721C18.6983 27.5161 18.4412 27.6665 18.0454 27.6665C17.6541 27.6665 17.3984 27.5195 17.2423 27.3769C16.5185 28.6611 16.1505 30.023 16.1211 31.5262H17.0672C17.1335 31.3209 17.2846 30.941 17.5832 30.5601C17.89 30.1687 18.4027 29.7199 19.2104 29.5326Z"
            fill="white" />
        <path
            d="M20.0247 29.8374C18.3064 29.8374 17.6769 31.0078 17.4824 31.5264H22.567C22.3725 31.0078 21.743 29.8374 20.0247 29.8374Z"
            fill="white" />
        <path
            d="M17.6078 26.4397V24.4232C17.6078 24.206 17.4311 24.0293 17.2139 24.0293H8.39386C8.17667 24.0293 8 24.206 8 24.4232V26.4397C8 26.6569 8.17667 26.8336 8.39386 26.8336H17.2139C17.4311 26.8336 17.6078 26.6569 17.6078 26.4397Z"
            fill="white" />
        <path
            d="M8.73438 27.2275C9.14489 27.9631 9.4391 28.7102 9.62854 29.4982H15.9798C16.1698 28.7102 16.4665 27.9569 16.8726 27.2275H8.73438Z"
            fill="white" />
        <path
            d="M17.3788 18.699H17.7635V19.086C17.7635 19.1949 17.8517 19.2831 17.9606 19.2831C18.0694 19.2831 18.1577 19.1949 18.1577 19.086V18.699H18.5424C18.6513 18.699 18.7396 18.6108 18.7396 18.5019C18.7396 18.393 18.6513 18.3048 18.5424 18.3048H18.1577V17.9178C18.1577 17.809 18.0694 17.7207 17.9606 17.7207C17.8517 17.7207 17.7635 17.809 17.7635 17.9178V18.3048H17.3788C17.2699 18.3048 17.1816 18.393 17.1816 18.5019C17.1816 18.6108 17.2699 18.699 17.3788 18.699Z"
            fill="white" />
        <path
            d="M8.3065 10.9466H8.69124V11.3336C8.69124 11.4424 8.7795 11.5307 8.88836 11.5307C8.99723 11.5307 9.08549 11.4424 9.08549 11.3336V10.9466H9.47023C9.57909 10.9466 9.66735 10.8583 9.66735 10.7495C9.66735 10.6406 9.57909 10.5523 9.47023 10.5523H9.08549V10.1654C9.08549 10.0565 8.99723 9.96826 8.88836 9.96826C8.7795 9.96826 8.69124 10.0565 8.69124 10.1654V10.5523H8.3065C8.19764 10.5523 8.10938 10.6406 8.10938 10.7495C8.10938 10.8583 8.19764 10.9466 8.3065 10.9466Z"
            fill="white" />
        <path
            d="M21.0077 16.2318H21.3924V16.6187C21.3924 16.7276 21.4807 16.8158 21.5895 16.8158C21.6984 16.8158 21.7867 16.7276 21.7867 16.6187V16.2318H22.1714C22.2803 16.2318 22.3685 16.1435 22.3685 16.0346C22.3685 15.9258 22.2803 15.8375 22.1714 15.8375H21.7867V15.4505C21.7867 15.3417 21.6984 15.2534 21.5895 15.2534C21.4807 15.2534 21.3924 15.3417 21.3924 15.4505V15.8375H21.0077C20.8988 15.8375 20.8105 15.9258 20.8105 16.0346C20.8105 16.1435 20.8988 16.2318 21.0077 16.2318Z"
            fill="white" />
        <path
            d="M31.98 15.253H31.5953V14.8661C31.5953 14.7572 31.507 14.6689 31.3981 14.6689C31.2893 14.6689 31.201 14.7572 31.201 14.8661V15.253H30.8163C30.7074 15.253 30.6191 15.3413 30.6191 15.4502C30.6191 15.559 30.7074 15.6473 30.8163 15.6473H31.201V16.0342C31.201 16.1431 31.2893 16.2314 31.3981 16.2314C31.507 16.2314 31.5953 16.1431 31.5953 16.0342V15.6473H31.98C32.0889 15.6473 32.1771 15.559 32.1771 15.4502C32.1771 15.3413 32.0889 15.253 31.98 15.253Z"
            fill="white" />
        <path
            d="M30.3749 10.5198C30.5314 10.1836 30.7688 9.91896 31.0859 9.72769C30.7688 9.53643 30.5314 9.27174 30.3749 8.93555C30.2185 9.27169 29.981 9.53638 29.6641 9.72769C29.981 9.91891 30.2185 10.1836 30.3749 10.5198Z"
            fill="white" />
        <path
            d="M22.3867 13.9319C22.5431 13.5958 22.7806 13.3311 23.0976 13.1398C22.7806 12.9485 22.5431 12.6838 22.3867 12.3477C22.2302 12.6838 21.9929 12.9485 21.6758 13.1398C21.9929 13.331 22.2302 13.5957 22.3867 13.9319Z"
            fill="white" />
        <path
            d="M11.8359 9.58425C11.9924 9.2481 12.2298 8.98341 12.5468 8.79215C12.2298 8.60084 11.9923 8.33615 11.8359 8C11.6795 8.33615 11.4421 8.60084 11.125 8.79215C11.442 8.98341 11.6795 9.24805 11.8359 9.58425Z"
            fill="white" />
        <path
            d="M18.5425 12.6162C18.7455 12.1208 19.0809 11.742 19.5459 11.4834C19.0809 11.2247 18.7455 10.846 18.5425 10.3506C18.3394 10.846 18.004 11.2247 17.5391 11.4834C18.004 11.742 18.3394 12.1208 18.5425 12.6162Z"
            fill="white" />
    </g>
    <defs>
        <clipPath id="clip0_458_6798">
            <rect width="24.1971" height="24" fill="white" transform="translate(8 8)" />
        </clipPath>
    </defs>
</svg>
    