<svg width="40" height="40" viewBox="0 0 40 40" fill="none" xmlns="http://www.w3.org/2000/svg">
    <rect width="40" height="40" rx="4" fill="#E90808"/>
    <g clip-path="url(#clip0_458_6785)">
    <path d="M20.5304 16.0821C20.819 15.7935 20.819 15.3256 20.5304 15.0371C20.2419 14.7485 19.774 14.7485 19.4854 15.0371C19.1968 15.3256 19.1968 15.7935 19.4854 16.0821C19.774 16.3707 20.2419 16.3707 20.5304 16.0821Z" fill="white"/>
    <path d="M21.9109 13.6293C20.8624 12.5809 19.156 12.5809 18.1074 13.6293L18.6165 14.1383C19.384 13.3705 20.6337 13.3703 21.4017 14.1383L21.9109 13.6293Z" fill="white"/>
    <path d="M20.0078 11.47C21.0926 11.47 22.1124 11.8924 22.8794 12.6594L23.3885 12.1504C22.4856 11.2473 21.2849 10.75 20.0078 10.75C18.7308 10.75 17.5301 11.2473 16.627 12.1504L17.136 12.6594C17.903 11.8926 18.9228 11.47 20.0078 11.47Z" fill="white"/>
    <path d="M27.5312 20.2516C27.5312 20.2516 27.1873 20.268 26.9672 20.5269C26.9374 20.562 26.8851 20.5656 26.8556 20.5303L24.895 18.192C24.8398 18.1262 24.7599 18.0864 24.6745 18.082H15.3267C15.241 18.0866 15.1611 18.1264 15.1062 18.192L13.1456 20.5303C13.1161 20.5656 13.0638 20.562 13.034 20.5269C12.8137 20.268 12.47 20.2516 12.47 20.2516C12.47 20.2516 11.157 20.2322 11.2729 20.8696C11.3648 21.3758 12.0538 21.5042 12.3334 21.5356C12.3862 21.5416 12.4131 21.6019 12.3834 21.6458L11.5957 22.8189C11.5614 22.8698 11.5431 22.9298 11.5431 22.9912V28.9411C11.5431 29.1117 11.6814 29.25 11.852 29.25H14.4745C14.6451 29.25 14.7834 29.1117 14.7834 28.9411V28.1047C14.7834 28.0653 14.8153 28.0334 14.8546 28.0334H20.0005H25.1466C25.1859 28.0334 25.2178 28.0653 25.2178 28.1047V28.9411C25.2178 29.1117 25.3561 29.25 25.5267 29.25H28.1492C28.3198 29.25 28.4581 29.1117 28.4581 28.9411V22.9912C28.4581 22.9298 28.4398 22.87 28.4055 22.8189L27.6178 21.6458C27.5883 21.6016 27.615 21.5414 27.6678 21.5356C27.9474 21.5042 28.6362 21.3758 28.7281 20.8696C28.8442 20.2324 27.5312 20.2516 27.5312 20.2516ZM16.7545 26.1662C16.5104 26.2682 16.2567 26.2396 15.997 26.2377C15.7184 26.2358 15.4398 26.2339 15.1611 26.232C14.8563 26.2298 14.4999 26.243 14.2196 26.1043C13.9743 25.9828 13.7854 25.7205 13.7331 25.4536C13.6124 24.8371 14.0811 24.2971 14.6761 24.2971C15.3738 24.2971 15.9548 24.6933 16.5392 25.0243C16.5817 25.0483 16.6242 25.072 16.6666 25.0951C16.8322 25.1853 16.9954 25.2979 17.0864 25.4632C17.2419 25.7448 17.0192 26.0558 16.7545 26.1662ZM18.4465 22.7983C17.3617 22.7601 16.2841 22.666 15.2048 22.5568C14.8316 22.5192 13.5735 22.4551 13.9774 21.786L15.3867 19.451C15.5439 19.1906 15.8259 19.0315 16.13 19.0315H20.0005H23.8712C24.1753 19.0315 24.4573 19.1906 24.6145 19.451L26.0238 21.786C26.3823 22.38 25.6434 22.4205 25.2858 22.4702C23.0245 22.7848 20.7272 22.878 18.4465 22.7983ZM26.2842 25.4534C26.2318 25.7203 26.0432 25.9826 25.7977 26.104C25.5174 26.2428 25.1612 26.2296 24.8562 26.2317C24.5775 26.2336 24.2989 26.2356 24.0202 26.2375C23.7606 26.2394 23.5069 26.268 23.2628 26.166C22.9983 26.0556 22.7756 25.7445 22.9309 25.4628C23.0218 25.2974 23.185 25.1851 23.3506 25.0946C23.3931 25.0713 23.4356 25.0478 23.4781 25.0238C24.0625 24.6928 24.6435 24.2966 25.3412 24.2966C25.9362 24.2968 26.4049 24.8368 26.2842 25.4534Z" fill="white"/>
    </g>
    <defs>
    <clipPath id="clip0_458_6785">
    <rect width="24" height="24" fill="white" transform="translate(8 8)"/>
    </clipPath>
    </defs>
    </svg>
    