<svg width="100" height="105" viewBox="0 0 100 105" fill="none" xmlns="http://www.w3.org/2000/svg">
    <g clip-path="url(#clip0_440_1269)">
        <path
            d="M97.8991 49C97.3991 46.8 95.5991 46.3 95.5991 46.3L87.3991 47.2L83.4991 38.1C81.8991 39.5 79.9991 40.6 77.9991 41.4L81.1991 49L18.7991 48.9L26.0991 32L26.1991 31.8C26.2991 31.6 26.7991 30.5 28.6991 30.2H50.3991C49.5991 28.3 48.9991 26.2 48.6991 24H28.4991H28.1991C23.2991 24.5 20.8991 27.7 20.1991 29.7L12.8991 47.1L4.99911 46.3C4.99911 46.3 3.19911 46.8 2.69911 49C2.19911 51.2 1.59911 55 6.59911 56.3L9.29911 56.6C5.99911 62.9 2.49911 74.1 11.6991 83.6C11.8991 83.8 14.1991 85.6 15.3991 85.9V91.4C15.3991 93.5 17.0991 95.2 19.1991 95.2H24.1991C26.2991 95.2 27.9991 93.5 27.9991 91.4V86.2H72.3991V91.3C72.3991 93.4 74.0991 95.1 76.1991 95.1H81.2991C83.3991 95.1 85.0991 93.4 85.0991 91.3V85.8C86.4991 85.4 87.6991 84.6 88.5991 83.5C97.9991 74.2 94.9991 63 91.7991 56.5L94.0991 56.3C98.9991 55 98.3991 51.3 97.8991 49ZM22.9991 70.7C19.8991 70.7 17.4991 68.2 17.4991 65.2C17.4991 62.1 19.9991 59.7 22.9991 59.7C26.0991 59.7 28.4991 62.2 28.4991 65.2C28.4991 68.2 25.9991 70.7 22.9991 70.7ZM76.4991 70.7C73.3991 70.7 70.9991 68.2 70.9991 65.2C70.9991 62.1 73.4991 59.7 76.4991 59.7C79.5991 59.7 81.9991 62.2 81.9991 65.2C82.0991 68.2 79.5991 70.7 76.4991 70.7Z"
            fill="#878787" />
        <path
            d="M69.9 5.8999C61.1 5.8999 54 12.9999 54 21.6999C54 30.3999 61.1 37.5999 69.9 37.5999C78.7 37.5999 85.8 30.4999 85.8 21.6999C85.8 12.8999 78.6 5.8999 69.9 5.8999ZM76 23.3999H71.6V27.7999C71.6 28.6999 70.8 29.4999 69.9 29.4999C69 29.4999 68.2 28.6999 68.2 27.7999V23.3999H63.8C62.9 23.3999 62.1 22.5999 62.1 21.6999C62.1 20.7999 62.9 19.9999 63.8 19.9999H68.2V15.5999C68.2 14.6999 69 13.8999 69.9 13.8999C70.8 13.8999 71.6 14.6999 71.6 15.5999V19.9999H76C76.9 19.9999 77.7 20.7999 77.7 21.6999C77.7 22.5999 76.9 23.3999 76 23.3999Z"
            fill="#E90808" />
    </g>
    <defs>
        <clipPath id="clip0_440_1269">
            <rect width="100" height="105" fill="white" />
        </clipPath>
    </defs>
</svg>
    