<svg width="40" height="40" viewBox="0 0 40 40" fill="none" xmlns="http://www.w3.org/2000/svg">
    <rect width="40" height="40" rx="4" fill="#E90808" />
    <g clip-path="url(#clip0_458_6709)">
        <path
            d="M29.5509 16.5623C29.5497 16.0045 29.0803 15.6592 28.6459 15.6592C28.4877 15.6592 28.3361 15.7005 28.1949 15.7823L20.8164 20.0529C20.5389 20.2134 20.3661 20.5122 20.3654 20.8329L20.3477 29.3593C20.3472 29.6015 20.4398 29.8281 20.6083 29.9968C20.7789 30.1679 21.0139 30.2661 21.2527 30.2661C21.4101 30.2661 21.5613 30.225 21.702 30.1439L29.1151 25.8741C29.3949 25.713 29.5682 25.4123 29.5675 25.0895L29.5509 16.5623Z"
            fill="white" />
        <path
            d="M19.1856 20.0622L11.7723 15.7926C11.6317 15.7115 11.4805 15.6704 11.323 15.6704C11.0842 15.6704 10.8495 15.7686 10.6786 15.9397C10.5101 16.1087 10.4175 16.335 10.418 16.5771L10.4357 25.1036C10.4365 25.4243 10.6093 25.7231 10.8867 25.8836L18.2653 30.1542C18.4064 30.2358 18.5581 30.2773 18.7162 30.2773C19.1506 30.2773 19.6201 29.9319 19.6213 29.3742L19.6381 20.847C19.6388 20.5239 19.4653 20.2235 19.1856 20.0622Z"
            fill="white" />
        <path
            d="M27.8281 15.1013C28.1106 14.9379 28.2793 14.6451 28.279 14.3187C28.2788 13.9921 28.1096 13.7 27.8269 13.5368L20.4178 9.26525C20.2808 9.18629 20.1248 9.14453 19.9666 9.14453C19.808 9.14453 19.6518 9.18653 19.5145 9.26573L12.1309 13.5346C11.8482 13.6981 11.6794 13.9909 11.6797 14.3175C11.6799 14.6441 11.8491 14.9365 12.1323 15.0997L19.5483 19.3709C19.6854 19.4499 19.8411 19.4914 19.9993 19.4914C20.1579 19.4914 20.3144 19.4494 20.4517 19.37L27.8281 15.1013Z"
            fill="white" />
    </g>
    <defs>
        <clipPath id="clip0_458_6709">
            <rect width="24" height="24" fill="white" transform="translate(8 8)" />
        </clipPath>
    </defs>
</svg>
    