<svg width="40" height="40" viewBox="0 0 40 40" fill="none" xmlns="http://www.w3.org/2000/svg">
    <rect width="40" height="40" rx="4" fill="#E90808"/>
    <g clip-path="url(#clip0_458_6734)">
    <path d="M19.5683 11.9713L19.5233 13.8913C17.7569 14.0418 16.1783 14.8287 14.9783 16.0213L13.6133 14.7613C15.1657 13.165 17.2404 12.117 19.5683 11.9713Z" fill="white"/>
    <path d="M20.5274 12.0163C22.8087 12.1875 24.8658 13.1702 26.3924 14.7313L25.0274 16.0063C23.8329 14.823 22.2426 14.0688 20.4824 13.9138L20.5274 12.0163Z" fill="white"/>
    <path d="M12.9599 15.4663L14.3249 16.7338C13.4056 17.9188 12.8418 19.3887 12.7424 20.9938H10.9199C11.0237 18.8991 11.7555 16.9882 12.9599 15.4663Z" fill="white"/>
    <path d="M27.0079 15.4812C28.2155 17.0037 29.0035 18.9013 29.1079 20.9937H27.2554C27.1557 19.3932 26.5713 17.9249 25.6504 16.7412L27.0079 15.4812Z" fill="white"/>
    <path d="M16.2675 17.3187C16.1757 17.325 16.0876 17.3576 16.0138 17.4125C15.9399 17.4675 15.8834 17.5425 15.851 17.6286C15.8186 17.7148 15.8117 17.8084 15.831 17.8984C15.8503 17.9884 15.8951 18.071 15.9601 18.1362L18.7425 21.0612C18.6231 21.2706 18.5551 21.5099 18.5551 21.7662C18.5551 22.5551 19.2046 23.2062 19.9951 23.2062C20.7855 23.2062 21.4351 22.5551 21.4351 21.7662C21.4351 20.9763 20.7844 20.3262 19.9951 20.3262C19.8064 20.3262 19.6284 20.3639 19.4625 20.4312L16.6575 17.4762C16.6088 17.4221 16.5483 17.3798 16.4807 17.3525C16.4131 17.3252 16.3402 17.3136 16.2675 17.3187Z" fill="white"/>
    <path d="M10.8906 21.9537H12.7131C12.8268 23.7684 13.5806 25.4013 14.7231 26.6562L13.4631 28.0287C11.9732 26.4283 11.0061 24.3172 10.8906 21.9537Z" fill="white"/>
    <path d="M27.2398 21.9537H29.0698C28.9538 24.3148 28.0058 26.4311 26.5198 28.0287L25.2598 26.6637C26.4025 25.4101 27.1271 23.771 27.2398 21.9537Z" fill="white"/>
    <path d="M16.9581 24.3012C16.8951 24.3041 16.8332 24.3195 16.7761 24.3463C16.719 24.3732 16.6677 24.411 16.6252 24.4576C16.5827 24.5043 16.5499 24.5589 16.5285 24.6183C16.5071 24.6776 16.4976 24.7406 16.5005 24.8037C16.5035 24.8667 16.5188 24.9286 16.5457 24.9857C16.5725 25.0428 16.6104 25.0941 16.6571 25.1365C16.7037 25.179 16.7583 25.2119 16.8177 25.2333C16.8771 25.2547 16.9401 25.2642 17.0031 25.2612H22.9806C23.0442 25.2621 23.1074 25.2503 23.1664 25.2266C23.2254 25.2029 23.2792 25.1677 23.3245 25.123C23.3698 25.0784 23.4057 25.0251 23.4303 24.9665C23.4548 24.9078 23.4675 24.8448 23.4675 24.7812C23.4675 24.7176 23.4548 24.6546 23.4303 24.5959C23.4057 24.5372 23.3698 24.484 23.3245 24.4394C23.2792 24.3947 23.2254 24.3595 23.1664 24.3358C23.1074 24.312 23.0442 24.3003 22.9806 24.3012H17.0031C16.9881 24.3005 16.9731 24.3005 16.9581 24.3012Z" fill="white"/>
    </g>
    <defs>
    <clipPath id="clip0_458_6734">
    <rect width="24" height="24" fill="white" transform="translate(8 8)"/>
    </clipPath>
    </defs>
    </svg>
    