<svg width="40" height="40" viewBox="0 0 40 40" fill="none" xmlns="http://www.w3.org/2000/svg">
    <rect width="40" height="40" rx="4" fill="#E90808"/>
    <g clip-path="url(#clip0_458_6760)">
    <path d="M31.9994 18L30.5661 14.7733C30.1996 13.9477 29.6014 13.2462 28.844 12.7539C28.0867 12.2616 27.2027 11.9997 26.2994 12H17.8328C17.0637 11.9996 16.3064 12.1893 15.6284 12.5521C14.9503 12.915 14.3724 13.4399 13.9461 14.08L11.3328 18L5.13943 19.86C4.5261 20.0333 4.6661 20.62 4.6661 22H6.6661C6.84291 22 7.01248 22.0702 7.1375 22.1953C7.26253 22.3203 7.33276 22.4899 7.33276 22.6667C7.33276 22.8435 7.26253 23.013 7.1375 23.1381C7.01248 23.2631 6.84291 23.3333 6.6661 23.3333H4.6661C4.6661 24.6667 4.51276 25.6067 5.4461 26.5533C5.69393 26.8009 5.98811 26.9972 6.31183 27.131C6.63555 27.2649 6.98247 27.3336 7.33276 27.3333C7.33276 26.4493 7.68395 25.6014 8.30907 24.9763C8.9342 24.3512 9.78204 24 10.6661 24C11.5502 24 12.398 24.3512 13.0231 24.9763C13.6482 25.6014 13.9994 26.4493 13.9994 27.3333H23.9994C23.9994 26.4493 24.3506 25.6014 24.9757 24.9763C25.6009 24.3512 26.4487 24 27.3328 24C28.2168 24 29.0647 24.3512 29.6898 24.9763C30.3149 25.6014 30.6661 26.4493 30.6661 27.3333H32.6661L34.6661 24V22H32.6661C32.4893 22 32.3197 21.9298 32.1947 21.8047C32.0697 21.6797 31.9994 21.5101 31.9994 21.3333C31.9994 21.1565 32.0697 20.987 32.1947 20.8619C32.3197 20.7369 32.4893 20.6667 32.6661 20.6667H34.6661C34.6661 19.8267 34.5328 20.2667 35.3328 18.6667L31.9994 18ZM19.9994 24.6667H16.0394C15.5736 23.7285 14.8703 22.9287 13.9994 22.3467V18.6667L16.0728 15.56C16.2553 15.2852 16.5031 15.0598 16.7938 14.9039C17.0846 14.748 17.4095 14.6665 17.7394 14.6667H19.9994V24.6667ZM29.3328 21.68C28.1622 21.2673 26.8924 21.2277 25.6984 21.5668C24.5044 21.9059 23.445 22.6069 22.6661 23.5733V14.6667H25.9994C26.3913 14.6664 26.7745 14.7813 27.1017 14.997C27.4288 15.2127 27.6853 15.5198 27.8394 15.88L29.3328 19.3333V21.68Z" fill="white"/>
    </g>
    <defs>
    <clipPath id="clip0_458_6760">
    <rect width="32" height="20" fill="white" transform="translate(4 10)"/>
    </clipPath>
    </defs>
    </svg>
    