<svg width="40" height="40" viewBox="0 0 40 40" fill="none" xmlns="http://www.w3.org/2000/svg">
    <rect width="40" height="40" rx="4" fill="#E90808"/>
    <g clip-path="url(#clip0_458_6837)">
    <path d="M20.7053 11.4285H13.6465V14.1713H20.7053V11.4285Z" fill="white"/>
    <path d="M30.4463 11.9085L27.3404 8.89138C27.058 8.6171 26.6345 8.6171 26.3521 8.89138C26.0698 9.16567 26.0698 9.5771 26.3521 9.85138L27.7639 11.2228V13.3485C27.7639 14.5828 28.6815 15.5428 29.8815 15.68V24.3885C29.8815 25.0742 29.3874 25.6914 28.6815 25.8285C27.7639 25.9657 27.058 25.28 27.058 24.4571V17.6C27.058 16.0914 25.7874 14.8571 24.2345 14.8571H23.5286V10.0571C23.5286 9.30281 22.8933 8.68567 22.1168 8.68567H12.2345C11.458 8.68567 10.8227 9.30281 10.8227 10.0571V28.5714C9.62273 28.5714 8.70508 29.4628 8.70508 30.6285C13.011 30.6285 21.411 30.6285 25.6463 30.6285C25.6463 29.4628 24.7286 28.5714 23.5286 28.5714V16.2285H24.2345C25.011 16.2285 25.6463 16.8457 25.6463 17.6V24.32C25.6463 25.76 26.7051 27.0628 28.1874 27.2C29.8815 27.3371 31.2933 26.1028 31.2933 24.4571V13.8285C31.2933 13.1428 31.011 12.4571 30.4463 11.9085ZM12.2345 10.7428C12.2345 10.3314 12.5168 10.0571 12.9404 10.0571H21.411C21.8345 10.0571 22.1168 10.3314 22.1168 10.7428V14.8571C22.1168 15.2685 21.8345 15.5428 21.411 15.5428H12.9404C12.5168 15.5428 12.2345 15.2685 12.2345 14.8571V10.7428ZM20.7051 17.6C20.7051 18.0114 20.4227 18.2857 19.9992 18.2857C19.5757 18.2857 19.2933 18.0114 19.2933 17.6C19.2933 17.1885 19.5757 16.9142 19.9992 16.9142C20.4227 16.9142 20.7051 17.1885 20.7051 17.6ZM17.8815 17.6C17.8815 18.0114 17.5992 18.2857 17.1757 18.2857C16.7521 18.2857 16.4698 18.0114 16.4698 17.6C16.4698 17.1885 16.7521 16.9142 17.1757 16.9142C17.5992 16.9142 17.8815 17.1885 17.8815 17.6ZM15.058 17.6C15.058 18.0114 14.7757 18.2857 14.3521 18.2857C13.9286 18.2857 13.6463 18.0114 13.6463 17.6C13.6463 17.1885 13.9286 16.9142 14.3521 16.9142C14.7757 16.9142 15.058 17.1885 15.058 17.6Z" fill="white"/>
    </g>
    <defs>
    <clipPath id="clip0_458_6837">
    <rect width="24" height="24" fill="white" transform="translate(8 8)"/>
    </clipPath>
    </defs>
    </svg>
    