<svg width="40" height="40" viewBox="0 0 40 40" fill="none" xmlns="http://www.w3.org/2000/svg">
    <rect width="40" height="40" rx="4" fill="#E90808"/>
    <g clip-path="url(#clip0_458_6850)">
    <path fill-rule="evenodd" clip-rule="evenodd" d="M13.1955 13.6316H16.0829H18.4475C18.5983 13.6316 18.7234 13.7466 18.7356 13.897C18.7465 14.0289 18.7584 14.1605 18.7711 14.2918C18.779 14.371 18.787 14.4512 18.7957 14.5322C18.8047 14.6165 18.7801 14.6927 18.7234 14.7564C18.6662 14.8193 18.5932 14.8522 18.5082 14.8522H17.4203H13.4682C12.9829 14.8522 12.8419 15.1201 12.762 15.4245L11.9728 18.4305C11.8119 19.044 12.176 19.2317 12.4862 19.2317H17.4203H20.4067C20.7036 19.2317 20.9592 19.3369 21.17 19.5459C22.2344 20.5998 23.5693 21.3898 25.0025 21.8114C25.2899 21.896 25.586 21.8942 25.8724 21.806C26.0166 21.7619 26.1591 21.7141 26.3001 21.6628C26.3579 21.6418 26.4158 21.6454 26.4707 21.6729C26.5257 21.7004 26.5629 21.7441 26.5814 21.8031C26.7307 22.2901 26.7206 22.8317 26.7206 23.3766V26.0412C26.7206 27.1125 26.2556 27.4907 25.1847 27.4907H18.7573H16.0829H9.65556C8.585 27.4907 8.12004 27.1125 8.12004 26.0412V23.3766C8.12004 22.566 8.0969 21.7622 8.61175 21.1364L9.563 19.9798H8.72889C8.32793 19.9798 8 19.6518 8 19.2509V19.2505C8 18.8495 8.32793 18.5216 8.72889 18.5216H9.83561C10.0193 18.5216 10.1878 18.5903 10.3161 18.7035L11.4026 15.2427C11.7233 14.2202 12.1243 13.6316 13.1955 13.6316ZM25.3626 8C23.9543 8.66779 22.0963 9.43031 20.0152 9.61976C19.7928 9.64001 19.6254 9.8179 19.6312 10.0287C19.6862 12.1149 19.7361 14.765 20.1331 15.9452C20.8619 18.2349 22.8957 20.0846 25.3022 20.7929C25.3901 20.8186 25.4732 20.8178 25.5607 20.7911C27.9763 20.0488 29.8791 18.236 30.6391 15.9462C31.1337 14.4577 31.1059 12.1188 31.1395 10.0265C31.1428 9.81717 30.9761 9.6411 30.7548 9.62121C28.665 9.43356 26.799 8.6696 25.3857 8H25.3626ZM25.3684 9.62121C24.3166 10.1202 22.9286 10.6896 21.3743 10.831C21.2083 10.8462 21.0832 10.9792 21.0876 11.1365C21.1284 12.6948 21.166 14.6743 21.4621 15.5554C22.0066 17.2659 23.5259 18.6474 25.3232 19.176C25.389 19.1955 25.4508 19.1948 25.5162 19.1749C27.3204 18.6207 28.7417 17.2666 29.3093 15.5565C29.6788 14.4444 29.6578 12.6977 29.6832 11.135C29.6853 10.9785 29.561 10.8472 29.3957 10.8324C27.8349 10.6918 26.4411 10.1216 25.3857 9.62121H25.3684ZM22.5898 28.1614H24.7118C24.932 28.1614 25.112 28.3552 25.112 28.5923V30.2768C25.112 30.7516 24.7519 31.1395 24.3112 31.1395H22.9904C22.5497 31.1395 22.1896 30.7516 22.1896 30.2768V28.5923C22.1896 28.3552 22.3696 28.1614 22.5898 28.1614ZM24.0921 13.5408L24.9157 14.4111L26.8215 12.5458C26.978 12.3929 27.2304 12.3954 27.3837 12.552L27.939 13.1196C28.0923 13.2762 28.0894 13.5285 27.9332 13.6815L25.4475 16.114L25.159 16.3964C25.0795 16.4741 24.9833 16.5121 24.8723 16.5099C24.761 16.5074 24.6666 16.4647 24.5907 16.3834L24.3141 16.0873L22.9355 14.6222C22.7858 14.4632 22.7948 14.2108 22.9543 14.0615L23.5299 13.522C23.6098 13.4472 23.7056 13.4114 23.8151 13.415C23.9247 13.4186 24.0169 13.4616 24.0921 13.5408ZM10.1285 28.1614H12.2504C12.4706 28.1614 12.651 28.3552 12.651 28.5923V30.2768C12.651 30.7516 12.2906 31.1395 11.8498 31.1395H10.5291C10.0883 31.1395 9.72823 30.7516 9.72823 30.2768V28.5923C9.72823 28.3552 9.90829 28.1614 10.1285 28.1614ZM11.3104 22.6448C12.1167 22.6448 12.7696 23.2977 12.7696 24.1036C12.7696 24.9092 12.1167 25.5622 11.3104 25.5622C10.5052 25.5622 9.85188 24.9092 9.85188 24.1036C9.85188 23.2977 10.5052 22.6448 11.3104 22.6448ZM23.5295 22.6448C24.3354 22.6448 24.9884 23.2977 24.9884 24.1036C24.9884 24.9092 24.3354 25.5622 23.5295 25.5622C22.724 25.5622 22.0706 24.9092 22.0706 24.1036C22.0706 23.2977 22.724 22.6448 23.5295 22.6448Z" fill="white"/>
    </g>
    <defs>
    <clipPath id="clip0_458_6850">
    <rect width="23.1395" height="24" fill="white" transform="translate(8 8)"/>
    </clipPath>
    </defs>
    </svg>
    