<svg width="40" height="40" viewBox="0 0 40 40" fill="none" xmlns="http://www.w3.org/2000/svg">
    <rect width="40" height="40" rx="4" fill="#E90808"/>
    <g clip-path="url(#clip0_458_6811)">
    <path d="M30.6862 18.5192C30.6257 18.1278 30.252 17.8076 29.856 17.8076H29.2128C28.8168 17.8076 28.3889 17.5007 28.2627 17.1253L27.877 16.1898C27.6989 15.8358 27.7827 15.3174 28.0625 15.0373L28.5173 14.5827C28.7971 14.3027 28.8216 13.8224 28.5713 13.5157L26.484 11.4282C26.1773 11.1779 25.6973 11.2021 25.4172 11.4822L24.9622 11.9372C24.6823 12.2173 24.1639 12.3008 23.8099 12.1227L22.8744 11.7368C22.4993 11.6103 22.1919 11.1827 22.1919 10.7869V10.1432C22.1919 9.74721 21.8717 9.37353 21.4803 9.31305C21.4803 9.31305 20.7507 9.20001 19.9992 9.20001C19.2478 9.20001 18.5184 9.31305 18.5184 9.31305C18.127 9.37353 17.8068 9.74721 17.8068 10.1432V10.7864C17.8068 11.1824 17.4999 11.6099 17.1243 11.7363L16.1887 12.1225C15.8347 12.3003 15.3163 12.2168 15.0363 11.9367L14.5812 11.4817C14.3014 11.2016 13.8211 11.1774 13.5144 11.4277L11.4271 13.515C11.1768 13.8219 11.2013 14.3019 11.4811 14.582L11.9362 15.0368C12.2163 15.3169 12.2998 15.8355 12.1217 16.1893L11.7358 17.1248C11.6093 17.4999 11.1816 17.8071 10.7856 17.8071H10.1424C9.74642 17.8071 9.37274 18.1273 9.31226 18.5187C9.31226 18.5192 9.19922 19.2488 9.19922 20C9.19922 20.7515 9.31226 21.4808 9.31226 21.4808C9.37274 21.8723 9.74642 22.1924 10.1424 22.1924H10.7856C11.1816 22.1924 11.6093 22.4994 11.7358 22.875L12.1217 23.8103C12.2995 24.1645 12.2163 24.6829 11.9362 24.9627L11.4811 25.4178C11.2013 25.6979 11.1768 26.1779 11.4271 26.4846L13.5147 28.5721C13.8214 28.8224 14.3016 28.7982 14.5817 28.5181L15.0365 28.0631C15.3166 27.7832 15.8352 27.6992 16.189 27.8775L17.1243 28.2632C17.4996 28.3895 17.8068 28.8174 17.8068 29.2134V29.8566C17.8068 30.2526 18.127 30.6263 18.5184 30.6867C18.5184 30.6867 19.2478 30.7998 19.9992 30.7998C20.7507 30.7998 21.48 30.6867 21.48 30.6867C21.8715 30.6263 22.1916 30.2526 22.1916 29.8566V29.2134C22.1916 28.8174 22.4986 28.3895 22.8742 28.2632L23.8095 27.8773C24.1637 27.6997 24.6821 27.7827 24.9619 28.0631L25.417 28.5179C25.6971 28.7979 26.1773 28.8222 26.484 28.5719L28.5713 26.4846C28.8216 26.1779 28.7971 25.6979 28.5173 25.4178L28.0623 24.9627C27.7824 24.6829 27.6987 24.1645 27.877 23.8103L28.2629 22.875C28.3891 22.4999 28.8171 22.1924 29.2131 22.1924H29.8563C30.2523 22.1924 30.6259 21.8723 30.6864 21.4808C30.6864 21.4808 30.7995 20.7515 30.7995 20C30.7992 19.2488 30.6862 18.5192 30.6862 18.5192ZM19.9992 25.4811C16.9721 25.4811 14.5181 23.0271 14.5181 20C14.5181 16.9727 16.9721 14.5189 19.9992 14.5189C23.0263 14.5189 25.4803 16.9727 25.4803 20C25.4803 23.0271 23.0263 25.4811 19.9992 25.4811Z" fill="white"/>
    </g>
    <defs>
    <clipPath id="clip0_458_6811">
    <rect width="24" height="24" fill="white" transform="translate(8 8)"/>
    </clipPath>
    </defs>
    </svg>
    