<svg width="40" height="40" viewBox="0 0 40 40" fill="none" xmlns="http://www.w3.org/2000/svg">
    <rect width="40" height="40" rx="4" fill="#E90808"/>
    <g clip-path="url(#clip0_458_6747)">
    <path d="M31.0169 11.312C31.0169 9.82399 29.8169 8.59999 28.3049 8.59999C26.8169 8.59999 25.5929 9.79999 25.5929 11.312C25.5929 12.512 26.3849 13.52 27.4649 13.88V19.184H20.8409V13.856C21.9209 13.496 22.7129 12.488 22.7129 11.288C22.7129 9.79999 21.5129 8.57599 20.0009 8.57599C18.5129 8.57599 17.2889 9.77599 17.2889 11.288C17.2889 12.488 18.0809 13.496 19.1609 13.856V19.16H12.5129V13.856C13.5929 13.496 14.3849 12.488 14.3849 11.288C14.3849 9.79999 13.1849 8.57599 11.6729 8.57599C10.1849 8.57599 8.96094 9.77599 8.96094 11.288C8.96094 12.488 9.75294 13.496 10.8329 13.856V26.12C9.75294 26.48 8.98494 27.488 8.98494 28.688C8.98494 30.176 10.1849 31.4 11.6969 31.4C13.1849 31.4 14.4089 30.2 14.4089 28.688C14.4089 27.488 13.6169 26.48 12.5369 26.12V20.84H19.1849V26.144C18.1049 26.504 17.3129 27.512 17.3129 28.712C17.3129 30.2 18.5129 31.424 20.0249 31.424C21.5129 31.424 22.7369 30.224 22.7369 28.712C22.7369 27.512 21.9449 26.504 20.8649 26.144V20.84H28.3529C28.8089 20.84 29.1929 20.456 29.1929 20V13.856C30.2489 13.496 31.0169 12.512 31.0169 11.312Z" fill="white"/>
    </g>
    <defs>
    <clipPath id="clip0_458_6747">
    <rect width="24" height="24" fill="white" transform="translate(8 8)"/>
    </clipPath>
    </defs>
    </svg>
    