<svg width="40" height="40" viewBox="0 0 40 40" fill="none" xmlns="http://www.w3.org/2000/svg">
    <rect width="40" height="40" rx="4" fill="#E90808"/>
    <g clip-path="url(#clip0_458_6824)">
    <path d="M22.2317 14.72C21.5357 14.432 20.7677 14.264 19.9997 14.264C19.2317 14.264 18.4637 14.408 17.7677 14.72C17.0957 15.008 16.4717 15.416 15.9437 15.944C15.4157 16.472 15.0077 17.072 14.7197 17.768C14.4317 18.464 14.2637 19.232 14.2637 20C14.2637 20.768 14.4077 21.536 14.7197 22.232C15.0077 22.904 15.4157 23.528 15.9437 24.056C16.4717 24.584 17.0717 24.992 17.7677 25.28C18.4637 25.568 19.2317 25.736 19.9997 25.736C20.7677 25.736 21.5357 25.592 22.2317 25.28C22.9037 24.992 23.5277 24.584 24.0557 24.056C24.5837 23.528 24.9917 22.928 25.2797 22.232C25.5677 21.536 25.7357 20.768 25.7357 20C25.7357 19.232 25.5917 18.464 25.2797 17.768C24.9917 17.096 24.5837 16.472 24.0557 15.944C23.5277 15.416 22.9037 15.008 22.2317 14.72ZM21.8237 15.512L20.9117 17.72C20.5757 18.536 19.3997 18.536 19.0637 17.72L18.1517 15.512C18.7277 15.272 19.3277 15.152 19.9757 15.152C20.6477 15.152 21.2717 15.272 21.8237 15.512ZM21.2237 20.168C21.3197 20.096 21.4397 20.12 21.5117 20.216C21.5837 20.312 21.5597 20.432 21.4637 20.504C21.3677 20.576 21.2477 20.552 21.1757 20.456C21.1037 20.336 21.1277 20.216 21.2237 20.168ZM20.1677 21.368C20.0957 21.464 19.9757 21.488 19.8797 21.416C19.7837 21.344 19.7597 21.224 19.8317 21.128C19.9037 21.032 20.0237 21.008 20.1197 21.08C20.2157 21.152 20.2157 21.296 20.1677 21.368ZM19.9997 20.792C19.5677 20.792 19.2077 20.432 19.2077 20C19.2077 19.568 19.5677 19.208 19.9997 19.208C20.4317 19.208 20.7917 19.568 20.7917 20C20.7917 20.432 20.4557 20.792 19.9997 20.792ZM19.2077 18.944C19.0877 18.944 19.0157 18.848 19.0157 18.752C19.0157 18.656 19.1117 18.56 19.2077 18.56C19.3037 18.56 19.3997 18.656 19.3997 18.752C19.3997 18.848 19.3277 18.944 19.2077 18.944ZM20.6477 18.824C20.6237 18.728 20.6717 18.608 20.7677 18.584C20.8637 18.56 20.9837 18.608 21.0077 18.704C21.0317 18.8 20.9837 18.92 20.8877 18.944C20.7917 18.992 20.6957 18.92 20.6477 18.824ZM18.8717 20.336C18.8477 20.432 18.7277 20.504 18.6317 20.456C18.5357 20.432 18.4637 20.312 18.5117 20.216C18.5357 20.12 18.6557 20.048 18.7517 20.096C18.8477 20.12 18.9197 20.24 18.8717 20.336ZM16.4717 16.688L18.3677 18.272C19.0397 18.848 18.6797 19.952 17.7917 20.024L15.1517 20.216C15.1517 20.144 15.1517 20.072 15.1517 20C15.1517 18.704 15.6557 17.552 16.4717 16.688ZM15.7517 22.328L18.1037 20.888C18.8717 20.408 19.8077 21.104 19.5917 21.968L18.9197 24.728C17.5517 24.416 16.3997 23.528 15.7517 22.328ZM21.1757 24.704L20.4797 21.944C20.2637 21.08 21.2237 20.384 21.9677 20.864L24.2717 22.28C23.6477 23.48 22.5197 24.368 21.1757 24.704ZM24.8477 20.192L22.2317 20C21.3437 19.928 20.9837 18.824 21.6557 18.248L23.5037 16.688C24.3197 17.552 24.8237 18.728 24.8237 20.024C24.8477 20.072 24.8477 20.12 24.8477 20.192Z" fill="white"/>
    <path d="M28.112 16.568C27.68 15.512 27.032 14.576 26.24 13.76C25.424 12.944 24.488 12.32 23.432 11.864C22.352 11.408 21.2 11.168 20 11.168C18.8 11.168 17.648 11.408 16.568 11.864C15.512 12.32 14.576 12.968 13.76 13.76C12.944 14.552 12.32 15.512 11.864 16.568C11.408 17.648 11.168 18.8 11.168 20C11.168 21.2 11.408 22.352 11.864 23.432C12.32 24.488 12.968 25.424 13.76 26.24C14.552 27.056 15.512 27.68 16.568 28.136C17.648 28.592 18.8 28.832 20 28.832C21.2 28.832 22.352 28.592 23.432 28.136C24.488 27.68 25.424 27.032 26.24 26.24C27.056 25.424 27.68 24.488 28.136 23.432C28.592 22.352 28.832 21.2 28.832 20C28.808 18.8 28.568 17.648 28.112 16.568ZM20 26.048C16.664 26.048 13.952 23.336 13.952 20C13.952 16.664 16.664 13.952 20 13.952C23.336 13.952 26.048 16.664 26.048 20C26.048 23.336 23.336 26.048 20 26.048Z" fill="white"/>
    </g>
    <defs>
    <clipPath id="clip0_458_6824">
    <rect width="24" height="24" fill="white" transform="translate(8 8)"/>
    </clipPath>
    </defs>
    </svg>
    