<svg width="69" height="45" viewBox="0 0 69 45" fill="none" xmlns="http://www.w3.org/2000/svg">
<path d="M58.122 32.4014C54.8357 32.4014 52.1709 35.0557 52.1709 38.3525C52.1709 41.6388 54.8357 44.3036 58.122 44.3036C61.4188 44.3036 64.0732 41.6388 64.0732 38.3525C64.0732 35.0557 61.4083 32.4014 58.122 32.4014Z" fill="black"/>
<path d="M46.2617 7.31181L55.3622 7.33288C55.4781 6.85889 55.5413 6.44811 55.5413 5.95306C55.5413 3.10916 53.224 0.781372 50.3801 0.781372H46.2617V7.31181Z" fill="black"/>
<path d="M43.9239 26.6398V0.781372H0.612305V26.6398H43.9239Z" fill="black"/>
<path d="M66.3376 37.1728H68.5179V28.6411C68.5179 26.3976 66.6851 24.5648 64.4416 24.5648H60.576C59.9335 24.5648 59.4069 24.0382 59.4069 23.3957V13.7159C59.4069 11.2828 57.1212 9.65015 54.8461 9.65015H46.2617V37.0885L49.9167 37.1728C50.496 33.1071 53.9929 30.0525 58.1218 30.0525C62.2402 30.0525 65.7582 33.1071 66.3376 37.1728ZM48.7264 11.9779H53.7191C55.9836 11.9779 57.4372 14.1477 57.4372 16.2333V23.5431C57.4372 24.1119 56.9843 24.5648 56.426 24.5648H53.5084C52.9923 24.5648 52.5604 24.1856 52.4972 23.6801C52.0865 21.8157 50.4433 20.5096 48.5895 20.2674C48.0734 20.1936 47.7047 19.7618 47.7047 19.2562V12.9996C47.7047 12.4309 48.1577 11.9779 48.7264 11.9779Z" fill="black"/>
<path d="M20.0983 37.1412H20.7619C21.3517 33.086 24.8487 30.0525 28.9671 30.0525C33.0749 30.0525 36.5824 33.0755 37.1722 37.1412H43.9239V28.9781H0.612305V37.1412H3.68793C4.27778 33.086 7.77472 30.0525 11.8931 30.0525C16.0115 30.0525 19.5084 33.086 20.0983 37.1412Z" fill="black"/>
<path d="M17.8446 38.3525C17.8446 35.0557 15.1903 32.4014 11.8935 32.4014C8.63882 32.4014 5.98451 35.0135 5.94238 38.2682C5.94238 41.6072 8.53349 44.3036 11.8935 44.3036C15.1798 44.3036 17.8446 41.6388 17.8446 38.3525Z" fill="black"/>
<path d="M53.7197 14.0214H49.7383V18.4241C51.8133 18.9824 53.5512 20.4886 54.278 22.532H55.405V16.2333C55.405 15.2959 54.8257 14.0214 53.7197 14.0214Z" fill="black"/>
<path d="M23.0156 38.2788C23.0156 41.6072 25.6173 44.3036 28.9668 44.3036C32.253 44.3036 34.9179 41.6388 34.9179 38.3525C34.9179 35.0662 32.253 32.4014 28.9668 32.4014C25.7437 32.4014 23.0156 35.0346 23.0156 38.2788Z" fill="black"/>
</svg>
