<svg width="66" height="50" viewBox="0 0 66 50" fill="none" xmlns="http://www.w3.org/2000/svg">
<g clip-path="url(#clip0_161_14760)">
<path d="M53.2002 47.7001C57.0662 47.7001 60.2002 44.5661 60.2002 40.7001C60.2002 36.8341 57.0662 33.7001 53.2002 33.7001C49.3342 33.7001 46.2002 36.8341 46.2002 40.7001C46.2002 44.5661 49.3342 47.7001 53.2002 47.7001Z" fill="black"/>
<path d="M15.5 47.7001C19.366 47.7001 22.5 44.5661 22.5 40.7001C22.5 36.8341 19.366 33.7001 15.5 33.7001C11.634 33.7001 8.5 36.8341 8.5 40.7001C8.5 44.5661 11.634 47.7001 15.5 47.7001Z" fill="black"/>
<path d="M39 8.30005C39 6.60005 37.6 5.30005 36 5.30005H4C2.3 5.30005 1 6.70005 1 8.30005V29.4001H39V8.30005Z" fill="black"/>
<path d="M63.9 24.5L53.4 12.6C52.4 11.5 51.1 10.9 49.6 10.9H42C41.5 10.9 41 11.3 41 11.9V26.1V38.5H39V31.3H1V39.5C1 40 1.4 40.5 2 40.5H6.5C6.6 35.6 10.6 31.7 15.5 31.7C20.4 31.7 24.4 35.6 24.5 40.5H44.2C44.3 35.6 48.3 31.7 53.2 31.7C58.1 31.7 62.1 35.6 62.2 40.4C63.8 40.1 65.1 38.7 65.1 37V27.4C65 26.3 64.6 25.2 63.9 24.5ZM43 25.1V12.9H49.6C50.5 12.9 51.3 13.3 51.9 13.9L61.9 25.1H43Z" fill="black"/>
</g>
<defs>
<clipPath id="clip0_161_14760">
<rect width="66" height="50" fill="white"/>
</clipPath>
</defs>
</svg>
