<svg width="71" height="50" viewBox="0 0 71 50" fill="none" xmlns="http://www.w3.org/2000/svg">
<g clip-path="url(#clip0_161_14756)">
<path d="M61.5387 12.0448C61.3278 11.4566 60.9395 10.9483 60.4274 10.59C59.9153 10.2318 59.3047 10.0413 58.6797 10.0448H48.5323C48.0515 10.0447 47.5859 10.2134 47.2169 10.5215C46.8478 10.8296 46.5987 11.2576 46.5131 11.7307L43.0387 30.673H45.9682C47.1523 30.1489 48.4329 29.8781 49.7278 29.8781C51.0227 29.8781 52.3033 30.1489 53.4874 30.673H65.3849C65.6041 30.6751 65.8212 30.7164 66.0259 30.7948V25.5384C66.0265 24.7091 65.8788 23.8863 65.59 23.1089L61.5387 12.0448ZM61.3464 23.5833C61.1495 23.8564 60.889 24.0774 60.5874 24.2271C60.2858 24.3767 59.9522 24.4506 59.6156 24.4423H51.5131C50.9684 24.4423 50.446 24.2264 50.0603 23.8419C49.6746 23.4573 49.4571 22.9356 49.4554 22.391V15.3846C49.4554 14.8388 49.6722 14.3155 50.0581 13.9296C50.444 13.5437 50.9673 13.3269 51.5131 13.3269H57.0515C57.4711 13.3285 57.8801 13.4582 58.2239 13.6988C58.5676 13.9394 58.8295 14.2794 58.9746 14.673L61.5387 21.6666C61.657 21.9765 61.6983 22.3104 61.6593 22.6398C61.6202 22.9691 61.5018 23.2841 61.3144 23.5577L61.3464 23.5833ZM60.3849 22.1474C60.4196 22.2637 60.4261 22.3866 60.4038 22.5059C60.3815 22.6252 60.331 22.7374 60.2567 22.8333C60.1854 22.9367 60.0894 23.0208 59.9775 23.0779C59.8656 23.1349 59.7412 23.1632 59.6156 23.1602H51.5131C51.3085 23.1602 51.1121 23.0794 50.9669 22.9353C50.8216 22.7912 50.7391 22.5956 50.7374 22.391V15.3846C50.7391 15.18 50.8216 14.9843 50.9669 14.8403C51.1121 14.6962 51.3085 14.6153 51.5131 14.6153H57.0515C57.2095 14.616 57.3635 14.6648 57.4929 14.7553C57.6223 14.8458 57.7211 14.9736 57.7759 15.1218L60.3849 22.1474ZM40.7567 31.9551H43.9041C42.857 32.8076 42.0133 33.8829 41.4344 35.1027C40.8556 36.3225 40.5561 37.6562 40.5579 39.0064C40.5579 39.2243 40.5579 39.4359 40.5579 39.6474H33.5067H29.9169C29.9169 39.4294 29.9169 39.2115 29.9169 39.0064C29.9127 36.7292 29.0616 34.5351 27.5293 32.8506C25.997 31.1662 23.8929 30.1119 21.6263 29.8929C19.3597 29.6738 17.0927 30.3056 15.2661 31.6654C13.4396 33.0252 12.1841 35.0158 11.7438 37.25C11.7438 37.3718 11.699 37.4935 11.6797 37.6218L8.69897 36.5577L6.41051 35.8974C5.85949 35.7439 5.37358 35.4149 5.02651 34.9603C4.67945 34.5056 4.49018 33.9501 4.48743 33.3782V29.8525C4.48743 29.6825 4.55497 29.5195 4.67518 29.3992C4.7954 29.279 4.95845 29.2115 5.12846 29.2115H40.4938C40.5887 29.2099 40.6827 29.2295 40.769 29.2686C40.8554 29.3078 40.932 29.3656 40.9934 29.438C41.0547 29.5104 41.0992 29.5954 41.1236 29.6871C41.1481 29.7787 41.1519 29.8746 41.1349 29.9679L40.7567 31.9551ZM58.8656 39.7051C58.8784 39.4766 58.8784 39.2476 58.8656 39.0192C58.8662 37.6711 58.5681 36.3397 57.9929 35.1205C57.4177 33.9013 56.5795 32.8247 55.5387 31.9679H65.3849C65.5549 31.9679 65.7179 32.0354 65.8381 32.1557C65.9584 32.2759 66.0259 32.4389 66.0259 32.6089V36.5C66.0259 37.35 65.6882 38.1652 65.0871 38.7663C64.4861 39.3674 63.6708 39.7051 62.8208 39.7051H58.8656ZM21.4874 24.532V14.9166C21.4873 14.6626 21.5865 14.4186 21.7637 14.2366C21.9409 14.0546 22.1822 13.949 22.4361 13.9423C22.6946 13.9423 22.9424 14.0449 23.1251 14.2277C23.3079 14.4104 23.4105 14.6582 23.4105 14.9166V24.532C23.3731 24.7601 23.2559 24.9674 23.0798 25.1171C22.9037 25.2667 22.6801 25.3488 22.449 25.3488C22.2179 25.3488 21.9943 25.2667 21.8181 25.1171C21.642 24.9674 21.5248 24.7601 21.4874 24.532ZM30.1028 24.532V14.9166C30.1028 14.7235 30.1601 14.5347 30.2676 14.3742C30.375 14.2137 30.5278 14.0888 30.7064 14.0153C30.885 13.9418 31.0814 13.923 31.2707 13.9614C31.46 13.9998 31.6336 14.0935 31.7695 14.2307C31.8598 14.3205 31.9314 14.4274 31.9798 14.5452C32.0282 14.663 32.0526 14.7893 32.0515 14.9166V24.532C32.0142 24.7601 31.8969 24.9674 31.7208 25.1171C31.5447 25.2667 31.3211 25.3488 31.09 25.3488C30.8589 25.3488 30.6353 25.2667 30.4592 25.1171C30.283 24.9674 30.1658 24.7601 30.1285 24.532H30.1028ZM40.4938 27.9294C40.831 27.9314 41.162 28.0197 41.4554 28.1859L44.6605 10.8782C44.767 10.2785 45.0835 9.7363 45.5533 9.3487C46.0232 8.9611 46.6156 8.75339 47.2246 8.76278H49.6797C50.4312 8.76278 51.1519 8.46427 51.6832 7.93292C52.2146 7.40156 52.5131 6.68089 52.5131 5.92945C52.5131 5.178 52.2146 4.45733 51.6832 3.92598C51.1519 3.39463 50.4312 3.09611 49.6797 3.09611H44.231C43.7098 3.08052 43.1945 3.20938 42.7419 3.46845C42.2894 3.72752 41.9174 4.1067 41.6669 4.56406L39.9682 7.69227C39.8263 7.95253 39.6169 8.1697 39.3619 8.32088C39.1069 8.47206 38.8159 8.55164 38.5195 8.55124H7.10923C6.76306 8.55038 6.42017 8.61824 6.10043 8.7509C5.78069 8.88355 5.49047 9.07836 5.24659 9.32403C5.00271 9.5697 4.81002 9.86134 4.67971 10.182C4.54939 10.5027 4.48404 10.8461 4.48743 11.1923V28.0448C4.69254 27.9685 4.90962 27.9295 5.12846 27.9294H40.4938ZM28.8464 14.9102C28.8481 14.3123 29.0864 13.7394 29.5092 13.3166C29.9319 12.8938 30.5049 12.6555 31.1028 12.6538C31.6952 12.6655 32.2597 12.9077 32.6763 13.3291C33.0929 13.7505 33.3287 14.3177 33.3336 14.9102V24.5256C33.2743 25.0793 33.0124 25.5915 32.5982 25.9637C32.184 26.3359 31.6468 26.5418 31.09 26.5418C30.5331 26.5418 29.996 26.3359 29.5818 25.9637C29.1676 25.5915 28.9057 25.0793 28.8464 24.5256V14.9102ZM20.231 14.9102C20.2309 14.3206 20.4615 13.7543 20.8737 13.3326C21.2858 12.9108 21.8466 12.6672 22.4361 12.6538C23.0341 12.6555 23.607 12.8938 24.0298 13.3166C24.4526 13.7394 24.6909 14.3123 24.6926 14.9102V24.5256C24.6333 25.0793 24.3714 25.5915 23.9572 25.9637C23.543 26.3359 23.0058 26.5418 22.449 26.5418C21.8921 26.5418 21.3549 26.3359 20.9408 25.9637C20.5266 25.5915 20.2647 25.0793 20.2054 24.5256L20.231 14.9102ZM11.6092 14.9102C11.6097 14.4648 11.7424 14.0295 11.9905 13.6596C12.2385 13.2896 12.5908 13.0017 13.0027 12.8321C13.4146 12.6625 13.8675 12.619 14.3042 12.7071C14.7408 12.7952 15.1414 13.0109 15.4554 13.3269C15.6613 13.5355 15.8239 13.7828 15.9339 14.0546C16.0439 14.3263 16.0992 14.6171 16.0964 14.9102V24.5256C16.0371 25.0793 15.7752 25.5915 15.361 25.9637C14.9468 26.3359 14.4097 26.5418 13.8528 26.5418C13.296 26.5418 12.7588 26.3359 12.3446 25.9637C11.9304 25.5915 11.6685 25.0793 11.6092 24.5256V14.9102ZM12.8913 24.5256V14.9102C12.8912 14.7171 12.9486 14.5283 13.056 14.3678C13.1635 14.2073 13.3162 14.0824 13.4948 14.0089C13.6734 13.9354 13.8698 13.9166 14.0591 13.955C14.2484 13.9933 14.422 14.0871 14.5579 14.2243C14.6483 14.3141 14.7198 14.421 14.7683 14.5388C14.8167 14.6566 14.8411 14.7829 14.84 14.9102V24.5256C14.8026 24.7537 14.6854 24.961 14.5093 25.1106C14.3331 25.2603 14.1096 25.3424 13.8785 25.3424C13.6473 25.3424 13.4238 25.2603 13.2476 25.1106C13.0715 24.961 12.9543 24.7537 12.9169 24.5256H12.8913ZM22.7695 39.0256C22.7707 39.4192 22.6551 39.8042 22.4373 40.132C22.2194 40.4598 21.9091 40.7155 21.5457 40.8667C21.1824 41.0179 20.7823 41.0578 20.3962 40.9813C20.0101 40.9048 19.6555 40.7154 19.3772 40.4371C19.0989 40.1589 18.9095 39.8042 18.833 39.4181C18.7565 39.032 18.7964 38.632 18.9476 38.2686C19.0988 37.9052 19.3545 37.5949 19.6823 37.3771C20.0101 37.1592 20.3951 37.0436 20.7887 37.0448C21.3135 37.0465 21.8164 37.2557 22.1875 37.6269C22.5586 37.998 22.7678 38.5008 22.7695 39.0256ZM20.7887 31.141C19.2304 31.141 17.707 31.6028 16.4109 32.468C15.1149 33.3333 14.1043 34.5632 13.5068 36.0024C12.9092 37.4416 12.7516 39.0256 13.0538 40.5544C13.3559 42.0832 14.1043 43.4881 15.2044 44.5918C16.3046 45.6955 17.7071 46.4485 19.2348 46.7556C20.7626 47.0627 22.3471 46.9102 23.7883 46.3174C25.2295 45.7245 26.4626 44.7179 27.3321 43.4247C28.2015 42.1315 28.6683 40.6096 28.6733 39.0512C28.6759 38.0139 28.4738 36.9862 28.0788 36.0271C27.6838 35.0679 27.1035 34.196 26.3712 33.4613C25.6389 32.7266 24.7689 32.1435 23.811 31.7453C22.8531 31.3472 21.8261 31.1418 20.7887 31.141ZM20.7887 42.2948C20.1418 42.2961 19.5091 42.1054 18.9707 41.747C18.4322 41.3885 18.0122 40.8784 17.7638 40.2811C17.5153 39.6839 17.4497 39.0263 17.5751 38.3917C17.7005 37.7572 18.0114 37.174 18.4683 36.7162C18.9253 36.2583 19.5078 35.9463 20.1421 35.8197C20.7765 35.693 21.4342 35.7574 22.0319 36.0046C22.6296 36.2519 23.1406 36.6709 23.5001 37.2086C23.8596 37.7464 24.0515 38.3787 24.0515 39.0256C24.0532 39.4555 23.9701 39.8814 23.807 40.2791C23.6438 40.6768 23.4039 41.0385 23.1008 41.3433C22.7977 41.6482 22.4375 41.8903 22.0408 42.0557C21.6441 42.2212 21.2186 42.3068 20.7887 42.3077V42.2948ZM51.7118 39.0256C51.7131 39.4192 51.5974 39.8042 51.3796 40.132C51.1617 40.4598 50.8514 40.7155 50.488 40.8667C50.1247 41.0179 49.7246 41.0578 49.3385 40.9813C48.9524 40.9048 48.5978 40.7154 48.3195 40.4371C48.0412 40.1589 47.8518 39.8042 47.7753 39.4181C47.6988 39.032 47.7387 38.632 47.8899 38.2686C48.0411 37.9052 48.2968 37.5949 48.6246 37.3771C48.9524 37.1592 49.3375 37.0436 49.731 37.0448C50.2558 37.0465 50.7587 37.2557 51.1298 37.6269C51.5009 37.998 51.7101 38.5008 51.7118 39.0256ZM53.3656 32.0512C52.2464 31.4826 51.0088 31.1862 49.7535 31.1862C48.4981 31.1862 47.2605 31.4826 46.1413 32.0512C44.9049 32.6979 43.8623 33.661 43.1198 34.8423C42.3773 36.0236 41.9616 37.3807 41.9151 38.7752C41.8686 40.1697 42.193 41.5515 42.8551 42.7797C43.5173 44.0078 44.4934 45.0382 45.684 45.7658C46.8745 46.4933 48.2368 46.8919 49.6317 46.9209C51.0267 46.9499 52.4043 46.6082 53.624 45.9306C54.8437 45.2531 55.8618 44.2641 56.5743 43.0645C57.2869 41.8649 57.6683 40.4977 57.6797 39.1025V39.0577C57.6798 37.6049 57.2765 36.1806 56.5148 34.9436C55.7531 33.7065 54.6629 32.7052 53.3656 32.0512ZM49.731 42.3077C49.0842 42.3089 48.4515 42.1183 47.913 41.7598C47.3745 41.4014 46.9545 40.8912 46.7061 40.2939C46.4577 39.6967 46.392 39.0392 46.5174 38.4046C46.6428 37.77 46.9537 37.1869 47.4106 36.729C47.8676 36.2711 48.4501 35.9591 49.0845 35.8325C49.7188 35.7058 50.3765 35.7702 50.9742 36.0174C51.572 36.2647 52.0829 36.6837 52.4424 37.2215C52.8019 37.7592 52.9938 38.3916 52.9938 39.0384C52.9921 39.9038 52.6481 40.7334 52.0367 41.346C51.4254 41.9585 50.5964 42.3043 49.731 42.3077Z" fill="black"/>
</g>
<defs>
<clipPath id="clip0_161_14756">
<rect width="70.5128" height="50" fill="white"/>
</clipPath>
</defs>
</svg>
