<svg width="73" height="50" viewBox="0 0 73 50" fill="none" xmlns="http://www.w3.org/2000/svg">
<g clip-path="url(#clip0_161_14768)">
<path d="M6.84375 23.8636H41.0625C42.3223 23.8636 43.3438 24.8802 43.3438 26.1364V37.5C43.3438 38.7562 42.3223 39.7727 41.0625 39.7727H22.8125C22.8125 36.013 19.7426 32.9546 15.9688 32.9546C12.1949 32.9546 9.125 36.013 9.125 39.7727H6.84375C5.58394 39.7727 4.5625 38.7562 4.5625 37.5V26.1364C4.5625 24.8802 5.58394 23.8636 6.84375 23.8636Z" fill="black"/>
<path d="M15.9688 44.3182C13.449 44.3182 11.4062 42.2831 11.4062 39.7727C11.4062 37.2624 13.449 35.2273 15.9688 35.2273C18.4885 35.2273 20.5312 37.2624 20.5312 39.7727C20.5312 42.2831 18.4885 44.3182 15.9688 44.3182Z" fill="black"/>
<path d="M54.75 44.3182C52.2302 44.3182 50.1875 42.2831 50.1875 39.7727C50.1875 37.2624 52.2302 35.2273 54.75 35.2273C57.2698 35.2273 59.3125 37.2624 59.3125 39.7727C59.3125 42.2831 57.2698 44.3182 54.75 44.3182Z" fill="black"/>
<path d="M47.9062 7.95459H59.3125C60.1768 7.95459 60.9666 8.44065 61.3531 9.2108L67.5664 19.3182H45.625V10.2273C45.625 8.9711 46.6464 7.95459 47.9062 7.95459Z" fill="black"/>
<path d="M68.4375 37.5C68.4375 38.7562 67.4161 39.7728 66.1562 39.7728H61.5938C61.5938 36.013 58.5239 32.9546 54.75 32.9546C50.9761 32.9546 47.9062 36.013 47.9062 39.7728C46.6464 39.7728 45.625 38.7562 45.625 37.5V21.5909H68.4375V37.5Z" fill="black"/>
</g>
<defs>
<clipPath id="clip0_161_14768">
<rect width="73" height="50" fill="white" transform="matrix(-1 0 0 1 73 0)"/>
</clipPath>
</defs>
</svg>
