<svg width="49" height="50" viewBox="0 0 49 50" fill="none" xmlns="http://www.w3.org/2000/svg">
<g clip-path="url(#clip0_161_16490)">
<path d="M17.9514 16.4426C18.4234 16.4917 18.8856 16.5146 19.3363 16.5147C23.0208 16.515 25.958 14.9982 27.5127 13.9822L22.8868 24.6556C22.1843 23.7553 21.1682 22.8982 19.9172 22.2014C19.9219 21.5577 19.8734 19.8146 19.2744 18.451C18.9173 17.6381 18.398 16.9457 17.9514 16.4426Z" fill="#333333"/>
<path d="M13.2935 21.819C13.7617 21.6518 14.3072 21.5702 14.9004 21.5702C16.1147 21.5703 17.5291 21.9125 18.8902 22.5631C21.8699 23.9874 23.758 26.5315 23.0132 28.1186C22.7928 28.5882 22.3666 28.9387 21.7465 29.1602C20.3203 29.6698 18.1755 29.3846 16.1497 28.4162C13.1702 26.9919 11.282 24.4477 12.0268 22.8605C12.2472 22.391 12.6735 22.0405 13.2935 21.819Z" fill="#333333"/>
<path d="M36.0589 22.7543L34.9548 22.8423L32.2104 13.3856C33.6519 14.2614 35.0644 14.9008 36.3969 14.8868L36.0589 22.7543Z" fill="#333333"/>
<path d="M25.8915 8.08372C26.1144 7.26548 26.5855 6.69002 27.3235 6.33372C29.0643 7.82094 30.3402 9.79017 30.9937 12.0422L38.5704 38.1506C38.745 38.7523 38.4028 39.3853 37.8076 39.5614C37.7057 39.5915 37.6 39.6067 37.4938 39.6067C36.9999 39.6067 36.5574 39.2712 36.4178 38.7909L28.8411 12.6824C28.3153 10.8701 27.2898 9.28441 25.8915 8.08372Z" fill="#333333"/>
<path d="M8.27118 26.8044C7.6802 26.8044 7.16191 25.8937 7.16198 24.8555C7.16205 23.8173 7.68046 22.9067 8.27144 22.9068C8.86241 22.9068 9.3808 23.8176 9.38073 24.8557C9.38066 25.8938 8.86215 26.8044 8.27118 26.8044Z" fill="#333333"/>
<path d="M17.5764 15.5972C15.9662 15.3697 14.4211 14.9097 13.0174 14.3549C12.9314 13.4772 12.902 11.6542 13.548 10.8739C14.3905 9.8566 16.2867 9.09899 18.6249 9.70073C20.5158 10.1873 24.6029 12.922 26.0485 13.916C24.1384 14.9531 21.1075 16.0964 17.5764 15.5972Z" fill="#333333"/>
<path d="M12.9366 10.3678C12.1662 11.2982 12.1421 13.0489 12.1965 14.013C10.2088 13.1447 8.56348 12.1291 7.50956 11.41C7.19856 11.1978 6.9966 10.8599 6.95555 10.4829C6.91451 10.1058 7.03923 9.73189 7.29769 9.4572C8.00895 8.7016 8.84359 8.31852 9.77861 8.31858C11.5615 8.3187 13.0665 9.12892 13.7973 9.60526C13.4542 9.834 13.1641 10.0931 12.9366 10.3678Z" fill="#333333"/>
<path d="M31.7564 11.8209C31.3923 10.5661 30.8465 9.39384 30.144 8.33357C30.5637 6.99144 32.0014 5.79332 33.469 5.02258C32.7322 6.06916 32.2755 7.51576 32.2754 9.11159C32.2752 10.7104 32.7336 12.1593 33.4726 13.2064C32.9159 12.9153 32.3587 12.5589 31.8506 12.1456L31.7564 11.8209Z" fill="#333333"/>
<path d="M8.27115 30.5498C6.04853 30.5496 4.24046 27.995 4.24067 24.8553C4.24088 21.7156 6.04929 19.1612 8.27191 19.1614C9.68302 19.1615 10.986 20.2088 11.7183 21.9115C11.551 22.0963 11.4132 22.3007 11.3086 22.5235C10.7801 23.6497 11.1458 25.0378 12.1631 26.3356C11.693 28.7884 10.0778 30.5499 8.27115 30.5498ZM8.27171 22.113C7.20465 22.113 6.36865 23.3176 6.36855 24.8554C6.36845 26.3932 7.20428 27.5979 8.27134 27.598C9.33851 27.598 10.1745 26.3934 10.1746 24.8556C10.1747 23.3178 9.33887 22.1131 8.27171 22.113Z" fill="#333333"/>
<path d="M15.8078 29.1321C17.2707 29.8314 18.8078 30.1981 20.149 30.1982C20.8336 30.1982 21.4669 30.1028 22.0138 29.9075C22.8288 29.6164 23.4228 29.1144 23.7319 28.4557C24.1537 27.5568 24.0064 26.4911 23.4128 25.4377L28.3865 13.9618L31.284 23.9465C28.9616 25.1117 27.1065 27.0941 25.9082 29.7043C25.519 30.552 25.1955 31.4639 24.9467 32.4143C24.7332 33.2303 24.8957 34.09 25.3927 34.7729C25.501 34.9218 25.6228 35.0573 25.7549 35.1798C25.1684 35.6601 23.7504 36.532 21.5162 36.1328C18.8281 35.6526 15.0352 31.6836 14.124 30.6932C14.4987 30.0973 14.8146 29.4439 15.066 28.7452C15.3051 28.88 15.5518 29.0098 15.8078 29.1321Z" fill="#333333"/>
<path d="M28.4919 35.7868C28.4777 36.0108 28.4703 36.2358 28.4703 36.4601C28.47 41.7343 32.3642 46.0256 37.1513 46.0259C41.9383 46.0262 45.8332 41.7356 45.8335 36.4613C45.8336 35.8235 45.7754 35.1909 45.6627 34.5711C45.9113 34.6418 46.1692 34.6792 46.4288 34.6792C46.7764 34.6792 47.1265 34.613 47.4603 34.4778C47.5555 35.1304 47.6044 35.7952 47.6044 36.4614C47.6039 43.0514 42.9147 48.4125 37.1513 48.4121C31.3879 48.4117 26.6993 43.0501 26.6997 36.46C26.6997 36.2283 26.7062 35.9956 26.7178 35.7639C27.3034 35.9226 27.8953 35.9191 28.4919 35.7868Z" fill="#333333"/>
<path d="M25.7142 32.6152C25.9513 31.7093 26.2591 30.8413 26.6292 30.0354C27.7284 27.6409 29.4094 25.8125 31.5082 24.7203L32.6589 28.6854C31.6582 29.3754 30.8672 30.367 30.2478 31.7087C29.9746 32.3 29.7451 32.9495 29.5654 33.6391C29.3273 34.5542 28.4672 35.18 27.5313 35.1259C26.9343 35.0921 26.3886 34.7931 26.034 34.3059C25.6777 33.8162 25.5611 33.1999 25.7142 32.6152Z" fill="#333333"/>
<path d="M44.7914 33.0341C44.2306 32.2241 43.628 31.4819 43.0005 30.8281C40.9214 28.6612 38.5791 27.6021 36.3253 27.602L35.1787 23.6145C35.1883 23.6134 35.1978 23.6117 35.2074 23.6106C35.6161 23.5644 36.0305 23.541 36.4392 23.5411C39.7919 23.5413 43.0545 25.0989 45.8742 28.0453C46.6495 28.8554 47.3825 29.7561 48.0531 30.7221C48.3866 31.2026 48.495 31.8048 48.3503 32.3742C48.2061 32.9415 47.8261 33.4165 47.3075 33.6776C46.4324 34.1182 45.3507 33.8414 44.7914 33.0341Z" fill="#333333"/>
<path d="M25.2259 7.56051L19.6882 4.3158C19.1489 4.00514 18.9613 3.309 19.2696 2.76398C19.419 2.5001 19.6608 2.31113 19.9508 2.23198C20.0479 2.2054 20.1467 2.19231 20.2447 2.19232C20.4367 2.19233 20.6265 2.24274 20.7977 2.34146C23.2188 3.63518 25.7244 4.95429 26.6482 5.79811C25.9756 6.20848 25.5 6.79872 25.2259 7.56051Z" fill="#333333"/>
<path d="M8.27202 16.2482C10.7412 16.2484 13.008 18.0272 14.1604 20.8223C13.7545 20.867 13.3725 20.9481 13.0268 21.0716C12.7818 21.1591 12.5573 21.266 12.354 21.3901C11.476 19.5134 9.94688 18.3678 8.27198 18.3677C5.61176 18.3675 3.44728 21.2778 3.44704 24.8553C3.4468 28.4326 5.6108 31.3432 8.27111 31.3434C10.3434 31.3435 12.133 29.6197 12.8113 27.064C13.2587 27.5092 13.7838 27.9337 14.3742 28.3232C13.3057 31.4559 10.936 33.4631 8.27087 33.4629C4.59448 33.4627 1.60377 29.6013 1.60409 24.8551C1.6044 20.109 4.59573 16.248 8.27202 16.2482Z" fill="#333333"/>
<path d="M0.0466519 18.8204C0.402273 16.3483 2.56823 12.0908 6.17631 10.0406C6.1512 10.2138 6.14702 10.3909 6.16635 10.5687C6.23258 11.1767 6.55903 11.7222 7.06208 12.0654C8.90466 13.3227 12.5044 15.4615 16.6312 16.2447C16.9179 16.4955 17.9812 17.481 18.5474 18.77C18.986 19.7683 19.0939 21.0467 19.1169 21.7944C17.7272 21.1483 16.2791 20.802 14.9987 20.7837C13.7614 17.5372 11.1463 15.4547 8.27178 15.4545C4.85273 15.4542 1.96365 18.3669 1.08471 22.3265C0.549933 21.6896 -0.191454 20.4756 0.0466519 18.8204Z" fill="#333333"/>
<path d="M31.7432 4.46454L27.3297 1.92118C26.8415 1.6399 26.6716 1.00953 26.9509 0.516001C27.086 0.277121 27.305 0.106104 27.5675 0.0343953C27.8275 -0.0365198 28.0996 -0.00138257 28.3338 0.133455C30.7751 1.42826 33.2047 2.72088 34.3181 3.77473C33.6498 4.023 32.9414 4.36958 32.2712 4.79681C32.0987 4.68083 31.9232 4.56832 31.7432 4.46454Z" fill="#333333"/>
<path d="M36.3298 14.0955C34.11 13.8987 33.0686 11.9735 33.0687 9.11174C33.0689 6.36372 34.5322 4.1282 36.3305 4.12832C38.1288 4.12844 39.5916 6.36416 39.5915 9.11217C39.5913 11.8601 38.128 14.0956 36.3298 14.0955Z" fill="#333333"/>
<path d="M37.3052 14.7189C37.9605 14.4874 38.5535 14.0288 39.0401 13.4046L42.1765 24.212C41.3923 23.7996 40.5906 23.4718 39.7758 23.2325L37.3052 14.7189Z" fill="#333333"/>
</g>
<defs>
<clipPath id="clip0_161_16490">
<rect width="48.4127" height="50" fill="white" transform="matrix(-1 -6.68966e-05 -6.68966e-05 1 48.415 0)"/>
</clipPath>
</defs>
</svg>
