<svg width="83" height="50" viewBox="0 0 83 50" fill="none" xmlns="http://www.w3.org/2000/svg">
<g clip-path="url(#clip0_161_16520)">
<path d="M17.9357 42.3077H10.269C11.3588 43.1283 12.7049 43.5898 14.1024 43.5898C15.4998 43.5898 16.846 43.1283 17.9357 42.3077Z" fill="#333333"/>
<path d="M8.99951 33.3334H19.2175C18.0252 31.7308 16.1534 30.7693 14.1021 30.7693C12.0508 30.7693 10.1918 31.7565 8.99951 33.3334Z" fill="#333333"/>
<path d="M14.1026 44.8719C11.8975 44.8719 9.83337 43.936 8.37183 42.2949C7.28209 42.2565 6.41029 41.359 6.41029 40.2565V39.2308C6.41029 38.6795 6.62824 38.1924 6.9744 37.8206C6.62824 37.4488 6.41029 36.9616 6.41029 36.4103V35.3847C6.41029 34.718 6.73081 34.1283 7.21799 33.7565C8.51286 31.1667 11.1923 29.4872 14.1026 29.4872C17.0129 29.4872 19.3718 30.9616 20.7436 33.3334H23.5898C23.5898 33.3334 23.577 33.3206 23.577 33.3077C23.4359 33.2693 23.2949 33.1924 23.2052 33.077C20.1154 28.9616 15.3077 27.3719 11.218 29.1411C10.0898 29.6154 8.84619 29.5898 7.76927 29.1283C5.28209 31.0898 3.84619 34.0001 3.84619 37.1795C3.84619 42.8334 8.44876 47.436 14.1026 47.436C17.7821 47.436 21.1411 45.4488 22.9616 42.3077H19.8206C18.359 43.936 16.2949 44.8719 14.1026 44.8719Z" fill="#333333"/>
<path d="M10.7191 27.9615C11.9883 27.4102 13.3344 27.141 14.6678 27.141C18.0011 27.141 21.3473 28.782 23.8216 31.782L25.6165 30.282C23.4883 25.8846 19.0268 23.0769 14.1037 23.0769C11.1037 23.0769 8.23188 24.1154 5.93701 26.0256L7.42419 27.4102C8.30881 28.2179 9.59086 28.4359 10.7191 27.9615Z" fill="#333333"/>
<path d="M24.8719 34.6154H8.46161C8.03678 34.6154 7.69238 34.9598 7.69238 35.3846V36.4102C7.69238 36.8351 8.03678 37.1795 8.46161 37.1795H24.8719C25.2967 37.1795 25.6411 36.8351 25.6411 36.4102V35.3846C25.6411 34.9598 25.2967 34.6154 24.8719 34.6154Z" fill="#333333"/>
<path d="M24.8719 38.4615H8.46161C8.03678 38.4615 7.69238 38.8059 7.69238 39.2308V40.2564C7.69238 40.6813 8.03678 41.0257 8.46161 41.0257H24.8719C25.2967 41.0257 25.6411 40.6813 25.6411 40.2564V39.2308C25.6411 38.8059 25.2967 38.4615 24.8719 38.4615Z" fill="#333333"/>
<path d="M29.5122 30.5256C29.5506 30.0384 29.7814 29.6025 30.1532 29.2948L31.2814 28.3461L30.1147 27.2051L26.5634 29.3205C26.7173 29.6025 26.8711 29.8974 26.9993 30.2051C27.1147 30.4615 27.0378 30.7692 26.8198 30.9487L24.7173 32.7051C24.807 32.9102 24.884 33.1282 24.9609 33.3461C25.3198 33.3589 25.6532 33.4615 25.9481 33.641L29.525 30.6538C29.525 30.6538 29.5122 30.5641 29.5122 30.5256Z" fill="#333333"/>
<path d="M27.5518 33.9744H31.3338L31.5389 33.718L30.0261 31.9103L27.5518 33.9744Z" fill="#333333"/>
<path d="M25.9235 28.2179L33.9748 23.4231L33.5774 22.1025C31.0902 23.3974 28.1927 23.9487 24.9492 23.7179C24.8722 23.7051 24.7825 23.6923 24.7184 23.6538L21.9235 22.2564C21.6543 22.1154 21.321 22.2307 21.1799 22.5L20.7056 23.4487C22.8081 24.5513 24.603 26.1923 25.9235 28.2179Z" fill="#333333"/>
<path d="M26.3599 37.8206H33.6163C33.6932 37.8206 33.7573 37.8334 33.8214 37.859L35.2445 38.3462C34.847 37.6026 34.6163 36.7693 34.6163 35.8975C34.6163 34.2949 35.3727 32.8719 36.5394 31.936H36.5265C35.8727 31.4103 34.9624 31.5257 34.4496 32.1539L32.1419 35.0129C32.0137 35.1667 31.8342 35.2565 31.6419 35.2565H26.9111C26.9111 35.2565 26.924 35.3334 26.924 35.3847V36.4103C26.924 36.9616 26.706 37.4488 26.3599 37.8206Z" fill="#333333"/>
<path d="M33.4482 31.3589C34.4098 30.1666 36.1021 29.9615 37.3072 30.9102L37.6918 31.2051C37.6918 31.2051 37.7431 31.1794 37.7688 31.1666L34.8457 27.6923C34.7559 27.5897 34.6405 27.5256 34.5123 27.5128C34.3713 27.5 34.2303 27.5384 34.1277 27.6282L30.9739 30.2692C30.8713 30.3589 30.8072 30.4871 30.7944 30.6282C30.7816 30.7564 30.82 30.8846 30.9098 30.9743L32.3585 32.7051L33.4482 31.3589Z" fill="#333333"/>
<path d="M31.2573 26.5257L32.2701 27.5257L33.3086 26.6539C33.6804 26.3334 34.1548 26.1923 34.6291 26.2436C35.1035 26.2821 35.5266 26.5129 35.8342 26.8718L36.0907 27.1795V26.9359C36.1291 26.4103 36.3855 25.8975 36.8086 25.5385L38.283 24.359H34.9112L31.2573 26.5257Z" fill="#333333"/>
<path d="M37.8334 39.2308L39.1795 39.6923H39.1923C39.3462 39.7308 39.5128 39.7436 39.7436 39.7436C41.859 39.7436 43.5898 38.0128 43.5898 35.8974C43.5898 33.782 41.859 32.0513 39.7436 32.0513C37.6282 32.0513 35.8975 33.782 35.8975 35.8974C35.8975 37.2692 36.6411 38.5384 37.8334 39.2308Z" fill="#333333"/>
<path d="M40.3207 24.359L37.6156 26.5385C37.4745 26.6539 37.3848 26.8205 37.3848 27L37.2822 28.6154L39.1412 30.8334C39.3463 30.8077 39.5386 30.7693 39.7438 30.7693C40.4104 30.7693 41.0515 30.9103 41.6284 31.1411L44.5771 26.5641L43.4874 25.9872C43.1156 25.7949 42.8463 25.4359 42.7822 25.0257C42.7438 24.7949 42.7822 24.5641 42.8592 24.359H40.3207Z" fill="#333333"/>
<path d="M49.0005 36.4615L49.7569 33.4487C49.8723 32.9615 50.18 32.5384 50.6159 32.282C50.7441 32.2051 50.8851 32.141 51.0261 32.1025L51.7056 29.2436L49.7569 28.423C49.6543 28.3846 49.5133 28.423 49.4492 28.5L44.7056 34.6795C44.8082 35.0769 44.8723 35.4743 44.8723 35.8974C44.8723 36.9487 44.5518 37.9359 44.0005 38.7564L49.0005 36.4615Z" fill="#333333"/>
<path d="M51.6167 40.3334L51.9885 39.3206L50.168 40.1539L51.6167 40.3334Z" fill="#333333"/>
<path d="M51.7434 33.3077C51.5895 33.2693 51.4229 33.2949 51.2818 33.3846C51.1408 33.4616 51.0382 33.6026 50.9998 33.7564L50.1664 37.0641C50.1152 37.2564 49.987 37.4103 49.8075 37.5L42.4485 40.8718C41.41 41.3462 40.2434 41.4103 39.1536 41.0385L33.5126 39.1026H26.9229V40.3846H33.1921C33.1921 40.3846 33.3331 40.3975 33.3972 40.4231L39.41 42.4872C40.3716 42.8205 41.41 42.7693 42.3331 42.3334L51.1921 38.2692L52.2305 34.1154C52.3203 33.7564 52.1023 33.3975 51.7434 33.3077Z" fill="#333333"/>
<path d="M53.2943 22.5129L52.3071 21.8206L51.2174 24C51.102 24.218 50.8841 24.359 50.6405 24.359H44.4994L44.0507 24.7949L45.1405 25.3718C45.461 25.5385 45.7046 25.8334 45.8071 26.1924C45.9097 26.5513 45.8584 26.9359 45.6661 27.2436L42.7559 31.7693C43.32 32.1795 43.7943 32.7052 44.1405 33.3077L48.4225 27.7308C48.8456 27.1795 49.602 26.9744 50.243 27.2436L51.9995 27.9744L53.2943 22.5129Z" fill="#333333"/>
<path d="M50.2442 23.0769L53.68 16.2051C52.6416 15.4616 49.616 13.6154 45.5903 14.1026C41.116 14.6282 35.8467 20.0641 34.6929 21.3205L35.2057 23.0769H50.2442Z" fill="#333333"/>
<path d="M56.4104 5.76927C56.4104 4.70517 55.6796 3.84619 54.7822 3.84619C54.7437 3.92311 54.4873 4.61542 54.4873 5.76927C54.4873 6.92311 54.7437 7.61542 54.8847 7.71799C55.6796 7.69235 56.4104 6.83337 56.4104 5.76927Z" fill="#333333"/>
<path d="M56.1271 12.9743L56.6656 14.1538L57.8195 13.6153L56.7041 11.1794C56.0759 11.5384 55.8195 12.3205 56.1271 12.9743Z" fill="#333333"/>
<path d="M52.77 37.2307L58.1546 22.782L54.8726 21.3973L52.3213 32.1666C53.2059 32.5255 53.7059 33.4743 53.4751 34.423L52.77 37.2307Z" fill="#333333"/>
<path d="M53.795 20.359C53.8463 20.1795 53.9617 20.0257 54.1284 19.9359C54.295 19.859 54.5002 19.8462 54.6796 19.9231L58.6796 21.6154L55.8207 15.3718L55.0258 16.3718L52.8848 20.6667L53.6027 21.1795L53.795 20.359Z" fill="#333333"/>
<path d="M57.2427 15.4231L57.7299 16.4872L59.4863 15.6667L58.9478 14.5256L57.1914 15.3205L57.2427 15.4231Z" fill="#333333"/>
<path d="M60.9102 15.718C60.9102 15.718 60.9487 15.8206 60.9487 15.8719C61.2692 16.3462 61.6666 16.6283 62.0897 16.6667C62.282 16.3975 62.6025 15.2949 62.6025 13.4616C62.6025 11.6283 62.282 10.5257 62.0897 10.2565C61.0897 10.3462 60.2563 11.7821 60.2563 13.4616C60.2563 13.8847 60.3076 14.2693 60.3974 14.5898L60.9102 15.718Z" fill="#333333"/>
<path d="M62.2831 29.4487L61.4625 27.6538C60.2574 28.4743 59.2061 29.5 58.3984 30.6923L60.0907 31.4871C60.8087 30.6666 61.5266 30 62.2831 29.4487Z" fill="#333333"/>
<path d="M58.2681 17.6538L66.3322 35.2051C66.6655 34.9359 67.0629 34.7436 67.4988 34.6666L59.4347 17.1154L58.2681 17.6538Z" fill="#333333"/>
<path d="M69.2306 37.1795C69.2306 36.4744 68.6537 35.8975 67.9486 35.8975C67.4357 35.8975 66.9998 36.2052 66.7947 36.6411C66.7819 36.6539 66.7691 36.6795 66.7691 36.6923C66.705 36.8462 66.6665 37 66.6665 37.1795C66.6665 37.8846 67.2434 38.4616 67.9486 38.4616C68.6537 38.4616 69.2306 37.8846 69.2306 37.1795Z" fill="#333333"/>
<path d="M70.141 27.6411C71.0513 27.7821 71.9616 27.3205 72.4103 26.5257C70.0385 25.5513 67.4231 25.3846 64.9487 26.0513L65.7564 27.8077C67.1282 27.4616 68.5641 27.3975 70.141 27.6411Z" fill="#333333"/>
<path d="M63.654 32.4231C62.3206 33.6283 61.5386 35.359 61.5386 37.1795C61.5386 40.718 64.4104 43.5898 67.9488 43.5898C71.4873 43.5898 74.3591 40.718 74.3591 37.1795C74.3591 33.6411 71.4873 30.7693 67.9488 30.7693C67.6796 30.7693 67.4104 30.7821 67.1411 30.8206L69.0001 34.8462C69.8847 35.2436 70.5129 36.1411 70.5129 37.1795C70.5129 38.5898 69.3591 39.7436 67.9488 39.7436C66.5386 39.7436 65.3847 38.5898 65.3847 37.1795C65.3847 36.9231 65.436 36.6924 65.5001 36.4616L63.654 32.4231Z" fill="#333333"/>
<path d="M72.6924 28.1155C71.936 28.7565 70.9488 29.0642 69.936 28.8975C68.6283 28.7052 67.436 28.7437 66.3078 28.9873L66.5898 29.6283C67.0385 29.5386 67.5001 29.4873 67.9488 29.4873C72.1924 29.4873 75.6411 32.936 75.6411 37.1796C75.6411 41.4232 72.1924 44.8719 67.9488 44.8719C63.7052 44.8719 60.2565 41.4232 60.2565 37.1796C60.2565 34.8591 61.3206 32.6796 63.1026 31.2309L62.8334 30.6411C62.1283 31.1924 61.436 31.8591 60.7437 32.6796C60.6283 32.8334 60.436 32.9103 60.2565 32.9103C60.1667 32.9103 60.077 32.8847 59.9873 32.8462L58.9232 32.3591C58.1283 33.8334 57.6924 35.4873 57.6924 37.1796C57.6924 42.8334 62.2949 47.436 67.9488 47.436C73.6026 47.436 78.2052 42.8334 78.2052 37.1796C78.2052 33.3719 76.0514 29.8719 72.6924 28.1155Z" fill="#333333"/>
<path d="M48.2571 12.1795C48.334 12.1795 48.411 12.1667 48.4879 12.141L52.4879 10.5898C52.8853 10.4231 53.3469 10.4744 53.693 10.718L54.8725 11.5C55.0135 11.0898 55.2571 10.718 55.5776 10.4231L54.411 9.65386C53.7187 9.17951 52.8212 9.07694 52.0264 9.38463L48.0264 10.9359C47.693 11.0641 47.5263 11.4359 47.6546 11.7692C47.7571 12.0257 48.0007 12.1795 48.2571 12.1795Z" fill="#333333"/>
<path d="M55.8843 10.1796C55.9997 10.1027 56.1279 10.0257 56.2689 9.96164C56.5509 9.83343 56.8586 9.82061 57.1535 9.92317H57.1663V7.60266C56.8458 8.10266 56.4099 8.5001 55.8843 8.73087V10.1796Z" fill="#333333"/>
</g>
<defs>
<clipPath id="clip0_161_16520">
<rect width="82.0513" height="50" fill="white"/>
</clipPath>
</defs>
</svg>
