<svg width="60" height="50" viewBox="0 0 60 50" fill="none" xmlns="http://www.w3.org/2000/svg">
<path d="M38.1626 7.61608C36.6608 8.07804 36.1602 8.38602 36.2372 8.84799C36.3912 9.50244 37.0459 9.54094 39.2794 9.11747C40.4732 8.84799 40.6657 8.92498 41.0893 9.84891C41.821 11.3888 41.7054 11.5043 39.3564 11.7738C33.4645 12.3897 28.959 14.0836 27.3416 16.2394C26.533 17.3174 26.4559 17.3559 22.9131 17.3559C19.6014 17.3559 19.0622 17.2404 16.4822 16.047C14.0561 14.892 13.0549 14.6611 9.78162 14.4301C5.58416 14.1606 5.00653 14.3916 4.8525 16.2009C4.81399 16.6629 3.81276 17.9333 2.58048 19.0882C0.616525 20.9361 -0.115142 21.9755 0.578017 21.9755C0.693543 21.9755 1.8103 21.0516 3.04258 19.9352L5.3146 17.8948L9.74312 18.4723C12.3232 18.7803 14.2101 19.2037 14.2101 19.4347C14.2101 19.6657 13.3629 21.1671 12.3617 22.7455C11.3605 24.3238 10.1282 26.2872 9.62759 27.0571L8.74189 28.52H9.70461C10.4748 28.52 11.0524 27.8656 12.9779 24.8243L15.2884 21.1671L17.4449 24.8243C18.6387 26.8262 19.6014 28.674 19.6014 28.8665C19.6014 29.136 17.3294 29.29 12.8623 29.29C6.39285 29.29 6.12329 29.3285 6.12329 30.0599C6.12329 30.7914 6.39285 30.8299 13.4015 30.8299H20.6796L22.0274 32.1773L23.3752 33.5247H29.6907H36.0446L38.7788 27.7501L41.5129 21.9755H38.4707C36.8148 21.9755 35.313 21.783 35.1974 21.5905C35.0434 21.3596 36.1987 21.2056 38.4322 21.2056C40.3191 21.2056 42.0135 21.0131 42.129 20.8206C42.2831 20.5896 40.5887 20.4356 37.3154 20.4356C33.9652 20.4356 32.3478 20.3201 32.5018 20.0507C32.6559 19.7812 34.9279 19.6657 38.3937 19.6657C41.5129 19.6657 44.3625 19.6272 44.7861 19.5887C45.3253 19.5117 46.0184 20.6281 48.2134 25.3248C49.7153 28.5585 51.0246 31.2148 51.1401 31.2148C51.2556 31.2148 51.6022 31.0608 51.9103 30.8684C52.6419 30.4064 41.7825 6.96163 40.8197 7.00012C40.4732 7.00012 39.2794 7.3081 38.1626 7.61608Z" fill="#333333"/>
<path d="M5.35511 22.0138C3.50669 22.7453 1.77379 24.4006 0.888088 26.364C-2.69323 34.0634 5.20107 41.8014 12.6718 37.8361C14.7513 36.7582 16.6767 34.5254 17.1388 32.639C17.3699 31.6381 17.3314 31.5996 15.714 31.5996C14.2121 31.5996 13.9426 31.7536 13.4035 32.87C12.7103 34.2559 10.2842 35.8343 8.8209 35.8343C8.28178 35.8343 7.12652 35.4878 6.2023 35.0644C4.893 34.4869 4.39239 33.9479 3.73774 32.5235C2.00484 28.5583 4.50792 24.6701 8.8209 24.6701C10.3613 24.6701 10.6693 24.5161 11.2855 23.4767C11.8631 22.4758 11.9016 22.2063 11.478 21.9368C10.7463 21.4749 6.54888 21.5519 5.35511 22.0138Z" fill="#333333"/>
<path d="M49.2561 21.7442C49.2561 21.8597 49.5642 22.5527 49.9108 23.3226C50.4499 24.439 50.758 24.67 51.7207 24.67C54.2623 24.67 56.9579 27.4033 56.9579 29.9826C56.9579 34.1788 52.9144 36.7966 49.1021 35.1028C47.6387 34.4483 47.1381 33.9863 46.522 32.5234C45.5978 30.4831 45.7133 28.5582 46.8686 26.9799C47.5232 26.0944 47.5232 25.9019 47.0226 24.5545C46.7145 23.7846 46.3294 23.1301 46.1754 23.1301C45.6748 23.1301 43.8649 25.44 43.2872 26.8644C41.7469 30.5601 43.2872 35.4492 46.7145 37.5281C50.9505 40.1844 56.2262 38.914 58.8063 34.6793C60.0001 32.7159 60.0771 32.3695 59.9616 29.8286C59.846 27.6343 59.615 26.7874 58.7678 25.517C57.1119 22.9762 55.0324 21.8212 51.9132 21.6672C50.4499 21.5518 49.2561 21.5903 49.2561 21.7442Z" fill="#333333"/>
</svg>
