<svg width="65" height="50" viewBox="0 0 65 50" fill="none" xmlns="http://www.w3.org/2000/svg">
<g clip-path="url(#clip0_161_16512)">
<path d="M54.8438 36.102C54.3251 36.4839 53.6994 36.691 53.0563 36.6938C52.6021 36.6926 52.1538 36.5894 51.7443 36.3917C51.3349 36.1939 50.9746 35.9067 50.6899 35.551C50.8143 36.0947 51.0723 36.5984 51.4405 37.016C51.8086 37.4336 52.275 37.7518 52.7972 37.9415C53.3193 38.1313 53.8805 38.1864 54.4293 38.102C54.9782 38.0176 55.4972 37.7962 55.9389 37.4582C56.3806 37.1202 56.7309 36.6764 56.9578 36.1672C57.1847 35.6581 57.2809 35.0999 57.2377 34.5437C57.1944 33.9876 57.0131 33.4512 56.7102 32.9836C56.4073 32.5161 55.9926 32.1323 55.504 31.8673C55.8934 32.3888 56.1068 33.0216 56.1134 33.6734C56.1253 33.8297 56.1253 33.9866 56.1134 34.1428C55.9648 34.9389 55.5083 35.6434 54.8438 36.102Z" fill="#333333"/>
<path d="M20.3129 36.2652C19.9564 37.9517 18.9974 39.4484 17.617 40.4726C16.2366 41.4967 14.5306 41.9773 12.8215 41.8234C11.1124 41.6695 9.51868 40.8918 8.34158 39.6373C7.16448 38.3829 6.48562 36.7386 6.43333 35.0154C6.38103 33.2921 6.95894 31.6094 8.05779 30.2852C9.15664 28.961 10.7003 28.0872 12.3969 27.829C14.0935 27.5708 15.8254 27.946 17.2653 28.8838C18.7052 29.8215 19.7533 31.2568 20.2113 32.9183C20.359 32.6488 20.5436 32.4015 20.7598 32.1836L22.9028 30.0101C21.7884 27.8012 19.9415 26.0523 17.6808 25.0653C15.4201 24.0784 12.8875 23.9152 10.5198 24.604C8.15218 25.2928 6.0981 26.7903 4.71205 28.8382C3.32599 30.886 2.69491 33.3558 2.92768 35.8212C3.16046 38.2867 4.24251 40.5931 5.9871 42.3426C7.73169 44.0921 10.0294 45.1749 12.4837 45.4041C14.938 45.6333 17.395 44.9946 19.4306 43.5982C21.4663 42.2017 22.9529 40.1351 23.634 37.755H23.116C22.5614 37.766 22.0131 37.635 21.5227 37.3743C21.0323 37.1137 20.616 36.7321 20.3129 36.2652Z" fill="#333333"/>
<path d="M13.4773 38.1326C15.3115 38.1326 16.7984 36.6387 16.7984 34.7958C16.7984 32.953 15.3115 31.4591 13.4773 31.4591C11.6432 31.4591 10.1562 32.953 10.1562 34.7958C10.1562 36.6387 11.6432 38.1326 13.4773 38.1326Z" fill="#333333"/>
<path d="M54.7014 24.1938C53.857 24.6004 53.0684 25.1148 52.3553 25.7245L51.5428 26.4183L52.6194 27.8877C54.1819 27.5883 55.7994 27.8311 57.2066 28.5764C58.6138 29.3216 59.7273 30.5251 60.3645 31.9895C61.0017 33.4539 61.1248 35.0924 60.7137 36.6363C60.3025 38.1802 59.3815 39.538 58.1016 40.4871C56.8217 41.4362 55.2589 41.9202 53.6692 41.8599C52.0796 41.7996 50.5576 41.1984 49.3526 40.1551C48.1476 39.1117 47.3312 37.688 47.0371 36.1173C46.7431 34.5466 46.9889 32.9221 47.7342 31.5102L46.9014 30.3775L43.4483 33.3265C43.3797 33.8167 43.3457 34.3111 43.3467 34.8061C43.3482 36.8757 43.9509 38.8998 45.0807 40.6302C46.2106 42.3607 47.8185 43.7223 49.7073 44.548C51.5961 45.3736 53.6837 45.6276 55.7141 45.2786C57.7444 44.9296 59.6293 43.9929 61.1375 42.5833C62.6457 41.1737 63.7117 39.3525 64.2047 37.3431C64.6977 35.3337 64.5964 33.2234 63.9131 31.271C63.2298 29.3187 61.9942 27.6091 60.3579 26.352C58.7216 25.0948 56.7558 24.3448 54.7014 24.1938Z" fill="#333333"/>
<path d="M61.7292 17.194L55.1378 6.60212C54.8907 6.17888 54.5001 5.85928 54.0375 5.70186C53.5749 5.54444 53.0714 5.55975 52.6191 5.74498C52.3557 5.86077 52.1197 6.03143 51.9269 6.24566C51.734 6.45989 51.5886 6.71282 51.5003 6.98772C51.412 7.26262 51.3827 7.55323 51.4145 7.84033C51.4463 8.12742 51.5384 8.40447 51.6847 8.65314L54.1628 12.7348C54.4836 13.249 54.6264 13.8552 54.5691 14.4593C54.5248 14.9835 54.2854 15.4717 53.8988 15.8266L51.1566 11.2246C51.1274 11.1779 51.087 11.1394 51.0391 11.1126C50.9911 11.0858 50.9372 11.0717 50.8824 11.0715H47.4089C47.1396 11.0715 46.8812 11.179 46.6908 11.3704C46.5003 11.5617 46.3933 11.8213 46.3933 12.0919C46.3933 12.3625 46.5003 12.6221 46.6908 12.8135C46.8812 13.0048 47.1396 13.1123 47.4089 13.1123H49.7652C49.82 13.1125 49.8739 13.1267 49.9219 13.1534C49.9698 13.1802 50.0103 13.2187 50.0394 13.2654L51.9792 16.5205L48.648 16.0409L45.0628 20.3164C44.9713 20.4275 44.8467 20.5062 44.7074 20.5409L27.7363 24.5715C27.5783 24.6114 27.4338 24.693 27.3177 24.8078C27.2017 24.9226 27.1183 25.0665 27.0761 25.2246L26.68 26.6225C26.6445 26.7445 26.5749 26.8537 26.4794 26.937C26.3839 27.0204 26.2665 27.0744 26.1413 27.0927C26.0161 27.111 25.8884 27.0927 25.7732 27.0401C25.658 26.9875 25.5603 26.9028 25.4917 26.796C25.0711 26.1498 24.599 25.539 24.08 24.9695L25.7964 22.6735C26.0443 22.769 26.2717 22.911 26.4667 23.0919C26.5743 23.1918 26.7047 23.2636 26.8464 23.3009C26.9881 23.3383 27.1367 23.3401 27.2792 23.3062L44.1488 19.3164L47.4292 15.4082C47.2081 15.2221 47.0103 15.0096 46.8402 14.7756C44.9308 12.1429 41.9246 11.2756 38.8574 11.0103C36.0746 10.7654 32.7636 10.6633 30.8238 12.9899C29.3816 14.745 28.8738 17.8572 25.9082 17.0715L17.1433 14.6531L16.1886 13.4082C15.5293 12.5567 14.6677 11.8853 13.6828 11.4556C12.6979 11.0259 11.6213 10.8517 10.5519 10.9491L6.3269 11.3368C6.14757 11.3547 5.97735 11.4248 5.83718 11.5386C5.697 11.6524 5.593 11.8048 5.53796 11.9773C5.48292 12.1497 5.47924 12.3345 5.52739 12.5089C5.57553 12.6834 5.67339 12.8399 5.80893 12.9593L8.41909 15.3062L4.69174 15.7858L0.710495 20.8878C0.538058 21.1183 0.45529 21.4041 0.47773 21.6916C0.50017 21.979 0.626275 22.2484 0.83237 22.4491C0.9505 22.5537 1.08865 22.6331 1.23836 22.6823C1.38807 22.7315 1.5462 22.7495 1.70307 22.7351C1.85994 22.7208 2.01225 22.6745 2.15068 22.599C2.28911 22.5235 2.41075 22.4204 2.50815 22.296L5.93081 17.8674L10.7957 17.245C11.8628 18.0641 13.0664 18.6861 14.3503 19.0817L22.7699 21.6838L21.8457 22.9184C20.0856 21.6556 18.0594 20.8176 15.9246 20.4695C15.7645 20.4447 15.6012 20.4518 15.4439 20.4904C15.2866 20.5291 15.1384 20.5985 15.0077 20.6946C14.8771 20.7908 14.7666 20.9119 14.6826 21.051C14.5985 21.19 14.5426 21.3444 14.5179 21.5052C14.4932 21.666 14.5003 21.8301 14.5388 21.9881C14.5772 22.1462 14.6463 22.2951 14.742 22.4263C14.8377 22.5576 14.9583 22.6686 15.0967 22.753C15.2351 22.8374 15.3887 22.8937 15.5488 22.9184C17.5492 23.2517 19.4293 24.1012 21.0049 25.3837C22.5805 26.6662 23.7976 28.3377 24.5371 30.2348L23.5214 31.2552L21.7644 33.0409C21.4916 33.3169 21.3062 33.6679 21.2317 34.0496C21.1572 34.4313 21.1968 34.8266 21.3457 35.1857C21.4945 35.5448 21.7458 35.8516 22.068 36.0673C22.3901 36.2831 22.7687 36.3982 23.1558 36.398H35.2519C36.8708 36.3983 38.437 35.8196 39.6699 34.7654L47.155 28.3572L51.705 34.694C51.8441 34.8845 52.0209 35.044 52.2243 35.1626C52.4278 35.2812 52.6534 35.3563 52.887 35.3831C53.1207 35.41 53.3573 35.388 53.5821 35.3185C53.8069 35.2491 54.015 35.1337 54.1933 34.9797C54.5185 34.6726 54.7184 34.2549 54.7541 33.8079C54.7898 33.3609 54.6587 32.9165 54.3863 32.5613L49.7652 26.2042L51.9386 24.3674C54.0416 22.7494 56.5938 21.8293 59.241 21.7348C59.7654 21.7281 60.2786 21.5819 60.7284 21.3109C61.1782 21.04 61.5484 20.654 61.8014 20.1925C62.0543 19.7309 62.1809 19.2102 62.1682 18.6834C62.1556 18.1567 62.0041 17.6427 61.7292 17.194Z" fill="#333333"/>
</g>
<defs>
<clipPath id="clip0_161_16512">
<rect width="65" height="50" fill="white"/>
</clipPath>
</defs>
</svg>
