<svg width="305" height="269" viewBox="0 0 305 269" fill="none" xmlns="http://www.w3.org/2000/svg">
<path d="M297.583 247.997H273.671V248.178H297.583V247.997Z" fill="#EBEBEB"/>
<path d="M264.582 247.997H213.458V248.178H264.582V247.997Z" fill="#EBEBEB"/>
<path d="M185.264 241.297H171.409V241.477H185.264V241.297Z" fill="#EBEBEB"/>
<path d="M35.3929 242.51H10.6357V242.69H35.3929V242.51Z" fill="#EBEBEB"/>
<path d="M86.8346 242.51H41.8184V242.69H86.8346V242.51Z" fill="#EBEBEB"/>
<path d="M135.311 245.557H108.734V245.737H135.311V245.557Z" fill="#EBEBEB"/>
<path d="M143.872 204.179H4.46204C3.36991 204.177 2.32317 203.742 1.5516 202.969C0.780029 202.196 0.346678 201.149 0.34668 200.057V4.08648C0.356187 3.00062 0.793733 1.96236 1.56428 1.19722C2.33482 0.432082 3.37614 0.00186013 4.46204 0H143.872C144.965 0 146.013 0.434342 146.787 1.20747C147.56 1.98061 147.994 3.0292 147.994 4.12257V200.057C147.994 201.15 147.56 202.199 146.787 202.972C146.013 203.745 144.965 204.179 143.872 204.179ZM4.46204 0.144399C3.41778 0.146312 2.41695 0.562479 1.67923 1.30155C0.941511 2.04063 0.527176 3.04222 0.527178 4.08648V200.057C0.527176 201.101 0.941511 202.103 1.67923 202.842C2.41695 203.581 3.41778 203.997 4.46204 203.999H143.872C144.916 203.997 145.918 203.581 146.657 202.842C147.396 202.103 147.812 201.102 147.814 200.057V4.08648C147.812 3.04156 147.396 2.03998 146.657 1.30111C145.918 0.562244 144.916 0.146308 143.872 0.144399H4.46204Z" fill="#EBEBEB"/>
<path d="M300.044 204.179H160.627C159.535 204.177 158.487 203.743 157.714 202.97C156.942 202.197 156.507 201.15 156.505 200.057V4.08648C156.516 2.99996 156.955 1.96171 157.727 1.19677C158.499 0.43183 159.541 0.00183985 160.627 0H300.044C301.129 0.00375761 302.168 0.434819 302.937 1.19975C303.706 1.96469 304.143 3.00186 304.152 4.08648V200.057C304.152 201.148 303.72 202.194 302.95 202.967C302.18 203.74 301.135 204.176 300.044 204.179ZM160.627 0.144399C159.583 0.146308 158.581 0.562244 157.842 1.30111C157.103 2.03998 156.687 3.04156 156.685 4.08648V200.057C156.687 201.102 157.103 202.103 157.842 202.842C158.581 203.581 159.583 203.997 160.627 203.999H300.044C301.089 203.997 302.091 203.581 302.83 202.842C303.568 202.103 303.984 201.102 303.986 200.057V4.08648C303.984 3.04156 303.568 2.03998 302.83 1.30111C302.091 0.562244 301.089 0.146308 300.044 0.144399H160.627Z" fill="#EBEBEB"/>
<path d="M216.064 232.323H229.428V135.164H216.064V232.323Z" fill="#F0F0F0"/>
<path d="M79.65 236.373L226.864 236.373V232.323L79.65 232.323V236.373Z" fill="#F0F0F0"/>
<path d="M216.065 135.171H77.0811V232.33H216.065V135.171Z" fill="#F5F5F5"/>
<path d="M216.064 135.171H229.428V131.634H216.064V135.171Z" fill="#E6E6E6"/>
<path d="M216.065 131.634H77.0811V135.171H216.065V131.634Z" fill="#F0F0F0"/>
<path d="M211.262 164.47H81.8887V142.593H211.262V164.47ZM82.7839 163.567H210.367V143.496H82.7839V163.567Z" fill="#E0E0E0"/>
<path d="M211.262 224.901H81.8887V169.834H211.262V224.901ZM82.7839 224.005H210.367V170.729H82.7839V224.005Z" fill="#E0E0E0"/>
<path d="M99.317 145.922H193.833V143.048H99.317V145.922Z" fill="#E0E0E0"/>
<path d="M99.317 173.155H193.833V170.282H99.317V173.155Z" fill="#E0E0E0"/>
<path d="M276.646 233.803C276.362 233.801 276.09 233.687 275.89 233.485C275.689 233.283 275.577 233.011 275.577 232.727V65.8889C275.577 65.6055 275.69 65.3337 275.89 65.1333C276.091 64.933 276.362 64.8204 276.646 64.8204C276.929 64.8204 277.201 64.933 277.401 65.1333C277.602 65.3337 277.714 65.6055 277.714 65.8889V232.727C277.714 233.011 277.602 233.283 277.402 233.485C277.202 233.687 276.93 233.801 276.646 233.803Z" fill="#F5F5F5"/>
<path d="M274.495 231.218H278.827C279.604 231.218 280.35 231.527 280.899 232.077C281.449 232.626 281.758 233.372 281.758 234.149V236.373H271.563V234.149C271.563 233.372 271.872 232.626 272.422 232.077C272.972 231.527 273.717 231.218 274.495 231.218Z" fill="#F0F0F0"/>
<path d="M255.881 88.083C255.881 88.083 256.408 67.6651 276.645 67.6651C296.883 67.6651 297.417 88.083 297.417 88.083H255.881Z" fill="#E0E0E0"/>
<path d="M29.8678 233.803C29.5824 233.803 29.3088 233.689 29.1071 233.488C28.9053 233.286 28.792 233.012 28.792 232.727V65.8889C28.7939 65.6049 28.9081 65.3331 29.1096 65.1329C29.3112 64.9327 29.5837 64.8204 29.8678 64.8204C30.1512 64.8204 30.4229 64.933 30.6233 65.1333C30.8237 65.3337 30.9363 65.6055 30.9363 65.8889V232.727C30.9363 233.011 30.824 233.283 30.6238 233.485C30.4236 233.687 30.1518 233.801 29.8678 233.803Z" fill="#F5F5F5"/>
<path d="M27.7164 231.218H32.0484C32.8258 231.218 33.5714 231.527 34.1211 232.077C34.6709 232.626 34.9797 233.372 34.9797 234.149V236.373H24.7852V234.149C24.7852 233.764 24.861 233.383 25.0083 233.028C25.1556 232.672 25.3715 232.349 25.6437 232.077C25.9159 231.804 26.2391 231.588 26.5947 231.441C26.9503 231.294 27.3315 231.218 27.7164 231.218Z" fill="#F0F0F0"/>
<path d="M9.09668 88.083C9.09668 88.083 9.62373 67.6651 29.8684 67.6651C50.1131 67.6651 50.6329 88.083 50.6329 88.083H9.09668Z" fill="#E0E0E0"/>
<path d="M179.286 130.103H127.924V131.634H179.286V130.103Z" fill="#E0E0E0"/>
<path d="M179.286 130.103H127.924L132.862 100.696H184.225L179.286 130.103Z" fill="#E0E0E0"/>
<path d="M178.332 130.103H126.97L131.908 100.696H183.271L178.332 130.103Z" fill="#EBEBEB"/>
<path d="M128.918 127.793L133.12 102.79C133.145 102.636 133.224 102.495 133.343 102.395C133.462 102.294 133.614 102.239 133.77 102.241H180.7C180.795 102.241 180.89 102.262 180.977 102.302C181.063 102.342 181.14 102.4 181.202 102.473C181.264 102.546 181.309 102.632 181.335 102.724C181.36 102.816 181.365 102.912 181.35 103.007L177.148 128.009C177.122 128.164 177.043 128.304 176.924 128.406C176.805 128.507 176.654 128.564 176.498 128.565H129.568C129.472 128.566 129.377 128.545 129.289 128.504C129.202 128.464 129.124 128.405 129.062 128.331C129 128.257 128.955 128.171 128.931 128.078C128.906 127.985 128.902 127.887 128.918 127.793Z" fill="#FAFAFA"/>
<path d="M167.661 130.103H116.299V131.634H167.661V130.103Z" fill="#F0F0F0"/>
<path d="M220.324 23.6525H84.2432V67.6362H220.324V23.6525Z" fill="#EBEBEB"/>
<path d="M220.322 67.6289H222.271V23.6452H220.322V67.6289Z" fill="#E0E0E0"/>
<path d="M214.359 29.6088H90.1982V61.6725H214.359V29.6088Z" fill="white"/>
<path d="M159.755 45.6416L152.281 38.1675L144.807 45.6416L152.281 53.1157L159.755 45.6416Z" fill="#F5F5F5"/>
<path d="M139.692 45.6413L132.218 38.1672L124.744 45.6413L132.218 53.1154L139.692 45.6413Z" fill="#F5F5F5"/>
<path d="M119.625 45.6409L112.151 38.1668L104.677 45.6409L112.151 53.115L119.625 45.6409Z" fill="#F5F5F5"/>
<path d="M179.819 45.642L172.345 38.1679L164.871 45.642L172.345 53.1161L179.819 45.642Z" fill="#F5F5F5"/>
<path d="M199.885 45.6424L192.411 38.1683L184.937 45.6424L192.411 53.1165L199.885 45.6424Z" fill="#F5F5F5"/>
<path d="M153.258 268.985C230.57 268.985 293.245 265.326 293.245 260.812C293.245 256.299 230.57 252.639 153.258 252.639C75.9448 252.639 13.2705 256.299 13.2705 260.812C13.2705 265.326 75.9448 268.985 153.258 268.985Z" fill="#F5F5F5"/>
<path d="M234.8 49.1315C234.866 48.2968 234.758 47.4573 234.481 46.6669C234.205 45.8764 233.767 45.1523 233.195 44.5408C232.622 43.9293 231.929 43.4438 231.159 43.1154C230.388 42.787 229.558 42.6229 228.721 42.6336H128.775C127.018 42.6586 125.332 43.3384 124.049 44.5401C122.766 45.7419 121.977 47.3791 121.837 49.1315L119.541 83.7511L105.152 190.18C105.011 190.99 105.053 191.822 105.273 192.614C105.493 193.406 105.886 194.14 106.424 194.761C106.963 195.383 107.632 195.878 108.385 196.209C109.137 196.541 109.954 196.701 110.776 196.678H210.729C212.526 196.63 214.249 195.954 215.598 194.766C216.948 193.579 217.838 191.956 218.115 190.18L232.504 83.7511L234.8 49.1315Z" fill="#E90808"/>
<path opacity="0.2" d="M234.8 49.1315C234.866 48.2968 234.758 47.4573 234.481 46.6669C234.205 45.8764 233.767 45.1523 233.195 44.5408C232.622 43.9293 231.929 43.4438 231.159 43.1154C230.388 42.787 229.558 42.6229 228.721 42.6336H128.775C127.018 42.6586 125.332 43.3384 124.049 44.5401C122.766 45.7419 121.977 47.3791 121.837 49.1315L119.541 83.7511L105.152 190.18C105.011 190.99 105.053 191.822 105.273 192.614C105.493 193.406 105.886 194.14 106.424 194.761C106.963 195.383 107.632 195.878 108.385 196.209C109.137 196.541 109.954 196.701 110.776 196.678H210.729C212.526 196.63 214.249 195.954 215.598 194.766C216.948 193.579 217.838 191.956 218.115 190.18L232.504 83.7511L234.8 49.1315Z" fill="black"/>
<path d="M207.169 196.685H107.216C106.395 196.707 105.578 196.546 104.826 196.214C104.075 195.882 103.406 195.387 102.868 194.766C102.33 194.144 101.936 193.411 101.716 192.62C101.495 191.828 101.453 190.997 101.592 190.187L115.981 83.751H228.944L214.555 190.18C214.28 191.957 213.39 193.582 212.04 194.771C210.691 195.959 208.967 196.637 207.169 196.685Z" fill="#E90808"/>
<path d="M143.634 40.0922H128.746V40.8142H143.634V40.0922Z" fill="#E90808"/>
<path d="M121.707 41.5867L121.403 40.9297C122.599 40.3789 123.899 40.0932 125.215 40.0922V40.8142C124.004 40.815 122.807 41.0786 121.707 41.5867Z" fill="#E90808"/>
<path d="M225.167 42.5975H125.215C123.457 42.6225 121.772 43.3023 120.488 44.504C119.205 45.7058 118.416 47.343 118.276 49.0954L115.98 83.751H228.943L231.232 49.1315C231.305 48.2949 231.201 47.4523 230.929 46.658C230.656 45.8637 230.22 45.1353 229.648 44.5198C229.077 43.9043 228.383 43.4152 227.611 43.0841C226.84 42.7531 226.007 42.5873 225.167 42.5975Z" fill="#E90808"/>
<path opacity="0.9" d="M121.561 75.2748L123.164 51.0664C123.237 50.1435 123.653 49.2813 124.328 48.6484C125.004 48.0155 125.891 47.6574 126.817 47.6441H222.893C223.334 47.6376 223.771 47.7234 224.177 47.8961C224.583 48.0688 224.948 48.3245 225.25 48.6468C225.551 48.9692 225.781 49.3509 225.926 49.7676C226.071 50.1843 226.127 50.6267 226.091 51.0664L224.488 75.2748C224.413 76.197 223.997 77.0583 223.322 77.6909C222.647 78.3235 221.76 78.6822 220.835 78.697H124.759C124.319 78.7025 123.881 78.6159 123.476 78.4428C123.071 78.2697 122.706 78.014 122.405 77.6919C122.104 77.3699 121.873 76.9885 121.728 76.5723C121.583 76.1561 121.526 75.7142 121.561 75.2748Z" fill="white"/>
<path opacity="0.4" d="M203.451 73.6431C203.474 73.3736 203.596 73.122 203.793 72.9368C203.99 72.7516 204.249 72.6457 204.52 72.6396H216.793C216.937 72.6382 217.079 72.6666 217.211 72.7228C217.343 72.7791 217.462 72.8621 217.56 72.9665C217.658 73.0709 217.734 73.1946 217.782 73.3297C217.831 73.4647 217.85 73.6083 217.84 73.7514C217.817 74.0222 217.694 74.2748 217.496 74.4602C217.297 74.6456 217.036 74.7506 216.765 74.755H204.52C204.374 74.7617 204.228 74.7372 204.093 74.6831C203.957 74.629 203.834 74.5465 203.733 74.4413C203.632 74.336 203.555 74.2103 203.506 74.0727C203.457 73.9351 203.439 73.7886 203.451 73.6431Z" fill="#E90808"/>
<path opacity="0.4" d="M188.1 73.6431C188.123 73.3736 188.245 73.122 188.442 72.9368C188.64 72.7516 188.898 72.6457 189.169 72.6396H201.443C201.586 72.6382 201.728 72.6666 201.86 72.7228C201.992 72.7791 202.111 72.8621 202.209 72.9665C202.308 73.0709 202.383 73.1946 202.432 73.3297C202.48 73.4647 202.5 73.6083 202.49 73.7514C202.466 74.0222 202.344 74.2748 202.145 74.4602C201.946 74.6456 201.686 74.7506 201.414 74.755H189.14C188.997 74.7575 188.854 74.7299 188.722 74.674C188.59 74.618 188.471 74.535 188.373 74.4302C188.275 74.3254 188.2 74.2012 188.153 74.0656C188.106 73.93 188.088 73.7861 188.1 73.6431Z" fill="#E90808"/>
<path opacity="0.4" d="M172.753 73.6431C172.776 73.3735 172.898 73.122 173.095 72.9367C173.292 72.7515 173.551 72.6457 173.821 72.6395H186.095C186.238 72.6392 186.379 72.6683 186.51 72.725C186.641 72.7817 186.759 72.8648 186.857 72.9691C186.955 73.0734 187.03 73.1967 187.077 73.3313C187.125 73.4659 187.145 73.6089 187.135 73.7514C187.113 74.0228 186.991 74.2763 186.792 74.462C186.593 74.6477 186.331 74.7522 186.059 74.755H173.785C173.642 74.7565 173.501 74.7281 173.369 74.6717C173.238 74.6153 173.12 74.5321 173.023 74.4274C172.926 74.3227 172.852 74.1989 172.805 74.0638C172.758 73.9288 172.741 73.7854 172.753 73.6431Z" fill="#E90808"/>
<path opacity="0.4" d="M157.401 73.6431C157.424 73.3735 157.546 73.122 157.743 72.9367C157.94 72.7515 158.199 72.6457 158.47 72.6395H170.744C170.886 72.6392 171.028 72.6683 171.159 72.725C171.29 72.7817 171.408 72.8648 171.505 72.9691C171.603 73.0734 171.678 73.1967 171.726 73.3313C171.774 73.4659 171.793 73.6089 171.783 73.7514C171.762 74.0228 171.639 74.2763 171.44 74.462C171.241 74.6477 170.98 74.7522 170.707 74.755H158.434C158.291 74.7565 158.149 74.7281 158.018 74.6717C157.887 74.6153 157.769 74.5321 157.671 74.4274C157.574 74.3227 157.5 74.1989 157.453 74.0638C157.407 73.9288 157.389 73.7854 157.401 73.6431Z" fill="#E90808"/>
<path opacity="0.1" d="M123.505 133.114L128.024 99.707C128.193 98.6121 128.741 97.6112 129.572 96.8789C130.403 96.1465 131.465 95.7293 132.573 95.7H165.979C166.486 95.6861 166.99 95.7849 167.454 95.9894C167.918 96.1938 168.33 96.4988 168.662 96.8822C168.993 97.2657 169.236 97.718 169.371 98.2065C169.507 98.695 169.532 99.2076 169.445 99.707L164.925 133.114C164.758 134.208 164.212 135.209 163.382 135.941C162.552 136.674 161.491 137.091 160.384 137.121H126.97C126.463 137.135 125.96 137.036 125.496 136.831C125.032 136.627 124.62 136.322 124.288 135.938C123.956 135.555 123.714 135.103 123.579 134.614C123.443 134.126 123.418 133.613 123.505 133.114Z" fill="#263238"/>
<path opacity="0.1" d="M171.098 133.114L175.639 99.707C175.808 98.6121 176.356 97.6112 177.187 96.8789C178.018 96.1465 179.08 95.7293 180.188 95.7H213.594C214.101 95.6847 214.606 95.7827 215.07 95.9867C215.535 96.1908 215.948 96.4957 216.28 96.8795C216.612 97.2633 216.854 97.7161 216.989 98.2052C217.124 98.6943 217.148 99.2074 217.06 99.707L212.547 133.114C212.377 134.208 211.829 135.208 210.998 135.94C210.167 136.672 209.106 137.09 207.999 137.121H174.556C174.05 137.135 173.546 137.036 173.083 136.832C172.619 136.627 172.207 136.322 171.876 135.938C171.545 135.555 171.303 135.102 171.168 134.614C171.034 134.125 171.01 133.613 171.098 133.114Z" fill="#263238"/>
<path opacity="0.1" d="M117.072 180.707L121.591 147.286C121.761 146.192 122.309 145.192 123.14 144.46C123.971 143.728 125.033 143.31 126.14 143.279H159.546C160.053 143.265 160.557 143.364 161.02 143.569C161.484 143.773 161.897 144.078 162.229 144.462C162.56 144.845 162.803 145.297 162.938 145.786C163.073 146.274 163.099 146.787 163.012 147.286L158.492 180.7C158.323 181.793 157.776 182.792 156.947 183.523C156.117 184.254 155.056 184.671 153.951 184.7H120.537C120.032 184.714 119.53 184.615 119.067 184.411C118.604 184.208 118.193 183.904 117.861 183.522C117.53 183.141 117.287 182.69 117.151 182.203C117.014 181.717 116.987 181.206 117.072 180.707Z" fill="#263238"/>
<path opacity="0.1" d="M164.667 180.707L169.179 147.286C169.349 146.192 169.897 145.192 170.728 144.46C171.559 143.728 172.621 143.31 173.728 143.279H207.134C207.641 143.265 208.144 143.364 208.608 143.569C209.072 143.773 209.485 144.078 209.817 144.462C210.148 144.845 210.39 145.297 210.526 145.786C210.661 146.274 210.687 146.787 210.6 147.286L206.087 180.7C205.916 181.793 205.367 182.792 204.536 183.522C203.705 184.253 202.645 184.67 201.539 184.7H168.125C167.62 184.714 167.118 184.615 166.656 184.412C166.193 184.208 165.782 183.904 165.451 183.522C165.12 183.14 164.878 182.69 164.743 182.203C164.607 181.716 164.581 181.205 164.667 180.707Z" fill="#263238"/>
<path d="M121.281 133.114L125.822 99.707C125.991 98.6121 126.539 97.6112 127.37 96.8789C128.201 96.1465 129.263 95.7293 130.371 95.7H163.777C164.284 95.6861 164.788 95.7849 165.252 95.9894C165.716 96.1938 166.128 96.4988 166.46 96.8822C166.791 97.2657 167.034 97.718 167.169 98.2065C167.305 98.695 167.33 99.2076 167.243 99.707L162.723 133.114C162.556 134.208 162.01 135.209 161.18 135.941C160.35 136.674 159.289 137.091 158.182 137.121H124.747C124.24 137.135 123.736 137.036 123.272 136.831C122.809 136.627 122.396 136.322 122.064 135.938C121.733 135.555 121.49 135.103 121.355 134.614C121.219 134.126 121.194 133.613 121.281 133.114Z" fill="#E90808"/>
<path opacity="0.2" d="M121.281 133.114L125.822 99.707C125.991 98.6121 126.539 97.6112 127.37 96.8789C128.201 96.1465 129.263 95.7293 130.371 95.7H163.777C164.284 95.6861 164.788 95.7849 165.252 95.9894C165.716 96.1938 166.128 96.4988 166.46 96.8822C166.791 97.2657 167.034 97.718 167.169 98.2065C167.305 98.695 167.33 99.2076 167.243 99.707L162.723 133.114C162.556 134.208 162.01 135.209 161.18 135.941C160.35 136.674 159.289 137.091 158.182 137.121H124.747C124.24 137.135 123.736 137.036 123.272 136.831C122.809 136.627 122.396 136.322 122.064 135.938C121.733 135.555 121.49 135.103 121.355 134.614C121.219 134.126 121.194 133.613 121.281 133.114Z" fill="white"/>
<path d="M168.875 133.114L173.388 99.707C173.556 98.6121 174.104 97.6112 174.935 96.8789C175.767 96.1465 176.829 95.7293 177.936 95.7H211.343C211.85 95.6847 212.354 95.7827 212.819 95.9867C213.283 96.1908 213.696 96.4957 214.028 96.8795C214.36 97.2633 214.602 97.7161 214.737 98.2052C214.872 98.6943 214.897 99.2074 214.808 99.707L210.296 133.114C210.126 134.208 209.578 135.208 208.747 135.94C207.916 136.672 206.854 137.09 205.747 137.121H172.334C171.827 137.135 171.324 137.036 170.86 136.832C170.396 136.627 169.984 136.322 169.653 135.938C169.322 135.555 169.08 135.102 168.946 134.614C168.811 134.125 168.787 133.613 168.875 133.114Z" fill="#E90808"/>
<path opacity="0.2" d="M168.875 133.114L173.388 99.707C173.556 98.6121 174.104 97.6112 174.935 96.8789C175.767 96.1465 176.829 95.7293 177.936 95.7H211.343C211.85 95.6847 212.354 95.7827 212.819 95.9867C213.283 96.1908 213.696 96.4957 214.028 96.8795C214.36 97.2633 214.602 97.7161 214.737 98.2052C214.872 98.6943 214.897 99.2074 214.808 99.707L210.296 133.114C210.126 134.208 209.578 135.208 208.747 135.94C207.916 136.672 206.854 137.09 205.747 137.121H172.334C171.827 137.135 171.324 137.036 170.86 136.832C170.396 136.627 169.984 136.322 169.653 135.938C169.322 135.555 169.08 135.102 168.946 134.614C168.811 134.125 168.787 133.613 168.875 133.114Z" fill="white"/>
<path d="M114.847 180.707L119.367 147.286C119.537 146.192 120.085 145.192 120.916 144.46C121.747 143.728 122.808 143.31 123.915 143.279H157.322C157.828 143.265 158.332 143.364 158.796 143.569C159.26 143.773 159.672 144.078 160.004 144.462C160.336 144.845 160.578 145.297 160.713 145.786C160.849 146.274 160.874 146.787 160.787 147.286L156.268 180.7C156.099 181.793 155.552 182.792 154.722 183.523C153.892 184.254 152.832 184.671 151.726 184.7H118.312C117.807 184.714 117.305 184.615 116.842 184.411C116.38 184.208 115.968 183.904 115.637 183.522C115.305 183.141 115.063 182.69 114.926 182.203C114.789 181.717 114.762 181.206 114.847 180.707Z" fill="#E90808"/>
<path opacity="0.2" d="M114.847 180.707L119.367 147.286C119.537 146.192 120.085 145.192 120.916 144.46C121.747 143.728 122.808 143.31 123.915 143.279H157.322C157.828 143.265 158.332 143.364 158.796 143.569C159.26 143.773 159.672 144.078 160.004 144.462C160.336 144.845 160.578 145.297 160.713 145.786C160.849 146.274 160.874 146.787 160.787 147.286L156.268 180.7C156.099 181.793 155.552 182.792 154.722 183.523C153.892 184.254 152.832 184.671 151.726 184.7H118.312C117.807 184.714 117.305 184.615 116.842 184.411C116.38 184.208 115.968 183.904 115.637 183.522C115.305 183.141 115.063 182.69 114.926 182.203C114.789 181.717 114.762 181.206 114.847 180.707Z" fill="white"/>
<path d="M162.44 180.707L166.974 147.286C167.144 146.192 167.692 145.192 168.523 144.46C169.354 143.728 170.416 143.31 171.523 143.279H204.929C205.436 143.265 205.94 143.364 206.403 143.569C206.867 143.773 207.28 144.078 207.612 144.462C207.943 144.845 208.186 145.297 208.321 145.786C208.456 146.274 208.482 146.787 208.395 147.286L203.882 180.7C203.711 181.793 203.162 182.792 202.331 183.522C201.5 184.253 200.44 184.67 199.334 184.7H165.898C165.393 184.714 164.891 184.615 164.429 184.412C163.967 184.208 163.555 183.904 163.224 183.522C162.894 183.14 162.652 182.69 162.516 182.203C162.38 181.716 162.354 181.205 162.44 180.707Z" fill="#E90808"/>
<path opacity="0.2" d="M162.44 180.707L166.974 147.286C167.144 146.192 167.692 145.192 168.523 144.46C169.354 143.728 170.416 143.31 171.523 143.279H204.929C205.436 143.265 205.94 143.364 206.403 143.569C206.867 143.773 207.28 144.078 207.612 144.462C207.943 144.845 208.186 145.297 208.321 145.786C208.456 146.274 208.482 146.787 208.395 147.286L203.882 180.7C203.711 181.793 203.162 182.792 202.331 183.522C201.5 184.253 200.44 184.67 199.334 184.7H165.898C165.393 184.714 164.891 184.615 164.429 184.412C163.967 184.208 163.555 183.904 163.224 183.522C162.894 183.14 162.652 182.69 162.516 182.203C162.38 181.716 162.354 181.205 162.44 180.707Z" fill="white"/>
<path d="M142.372 130.312C141.866 130.324 141.364 130.223 140.901 130.018C140.438 129.812 140.027 129.507 139.696 129.125C139.365 128.742 139.122 128.291 138.986 127.803C138.849 127.316 138.822 126.804 138.906 126.305L141.585 106.523C141.756 105.428 142.304 104.428 143.135 103.695C143.965 102.962 145.026 102.542 146.133 102.508C146.64 102.496 147.144 102.595 147.608 102.801C148.072 103.006 148.484 103.312 148.816 103.696C149.147 104.08 149.389 104.532 149.525 105.021C149.66 105.51 149.686 106.023 149.599 106.523L146.928 126.305C146.755 127.4 146.205 128.399 145.373 129.131C144.541 129.862 143.479 130.28 142.372 130.312Z" fill="white"/>
<path d="M130.35 116.414C130.522 115.319 131.072 114.319 131.904 113.586C132.736 112.853 133.797 112.433 134.905 112.4H154.702C155.209 112.388 155.712 112.489 156.175 112.695C156.639 112.9 157.051 113.206 157.382 113.59C157.713 113.973 157.955 114.426 158.091 114.914C158.227 115.402 158.253 115.914 158.168 116.414C157.995 117.507 157.446 118.506 156.616 119.237C155.785 119.969 154.726 120.387 153.619 120.421H133.837C133.329 120.436 132.824 120.337 132.359 120.133C131.894 119.93 131.479 119.625 131.146 119.242C130.813 118.859 130.568 118.406 130.43 117.917C130.293 117.428 130.265 116.915 130.35 116.414Z" fill="white"/>
<path d="M126.66 173.827C125.31 172.267 125.656 169.719 127.425 168.159L143.309 154.167C145.078 152.607 147.641 152.607 148.977 154.167C150.327 155.726 149.98 158.282 148.211 159.842L132.328 173.827C130.559 175.386 127.988 175.386 126.66 173.827Z" fill="white"/>
<path d="M129.316 154.167C131.085 152.607 133.648 152.607 134.991 154.167L147.084 168.159C148.434 169.719 148.088 172.267 146.319 173.827C144.55 175.386 141.987 175.386 140.651 173.827L128.551 159.842C127.2 158.282 127.547 155.726 129.316 154.167Z" fill="white"/>
<path d="M177.935 116.414C178.107 115.319 178.657 114.318 179.489 113.586C180.321 112.853 181.382 112.433 182.49 112.4H202.273C202.78 112.387 203.284 112.487 203.748 112.692C204.211 112.897 204.624 113.203 204.955 113.587C205.287 113.971 205.529 114.424 205.664 114.912C205.8 115.401 205.825 115.914 205.739 116.414C205.566 117.507 205.017 118.506 204.186 119.237C203.356 119.969 202.296 120.387 201.19 120.421H181.415C180.907 120.434 180.404 120.335 179.939 120.131C179.475 119.927 179.061 119.622 178.729 119.239C178.396 118.856 178.152 118.404 178.015 117.915C177.878 117.427 177.85 116.914 177.935 116.414Z" fill="white"/>
<path d="M172.348 157.762C172.521 156.668 173.071 155.669 173.903 154.937C174.735 154.205 175.796 153.787 176.904 153.755H196.686C197.192 153.744 197.694 153.845 198.157 154.05C198.62 154.255 199.031 154.56 199.362 154.943C199.693 155.326 199.936 155.777 200.072 156.264C200.209 156.752 200.236 157.263 200.152 157.762C199.981 158.857 199.432 159.857 198.602 160.59C197.771 161.323 196.71 161.743 195.603 161.777H175.813C175.307 161.788 174.804 161.687 174.341 161.482C173.877 161.276 173.465 160.97 173.134 160.587C172.803 160.203 172.561 159.751 172.425 159.263C172.289 158.774 172.263 158.262 172.348 157.762Z" fill="white"/>
<path d="M170.664 170.231C170.836 169.138 171.385 168.14 172.216 167.408C173.046 166.677 174.106 166.258 175.212 166.224H194.995C195.501 166.212 196.005 166.312 196.468 166.517C196.931 166.721 197.344 167.026 197.676 167.409C198.008 167.792 198.251 168.244 198.388 168.732C198.525 169.22 198.552 169.732 198.468 170.231C198.295 171.326 197.745 172.327 196.913 173.06C196.082 173.793 195.02 174.212 193.912 174.246H174.129C173.622 174.258 173.119 174.159 172.655 173.953C172.191 173.748 171.778 173.442 171.447 173.058C171.115 172.674 170.873 172.222 170.738 171.733C170.602 171.244 170.577 170.731 170.664 170.231Z" fill="white"/>
<path d="M69.0437 90.0324C67.7441 92.4438 66.4084 95.043 65.1883 97.5844C63.9681 100.126 62.7913 102.718 61.7805 105.31C61.5133 105.959 61.2967 106.609 61.0585 107.259C60.9319 107.592 60.8588 107.943 60.8419 108.299C60.8129 109.323 61.0024 110.342 61.3978 111.288C62.4315 113.717 63.805 115.988 65.4771 118.031L63.0151 120.919C62.3286 120.476 61.6681 119.994 61.0368 119.475C60.4027 118.978 59.7977 118.446 59.2246 117.88C58.0085 116.713 56.9436 115.398 56.0551 113.966C55.0208 112.324 54.3739 110.467 54.1635 108.537C54.0602 107.425 54.1506 106.304 54.4306 105.223C54.6328 104.501 54.8205 103.707 55.0515 102.963C55.9363 100.011 57.0045 97.1179 58.2499 94.2993C58.8709 92.9059 59.5062 91.5269 60.2065 90.1695C60.9069 88.8122 61.5783 87.4982 62.4158 86.1119L69.0437 90.0324Z" fill="#FF8B7B"/>
<path d="M64.4523 117.201L68.0622 118.154L65.3764 123.374C65.3764 123.374 62.6906 122.349 62.0264 119.988L64.4523 117.201Z" fill="#FF8B7B"/>
<path d="M73.0441 119.8L69.8096 123.894L65.3838 123.374L68.0696 118.154L73.0441 119.8Z" fill="#FF8B7B"/>
<path d="M86.0674 62.4956C86.1469 62.8999 86.4284 63.1815 86.6884 63.131C86.9483 63.0804 87.0999 62.705 87.0133 62.3079C86.9266 61.9108 86.6523 61.5859 86.3923 61.6726C86.1324 61.7592 85.9808 62.0913 86.0674 62.4956Z" fill="#263238"/>
<path d="M86.3936 63.1888C87.1206 64.3197 88.0001 65.3449 89.0072 66.2356C88.7693 66.4821 88.481 66.6742 88.162 66.7988C87.843 66.9235 87.5008 66.9776 87.1589 66.9576L86.3936 63.1888Z" fill="#FF5652"/>
<path d="M86.9332 65.9179C85.7564 65.9179 84.5867 64.6328 84.2329 62.8711C84.04 62.0114 84.0976 61.1143 84.399 60.2864C84.4829 59.9454 84.6618 59.6352 84.915 59.3919C85.1682 59.1486 85.4852 58.9821 85.8292 58.9118C86.1732 58.8415 86.5301 58.8702 86.8585 58.9947C87.1868 59.1191 87.4731 59.3342 87.6841 59.6149C88.2703 60.2701 88.6716 61.0695 88.8467 61.931C89.0218 62.7926 88.9644 63.6852 88.6804 64.5172C88.5768 64.8501 88.3897 65.1509 88.1369 65.391C87.8842 65.6311 87.5742 65.8026 87.2364 65.889C87.1365 65.9084 87.035 65.9181 86.9332 65.9179ZM86.1535 59.0662C86.0575 59.0555 85.9606 59.0555 85.8647 59.0662C85.5595 59.1487 85.2803 59.3072 85.053 59.5269C84.8257 59.7466 84.6579 60.0203 84.5651 60.3225C84.2772 61.1185 84.2221 61.98 84.4062 62.8061C84.7744 64.6328 86.0307 65.9251 87.2148 65.6941C87.5208 65.6135 87.8011 65.4556 88.0286 65.2357C88.2562 65.0157 88.4234 64.741 88.5144 64.4378C88.7858 63.639 88.8406 62.7824 88.6732 61.9555C88.5058 61.1286 88.1221 60.3608 87.5613 59.7304C87.3825 59.5319 87.1659 59.3709 86.9241 59.2568C86.6824 59.1428 86.4205 59.078 86.1535 59.0662Z" fill="#263238"/>
<path d="M124.117 104.111L128.745 103.129L129.344 109.411C129.344 109.411 125.344 110.176 123.431 107.014L124.117 104.111Z" fill="#FF8B7B"/>
<path d="M133.118 104.537L132.822 109.122L129.342 109.411L128.743 103.129L133.118 104.537Z" fill="#FF8B7B"/>
<path d="M84.1413 60.5679C84.1118 60.5681 84.0826 60.5624 84.0554 60.5513C84.0281 60.5401 84.0033 60.5237 83.9824 60.503C83.959 60.4813 83.9403 60.4551 83.9276 60.4259C83.9148 60.3967 83.9082 60.3652 83.9082 60.3333C83.9082 60.3014 83.9148 60.2699 83.9276 60.2407C83.9403 60.2115 83.959 60.1853 83.9824 60.1636C84.2349 59.8778 84.5522 59.6566 84.9076 59.5184C85.2631 59.3803 85.6464 59.3292 86.0257 59.3694C86.0571 59.3738 86.0873 59.3845 86.1146 59.4007C86.1419 59.417 86.1656 59.4385 86.1845 59.4641C86.2033 59.4896 86.2169 59.5187 86.2243 59.5496C86.2317 59.5804 86.2329 59.6125 86.2278 59.6438C86.2155 59.707 86.1795 59.7632 86.1271 59.8008C86.0748 59.8383 86.0101 59.8545 85.9462 59.8459C85.646 59.8164 85.3431 59.8593 85.0629 59.9711C84.7828 60.0829 84.5335 60.2604 84.3362 60.4885C84.311 60.5146 84.2807 60.5352 84.2471 60.5488C84.2136 60.5625 84.1775 60.569 84.1413 60.5679Z" fill="#263238"/>
<path d="M74.9205 69.8022C75.6425 73.5205 76.0902 78.6683 73.4766 81.1447C73.4766 81.1447 74.4874 84.9135 81.4185 84.9135C89.0138 84.9135 85.0718 81.6068 85.0718 81.6068C81.9166 80.6249 81.9455 77.0366 82.6675 74.1486L74.9205 69.8022Z" fill="#FF8B7B"/>
<path d="M82.7158 80.2422C84.4197 79.0148 86.9395 77.578 87.4665 79.0797C87.7842 79.9822 87.9142 84.3936 86.1597 84.0615C83.5678 83.5778 82.7158 80.2422 82.7158 80.2422Z" fill="#263238"/>
<path d="M72.0689 83.6283C71.3903 82.6753 71.4191 79.6501 72.1411 79.1158C73.3035 78.2567 78.2853 78.0545 84.9998 79.5996C84.2778 82.5309 85.8301 84.0687 85.8301 84.0687L72.0689 83.6283Z" fill="#E90808"/>
<path d="M49.4996 255.036C49.7044 255.109 49.9217 255.14 50.1386 255.127C50.3555 255.115 50.5678 255.059 50.7631 254.964C50.8404 254.897 50.8936 254.806 50.9144 254.706C50.9353 254.605 50.9227 254.501 50.8786 254.408C50.8585 254.33 50.8208 254.257 50.7682 254.196C50.7156 254.135 50.6496 254.086 50.5753 254.055C49.8533 253.722 48.3083 254.365 48.2433 254.394C48.2218 254.403 48.2034 254.418 48.1905 254.437C48.1776 254.456 48.1709 254.479 48.1711 254.502C48.1697 254.526 48.1751 254.549 48.1867 254.57C48.1982 254.59 48.2153 254.607 48.2361 254.618C48.6428 254.798 49.0659 254.938 49.4996 255.036ZM50.3299 254.221L50.467 254.271C50.5112 254.289 50.551 254.316 50.5834 254.351C50.6159 254.386 50.6402 254.428 50.6548 254.473C50.7197 254.69 50.6548 254.762 50.6114 254.784C50.3371 255.015 49.3191 254.784 48.6115 254.517C49.1552 254.292 49.7422 254.191 50.3299 254.221Z" fill="#E90808"/>
<path d="M48.264 254.625H48.3218C48.8994 254.452 50.1268 253.578 50.1412 253.008C50.1417 252.917 50.1112 252.829 50.0547 252.758C49.9983 252.687 49.9192 252.638 49.8307 252.618C49.7439 252.586 49.6511 252.573 49.5588 252.58C49.4665 252.588 49.377 252.615 49.2965 252.661C48.6178 253.008 48.1918 254.408 48.1774 254.473C48.173 254.489 48.1718 254.505 48.1738 254.521C48.1758 254.538 48.181 254.553 48.189 254.567C48.1971 254.581 48.2079 254.594 48.2207 254.604C48.2336 254.614 48.2483 254.621 48.264 254.625ZM49.708 252.827H49.7585C49.9102 252.878 49.9102 252.95 49.9102 252.986C49.9102 253.325 49.0871 254.011 48.4662 254.286C48.621 253.722 48.9432 253.218 49.3903 252.842C49.4879 252.796 49.5994 252.791 49.7008 252.827H49.708Z" fill="#E90808"/>
<path d="M86.9932 255.889C87.6502 255.889 88.2783 255.795 88.4877 255.506C88.5405 255.428 88.5687 255.336 88.5687 255.242C88.5687 255.148 88.5405 255.057 88.4877 254.979C88.4465 254.908 88.3913 254.847 88.3255 254.799C88.2597 254.75 88.1847 254.716 88.1051 254.697C87.2603 254.466 85.4842 255.477 85.412 255.52C85.3907 255.533 85.3733 255.551 85.3618 255.572C85.3503 255.594 85.3452 255.619 85.3471 255.643C85.3522 255.668 85.3645 255.691 85.3825 255.709C85.4004 255.727 85.4233 255.739 85.4481 255.744C85.9578 255.838 86.4749 255.886 86.9932 255.889ZM87.8018 254.899C87.8786 254.891 87.9561 254.891 88.0329 254.899C88.1307 254.922 88.2161 254.981 88.2711 255.065C88.3578 255.217 88.3217 255.289 88.2711 255.333C88.0329 255.665 86.7477 255.672 85.8091 255.535C86.4266 255.197 87.103 254.982 87.8018 254.899Z" fill="#E90808"/>
<path d="M85.4618 255.744H85.5124C86.1261 255.47 87.339 254.372 87.2451 253.795C87.2451 253.658 87.1296 253.491 86.7975 253.463C86.6777 253.449 86.5564 253.46 86.441 253.495C86.3255 253.529 86.2184 253.587 86.1261 253.665C85.6677 254.22 85.3927 254.903 85.3391 255.621C85.3381 255.638 85.3405 255.655 85.3463 255.671C85.352 255.686 85.3609 255.701 85.3724 255.713C85.3839 255.725 85.3977 255.735 85.4131 255.741C85.4285 255.748 85.4451 255.751 85.4618 255.751V255.744ZM86.6964 253.686H86.7686C86.9852 253.686 86.9997 253.788 87.0069 253.816C87.0646 254.163 86.2344 255.029 85.6134 255.405C85.6686 254.825 85.9034 254.278 86.2849 253.838C86.398 253.737 86.545 253.683 86.6964 253.686Z" fill="#E90808"/>
<path d="M79.873 255.629H84.9559L85.4613 243.867H80.3784L79.873 255.629Z" fill="#FF8B7B"/>
<path d="M42.6045 253.275L47.5646 254.351L52.5535 243.398L47.5862 242.322L42.6045 253.275Z" fill="#FF8B7B"/>
<path d="M48.0408 253.852L42.467 252.647C42.3685 252.626 42.2657 252.638 42.1752 252.683C42.0848 252.727 42.0121 252.801 41.9688 252.892L40.0339 257.094C39.9824 257.196 39.9557 257.308 39.9561 257.422C39.9564 257.536 39.9838 257.649 40.0359 257.75C40.088 257.852 40.1634 257.939 40.2559 258.006C40.3485 258.073 40.4555 258.116 40.5682 258.134C42.5248 258.516 43.4995 258.61 45.947 259.137C47.456 259.47 50.8638 260.3 52.9431 260.747C55.0224 261.195 55.7444 259.195 54.9358 258.827C51.3258 257.159 49.7663 255.693 48.7844 254.329C48.6038 254.084 48.3389 253.914 48.0408 253.852Z" fill="#263238"/>
<path d="M84.9197 255.037H79.3748C79.2738 255.036 79.1756 255.07 79.0968 255.133C79.0179 255.196 78.9631 255.284 78.9416 255.383L77.938 259.917C77.9086 260.026 77.9052 260.141 77.928 260.251C77.9508 260.362 77.9993 260.466 78.0695 260.554C78.1398 260.643 78.2298 260.713 78.3323 260.761C78.4349 260.808 78.5471 260.831 78.66 260.827C80.6599 260.791 83.5551 260.675 86.0677 260.675C89.0062 260.675 91.5476 260.834 94.9987 260.834C97.078 260.834 97.6629 258.726 96.7892 258.531C92.8111 257.665 89.5693 257.571 86.1399 255.455C85.7799 255.205 85.3574 255.06 84.9197 255.037Z" fill="#263238"/>
<path d="M64.3944 82.3072C59.6364 83.3974 55.7305 95.5485 55.7305 95.5485L65.2896 102.833C67.7596 100.196 69.5013 96.9615 70.3436 93.4475C71.9753 87.0651 69.2606 81.1809 64.3944 82.3072Z" fill="#E90808"/>
<path opacity="0.4" d="M64.3944 82.3072C59.6364 83.3974 55.7305 95.5485 55.7305 95.5485L65.2896 102.833C67.7596 100.196 69.5013 96.9615 70.3436 93.4475C71.9753 87.0651 69.2606 81.1809 64.3944 82.3072Z" fill="white"/>
<path d="M92.933 88.0831L100.954 95.4619C102.29 96.6893 103.626 97.9094 104.969 99.108C106.312 100.306 107.654 101.505 108.947 102.545L107.828 101.945C108.449 102.176 109.098 102.4 109.784 102.581C110.47 102.761 111.178 102.913 111.907 103.057C113.407 103.329 114.921 103.524 116.441 103.642C117.993 103.772 119.582 103.859 121.177 103.902C122.773 103.945 124.426 103.981 125.993 103.989L126.715 107.729C125.066 108.327 123.377 108.809 121.661 109.173C119.941 109.544 118.201 109.809 116.448 109.967C114.65 110.131 112.843 110.157 111.041 110.046C109.125 109.936 107.229 109.609 105.387 109.071L104.846 108.913L104.276 108.472C102.687 107.252 101.279 106.061 99.8641 104.862C98.449 103.664 97.0772 102.422 95.7055 101.187C92.9763 98.7036 90.2689 96.2344 87.6191 93.6714L92.933 88.0831Z" fill="#FF8B7B"/>
<path opacity="0.2" d="M68.4732 91.2309C65.8885 93.7867 65.0438 98.4508 64.8633 102.494L65.2893 102.819C67.7574 100.18 69.4987 96.9461 70.3432 93.433C70.4371 93.0575 70.5237 92.711 70.5887 92.2994L68.4732 91.2309Z" fill="black"/>
<path d="M94.4708 87.361C95.5104 92.8482 96.1602 104.118 93.1423 126.428H65.981C65.7932 122.262 68.4141 101.916 64.3926 82.271C67.3973 81.694 70.4359 81.3106 73.4897 81.123C77.3371 80.9024 81.1941 80.9024 85.0416 81.123C86.3123 81.2385 87.5613 81.4262 88.6515 81.6212C90.0879 81.8778 91.4128 82.5637 92.4516 83.5883C93.4904 84.613 94.1944 85.9283 94.4708 87.361Z" fill="#E90808"/>
<path opacity="0.4" d="M94.4708 87.361C95.5104 92.8482 96.1602 104.118 93.1423 126.428H65.981C65.7932 122.262 68.4141 101.916 64.3926 82.271C67.3973 81.694 70.4359 81.3106 73.4897 81.123C77.3371 80.9024 81.1941 80.9024 85.0416 81.123C86.3123 81.2385 87.5613 81.4262 88.6515 81.6212C90.0879 81.8778 91.4128 82.5637 92.4516 83.5883C93.4904 84.613 94.1944 85.9283 94.4708 87.361Z" fill="white"/>
<path opacity="0.2" d="M90.3131 95.4979L95.2226 94.321C95.3742 97.2957 95.3887 100.978 95.1649 105.534C92.905 102.963 90.0243 98.949 90.3131 95.4979Z" fill="black"/>
<path opacity="0.2" d="M85.4619 243.867L85.202 249.932H80.1191L80.3791 243.867H85.4619Z" fill="black"/>
<path opacity="0.2" d="M47.5879 242.322L52.5552 243.398L49.9777 249.044L45.0176 247.968L47.5879 242.322Z" fill="black"/>
<path d="M72.5024 64.3729C73.8092 69.2391 74.3291 72.1559 77.3326 74.1775C81.8522 77.2243 87.4405 73.7299 87.6498 68.5676C87.8087 63.9252 85.6499 56.7414 80.4299 55.7595C79.2782 55.5375 78.0889 55.6136 76.9749 55.9806C75.8609 56.3475 74.8592 56.9932 74.065 57.8562C73.2707 58.7192 72.7102 59.7709 72.4367 60.9114C72.1632 62.052 72.1859 63.2435 72.5024 64.3729Z" fill="#FF8B7B"/>
<path d="M83.5493 64.741C85.8308 64.4161 85.1738 61.7809 84.3218 60.4885C84.3218 60.4885 89.3757 54.3877 83.5493 51.9257C77.7228 49.4637 79.1307 53.3047 79.1307 53.3047C79.1307 53.3047 74.5605 49.8752 70.5895 52.6477C66.6186 55.4201 70.048 56.6186 70.048 56.6186C70.048 56.6186 62.8281 58.7413 65.7161 62.3945C68.604 66.0478 71.5859 65.6796 71.5859 65.6796C71.5859 65.6796 65.6005 68.0405 70.1419 70.6902C74.6832 73.34 76.3871 73.4555 76.3871 73.4555C77.6011 73.6065 78.8293 73.3233 79.8546 72.6561C80.8799 71.9889 81.6362 70.9805 81.9898 69.8094L83.5493 64.741Z" fill="#263238"/>
<path d="M81.5849 64.7554C81.6824 66.0075 82.1899 67.1925 83.0289 68.1271C84.1335 69.3473 85.2887 68.582 85.4909 67.1019C85.6642 65.759 85.3032 63.4919 83.9458 62.8421C82.5885 62.1923 81.4983 63.2464 81.5849 64.7554Z" fill="#FF8B7B"/>
<path d="M83.5126 126.45C83.5126 126.45 77.7366 165.257 74.5815 179.798C71.116 195.718 52.5391 248.387 52.5391 248.387L43.4492 246.416C43.4492 246.416 56.4451 203.486 59.333 181.227C61.5712 164.131 65.9682 126.435 65.9682 126.435L83.5126 126.45Z" fill="#263238"/>
<path d="M54.7183 245.362L53.0216 248.654L42.791 246.438L43.6574 243.362L54.7183 245.362Z" fill="#E90808"/>
<path opacity="0.3" d="M79.867 140.276C73.203 141.583 73.9106 166.434 74.712 179.22C76.6325 170.181 79.4483 152.795 81.3688 140.456C80.9034 140.227 80.3735 140.163 79.867 140.276Z" fill="black"/>
<path d="M93.1424 126.45C93.1424 126.45 93.8643 164.419 93.294 179.877C92.7164 195.985 87.0921 248.726 87.0921 248.726H78.4859C78.4859 248.726 78.1755 196.923 77.7639 181.105C77.3741 163.892 75.2803 126.45 75.2803 126.45H93.1424Z" fill="#263238"/>
<path d="M88.7469 245.333C88.7902 245.333 88.2632 248.9 88.2632 248.9H77.7943L77.5127 245.716L88.7469 245.333Z" fill="#E90808"/>
<path d="M83.8308 89.0504C81.3905 95.6133 95.7004 103.346 95.7004 103.346L101.895 95.404C101.895 95.404 97.7581 87.1805 92.6897 83.4694C86.4228 78.8703 85.6791 84.0542 83.8308 89.0504Z" fill="#E90808"/>
<path opacity="0.4" d="M83.8308 89.0504C81.3905 95.6133 95.7004 103.346 95.7004 103.346L101.895 95.404C101.895 95.404 97.7581 87.1805 92.6897 83.4694C86.4228 78.8703 85.6791 84.0542 83.8308 89.0504Z" fill="white"/>
<path d="M124.925 106.097C125.905 106.097 126.701 105.499 126.701 104.761C126.701 104.023 125.905 103.425 124.925 103.425C123.944 103.425 123.148 104.023 123.148 104.761C123.148 105.499 123.944 106.097 124.925 106.097Z" fill="#263238"/>
<path d="M124.24 109.021C124.186 109.021 124.133 109.01 124.085 108.988C124.036 108.965 123.993 108.932 123.958 108.891C123.898 108.818 123.868 108.724 123.876 108.629C123.884 108.535 123.929 108.447 124.002 108.385C124.045 108.349 124.969 107.505 124.572 105.541C124.563 105.495 124.562 105.447 124.572 105.401C124.581 105.355 124.599 105.311 124.625 105.272C124.651 105.233 124.685 105.2 124.724 105.174C124.763 105.148 124.807 105.131 124.854 105.122C124.9 105.113 124.948 105.112 124.995 105.121C125.041 105.13 125.085 105.148 125.125 105.175C125.165 105.201 125.199 105.234 125.225 105.274C125.252 105.313 125.27 105.357 125.28 105.404C125.771 107.808 124.522 108.891 124.471 108.934C124.406 108.989 124.325 109.019 124.24 109.021Z" fill="#263238"/>
<path opacity="0.4" d="M126.37 104.689C126.37 105.238 125.728 105.678 124.926 105.678C124.125 105.678 123.482 105.238 123.482 104.689C123.482 104.14 124.125 103.707 124.926 103.707C125.728 103.707 126.37 104.119 126.37 104.689Z" fill="white"/>
<path d="M86.0677 81.2024C82.7465 83.5778 76.9922 92.7543 75.9598 98.1765C75.9527 98.2123 75.935 98.2452 75.9089 98.2707C75.8828 98.2963 75.8495 98.3133 75.8136 98.3196C75.7776 98.3258 75.7405 98.321 75.7073 98.3058C75.6742 98.2905 75.6464 98.2656 75.6276 98.2342C72.4926 93.1555 70.6323 87.3939 70.2055 81.4407C70.2037 81.417 70.1972 81.3938 70.1864 81.3726C70.1756 81.3514 70.1607 81.3325 70.1426 81.3171C70.1244 81.3017 70.1035 81.29 70.0808 81.2827C70.0581 81.2754 70.0343 81.2727 70.0105 81.2746C69.2019 81.3286 68.3968 81.4275 67.5991 81.5706C67.5597 81.5817 67.5249 81.6053 67.5002 81.6378C67.4754 81.6704 67.462 81.7102 67.4619 81.7511C67.8539 89.1919 70.5033 96.3367 75.0573 102.234C75.0662 102.252 75.0708 102.272 75.0708 102.292C75.0708 102.312 75.0662 102.332 75.0573 102.35C74.6169 110.472 75.2017 124.991 75.2739 126.717C75.2757 126.763 75.2956 126.808 75.3292 126.84C75.3629 126.872 75.4077 126.89 75.4544 126.89H77.6203C77.6447 126.89 77.6687 126.885 77.6911 126.876C77.7135 126.866 77.7337 126.852 77.7506 126.835C77.7675 126.817 77.7806 126.796 77.7892 126.774C77.7979 126.751 77.8018 126.727 77.8008 126.702C77.6998 125.042 77.0211 112.429 77.8008 102.082C79.021 94.386 86.3203 83.9821 88.8834 81.9244C88.9109 81.9039 88.9317 81.8756 88.9432 81.8433C88.9546 81.8109 88.9562 81.7759 88.9477 81.7426C88.9392 81.7093 88.921 81.6794 88.8954 81.6565C88.8698 81.6336 88.838 81.6188 88.804 81.614C87.721 81.3757 86.4792 81.2241 86.1832 81.1952C86.1449 81.1849 86.1043 81.1874 86.0677 81.2024Z" fill="#E90808"/>
</svg>
