<svg width="117" height="117" viewBox="0 0 117 117" fill="none" xmlns="http://www.w3.org/2000/svg">
    <path d="M80.7706 92.2332C74.7176 96.2586 67.7052 98.6063 60.4487 99.0369C53.1922 99.4675 45.9513 97.9655 39.4648 94.6842L53.6832 66.5775C55.1978 67.3437 56.8885 67.6944 58.5829 67.5938C60.2773 67.4933 61.9147 66.9451 63.3281 66.0052L80.7706 92.2332Z" fill="#CCCCCC"/>
    <path d="M83.2511 90.4479C74.6494 97.1408 63.7413 100.143 52.9264 98.7928C42.1116 97.443 32.2758 91.8524 25.583 83.2507C18.8901 74.6491 15.8884 63.741 17.2381 52.9261C18.5879 42.1113 24.1785 32.2755 32.7802 25.5827L52.1232 50.4423C50.1147 52.0051 48.8092 54.3017 48.4941 56.827C48.1789 59.3522 48.8798 61.8993 50.4426 63.9078C52.0054 65.9163 54.302 67.2217 56.8273 67.5368C59.3526 67.852 61.8996 67.1511 63.9081 65.5883L83.2511 90.4479Z" fill="#FFC513"/>
    <path d="M17.088 61.7147C16.3147 53.1602 18.2415 44.5784 22.5974 37.1754C26.9533 29.7725 33.5194 23.9205 41.373 20.442C49.2265 16.9635 57.9726 16.0333 66.3821 17.7822C74.7916 19.5311 82.4417 23.8711 88.2572 30.1923L65.0765 51.5186C63.7186 50.0426 61.9323 49.0292 59.9687 48.6208C58.0051 48.2124 55.9629 48.4296 54.1291 49.2419C52.2953 50.0541 50.7621 51.4205 49.745 53.1491C48.7279 54.8777 48.278 56.8816 48.4585 58.879L17.088 61.7147Z" fill="#E90808"/>
    <path d="M88.3664 30.3137C92.333 34.6599 95.3199 39.8074 97.1251 45.4078C98.9304 51.0082 99.5118 56.931 98.8302 62.7756C98.1486 68.6202 96.2197 74.2502 93.1741 79.2849C90.1285 84.3196 86.0372 88.6415 81.1769 91.9583L63.4218 65.9409C64.5567 65.1664 65.512 64.1573 66.2232 62.9817C66.9343 61.8061 67.3847 60.4915 67.5439 59.1267C67.703 57.762 67.5672 56.3791 67.1457 55.0714C66.7242 53.7637 66.0268 52.5617 65.1006 51.5469L88.3664 30.3137Z" fill="#1BC744"/>
    </svg>
    