<svg width="613" height="193" viewBox="0 0 613 193" fill="none" xmlns="http://www.w3.org/2000/svg">
    <g clip-path="url(#clip0_935_7825)">
    <path opacity="0.08" d="M77.9168 162.867H64.2109V191.778H77.9168V162.867Z" fill="#E4E9E9"/>
    <path d="M151.677 102.182C150.51 102.336 150.51 102.953 150.849 103.733C150.985 104.078 151.041 104.449 151.013 104.819V112.02H104.279V104.35C104.296 104.109 104.353 103.873 104.448 103.651C104.778 102.88 104.863 102.257 103.617 102.109C103.781 101.49 103.287 100.787 104.278 100.483C104.447 100.404 104.447 100.007 104.447 99.712C104.455 99.2429 104.51 98.7758 104.611 98.3174C107.042 93.4318 111.097 89.544 116.08 87.3203C119.063 86.2195 121.718 84.3828 123.8 81.9809C124.386 81.4333 124.856 80.7747 125.184 80.0436C125.513 79.3125 125.692 78.5234 125.713 77.7222C125.713 77.1043 125.881 76.6361 124.964 76.3276C124.548 76.1734 124.303 75.7096 123.965 75.3241C124.315 74.9906 124.707 74.704 125.131 74.4715C125.642 74.2335 126.13 74.1597 126.211 73.4679C126.291 72.2287 126.464 70.9893 126.626 69.6708C126.879 67.2704 127.132 64.7918 127.375 62.3904H127.628C128.044 65.9507 128.46 69.5121 128.876 73.1562C128.961 73.8546 129.041 74.2434 129.868 74.4781C130.378 74.6323 130.699 75.0971 131.114 75.3307C130.699 75.6402 130.367 76.0291 129.947 76.3342C129.701 76.5978 129.48 76.8836 129.286 77.188C128.369 79.1257 131.531 82.0658 131.694 82.2982C132.955 83.896 134.579 85.1702 136.431 86.015C141.496 87.784 145.865 91.1204 148.905 95.5403C149.736 96.7796 150.986 98.02 150.567 99.799C150.567 99.9532 150.651 100.275 150.735 100.275C151.979 100.816 151.484 101.597 151.646 102.213" fill="#E4E9E9"/>
    <path d="M80.6781 132.706C80.6781 133.558 80.2628 133.558 79.5115 133.558H40.8459C40.0153 133.558 39.8457 133.249 39.8457 132.555V124.573C39.867 121.928 40.4749 119.321 41.6255 116.94C42.776 114.559 44.4406 112.463 46.4993 110.803C48.2999 109.228 50.3895 108.019 52.6516 107.242C54.7384 106.231 56.5594 104.745 57.9689 102.903C58.6299 102.205 58.479 101.432 58.7995 100.733C59.2148 99.6459 58.5429 99.2615 57.7211 98.8748C57.5547 98.7955 57.4666 98.6368 57.3058 98.3989C57.5731 98.1631 57.8821 97.9793 58.2168 97.8569C59.0496 97.7027 59.2159 97.2378 59.2952 96.4623C59.4638 93.9838 59.8075 91.5052 60.0465 89.0277C60.1179 88.7633 60.2577 88.5224 60.4519 88.3293C60.7824 91.1152 61.1206 93.672 61.2836 96.2288C61.3695 97.0814 61.4499 97.771 62.4502 97.9263C62.7806 98.0056 62.9613 98.313 63.2808 98.5454C62.9503 98.8561 62.7707 99.1645 62.5317 99.1645C61.5337 99.3198 61.7011 99.8629 61.7011 100.559C61.7459 101.195 61.9157 101.816 62.2008 102.386C62.4858 102.956 62.8805 103.464 63.3623 103.881C64.5806 105.363 66.1142 106.554 67.8512 107.367C71.2307 108.473 74.2199 110.53 76.4613 113.29C78.7026 116.051 80.1012 119.399 80.4897 122.933C80.8202 126.109 80.5745 129.433 80.656 132.691" fill="#E4E9E9"/>
    <path d="M214.459 133.627H174.96C174.96 130.451 174.875 127.509 174.96 124.57C174.987 121.741 175.688 118.958 177.004 116.453C178.32 113.947 180.215 111.792 182.53 110.164C184.013 109.123 185.57 108.193 187.188 107.379C188.18 106.76 191.093 104.591 192.095 103.819C192.64 103.417 193.083 102.892 193.386 102.286C193.689 101.681 193.844 101.012 193.838 100.334C193.88 100.215 193.895 100.088 193.883 99.9622C193.871 99.8364 193.833 99.7145 193.77 99.6047C193.708 99.4948 193.623 99.3995 193.52 99.3252C193.418 99.2508 193.301 99.1991 193.178 99.1735C192.847 99.0942 192.665 98.6986 192.428 98.4761L193.178 97.7777C193.508 97.4682 194.094 97.2358 194.094 96.9251C194.425 94.6801 194.6 92.4328 194.843 90.1107C194.929 89.4123 195.097 88.7888 195.174 88.0981C195.589 90.7419 195.924 93.2866 196.085 95.8334C196.169 96.7632 196.253 97.531 197.418 97.7711C197.671 97.8505 197.833 98.0829 198.248 98.3903C197.995 98.6055 197.716 98.7876 197.418 98.9322C196.418 99.0864 196.668 99.7033 196.586 100.404C196.607 101.015 196.76 101.615 197.033 102.163C197.306 102.71 197.693 103.193 198.168 103.579C199.374 105.126 200.945 106.35 202.739 107.141C206.026 108.232 208.939 110.226 211.146 112.895C213.352 115.564 214.763 118.8 215.216 122.233C215.621 125.486 215.47 128.895 215.546 132.232C215.877 133.319 215.546 133.627 214.469 133.627" fill="#E4E9E9"/>
    <path d="M547.091 145.963C546.675 140.62 538.786 137.443 538.786 137.443C537.206 136.745 537.287 135.892 537.287 135.892C538.288 134.341 543.024 135.892 543.024 135.892C544.096 134.963 545.359 134.28 546.724 133.892C548.089 133.504 549.523 133.42 550.924 133.647C556.807 105.713 559.732 77.2362 559.651 48.6889H558.071C557.583 48.6999 557.11 48.5199 556.753 48.1874C556.396 47.8549 556.183 47.3962 556.159 46.9088V45.6706C556.182 45.183 556.396 44.724 556.753 44.3913C557.11 44.0585 557.583 43.8784 558.071 43.8893H561.638V29.8838H560.308C559.82 29.8947 559.347 29.7146 558.99 29.3819C558.633 29.0492 558.42 28.5902 558.396 28.1026V27.7908C558.42 27.3034 558.633 26.8446 558.991 26.5122C559.348 26.1797 559.821 25.9997 560.308 26.0106H563.716V14.9375H562.724V11.6152C562.912 10.9398 563.297 10.3358 563.83 9.8804C564.363 9.42497 565.02 9.13878 565.716 9.05842C565.898 8.52037 566.284 8.07534 566.791 7.81913C566.722 7.09794 566.695 6.37335 566.71 5.64902C566.71 4.56175 566.791 3.48108 566.876 2.63066C566.876 2.244 566.961 1.85957 566.961 1.62714C566.959 1.49294 566.987 1.36 567.044 1.23828C567.052 1.37077 567.08 1.50117 567.128 1.62492C567.128 1.86286 567.209 2.24402 567.209 2.62847C567.296 3.4811 567.377 4.56614 567.377 5.6468C567.394 6.37123 567.365 7.09598 567.292 7.81692C567.8 8.07395 568.186 8.51851 568.371 9.0562C569.071 9.12429 569.734 9.40631 570.268 9.86393C570.803 10.3215 571.183 10.9326 571.358 11.6141V14.9365H570.367V26.0096H573.776C574.264 25.9986 574.737 26.1786 575.094 26.511C575.451 26.8435 575.665 27.3023 575.689 27.7897V28.1015C575.665 28.589 575.452 29.0481 575.095 29.3808C574.738 29.7135 574.264 29.8936 573.776 29.8827H572.446V43.8232H575.44C575.928 43.8126 576.4 43.9928 576.757 44.3255C577.114 44.6582 577.327 45.1171 577.351 45.6045V46.8438C577.327 47.3312 577.114 47.7901 576.757 48.1227C576.4 48.4554 575.928 48.6357 575.44 48.6251H574.856C574.856 54.2013 575.025 109.11 582.923 133.427C584.471 133.2 586.049 133.303 587.555 133.73C589.06 134.158 590.457 134.899 591.655 135.906C594.318 135.287 595.646 134.818 596.562 135.594C597.553 136.365 594.232 137.918 594.232 137.918C592.216 138.56 590.437 139.786 589.121 141.441C587.805 143.097 587.011 145.106 586.84 147.214C586.674 155.734 597.317 160.764 597.317 160.764H588.079C587.539 159.239 586.872 157.762 586.084 156.349C582.843 150.689 578.101 147.206 575.441 148.515C572.864 149.837 573.361 155.253 576.519 160.753H573.279V160.053C573.279 153.626 570.536 148.435 567.201 148.435C563.867 148.435 561.124 153.624 561.124 160.053V160.752H557.883C560.959 155.254 561.452 149.755 558.96 148.514C556.384 147.192 551.643 150.759 548.318 156.348C547.496 157.743 546.827 159.224 546.323 160.763H537.094C545.74 156.114 547.488 151.237 547.072 145.972M567.774 30.114H566.202V43.3562H567.782L567.774 30.114ZM563.037 43.3562H564.622V30.1163H563.043L563.037 43.3562ZM565.032 25.5535H566.361V14.7844H565.032V25.5535ZM567.609 25.5535H568.939V14.7844H567.609V25.5535ZM570.913 30.1229H569.336V43.3628H570.913V30.1229ZM572.495 48.9423H570.749V69.8504H572.911C572.993 69.8504 572.25 55.37 572.495 48.9401M572.826 71.3915H570.759V87.6574H573.595L572.826 71.3915ZM570.25 129.24H564.109C564.083 130.279 563.858 131.303 563.448 132.258C565.767 131.477 568.277 131.477 570.596 132.258C570.226 131.298 570.112 130.258 570.266 129.24M565.859 71.1579L565.693 87.653H568.356L568.189 71.1579H565.859ZM568.268 48.9313H565.859V69.8504H568.268V48.9313ZM565.526 89.6678L565.27 103.768H568.762L568.444 89.6546L565.526 89.6678ZM568.766 108.183H565.274L564.524 123.903H569.592L568.766 108.183ZM553.402 133.678C554.981 133.369 557.309 135.15 557.309 135.15C557.819 134.146 560.724 132.98 560.724 132.98L561.139 129.263H554.901C554.641 130.805 554.136 132.295 553.404 133.677M555.735 123.919H561.812L562.481 108.2H558.236C557.931 113.51 557.096 118.776 555.741 123.919M562.643 103.861C562.898 103.242 562.973 89.7603 562.973 89.7603H559.984C559.728 96.8105 558.735 103.861 558.735 103.861H562.643ZM560.731 69.8636H562.892V48.9258H561.146C561.401 55.3535 560.73 69.836 560.73 69.836M560.815 71.3871L560.065 87.6497H562.901V71.376L560.815 71.3871ZM573.779 89.6645H570.785C570.785 89.6645 570.871 103.141 571.115 103.765H575.022C575.022 103.844 574.031 96.7147 573.776 89.6645M575.522 108.18H571.285L571.946 123.9H577.933C576.582 118.758 575.774 113.49 575.522 108.18ZM578.837 129.244H572.612L573.027 132.961C573.027 132.961 575.863 134.121 576.442 135.131C576.442 135.131 578.77 133.35 580.35 133.66C579.533 132.315 579.022 130.808 578.853 129.244" fill="#E4E9E9"/>
    <path d="M0.79142 164.164L2.88442 175.46H3.05848V121.662C3.12678 121.263 3.08197 120.853 2.92913 120.478C2.7763 120.104 2.52154 119.779 2.19373 119.542C1.07122 118.83 1.23976 117.889 1.41381 116.788H4.18539V112.552C4.18539 110.749 4.18539 110.749 2.19483 110.666C2.10781 110.666 2.10781 110.587 2.02078 110.51V109.181C4.09727 108.869 4.09727 108.869 4.09727 106.904V105.961C4.10215 105.084 4.3273 104.221 4.75207 103.453C5.17683 102.685 5.78763 102.036 6.52846 101.565C7.7402 100.701 8.95965 99.9126 10.2496 99.0545H10.5052C11.2003 99.6053 11.7169 100.388 12.4957 100.707C13.79 101.106 14.9049 101.944 15.6487 103.076C16.3925 104.208 16.7188 105.563 16.5716 106.91C16.4846 108.874 16.5716 108.874 18.5621 109.265V110.756C18.0727 110.718 17.581 110.718 17.0915 110.756C16.9567 110.772 16.829 110.825 16.7219 110.909C16.6148 110.993 16.5324 111.104 16.4835 111.23C16.3986 113.116 16.4835 115.004 16.4835 116.959H19.1658C19.3894 117.476 19.4158 118.057 19.2401 118.593C19.0643 119.128 18.6985 119.58 18.2118 119.865C17.9106 120.071 17.6714 120.356 17.5196 120.689C17.3679 121.021 17.3094 121.388 17.3504 121.751V175.676H19.255V135.167C19.688 135.167 20.035 135.087 20.3776 135.087H65.6383C65.8967 135.047 66.1598 135.047 66.4182 135.087H72.9969C73.1709 135.087 73.3439 135.008 73.6049 135.008C79.1437 135.087 84.6814 135.008 90.1287 135.087H95.4945C96.617 135.087 96.9651 134.849 96.9651 133.753C96.8781 124.097 96.9651 114.439 96.9651 104.793C96.9095 104.238 96.8242 103.686 96.7095 103.14H97.6635V100.233H97.5765C97.3209 98.5048 97.7505 97.0915 99.653 96.5451C101.903 97.3294 101.903 98.9785 101.729 100.782V102.823C101.964 103.02 102.227 103.181 102.509 103.299C102.409 104.002 102.351 104.71 102.335 105.419V175.607H103.547V164.466H103.46C103.46 164.074 103.547 163.755 103.547 163.365V113.656H152.017V175.598H153.311V103.057H154.004V100.303C153.497 98.8783 154.091 97.7106 156.08 96.3766C156.786 96.5311 157.406 96.9523 157.809 97.5522C158.212 98.1521 158.368 98.8844 158.244 99.5965C158.258 99.837 158.229 100.078 158.157 100.308V102.585C158.244 102.898 158.503 103.06 159.022 103.06C158.924 103.657 158.866 104.26 158.848 104.865V133.353C158.848 134.923 158.848 134.923 160.671 134.923H236.482V175.53H238.465V121.662C238.515 121.267 238.452 120.865 238.283 120.503C238.114 120.142 237.846 119.836 237.509 119.621C236.387 118.911 236.387 117.969 236.645 116.792H239.242V110.754C238.462 110.675 237.859 110.675 237.251 110.598V109.108C239.242 108.951 239.242 108.951 239.242 107.221V106.034C239.236 104.966 239.545 103.92 240.13 103.026C240.714 102.132 241.549 101.43 242.53 101.008C243.312 100.531 244.064 100.007 244.781 99.4379C244.914 99.2567 245.11 99.1318 245.33 99.0878C245.551 99.0437 245.779 99.0837 245.972 99.1999C246.044 99.2428 246.109 99.2962 246.165 99.3585C246.874 100.001 247.658 100.555 248.5 101.011C249.61 101.571 250.521 102.459 251.109 103.554C251.698 104.65 251.935 105.9 251.788 107.135C251.701 108.863 251.788 108.863 253.611 109.099C253.698 109.099 253.698 109.178 253.785 109.255V110.68C253.296 110.639 252.804 110.639 252.315 110.68C252.059 110.759 251.622 110.992 251.622 111.23C251.533 113.034 251.622 114.918 251.622 116.803H254.207V109.732H268.735V182.823H269.246V82.7236H298.1V154.952H302.432C302.866 154.952 303.04 154.873 303.125 154.401C303.636 151.495 304.248 148.593 304.855 145.687C305.635 141.604 306.499 137.521 307.286 133.44C308.066 129.591 308.757 125.746 309.536 121.899C310.228 118.211 311.007 114.598 311.7 110.909C312.393 107.533 313.083 104.079 313.69 100.702C313.705 100.522 313.782 100.352 313.909 100.222C314.035 100.092 314.203 100.011 314.383 99.9919C316.113 99.3629 317.759 98.7351 319.48 98.1865C321.038 97.6357 322.596 97 324.238 96.4581C324.748 96.2212 325.103 96.4581 325.535 96.6145C326.228 96.7709 326.918 97.0067 327.611 97.1653C328.422 97.2809 329.209 97.5209 329.947 97.8769C330.294 97.9562 330.726 98.1138 331.069 98.1898L330.895 98.7406C330.639 98.6612 330.462 98.6613 330.202 98.5842C330.458 98.6635 330.635 98.6634 330.895 98.7406C330.982 98.5841 330.982 98.3484 331.069 98.1898C331.325 98.1898 331.58 98.1105 331.762 98.3462C331.936 98.3462 332.196 98.4255 332.37 98.4255C333.027 98.5238 333.667 98.709 334.275 98.9763C334.708 98.897 335.055 98.7384 334.968 98.192C334.451 93.8107 334.989 89.3694 336.537 85.2384C342.353 69.8394 359.24 60.5873 376.516 63.3368C383.371 64.2466 389.822 67.1019 395.104 71.5645C398.984 74.6308 402.049 78.6056 404.028 83.1377C406.007 87.6699 406.839 92.6197 406.45 97.5498C406.45 98.0245 406.195 98.6513 406.45 99.0402C406.706 99.429 407.404 99.591 407.921 99.8245C408.122 99.9595 408.349 100.05 408.587 100.091C408.826 100.132 409.07 100.123 409.305 100.062C411.296 99.6703 413.285 99.3519 415.274 99.0457C415.707 98.8465 416.185 98.7645 416.66 98.8077C416.996 98.6893 417.363 98.6893 417.7 98.8077C420.296 99.9941 422.891 101.085 425.488 102.183C425.638 102.245 425.772 102.342 425.877 102.465C425.983 102.589 426.058 102.736 426.095 102.895L427.391 110.196C428.256 114.913 429.036 119.618 429.902 124.406C430.682 128.881 431.547 133.354 432.333 137.911L435.451 155.34C435.538 155.891 435.705 155.968 436.231 155.968H443.586C443.841 155.968 444.097 155.888 444.097 156.281C444.097 156.673 443.841 157.297 444.271 157.536C444.717 157.715 445.181 157.847 445.655 157.929C445.829 157.929 445.909 158.008 446.088 158.008L450.758 159.194V134.539H457.681V123.936L462.013 123.152V108.624C462.013 108.624 465.648 108.937 465.474 103.679C465.3 98.4211 465.474 95.2772 465.474 95.2772H485.901V107.615H490.056V66.3133C490.31 65.1587 490.957 64.1281 491.886 63.3975C492.816 62.667 493.97 62.2819 495.152 62.3079C497.371 62.1487 499.598 62.1487 501.817 62.3079L502.51 49.903C502.51 49.903 514.186 48.6461 514.186 52.733V159.028L593.795 158.883C593.795 158.883 605.964 158.883 610.074 169.008C612.602 176.366 612.484 172.164 610.074 191.765H1.86546C1.86546 191.765 -0.11298 148.757 0.79142 164.164ZM504.401 114.842H510.026V109.732H504.401V114.842ZM504.401 105.822H510.026V100.709H504.401V105.822ZM504.401 96.8018H510.026V91.6893H504.401V96.8018ZM504.401 87.782H510.026V82.6684H504.401V87.782ZM504.401 78.7611H510.026V73.6487H504.401V78.7611ZM504.401 69.813H510.026V64.6983H504.401V69.813ZM494.621 105.848H500.239V100.735H494.613L494.621 105.848ZM494.621 96.8282H500.239V91.7147H494.613L494.621 96.8282ZM494.621 87.8074H500.239V82.6927H494.613L494.621 87.8074ZM494.621 78.7876H500.239V73.673H494.613L494.621 78.7876ZM494.621 69.8394H500.239V64.7248H494.613L494.621 69.8394ZM477.146 149.104H482.77V144.01H477.146V149.104ZM477.146 140.084H482.77V134.99H477.146V140.084ZM477.146 131.063H482.77V125.898H477.146V131.063ZM477.146 122.043H482.77V116.874H477.146V122.043ZM477.146 113.024H482.77V107.859H477.146V113.024ZM477.146 104.074H482.77V98.9785H477.146V104.074ZM467.363 140.11H472.989V135.012H467.363V140.11ZM467.363 131.091H472.989V125.899H467.363V131.091ZM467.363 122.07H472.989V116.875H467.363V122.07ZM467.363 113.05H472.989V107.859H467.363V113.05ZM467.363 104.102H472.989V99.0016H467.363V104.102ZM405.234 155.999C406.705 155.919 415.533 155.999 415.533 155.999C415.533 155.999 414.84 149.483 414.41 146.815C413.802 142.497 413.027 138.255 412.16 134.015C411.356 130.119 410.257 126.289 408.873 122.559C408.376 121.317 407.708 120.151 406.887 119.096C406.887 119.252 406.8 119.411 406.8 119.571C406.135 122.655 405.644 125.773 405.329 128.912C405.329 128.991 405.242 129.068 405.242 129.15C405.068 131.036 404.986 132.923 404.895 134.723C404.895 135.909 404.808 137.078 404.808 138.254L405.234 155.999ZM402.552 97.1972C402.552 97.3537 402.552 97.5101 402.726 97.5894C403.289 97.8573 403.867 98.0949 404.455 98.301V95.7101C404.459 95.6615 404.452 95.6128 404.437 95.5666C404.421 95.5205 404.396 95.478 404.364 95.4415C404.332 95.405 404.292 95.3753 404.249 95.3541C404.205 95.3329 404.157 95.3206 404.108 95.3179C403.763 95.2386 403.598 95.08 403.934 94.7672C404.157 94.3126 404.243 93.8031 404.181 93.3006C404.12 92.7981 403.913 92.3244 403.587 91.9372C403.333 91.7807 403.154 91.7808 402.98 92.0165C402.817 92.3046 402.729 92.6293 402.725 92.9605C402.783 93.5125 402.753 94.0701 402.638 94.6129C402.479 95.4669 402.449 96.3398 402.549 97.2028L402.552 97.1972ZM399.091 95.5449C399.178 95.8577 399.178 96.0208 399.524 96.1728C400.034 96.4107 400.564 96.5649 401.081 96.8018C401.428 96.9582 401.514 96.8811 401.514 96.5638V95.2298C401.34 94.7539 401.77 94.1282 401.26 93.5774C401.173 93.4981 401.347 93.3395 401.434 93.1853C401.685 92.7321 401.778 92.2085 401.7 91.6965C401.621 91.1845 401.376 90.7128 401.001 90.3553C400.889 90.213 400.743 90.102 400.576 90.0333C400.408 89.9645 400.226 89.9403 400.047 89.9631C399.862 90.0007 399.694 90.0976 399.569 90.2391C399.444 90.3807 399.368 90.5592 399.354 90.7475C399.334 90.88 399.304 91.0109 399.267 91.1396C399.293 92.6069 399.235 94.0745 399.091 95.535V95.5449ZM394.157 91.4624V93.4287C394.146 93.5136 394.165 93.5998 394.212 93.6717C394.258 93.7436 394.329 93.7965 394.411 93.8209C395.451 94.2957 396.488 94.6845 397.529 95.1549C397.875 95.3113 397.962 95.2342 397.962 94.917V93.5829C397.875 93.1082 398.217 92.4814 397.706 92.011C397.7 91.9674 397.705 91.9232 397.721 91.882C397.736 91.8407 397.761 91.8037 397.793 91.7742C397.954 91.2463 397.958 90.6831 397.804 90.1531C397.651 89.6231 397.346 89.1491 396.928 88.7889C396.76 88.5673 396.533 88.3978 396.273 88.3003C396.012 88.2028 395.73 88.1813 395.458 88.2381C394.85 88.3945 394.678 88.9497 394.593 89.495V90.5118C394.593 90.8246 395.026 91.296 394.16 91.1396C394.069 91.1396 394.16 91.3776 394.16 91.4591L394.157 91.4624ZM347.502 94.917C348.714 94.5248 350.013 94.1327 351.221 93.7306C351.288 93.7274 351.353 93.71 351.413 93.6796C351.472 93.6493 351.524 93.6067 351.566 93.5546C351.608 93.5025 351.638 93.4422 351.654 93.3775C351.671 93.3129 351.674 93.2455 351.662 93.1798V91.9306H351.747V90.829C351.747 90.5161 351.834 90.2 351.237 90.3531C350.89 90.4324 350.981 90.0403 351.063 89.8783C351.237 89.2614 351.237 88.6083 351.063 87.9913C351.019 87.7301 350.9 87.4874 350.72 87.2931C350.54 87.0989 350.308 86.9617 350.05 86.8985C349.789 86.8215 349.512 86.816 349.247 86.8824C348.983 86.9488 348.741 87.0849 348.547 87.2764C348.023 87.6651 347.627 88.202 347.411 88.8178C347.195 89.4336 347.169 90.1 347.335 90.731C347.422 90.8874 347.506 91.1231 347.248 91.2068C347.074 91.2862 347.161 91.4448 347.161 91.6001V94.5061C346.99 94.9809 347.079 95.0569 347.509 94.9016L347.502 94.917ZM341.098 95.1549V93.898C341.098 93.6601 341.185 93.5058 340.842 93.3472C340.587 93.2679 340.755 92.955 340.755 92.7193C340.915 92.0889 340.854 91.4228 340.581 90.8323C340.326 90.2815 339.888 90.2033 339.459 90.6759C339.056 91.064 338.789 91.5712 338.697 92.1227C338.605 92.6741 338.693 93.2405 338.948 93.7383C339.382 94.4488 339.295 94.6019 338.515 94.7551C338.259 94.8344 338.259 94.9929 338.259 95.1472V97.3503C338.259 97.6632 338.433 97.7425 338.693 97.6632C339.3 97.4252 339.99 97.2711 340.684 97.0353C340.747 97.0254 340.808 97.0023 340.862 96.9676C340.916 96.9329 340.962 96.8873 340.998 96.8337C341.03 96.7826 341.05 96.7245 341.056 96.6641C341.061 96.6037 341.052 96.5429 341.03 96.4867C341.101 96.05 341.128 95.607 341.109 95.1648L341.098 95.1549ZM342.656 92.7997C342.4 92.879 342.48 93.1126 342.48 93.2745V95.9426C342.48 96.2554 342.567 96.4933 342.991 96.3347C343.771 96.0967 344.462 95.8599 345.242 95.6231C345.369 95.5992 345.482 95.5303 345.562 95.429C345.642 95.3277 345.682 95.2009 345.675 95.0723V92.2423C345.675 92.163 345.675 91.9295 345.588 91.9295C344.808 91.6166 345.332 91.1441 345.414 90.8279C345.572 90.2245 345.511 89.5844 345.24 89.0224C345.174 88.8785 345.078 88.751 344.957 88.6489C344.836 88.5468 344.694 88.4727 344.541 88.432C344.384 88.3868 344.219 88.3739 344.056 88.3944C343.893 88.4148 343.737 88.4681 343.595 88.5509C343.179 88.7682 342.83 89.0952 342.586 89.4965C342.342 89.8979 342.213 90.3583 342.212 90.8279C342.196 91.3504 342.379 91.8594 342.724 92.2522C342.803 92.5717 342.977 92.7281 342.628 92.803L342.656 92.7997ZM327.511 155.448C327.858 155.448 329.069 155.527 329.502 155.527C330.194 155.448 332.703 155.606 333.053 155.606C333.403 155.606 334.007 155.686 334.35 155.686H336.781C337.128 155.686 337.561 155.529 337.735 155.529C338.329 155.344 338.94 155.212 339.558 155.137C341.2 155.137 341.2 155.137 341.2 153.713C341.2 150.959 341.287 148.296 341.287 145.547V145.076C341.287 144.133 341.2 142.014 341.2 140.994C341.2 140.838 341.113 140.756 341.2 140.519V139.89C341.2 139.652 341.113 138.32 341.113 138.162C340.939 134.474 340.767 130.781 340.333 127.172C340.008 124.223 339.429 121.308 338.604 118.458C338.517 118.301 338.517 118.066 338.43 117.83C338.059 118.206 337.738 118.628 337.476 119.086C335.136 122.787 333.275 126.77 331.937 130.94C330.343 135.758 329.127 140.693 328.302 145.701C327.782 148.684 327.35 151.667 327.005 154.649C326.827 155.277 327.005 155.434 327.516 155.434L327.511 155.448ZM284.318 139.949H289.944V134.848H284.318V139.949ZM284.318 130.928H289.944V125.824H284.318V130.928ZM284.318 121.908H289.944V116.803H284.318V121.908ZM284.318 112.888H289.944V107.779H284.318V112.888ZM284.318 103.867H289.944V98.7615H284.318V103.867ZM284.318 94.8476H289.944V89.8266H284.318V94.8476ZM274.538 130.962H280.156V125.857H274.53L274.538 130.962ZM274.538 121.942H280.156V116.835H274.53L274.538 121.942ZM274.538 112.921H280.156V107.817H274.53L274.538 112.921ZM274.538 103.901H280.156V98.7956H274.53L274.538 103.901ZM274.538 94.8806H280.156V89.8541H274.53L274.538 94.8806ZM252.736 175.35V182.657H254.288V118.514C254.109 118.887 253.841 119.211 253.508 119.457C253.217 119.67 252.991 119.958 252.853 120.291C252.716 120.624 252.672 120.988 252.728 121.344L252.736 175.35ZM246.505 116.311C246.502 116.422 246.532 116.532 246.592 116.626H249.967V111.131C249.967 110.893 249.533 110.739 249.359 110.58H249.104C246.507 110.424 246.507 110.424 246.507 112.784L246.505 116.311ZM241.226 112.779V115.842C241.226 116.471 241.482 116.706 242.18 116.706C245.298 116.627 244.691 117.098 244.691 114.503V113.56C244.735 112.826 244.735 112.091 244.691 111.357C244.604 111.044 244.181 110.573 243.911 110.573C240.791 110.493 241.225 110.259 241.225 112.77L241.226 112.779ZM221.061 175.349H233.095V164.371C233.109 163.991 233.02 163.615 232.837 163.283C232.654 162.951 232.384 162.674 232.055 162.484C230.838 161.537 229.374 160.96 227.837 160.821C226.301 160.682 224.757 160.987 223.389 161.699C222.642 161.937 222 162.427 221.575 163.086C221.149 163.745 220.966 164.531 221.056 165.31C221.23 168.686 221.056 172.061 221.056 175.359L221.061 175.349ZM207.043 175.349H218.984V164.198C219.015 163.837 218.942 163.475 218.772 163.155C218.603 162.835 218.346 162.57 218.03 162.392C216.847 161.523 215.455 160.985 213.995 160.833C212.535 160.681 211.062 160.921 209.725 161.527C208.887 161.771 208.156 162.293 207.653 163.006C207.15 163.719 206.903 164.582 206.954 165.453C207.208 168.752 207.041 172.056 207.041 175.345L207.043 175.349ZM193.108 175.349H205.134V164.595C205.157 164.142 205.056 163.69 204.843 163.289C204.629 162.888 204.311 162.553 203.922 162.318C202.675 161.423 201.201 160.897 199.668 160.799C198.136 160.702 196.607 161.037 195.256 161.768C194.549 162.009 193.943 162.481 193.535 163.107C193.127 163.733 192.941 164.478 193.005 165.222C193.206 168.594 193.236 171.973 193.095 175.348L193.108 175.349ZM179.173 175.349H191.197V164.429C191.226 163.995 191.127 163.563 190.912 163.186C190.696 162.808 190.374 162.503 189.985 162.308C188.811 161.453 187.428 160.929 185.981 160.791C184.535 160.653 183.078 160.906 181.763 161.524C180.94 161.757 180.222 162.267 179.733 162.969C179.244 163.671 179.014 164.52 179.08 165.373C179.336 168.746 179.17 172.044 179.17 175.342L179.173 175.349ZM165.325 175.349H177.345V164.516C177.354 164.045 177.228 163.58 176.983 163.177C176.739 162.774 176.384 162.449 175.962 162.239C174.559 161.273 172.892 160.762 171.189 160.776C169.485 160.791 167.828 161.329 166.441 162.318C166.081 162.499 165.783 162.782 165.583 163.131C165.383 163.48 165.291 163.881 165.318 164.283V175.349H165.325ZM156.412 102.887H156.758C157.105 102.808 157.538 102.73 157.798 102.649V100.216C157.341 100.142 156.877 100.115 156.414 100.136L156.412 102.887ZM154.589 102.887H156.056V99.9821C155.711 99.9411 155.362 99.9411 155.016 99.9821C154.888 99.9997 154.768 100.054 154.67 100.138V102.892L154.589 102.887ZM110.802 159.094V167.899L110.889 167.978C110.821 168.068 110.79 168.18 110.802 168.291V173.708C110.845 174.102 110.845 174.5 110.802 174.894V175.286H145.069V174.81C145.069 163.654 144.982 152.514 145.156 141.366C145.218 140.331 144.96 139.302 144.419 138.418C143.877 137.533 143.077 136.837 142.127 136.421C139.302 134.968 136.383 133.707 133.388 132.648C130.761 131.324 127.731 131.043 124.906 131.863C121.017 133.013 117.249 134.538 113.655 136.416C112.724 136.87 111.948 137.59 111.425 138.484C110.901 139.379 110.654 140.408 110.714 141.442C110.885 147.332 110.801 153.219 110.801 159.028L110.802 159.094ZM99.9856 102.892H100.332C100.685 102.93 101.042 102.876 101.368 102.736V100.071C101.154 99.9628 100.916 99.9091 100.675 99.9148H99.9856V102.9V102.892ZM98.1625 102.892H99.545V99.9864H98.1614L98.1625 102.892ZM78.605 175.355H90.6288V164.198C90.6595 163.837 90.5858 163.476 90.4167 163.156C90.2476 162.836 89.99 162.572 89.6748 162.394C88.4989 161.514 87.1099 160.963 85.6504 160.797C84.1908 160.631 82.7135 160.856 81.37 161.45C80.5178 161.67 79.7713 162.186 79.2637 162.905C78.7561 163.624 78.5204 164.5 78.5984 165.376C78.7725 168.752 78.6854 172.05 78.5984 175.345L78.605 175.355ZM64.757 175.355H76.7808V164.371C76.807 163.969 76.7246 163.567 76.5423 163.208C76.3599 162.849 76.0842 162.545 75.7442 162.329C74.5047 161.395 73.0252 160.832 71.478 160.706C69.9308 160.58 68.3797 160.896 67.0053 161.618C66.27 161.849 65.6366 162.326 65.2114 162.969C64.7862 163.613 64.595 164.382 64.67 165.149C64.8396 168.604 64.7548 171.979 64.7548 175.357L64.757 175.355ZM50.7394 175.355H62.7632V164.439C62.7686 164.051 62.6763 163.667 62.4945 163.324C62.3128 162.981 62.0475 162.689 61.7233 162.475C60.4921 161.523 59.0108 160.948 57.4595 160.822C55.9081 160.696 54.3534 161.023 52.9844 161.763C52.2438 162.012 51.6096 162.504 51.1853 163.16C50.7611 163.816 50.572 164.597 50.649 165.374C50.8187 168.672 50.7361 172.048 50.7361 175.344L50.7394 175.355ZM36.8914 175.355H48.8292V164.525C48.8513 164.081 48.7497 163.641 48.5358 163.251C48.3218 162.862 48.0039 162.541 47.6175 162.322C46.3632 161.41 44.8755 160.874 43.3281 160.777C41.7807 160.679 40.2374 161.024 38.8786 161.771C38.216 162.013 37.6526 162.468 37.2767 163.065C36.9009 163.662 36.734 164.367 36.8022 165.069C36.9784 168.519 36.8914 171.976 36.8914 175.349V175.355ZM22.8737 175.355H34.8986V164.29C34.8244 163.63 34.5179 163.017 34.0339 162.562C32.5615 161.418 30.7498 160.796 28.8851 160.796C27.0203 160.796 25.2087 161.418 23.7363 162.562C23.2766 162.994 22.9979 163.585 22.9564 164.214C22.8693 167.988 22.8693 171.672 22.8693 175.372L22.8737 175.355ZM11.2774 115.925C11.3209 116.094 11.4077 116.248 11.5293 116.373C11.6508 116.498 11.8028 116.589 11.9703 116.637C12.835 116.716 13.6998 116.637 14.7419 116.637V110.977C14.7144 110.856 14.6509 110.745 14.5597 110.66C14.4685 110.576 14.3538 110.521 14.2307 110.502C13.4222 110.424 12.608 110.424 11.7995 110.502C11.5451 110.502 11.2895 110.977 11.2895 111.288V115.84L11.2774 115.925ZM5.9986 116.553H9.37274V110.515C8.41877 110.515 7.54962 110.436 6.60116 110.515C6.44975 110.55 6.3116 110.627 6.20361 110.739C6.09561 110.85 6.02246 110.991 5.99309 111.143L5.9986 116.553Z" fill="#E4E9E9"/>
    <path opacity="0.08" d="M452.429 191.783V144.713H448.69V140.321H446.26V138.655H444.809V134.92H431.423V138.655H429.957V140.321H427.526V144.715H423.78V166.869H421.908V162.132H409.968V166.869H405.375V191.773L452.429 191.783Z" fill="#E4E9E9"/>
    <path opacity="0.08" d="M403.869 160.243H391.172V191.785H403.869V160.243Z" fill="#E4E9E9"/>
    <path opacity="0.08" d="M350.391 146.112H332.562V191.785H350.391V146.112Z" fill="#E4E9E9"/>
    <path opacity="0.08" d="M330.461 191.774V155.415H324.016V148.768H307.234V155.415H304.617V124.311H299.367V118.142H295.958V115.801H293.902V110.558H275.109V115.801H273.055V118.142H269.647V124.311H264.396V191.774H330.461Z" fill="#E4E9E9"/>
    <path opacity="0.08" d="M482.182 191.783V169.201H463.469V180.224H453.057V191.78L482.182 191.783Z" fill="#E4E9E9"/>
    <path opacity="0.08" d="M549.127 191.784V156.644H544.563V143.218L539.066 145.076V141.275L532.355 143.554V147.349L526.855 149.207V156.653H521.033V191.793L549.127 191.784Z" fill="#E4E9E9"/>
    <path opacity="0.08" d="M513.065 153.541H496.572V191.783H513.065V153.541Z" fill="#E4E9E9"/>
    <path opacity="0.08" d="M30.8691 191.785V184.974H20.4493V173.949H1.74219V191.785H30.8691Z" fill="#E4E9E9"/>
    <path opacity="0.08" d="M78.5638 191.784V171.626H73.9735V166.889H62.018V171.626H60.153V149.461H56.4076V145.066H53.9764V143.401H52.5135V139.665H39.1304V143.401H37.673V145.066H35.2418V149.461H31.502V191.784H78.5638Z" fill="#E4E9E9"/>
    <path opacity="0.08" d="M183.38 191.783V141.063H175.202V130.609L167.484 127.998V122.667L158.069 119.472V124.812L150.35 122.2V141.063H143.943V191.782L183.38 191.783Z" fill="#E4E9E9"/>
    <path opacity="0.08" d="M263.517 191.784V174.159H253.997V146.818H227.719V191.784H263.517Z" fill="#E4E9E9"/>
    <mask id="mask0_935_7825" style="mask-type:luminance" maskUnits="userSpaceOnUse" x="365" y="127" width="174" height="65">
    <path d="M538.991 127.123H365.324V191.075H538.991V127.123Z" fill="white"/>
    </mask>
    <g mask="url(#mask0_935_7825)">
    <path fill-rule="evenodd" clip-rule="evenodd" d="M367.404 177.734V172.988C368.001 173.635 368.336 174.481 368.343 175.361C368.344 176.243 368.008 177.092 367.404 177.734Z" fill="#1A1A1A"/>
    <path fill-rule="evenodd" clip-rule="evenodd" d="M503.518 130.928C507.373 131.542 514.527 132.353 517.158 132.83C519.207 133.661 518.025 135.098 518.114 136.311L509.962 134.018L503.518 130.928Z" fill="#BA2525"/>
    <path fill-rule="evenodd" clip-rule="evenodd" d="M436.112 158.835L527.457 158.238L533.326 165.751L532.89 178.73H530.529L510.105 181.779H417.641L436.112 158.835Z" fill="#121212"/>
    <path fill-rule="evenodd" clip-rule="evenodd" d="M472.361 190.039H466.052C460.695 190.039 456.352 183.339 456.352 175.074C456.352 166.809 460.695 160.108 466.052 160.108H472.361C478.199 160.108 478.387 190.039 472.361 190.039Z" fill="#121212"/>
    <path fill-rule="evenodd" clip-rule="evenodd" d="M472.361 190.039C467.018 190.039 462.66 183.319 462.66 175.073C462.66 166.826 467.018 160.108 472.361 160.108C477.703 160.108 482.061 166.827 482.061 175.073C482.061 183.318 477.703 190.039 472.361 190.039Z" fill="#121212"/>
    <path fill-rule="evenodd" clip-rule="evenodd" d="M394.486 190.039H388.173C382.816 190.039 378.473 183.339 378.473 175.074C378.473 166.809 382.816 160.108 388.173 160.108H394.483C400.321 160.108 400.509 190.039 394.483 190.039" fill="#121212"/>
    <path fill-rule="evenodd" clip-rule="evenodd" d="M394.486 190.039C389.143 190.039 384.785 183.319 384.785 175.073C384.785 166.826 389.143 160.108 394.486 160.108C399.828 160.108 404.187 166.827 404.187 175.073C404.187 183.318 399.83 190.039 394.486 190.039Z" fill="#121212"/>
    <path fill-rule="evenodd" clip-rule="evenodd" d="M521.421 190.039H515.111C509.754 190.039 505.41 183.339 505.41 175.074C505.41 166.809 509.754 160.108 515.111 160.108H521.419C527.258 160.108 527.446 190.039 521.421 190.039Z" fill="#121212"/>
    <path fill-rule="evenodd" clip-rule="evenodd" d="M521.419 190.039C516.077 190.039 511.719 183.319 511.719 175.073C511.719 166.826 516.077 160.108 521.419 160.108C526.762 160.108 531.121 166.827 531.121 175.073C531.121 183.318 526.763 190.039 521.419 190.039Z" fill="#1A1A1A"/>
    <path fill-rule="evenodd" clip-rule="evenodd" d="M521.42 185.604C517.66 185.604 514.59 180.873 514.59 175.073C514.59 169.272 517.656 164.542 521.42 164.542C525.184 164.542 528.249 169.273 528.249 175.073C528.249 180.872 525.183 185.604 521.42 185.604Z" fill="white"/>
    <path fill-rule="evenodd" clip-rule="evenodd" d="M521.419 184.103C518.195 184.103 515.564 180.046 515.564 175.07C515.564 170.094 518.195 166.037 521.419 166.037C524.644 166.037 527.274 170.094 527.274 175.07C527.274 180.046 524.644 184.103 521.419 184.103Z" fill="#989898"/>
    <path fill-rule="evenodd" clip-rule="evenodd" d="M520.288 183.936C517.596 183.123 515.564 179.463 515.564 175.074C515.564 170.684 517.596 167.024 520.288 166.21C522.979 167.023 525.011 170.683 525.011 175.074C525.011 179.464 522.979 183.123 520.288 183.936Z" fill="#1A1A1A"/>
    <path fill-rule="evenodd" clip-rule="evenodd" d="M519.666 183.693C519.353 183.541 519.058 183.356 518.785 183.142L518.813 178.711C518.699 178.678 518.588 178.633 518.483 178.577L516.468 179.899C516.373 179.678 516.289 179.444 516.21 179.207L517.341 177.302C517.263 177.145 517.195 176.983 517.138 176.818L515.773 177.479C515.694 177.035 515.637 176.588 515.603 176.139L516.871 175.521C516.86 175.374 516.854 175.223 516.854 175.068C516.854 175.046 516.854 175.024 516.854 175.002L515.57 174.598L515.578 174.393L516.054 172.091L517.289 172.946C517.359 172.794 517.439 172.646 517.528 172.505L516.47 170.239C516.595 169.91 516.746 169.592 516.921 169.287L518.243 171.717C518.343 171.645 518.449 171.583 518.56 171.53L518.336 168.371L518.074 167.662C518.276 167.446 518.492 167.244 518.722 167.058L520.327 166.256C520.527 166.312 520.722 166.382 520.912 166.467L520.209 168.371L519.981 171.534C520.105 171.593 520.223 171.664 520.332 171.746L522.425 167.409H523.294L521.039 172.55C521.118 172.68 521.189 172.815 521.252 172.954L523.147 171.645L524.109 170.025H524.983L525.998 174.81H525.122L523.723 174.37L521.689 175.015C521.689 175.037 521.689 175.059 521.689 175.081C521.689 175.255 521.681 175.425 521.666 175.593L525.002 177.297L525.6 178.579H524.726L521.388 176.874C521.334 177.024 521.272 177.171 521.202 177.314L522.601 179.671L523.903 180.571L522.121 183.53H521.247L521.09 181.352L520.06 178.587C519.944 178.649 519.822 178.698 519.695 178.732L519.666 183.693Z" fill="#808080"/>
    <path fill-rule="evenodd" clip-rule="evenodd" d="M520.546 184.005C520.241 183.934 519.946 183.829 519.664 183.693L519.69 178.709C519.575 178.675 519.465 178.63 519.359 178.575L518.329 181.34L518.235 182.655C517.472 181.861 516.874 180.925 516.472 179.901L516.822 179.659L518.22 177.303C518.143 177.146 518.075 176.984 518.018 176.819L515.852 177.868C515.76 177.432 515.691 176.99 515.644 176.547L517.75 175.525C517.738 175.378 517.732 175.228 517.732 175.073C517.732 175.051 517.732 175.029 517.732 175.007L515.698 174.36L515.582 174.396C515.629 173.357 515.8 172.327 516.091 171.328L516.275 171.638L518.169 172.948C518.239 172.796 518.318 172.649 518.408 172.507L516.915 169.312C517.1 168.968 517.307 168.637 517.537 168.321L519.125 171.724C519.224 171.652 519.331 171.589 519.442 171.537L519.214 168.372L518.725 167.059C519.269 166.61 519.91 166.294 520.598 166.135C521.009 166.184 521.411 166.296 521.789 166.466L521.081 168.369L520.853 171.533C520.977 171.592 521.095 171.663 521.205 171.745L523.298 167.408L524.007 168.213L521.914 172.548C521.993 172.678 522.064 172.813 522.128 172.952L524.022 171.642L524.984 170.023C525.636 171.535 525.981 173.162 525.999 174.808L524.6 174.368L522.565 175.013V175.079C522.565 175.252 522.557 175.424 522.543 175.59L525.877 177.295L525.601 178.577L522.263 176.872C522.21 177.022 522.147 177.169 522.077 177.312L523.475 179.668L524.777 180.568C524.207 181.798 523.281 182.829 522.12 183.528L521.963 181.351L520.934 178.586C520.817 178.648 520.695 178.696 520.568 178.731L520.546 184.005Z" fill="white"/>
    <path fill-rule="evenodd" clip-rule="evenodd" d="M520.402 177.133C519.66 177.133 519.057 176.206 519.057 175.07C519.057 173.935 519.66 173.009 520.402 173.009C521.143 173.009 521.747 173.936 521.747 175.07C521.747 176.205 521.143 177.133 520.402 177.133Z" fill="#666666"/>
    <path fill-rule="evenodd" clip-rule="evenodd" d="M443.395 190.039H437.085C431.728 190.039 427.385 183.339 427.385 175.074C427.385 166.809 431.728 160.108 437.085 160.108H443.395C449.234 160.108 449.421 190.039 443.395 190.039Z" fill="#121212"/>
    <path fill-rule="evenodd" clip-rule="evenodd" d="M443.394 190.039C438.051 190.039 433.693 183.319 433.693 175.073C433.693 166.826 438.051 160.108 443.394 160.108C448.737 160.108 453.094 166.827 453.094 175.073C453.094 183.318 448.737 190.039 443.394 190.039Z" fill="#1A1A1A"/>
    <path fill-rule="evenodd" clip-rule="evenodd" d="M443.394 185.604C439.636 185.604 436.564 180.873 436.564 175.073C436.564 169.272 439.631 164.542 443.394 164.542C447.157 164.542 450.224 169.273 450.224 175.073C450.224 180.872 447.157 185.604 443.394 185.604Z" fill="white"/>
    <path fill-rule="evenodd" clip-rule="evenodd" d="M443.394 184.103C440.17 184.103 437.539 180.046 437.539 175.07C437.539 170.094 440.169 166.037 443.394 166.037C446.619 166.037 449.249 170.094 449.249 175.07C449.249 180.046 446.618 184.103 443.394 184.103Z" fill="#989898"/>
    <path fill-rule="evenodd" clip-rule="evenodd" d="M442.262 183.936C439.57 183.123 437.539 179.463 437.539 175.074C437.539 170.684 439.57 167.024 442.262 166.21C444.954 167.023 446.984 170.683 446.984 175.074C446.984 179.464 444.953 183.123 442.262 183.936Z" fill="#1A1A1A"/>
    <path fill-rule="evenodd" clip-rule="evenodd" d="M441.639 183.692C441.326 183.541 441.031 183.356 440.757 183.142L440.786 178.711C440.672 178.677 440.561 178.632 440.456 178.577L438.441 179.899C438.346 179.678 438.26 179.444 438.183 179.207L439.313 177.302C439.236 177.145 439.168 176.983 439.111 176.817L437.746 177.478C437.667 177.035 437.61 176.588 437.576 176.139L438.844 175.521C438.832 175.374 438.826 175.223 438.826 175.068V175.002L437.543 174.598L437.551 174.393L438.027 172.091L439.261 172.945C439.331 172.793 439.411 172.646 439.501 172.505L438.442 170.239C438.567 169.91 438.718 169.592 438.892 169.287L440.214 171.717C440.314 171.645 440.42 171.582 440.532 171.53L440.304 168.365L440.041 167.657C440.243 167.44 440.459 167.238 440.689 167.052L442.294 166.25C442.494 166.306 442.69 166.377 442.879 166.461L442.171 168.365L441.943 171.529C442.067 171.587 442.184 171.658 442.294 171.74L444.387 167.403H445.262L443.007 172.544C443.086 172.675 443.157 172.81 443.221 172.949L445.115 171.639L446.077 170.02H446.952L447.966 174.805H447.092L445.692 174.364L443.658 175.01C443.658 175.032 443.658 175.054 443.658 175.076C443.658 175.25 443.65 175.421 443.635 175.587L446.97 177.291L447.568 178.573H446.693L443.355 176.868C443.302 177.018 443.24 177.166 443.17 177.309L444.568 179.665L445.87 180.565L444.089 183.524H443.222L443.065 181.346L442.035 178.581C441.919 178.643 441.796 178.692 441.67 178.727L441.639 183.692Z" fill="#808080"/>
    <path fill-rule="evenodd" clip-rule="evenodd" d="M442.52 184.005C442.216 183.934 441.92 183.829 441.639 183.693L441.664 178.709C441.55 178.676 441.439 178.63 441.334 178.575L440.304 181.34L440.209 182.655C439.447 181.861 438.848 180.925 438.446 179.901L438.797 179.659L440.196 177.303C440.118 177.146 440.051 176.984 439.993 176.819L437.828 177.868C437.737 177.432 437.667 176.99 437.62 176.547L439.726 175.525C439.715 175.378 439.709 175.228 439.709 175.073C439.709 175.051 439.709 175.029 439.709 175.007L437.674 174.36L437.559 174.396C437.605 173.357 437.776 172.327 438.067 171.328L438.251 171.638L440.145 172.948C440.215 172.796 440.295 172.649 440.384 172.507L438.891 169.312C439.076 168.968 439.284 168.637 439.514 168.321L441.101 171.724C441.201 171.652 441.307 171.589 441.419 171.537L441.191 168.372L440.701 167.059C441.245 166.61 441.887 166.294 442.574 166.135C442.986 166.184 443.388 166.296 443.766 166.466L443.058 168.369L442.83 171.533C442.954 171.592 443.071 171.662 443.181 171.745L445.274 167.408L445.983 168.213L443.89 172.548C443.97 172.678 444.041 172.813 444.104 172.952L445.998 171.642L446.959 170.023C447.612 171.535 447.957 173.162 447.974 174.808L446.575 174.368L444.54 175.013C444.54 175.035 444.54 175.057 444.54 175.079C444.54 175.252 444.533 175.424 444.517 175.59L447.853 177.295L447.576 178.577L444.239 176.872C444.185 177.022 444.123 177.169 444.052 177.312L445.45 179.668L446.752 180.568C446.182 181.798 445.257 182.829 444.096 183.528L443.94 181.351L442.911 178.586C442.795 178.648 442.672 178.696 442.545 178.731L442.52 184.005Z" fill="white"/>
    <path fill-rule="evenodd" clip-rule="evenodd" d="M442.376 177.133C441.636 177.133 441.031 176.206 441.031 175.07C441.031 173.935 441.636 173.009 442.376 173.009C443.117 173.009 443.722 173.936 443.722 175.07C443.722 176.205 443.118 177.133 442.376 177.133Z" fill="#666666"/>
    <path fill-rule="evenodd" clip-rule="evenodd" d="M401.147 144.672C411.791 139.191 422.785 132.601 432.268 129.952C460.395 125.14 486.481 126.52 510.671 133.638L522.036 144.357L529.636 149.258L529.343 150.703C528.831 150.681 528.316 150.669 527.801 150.669C510.136 150.669 495.816 163.454 495.816 179.226C495.816 180.085 495.861 180.934 495.943 181.775H455.305V173.039C455.305 165.76 449.895 158.939 443.224 158.939C436.553 158.939 431.142 165.769 431.142 173.039V181.776H366.23L365.848 180.005L366.619 179.005C366.657 178.829 366.681 178.65 366.688 178.47C366.681 178.367 366.707 178.264 366.763 178.177C366.82 178.091 366.903 178.025 367 177.99C367.415 177.694 367.747 177.297 367.966 176.837C368.184 176.377 368.281 175.868 368.248 175.36C368.29 174.828 368.183 174.295 367.941 173.82C367.698 173.344 367.329 172.945 366.874 172.667C366.618 172.557 366.513 172.369 366.469 171.904C366.028 167.193 365.636 162.6 369.278 161.109C369.528 159.859 369.933 158.644 370.482 157.493C374.866 150.873 390.311 147.531 401.148 144.675" fill="#EB2321"/>
    <path fill-rule="evenodd" clip-rule="evenodd" d="M480.928 127.903C491.703 128.162 502.372 130.098 512.551 133.639C518.778 136.287 524.546 139.905 529.64 144.358L531.709 147.28L532.863 146.38L535.269 152.282C535.563 154.734 537.243 156.122 537.796 157.771C539.519 163.213 539.379 169.073 537.4 174.426L538.014 175.795C538.067 175.934 538.091 176.082 538.083 176.231C538.076 176.379 538.038 176.524 537.972 176.657C537.906 176.79 537.813 176.908 537.699 177.003C537.585 177.099 537.452 177.169 537.309 177.211L533.375 178.629L532.185 174.222C532.185 166.943 527.999 158.932 521.324 158.932C514.65 158.932 510.462 166.944 510.462 174.222L509.59 181.772H455.305L454.085 174.221C454.085 166.942 449.899 158.931 443.223 158.931C436.548 158.931 432.361 166.943 432.361 174.221L431.487 181.771H418.543C415.517 176.365 411.736 172.44 414.237 168.239C415.928 165.401 416.183 164.576 412.425 165.074C405.725 166.059 390.799 167.114 381.302 166.106C373.835 165.318 371.04 162.783 369.277 161.107L370.568 157.361C372.428 158.713 376.438 160.458 382.353 160.864C394.104 161.672 406.698 158.765 417.994 155.915C431.984 152.39 433.306 150.879 446.39 144.818L464.353 132.246C468.258 129.789 469.737 129.119 473.986 128.391C476.286 128.074 478.604 127.912 480.926 127.906" fill="#DB1100"/>
    <path fill-rule="evenodd" clip-rule="evenodd" d="M524.39 140.246C526.238 141.557 527.984 142.937 529.639 144.358L531.708 147.28L532.862 146.38L534.253 149.789L449.431 152.55C448.524 152.579 448.534 151.534 449.321 151.417L484.681 146.155L515.012 144.846L524.39 140.246Z" fill="#EB2321"/>
    <path fill-rule="evenodd" clip-rule="evenodd" d="M470.538 131.735C465.645 134.725 461.034 138.154 456.763 141.98C456.297 142.361 455.959 142.875 455.791 143.453L455.394 144.793C455.142 145.709 455.359 146.181 456.276 146.151H513.098L522.461 143.358C522.579 143.332 522.688 143.276 522.778 143.196C522.868 143.116 522.936 143.014 522.976 142.901C523.015 142.787 523.026 142.665 523.005 142.546C522.985 142.428 522.934 142.316 522.859 142.222C512.887 131.931 479.359 126.894 470.539 131.728" fill="#121212"/>
    <path fill-rule="evenodd" clip-rule="evenodd" d="M471 132.533C466.164 135.498 461.605 138.892 457.377 142.674C457.042 142.942 456.797 143.307 456.676 143.719L456.285 145.041C456.273 145.083 456.256 145.151 456.24 145.23H488.517C488.341 143.047 488.048 140.851 487.655 138.645C487.243 136.332 486.728 134.046 486.129 131.783C486.056 131.5 485.985 131.22 485.916 130.944C484.687 130.871 483.464 130.826 482.246 130.809C479.052 130.775 473.868 130.973 471.001 132.532M493.143 145.23H512.115L509.18 135.999L509.042 135.559C505.728 134.424 502.348 133.493 498.92 132.772C496.266 132.209 493.535 131.741 490.789 131.403C491.34 133.572 491.819 135.723 492.199 137.853C492.632 140.262 492.944 142.691 493.134 145.132L493.143 145.23ZM513.658 145.02L510.86 136.22C515.135 137.849 519.212 139.951 521.891 142.565L513.658 145.02Z" fill="#2E333D"/>
    <path fill-rule="evenodd" clip-rule="evenodd" d="M463.226 137.85C461.222 139.374 459.273 140.982 457.377 142.674C457.042 142.942 456.797 143.307 456.676 143.719L456.285 145.041C456.273 145.083 456.255 145.151 456.24 145.23H488.517C488.341 143.047 488.048 140.852 487.655 138.646C487.564 138.131 487.468 137.621 487.367 137.113C479.314 136.705 471.242 136.951 463.229 137.849M492.133 137.454C498.397 137.985 504.602 139.069 510.675 140.693L512.118 145.23H493.144L493.137 145.129C492.947 142.689 492.634 140.26 492.201 137.851L492.133 137.454ZM512.446 141.199C514.723 141.878 516.885 142.631 518.916 143.454L513.662 145.02L512.446 141.199Z" fill="#1A1A1A"/>
    </g>
    <mask id="mask1_935_7825" style="mask-type:luminance" maskUnits="userSpaceOnUse" x="507" y="155" width="29" height="27">
    <path d="M535.13 174.957L535.099 178.006L533.24 178.677C533.131 178.725 533.013 178.747 532.894 178.74C532.776 178.734 532.661 178.7 532.558 178.641C532.455 178.581 532.367 178.499 532.302 178.399C532.237 178.3 532.197 178.187 532.184 178.069V174.225C532.184 166.946 527.998 158.935 521.322 158.935C514.646 158.935 510.46 166.947 510.46 174.225V180.835C510.479 180.956 510.47 181.081 510.433 181.198C510.397 181.316 510.335 181.424 510.251 181.514C510.167 181.604 510.064 181.674 509.949 181.718C509.835 181.763 509.712 181.781 509.589 181.771H507.188V174.952C507.188 164.611 513.443 155.303 521.159 155.303C528.874 155.303 535.13 164.611 535.13 174.952" fill="white"/>
    </mask>
    <g mask="url(#mask1_935_7825)">
    <path d="M495.085 173.911L526.842 194.54L547.234 163.146L515.478 142.518L495.085 173.911Z" fill="url(#paint0_linear_935_7825)"/>
    </g>
    <mask id="mask2_935_7825" style="mask-type:luminance" maskUnits="userSpaceOnUse" x="365" y="127" width="174" height="65">
    <path d="M538.991 127.123H365.324V191.075H538.991V127.123Z" fill="white"/>
    </mask>
    <g mask="url(#mask2_935_7825)">
    <path fill-rule="evenodd" clip-rule="evenodd" d="M406.763 159.311C415.218 155.576 419.686 154.163 426.898 153.301C428.267 153.137 428.368 154.354 427.85 155.045C425.855 157.705 423.698 159.603 422.262 159.978C418.059 161.146 414.071 161.85 405.841 162.723C404.549 162.927 402.977 160.987 406.765 159.308" fill="white"/>
    <path fill-rule="evenodd" clip-rule="evenodd" d="M400.124 164.484L382.356 165.806L374.747 164.566C373.462 164.356 373.185 160.669 374.821 160.87L382.356 161.78L401.044 160.804C403.364 160.694 402.449 164.305 400.124 164.478" fill="#333333"/>
    <path fill-rule="evenodd" clip-rule="evenodd" d="M400.123 164.488L383.379 165.739L376.238 164.575C375.154 164.397 374.787 161.484 375.679 160.982L382.356 161.789L383.396 161.735L383.846 161.789L401.647 160.859C403.164 161.217 402.213 164.331 400.123 164.488Z" fill="#121212"/>
    <path fill-rule="evenodd" clip-rule="evenodd" d="M401.326 144.584C411.281 139.448 421.531 133.369 430.559 130.468C442.433 129.548 454.354 129.381 466.25 129.967C467.146 130.031 467.323 130.668 466.628 131.137L447.21 144.265C446.631 144.668 445.931 144.86 445.228 144.81L401.89 144.582L401.326 144.584Z" fill="#121212"/>
    <path fill-rule="evenodd" clip-rule="evenodd" d="M405.053 143.674L445.207 143.886C445.732 143.937 446.258 143.8 446.692 143.499L465.396 130.853C453.842 130.316 442.266 130.493 430.733 131.382L428.123 131.635C421.208 134.193 414.321 138.024 407.915 141.451C406.5 142.207 405.084 142.959 403.666 143.708L405.053 143.674Z" fill="#2E333D"/>
    <path fill-rule="evenodd" clip-rule="evenodd" d="M405.054 143.674L445.208 143.886C445.733 143.937 446.259 143.8 446.692 143.499L457.874 135.941C441.276 134.95 424.628 136.689 408.594 141.09L407.916 141.453C406.501 142.209 405.085 142.961 403.668 143.711L405.054 143.674Z" fill="#1A1A1A"/>
    <path fill-rule="evenodd" clip-rule="evenodd" d="M372.812 172.086H397.371C403.209 172.086 404.059 178.329 400.184 178.329H373.24C370.984 178.329 368.688 172.086 372.812 172.086Z" fill="#333333"/>
    <path fill-rule="evenodd" clip-rule="evenodd" d="M374.34 172.086H397.37C403.208 172.086 404.057 178.329 400.183 178.329H374.767C372.51 178.329 370.216 172.086 374.34 172.086Z" fill="#121212"/>
    <path fill-rule="evenodd" clip-rule="evenodd" d="M410.168 178.182C409.633 178.082 409.138 177.832 408.741 177.461C408.343 177.091 408.059 176.614 407.922 176.088C407.785 175.562 407.801 175.007 407.968 174.49C408.134 173.972 408.445 173.513 408.863 173.165C409.281 172.817 409.789 172.596 410.328 172.526C410.868 172.457 411.416 172.542 411.908 172.773C412.401 173.003 412.817 173.369 413.11 173.828C413.402 174.286 413.557 174.819 413.558 175.362C413.474 176.182 413.072 176.937 412.438 177.464C411.805 177.991 410.989 178.249 410.168 178.182Z" fill="#121212"/>
    <path fill-rule="evenodd" clip-rule="evenodd" d="M411.254 177.303C410.858 177.36 410.454 177.294 410.097 177.115C409.739 176.935 409.445 176.651 409.253 176.3C409.062 175.948 408.982 175.547 409.025 175.149C409.068 174.751 409.232 174.376 409.494 174.074C409.756 173.772 410.104 173.557 410.492 173.458C410.88 173.359 411.288 173.381 411.663 173.521C412.038 173.661 412.361 173.912 412.589 174.241C412.817 174.569 412.94 174.96 412.94 175.36C412.97 175.84 412.811 176.314 412.495 176.677C412.18 177.041 411.734 177.266 411.254 177.303Z" fill="white"/>
    </g>
    <mask id="mask3_935_7825" style="mask-type:luminance" maskUnits="userSpaceOnUse" x="429" y="155" width="29" height="27">
    <path d="M457.195 174.957V181.776H454.925C454.247 181.776 454.085 181.414 454.085 180.839V174.23C454.085 166.95 449.899 158.94 443.224 158.94C436.55 158.94 432.362 166.952 432.362 174.23V180.839C432.362 181.511 432.07 181.776 431.488 181.776H429.252V174.957C429.252 164.615 435.507 155.308 443.223 155.308C450.94 155.308 457.195 164.615 457.195 174.957Z" fill="white"/>
    </mask>
    <g mask="url(#mask3_935_7825)">
    <path d="M417.15 173.911L448.906 194.54L469.299 163.146L437.542 142.518L417.15 173.911Z" fill="url(#paint1_linear_935_7825)"/>
    </g>
    <mask id="mask4_935_7825" style="mask-type:luminance" maskUnits="userSpaceOnUse" x="365" y="127" width="174" height="65">
    <path d="M538.991 127.123H365.324V191.075H538.991V127.123Z" fill="white"/>
    </mask>
    <g mask="url(#mask4_935_7825)">
    <path fill-rule="evenodd" clip-rule="evenodd" d="M529.444 144.223L528.68 149.641L535.269 152.285C535.062 150.572 535.619 148.86 534.647 147.147C534.019 146.266 531.171 144.762 529.444 144.226" fill="#FF0000"/>
    <path fill-rule="evenodd" clip-rule="evenodd" d="M380.803 163.034H384.081C384.222 163.035 384.358 163.091 384.458 163.191C384.558 163.291 384.614 163.426 384.614 163.568C384.614 163.709 384.558 163.844 384.458 163.944C384.358 164.044 384.222 164.1 384.081 164.101H380.803C380.661 164.1 380.526 164.044 380.426 163.944C380.326 163.844 380.27 163.709 380.27 163.568C380.27 163.426 380.326 163.291 380.426 163.191C380.526 163.091 380.661 163.035 380.803 163.034Z" fill="#B2B2B2"/>
    <path fill-rule="evenodd" clip-rule="evenodd" d="M421.107 181.777H366.288C366.036 181.779 365.794 181.682 365.614 181.507C365.433 181.331 365.329 181.092 365.324 180.84C365.329 180.589 365.433 180.349 365.613 180.174C365.794 179.998 366.036 179.901 366.288 179.904H421.107C421.359 179.902 421.601 179.999 421.782 180.174C421.962 180.349 422.066 180.589 422.071 180.84C422.066 181.092 421.962 181.331 421.782 181.507C421.601 181.682 421.359 181.779 421.107 181.777Z" fill="#EB2321"/>
    <path fill-rule="evenodd" clip-rule="evenodd" d="M456.632 146.881C455.053 147.894 453.585 146.175 454.835 145.008L460.131 140.232C461.761 138.86 463.82 141.941 462.191 143.316L456.632 146.881Z" fill="#EB2321"/>
    <path fill-rule="evenodd" clip-rule="evenodd" d="M467.847 139.458C465.77 139.017 463.624 139.017 461.547 139.458C457.86 140.314 457.765 146.154 461.547 146.22C463.704 146.227 465.843 145.821 467.847 145.022C471.383 143.681 471.568 140.161 467.847 139.458Z" fill="#EB2321"/>
    <path fill-rule="evenodd" clip-rule="evenodd" d="M462.165 140.522H466.831C468.181 140.522 468.159 142.285 466.831 142.505L461.19 143.453C459.861 143.673 459.932 140.52 462.165 140.52" fill="#EB2321"/>
    <path fill-rule="evenodd" clip-rule="evenodd" d="M505.891 164.777L500.369 171.332C497.225 174.242 493.065 175.885 488.013 176.411L459.957 178.323C456.156 178.67 460.226 176.152 469.784 174.75C482.459 172.89 492.378 170.797 499.906 166.024C504.996 162.677 508.205 162.229 505.891 164.777Z" fill="#EB2321"/>
    <path fill-rule="evenodd" clip-rule="evenodd" d="M369.314 160.947C369.55 159.698 369.973 158.492 370.567 157.369C370.755 157.754 371.035 158.14 371.541 158.99C372.372 160.392 372.363 162.277 371.357 162.37C370.77 162.424 369.688 161.489 369.314 160.947Z" fill="white"/>
    <path fill-rule="evenodd" clip-rule="evenodd" d="M483.866 149.551C482.152 149.6 480.782 150.2 480.797 150.894C480.812 151.588 482.222 152.106 483.937 152.062C485.651 152.018 487.021 151.413 487.006 150.719C486.99 150.025 485.58 149.507 483.866 149.551Z" fill="#1A1A1A"/>
    <path fill-rule="evenodd" clip-rule="evenodd" d="M511.057 149.551C509.343 149.6 507.973 150.2 507.988 150.894C508.004 151.588 509.414 152.106 511.128 152.062C512.842 152.018 514.212 151.413 514.197 150.719C514.182 150.025 512.771 149.507 511.057 149.551Z" fill="#1A1A1A"/>
    <path fill-rule="evenodd" clip-rule="evenodd" d="M379.972 189.313H528.878C529.111 189.313 529.336 189.406 529.501 189.571C529.666 189.736 529.759 189.96 529.759 190.194C529.759 190.428 529.666 190.652 529.501 190.817C529.336 190.982 529.111 191.075 528.878 191.075H379.017C378.784 191.075 378.559 190.982 378.394 190.817C378.229 190.652 378.136 190.428 378.136 190.194C378.136 189.96 378.229 189.736 378.394 189.571C378.559 189.406 378.784 189.313 379.017 189.313H379.972ZM371.544 189.313H372.691C372.925 189.313 373.149 189.406 373.314 189.571C373.479 189.736 373.572 189.96 373.572 190.194C373.572 190.428 373.479 190.652 373.314 190.817C373.149 190.982 372.925 191.075 372.691 191.075H369.592C369.358 191.075 369.134 190.982 368.969 190.817C368.804 190.652 368.711 190.428 368.711 190.194C368.711 189.96 368.804 189.736 368.969 189.571C369.134 189.406 369.358 189.313 369.592 189.313H371.544ZM534.4 189.313H537.542C537.775 189.313 538 189.406 538.165 189.571C538.33 189.736 538.423 189.96 538.423 190.194C538.423 190.428 538.33 190.652 538.165 190.817C538 190.982 537.775 191.075 537.542 191.075H534.4C534.166 191.075 533.942 190.982 533.777 190.817C533.612 190.652 533.519 190.428 533.519 190.194C533.519 189.96 533.612 189.736 533.777 189.571C533.942 189.406 534.166 189.313 534.4 189.313Z" fill="#121212"/>
    </g>
    <mask id="mask5_935_7825" style="mask-type:luminance" maskUnits="userSpaceOnUse" x="61" y="127" width="190" height="65">
    <path d="M250.566 127.123H61.6152V191.074H250.566V127.123Z" fill="white"/>
    </mask>
    <g mask="url(#mask5_935_7825)">
    <path fill-rule="evenodd" clip-rule="evenodd" d="M235.019 189.52H77.5343C77.3282 189.52 77.1305 189.602 76.9848 189.747C76.839 189.893 76.7571 190.091 76.7571 190.297C76.7571 190.503 76.839 190.701 76.9848 190.846C77.1305 190.992 77.3282 191.074 77.5343 191.074H235.019C235.225 191.074 235.423 190.992 235.568 190.846C235.714 190.701 235.796 190.503 235.796 190.297C235.796 190.091 235.714 189.893 235.568 189.747C235.423 189.602 235.225 189.52 235.019 189.52ZM247.349 189.52H241.364C241.158 189.52 240.96 189.602 240.814 189.747C240.669 189.893 240.587 190.091 240.587 190.297C240.587 190.503 240.669 190.701 240.814 190.846C240.96 190.992 241.158 191.074 241.364 191.074H247.349C247.555 191.074 247.753 190.992 247.898 190.846C248.044 190.701 248.126 190.503 248.126 190.297C248.126 190.091 248.044 189.893 247.898 189.747C247.753 189.602 247.555 189.52 247.349 189.52ZM71.057 189.52H65.0721C64.866 189.52 64.6683 189.602 64.5225 189.747C64.3768 189.893 64.2949 190.091 64.2949 190.297C64.2949 190.503 64.3768 190.701 64.5225 190.846C64.6683 190.992 64.866 191.074 65.0721 191.074H71.057C71.2631 191.074 71.4608 190.992 71.6065 190.846C71.7523 190.701 71.8342 190.503 71.8342 190.297C71.8342 190.091 71.7523 189.893 71.6065 189.747C71.4608 189.602 71.2631 189.52 71.057 189.52Z" fill="#0F0F0F"/>
    <path fill-rule="evenodd" clip-rule="evenodd" d="M221.039 190.297H227.557C233.091 190.297 237.581 183.376 237.581 174.838C237.581 166.299 233.095 159.378 227.557 159.378H221.039C215.505 159.378 211.015 166.301 211.015 174.838C211.015 183.375 215.501 190.297 221.039 190.297ZM134.812 190.297H141.33C146.864 190.297 151.354 183.376 151.354 174.838C151.354 166.299 146.866 159.378 141.33 159.378H134.812C129.277 159.378 124.787 166.301 124.787 174.838C124.787 183.375 129.274 190.297 134.812 190.297Z" fill="#121212"/>
    <path d="M96.6168 152.627H69.3691V180.623H96.6168V152.627Z" fill="#121212"/>
    <path d="M183.115 156.579H155.867V184.576H183.115V156.579Z" fill="#121212"/>
    <path fill-rule="evenodd" clip-rule="evenodd" d="M168.748 190.297H175.261C180.796 190.297 185.286 183.376 185.286 174.838C185.286 166.299 180.799 159.378 175.261 159.378H168.743C162.716 159.378 162.518 190.299 168.743 190.299" fill="#0F0F0F"/>
    <path fill-rule="evenodd" clip-rule="evenodd" d="M168.747 190.296C174.267 190.296 178.771 183.356 178.771 174.837C178.771 166.317 174.269 159.377 168.747 159.377C163.225 159.377 158.723 166.317 158.723 174.837C158.723 183.356 163.225 190.296 168.747 190.296Z" fill="#1A1A1A"/>
    <path fill-rule="evenodd" clip-rule="evenodd" d="M168.748 186.125C172.779 186.125 176.065 181.057 176.065 174.837C176.065 168.616 172.778 163.549 168.748 163.549C164.719 163.549 161.432 168.616 161.432 174.837C161.432 181.057 164.719 186.125 168.748 186.125Z" fill="white"/>
    <path fill-rule="evenodd" clip-rule="evenodd" d="M168.75 184.52C172.207 184.52 175.029 180.171 175.029 174.837C175.029 169.503 172.209 165.155 168.75 165.155C165.291 165.155 162.471 169.504 162.471 174.837C162.471 180.17 165.291 184.52 168.75 184.52Z" fill="#5C5F5F"/>
    <path fill-rule="evenodd" clip-rule="evenodd" d="M169.962 184.338C172.847 183.466 175.029 179.544 175.029 174.837C175.029 170.13 172.851 166.208 169.962 165.336C167.076 166.208 164.895 170.13 164.895 174.837C164.895 179.544 167.071 183.466 169.962 184.338Z" fill="#1A1A1A"/>
    <path fill-rule="evenodd" clip-rule="evenodd" d="M169.796 165.406V168.661L168.403 169.698L166.751 167.67H165.746L165.374 170.328L167.026 172.357L166.683 174.687L164.625 175.412L164.109 178.725H165.114L167.172 178.001L168.139 179.873L168.205 184.28H169.211L170.126 181.347H171.676L171.612 183.457C172.579 182.649 173.346 181.629 173.852 180.476L173.663 179.871L174.631 177.998L174.676 178.029C174.911 176.981 175.028 175.909 175.026 174.835C175.026 174.488 175.014 174.146 174.991 173.808L174.776 172.354L174.81 172.312C174.608 171.101 174.225 169.928 173.674 168.831L173.4 169.694L172.008 168.657V166.556C171.444 166.008 170.763 165.594 170.017 165.344C169.944 165.361 169.87 165.379 169.797 165.398" fill="#282929"/>
    <path fill-rule="evenodd" clip-rule="evenodd" d="M168.787 165.406V168.661L167.394 169.698L165.741 167.67C165.154 168.483 164.69 169.379 164.364 170.328L166.017 172.358L165.673 174.688L163.615 175.412C163.647 176.532 163.811 177.644 164.104 178.725L166.162 178L167.129 179.873L166.214 182.804C166.76 183.435 167.437 183.939 168.197 184.282L169.112 181.349H170.662L171.375 183.63C172.104 183.09 172.725 182.417 173.203 181.647L172.653 179.873L173.62 178L174.596 178.343C174.867 177.251 175.009 176.131 175.019 175.006L174.109 174.687L173.765 172.357L174.596 171.336C174.345 170.312 173.955 169.327 173.436 168.41L172.394 169.695L171.001 168.658V165.794C170.593 165.548 170.149 165.367 169.685 165.257C169.382 165.273 169.083 165.321 168.79 165.402" fill="white"/>
    <path fill-rule="evenodd" clip-rule="evenodd" d="M169.898 172.597C169.059 172.597 168.377 173.648 168.377 174.942C168.377 176.237 169.058 177.288 169.898 177.288C170.739 177.288 171.42 176.238 171.42 174.942C171.42 173.647 170.739 172.597 169.898 172.597Z" fill="#727675"/>
    <path fill-rule="evenodd" clip-rule="evenodd" d="M82.521 190.297H89.0347C94.569 190.297 99.0591 183.376 99.0591 174.838C99.0591 166.299 94.5723 159.378 89.0347 159.378H82.5166C76.4898 159.378 76.2916 190.299 82.5166 190.299" fill="#0F0F0F"/>
    <path fill-rule="evenodd" clip-rule="evenodd" d="M82.5205 190.296C88.0405 190.296 92.5449 183.356 92.5449 174.837C92.5449 166.317 88.0427 159.377 82.5205 159.377C76.9983 159.377 72.4961 166.317 72.4961 174.837C72.4961 183.356 76.9983 190.296 82.5205 190.296Z" fill="#1A1A1A"/>
    <path fill-rule="evenodd" clip-rule="evenodd" d="M82.5198 186.125C86.5494 186.125 89.8365 181.057 89.8365 174.837C89.8365 168.616 86.5494 163.549 82.5198 163.549C78.4902 163.549 75.2031 168.616 75.2031 174.837C75.2031 181.057 78.4902 186.125 82.5198 186.125Z" fill="white"/>
    <path fill-rule="evenodd" clip-rule="evenodd" d="M82.5329 184.52C85.9897 184.52 88.8119 180.171 88.8119 174.837C88.8119 169.503 85.9919 165.155 82.5329 165.155C79.074 165.155 76.2539 169.504 76.2539 174.837C76.2539 180.17 79.0729 184.52 82.5329 184.52Z" fill="#5C5F5F"/>
    <path fill-rule="evenodd" clip-rule="evenodd" d="M83.747 184.338C86.6331 183.466 88.8143 179.544 88.8143 174.837C88.8143 170.13 86.6375 166.208 83.747 165.336C80.8619 166.208 78.6797 170.13 78.6797 174.837C78.6797 179.544 80.8575 183.466 83.747 184.338Z" fill="#1A1A1A"/>
    <path fill-rule="evenodd" clip-rule="evenodd" d="M78.5823 174.12L80.6202 174.962L80.9088 177.305L79.2124 179.236L79.4327 181.975H80.5189L82.2164 180.043L83.5857 181.158L83.8787 184.296C84.5725 184.051 85.2072 183.664 85.7415 183.158L85.7866 181.285L87.2066 180.329L87.3696 181.003C88.3412 179.094 88.8327 176.977 88.8017 174.835C88.8033 173.814 88.6977 172.796 88.4866 171.797L87.7155 170.176L87.8664 169.735C87.3971 168.497 86.6546 167.381 85.6941 166.47L85.7679 168.587L84.2257 168.496L83.3819 165.513H82.2957L82.2054 169.859L81.1964 171.665L79.1584 170.824H78.0723L78.5823 174.12Z" fill="#282929"/>
    <path fill-rule="evenodd" clip-rule="evenodd" d="M77.4984 174.118L79.5364 174.96L79.825 177.303L78.1286 179.235C78.431 180.206 78.8713 181.128 79.4361 181.974L81.1337 180.041L82.5029 181.156L82.4236 184.408C82.5415 184.448 82.6583 184.482 82.775 184.511C83.4293 184.469 84.0658 184.281 84.6378 183.96L84.7028 181.284L86.1238 180.328L87.0492 181.559C87.5929 180.673 88.0089 179.714 88.2851 178.712L87.5614 177.751L87.9613 175.443L88.804 175.197C88.804 175.077 88.804 174.958 88.804 174.837C88.8054 173.825 88.7013 172.816 88.4933 171.825L87.546 172.103L86.6262 170.178L87.2276 168.423C86.774 167.61 86.1769 166.885 85.4651 166.284L84.6742 168.592L83.1264 168.502L82.2826 165.519C81.5162 165.817 80.8259 166.282 80.2623 166.881L81.105 169.863L80.096 171.67L78.058 170.827C77.8984 171.354 77.7715 171.891 77.678 172.434C77.5815 172.992 77.5175 173.555 77.4863 174.12" fill="white"/>
    <path fill-rule="evenodd" clip-rule="evenodd" d="M82.2873 174.334C82.1469 174.866 82.1749 175.427 82.3675 175.942C82.5601 176.457 82.9078 176.899 83.3625 177.207C84.1732 177.538 85.0071 176.801 85.2241 175.549C85.3646 175.018 85.3365 174.456 85.1439 173.942C84.9513 173.427 84.6037 172.985 84.149 172.677C83.3382 172.346 82.5054 173.084 82.2873 174.334Z" fill="#727675"/>
    <path fill-rule="evenodd" clip-rule="evenodd" d="M205.174 143.949C223.44 144.06 240.829 149.615 245.404 153.458C245.661 153.661 245.868 153.92 246.009 154.215C246.15 154.51 246.221 154.833 246.218 155.16L246.265 156.976L246.322 161.575L247.697 162.482C248.404 162.987 248.956 163.681 249.287 164.484L250.287 166.958C250.575 167.714 250.642 168.536 250.48 169.328L248.731 173.658L247.37 179.78L248.252 181.212L249.256 182.644C249.427 182.854 249.52 183.116 249.52 183.387C249.519 183.702 249.393 184.003 249.171 184.226C248.948 184.448 248.647 184.574 248.332 184.575H188.559L180.777 158.6L152.427 156.646L108.289 128.48C119.911 126.887 138.572 127.227 150.025 127.133C157.503 126.963 164.984 127.351 172.406 128.292C181.743 130.282 192.313 135.533 205.174 143.949Z" fill="#3A77FF"/>
    <path fill-rule="evenodd" clip-rule="evenodd" d="M250.482 169.33L249.952 172.148C249.866 172.471 249.713 172.773 249.503 173.034C249.293 173.294 249.03 173.508 248.732 173.66L247.372 179.779C247.774 179.983 248.38 180.359 248.292 180.981L248.25 181.202H189.205L189.496 168.147L194.249 164.774C194.991 165.696 195.907 166.462 196.946 167.029C197.984 167.596 199.125 167.953 200.301 168.078L214.952 169.322L250.482 169.33Z" fill="#2A5BDB"/>
    <path fill-rule="evenodd" clip-rule="evenodd" d="M250.48 169.33L249.95 172.148C249.864 172.471 249.711 172.773 249.501 173.034C249.291 173.294 249.028 173.508 248.73 173.66L247.37 179.784C247.772 179.988 248.378 180.363 248.29 180.986L248.248 181.206H196.939L202.129 168.241L214.947 169.33H250.48Z" fill="#2A5BDB"/>
    <path fill-rule="evenodd" clip-rule="evenodd" d="M137.004 130.403C141.545 133.351 151.63 142.256 154.809 147.062C172.834 146.324 192.746 152.121 195.379 155.938L193.078 163.208L196.128 167.314C196.573 167.957 196.859 168.697 196.962 169.473C197.065 170.249 196.983 171.038 196.721 171.775L193.501 181.207L193.362 182.199L194.802 184.574H182.261C182.05 184.574 181.842 184.534 181.647 184.453C181.453 184.373 181.276 184.255 181.127 184.107C180.978 183.958 180.861 183.781 180.78 183.586C180.7 183.392 180.659 183.183 180.66 182.973V177.064C180.66 167.015 175.249 158.868 168.574 158.868C161.898 158.868 156.726 167.005 156.916 177.052C156.953 179.011 157.238 180.956 157.467 182.902C157.477 183.119 157.444 183.335 157.368 183.539C157.293 183.742 157.177 183.927 157.027 184.084C156.877 184.241 156.697 184.365 156.497 184.45C156.297 184.534 156.083 184.577 155.866 184.576H96.0599C95.6438 184.562 95.2492 184.387 94.9589 184.089C94.6685 183.791 94.5049 183.391 94.5023 182.975V177.064C94.5023 167.015 89.0913 158.868 82.4157 158.868C76.2468 158.868 71.5508 163.968 70.9008 175.528C70.848 176.47 70.968 178.003 70.968 179.024C70.9575 179.445 70.7857 179.845 70.4883 180.143C70.1909 180.441 69.7904 180.613 69.3696 180.624L63.9554 178.642C63.401 178.307 62.9495 177.825 62.6507 177.251C62.3518 176.676 62.217 176.03 62.2611 175.384L61.6255 165.192C61.4812 162.183 62.8934 161.148 63.4883 159.88C63.6425 156.255 64.9721 152.63 65.1263 149.005C65.2218 148.027 65.6252 147.104 66.2785 146.371C66.9319 145.637 67.8013 145.13 68.7616 144.922C71.9275 144.399 75.1706 143.758 75.7412 143.531C80.9946 141.438 79.524 141.658 85.1575 137.794C92.8234 132.536 99.5894 129.59 105.348 128.853C113.774 127.772 129.71 125.681 137.004 130.403Z" fill="#2A5BDB"/>
    <path fill-rule="evenodd" clip-rule="evenodd" d="M157.265 181.206C157.335 181.771 157.405 182.337 157.471 182.903C157.482 183.119 157.449 183.335 157.373 183.539C157.298 183.742 157.182 183.927 157.032 184.084C156.882 184.241 156.702 184.365 156.502 184.45C156.302 184.534 156.088 184.577 155.871 184.576H96.0615C95.6454 184.562 95.2509 184.387 94.9605 184.089C94.6702 183.791 94.5065 183.392 94.5039 182.975V181.206H157.265Z" fill="#6B9DFF"/>
    <path fill-rule="evenodd" clip-rule="evenodd" d="M63.9043 156.481C64.2921 154.345 64.834 152.209 65.0477 150.072H66.7971C67.0512 150.041 67.3087 150.081 67.5417 150.187C67.7746 150.293 67.974 150.461 68.118 150.673C68.2621 150.884 68.3452 151.131 68.3584 151.387C68.3716 151.642 68.3143 151.897 68.1928 152.122L66.6935 154.816C66.4567 155.315 66.0834 155.735 65.6169 156.03C65.1505 156.324 64.6101 156.48 64.0585 156.48L63.9043 156.481Z" fill="#C81717"/>
    <path fill-rule="evenodd" clip-rule="evenodd" d="M183.068 184.576H182.261C182.05 184.577 181.842 184.536 181.647 184.456C181.452 184.376 181.276 184.258 181.127 184.109C180.978 183.96 180.86 183.783 180.78 183.589C180.7 183.394 180.659 183.186 180.66 182.975V177.063C180.66 167.014 175.249 158.867 168.573 158.867C161.898 158.867 156.725 167.003 156.914 177.051C156.952 179.01 157.237 180.955 157.465 182.902C157.476 183.118 157.443 183.334 157.367 183.538C157.291 183.741 157.175 183.926 157.025 184.083C156.875 184.24 156.695 184.364 156.495 184.449C156.296 184.533 156.081 184.576 155.864 184.575H154.229V177.215C154.229 165.172 160.685 155.404 168.648 155.404C176.612 155.404 183.068 165.167 183.068 177.215V184.576Z" fill="#6B9DFF"/>
    <path fill-rule="evenodd" clip-rule="evenodd" d="M97.2019 184.576H96.0606C95.6445 184.562 95.25 184.387 94.9596 184.089C94.6692 183.791 94.5056 183.392 94.503 182.975V177.064C94.503 167.015 89.092 158.868 82.4164 158.868C76.2476 158.868 71.5515 163.968 70.9016 175.528C70.8487 176.47 70.9688 178.003 70.9688 179.024C70.9582 179.445 70.7861 179.846 70.4882 180.144C70.1903 180.442 69.7893 180.614 69.3682 180.624L68.3613 180.255V177.216C68.3613 171.189 69.3913 165.439 72.0043 161.492C73.1657 159.674 74.7557 158.168 76.6347 157.108C78.5136 156.047 80.6241 155.464 82.781 155.409C90.7444 155.409 97.2008 165.173 97.2008 177.221L97.2019 184.576Z" fill="#6B9DFF"/>
    <path fill-rule="evenodd" clip-rule="evenodd" d="M173.895 128.835C185.287 131.194 195.209 136.363 204.318 143.523L170.719 143.97L156.703 144.962C153.83 141.382 150.654 138.057 147.209 135.023C144.946 133.01 142.582 131.114 140.125 129.343L173.895 128.835Z" fill="#2E333D"/>
    <path fill-rule="evenodd" clip-rule="evenodd" d="M200.106 143.579L170.714 143.97L156.697 144.962C153.884 141.455 150.779 138.192 147.414 135.21C150.756 134.932 154.205 134.784 157.735 134.784C174.839 134.784 190.103 138.212 200.106 143.574" fill="#1A1A1A"/>
    <path fill-rule="evenodd" clip-rule="evenodd" d="M197.051 156.082L190.818 155.54C190.517 155.484 190.207 155.501 189.914 155.589C189.62 155.678 189.353 155.836 189.134 156.049L188.047 157.327C187.905 157.48 187.828 157.682 187.834 157.891C187.84 158.1 187.928 158.298 188.079 158.442L192.545 162.537C192.982 162.902 193.521 163.122 194.087 163.168L211.903 164.67C212.28 164.709 212.483 164.193 212.204 163.87L210.901 162.498C210.641 162.233 210.288 162.081 209.917 162.075L204.162 161.662L203.798 161.634L198.738 156.817C198.278 156.384 197.682 156.125 197.052 156.083M210.133 157.171C210.213 157.183 210.289 157.213 210.356 157.258C210.423 157.303 210.479 157.362 210.521 157.432C210.562 157.501 210.588 157.578 210.596 157.659C210.604 157.739 210.595 157.82 210.568 157.897L210.143 159.409C210.1 159.584 209.997 159.737 209.85 159.841C209.703 159.945 209.524 159.993 209.345 159.975L205.282 159.69C204.912 159.673 204.56 159.524 204.29 159.27L202.334 157.409C202.259 157.341 202.207 157.251 202.186 157.152C202.165 157.053 202.176 156.95 202.216 156.858C202.257 156.765 202.326 156.688 202.413 156.637C202.5 156.586 202.601 156.563 202.702 156.572L210.133 157.171Z" fill="white"/>
    <path fill-rule="evenodd" clip-rule="evenodd" d="M130.078 129.977C121.524 128.995 112.871 129.329 104.419 130.968C97.3407 132.511 92.8782 135.57 88.462 138.517C87.8293 138.979 87.3193 139.59 86.9764 140.294C86.6335 140.999 86.468 141.777 86.4945 142.56L86.4824 145.308C86.5518 146.119 86.912 146.55 87.7217 146.567L150.239 146.994C150.871 146.994 151.157 146.425 150.569 145.806C147.018 141.765 143.142 138.022 138.978 134.616C135.572 131.9 133.173 130.496 130.078 129.977Z" fill="#0F0F0F"/>
    <path fill-rule="evenodd" clip-rule="evenodd" d="M214.292 157.219C214.038 157.214 213.79 157.292 213.584 157.44C213.378 157.588 213.226 157.8 213.151 158.042L212.526 160.181C212.438 160.458 212.425 160.753 212.489 161.037C212.553 161.32 212.691 161.582 212.889 161.794L215.202 164.218C215.375 164.438 215.597 164.614 215.85 164.733C216.103 164.852 216.381 164.911 216.66 164.904H241.384C241.642 164.885 241.89 164.793 242.097 164.639C242.305 164.484 242.464 164.273 242.555 164.031L243.414 161.595C243.648 161.039 243.72 160.428 243.623 159.832L243.408 158.121C243.382 157.876 243.266 157.649 243.084 157.483C242.901 157.317 242.663 157.224 242.417 157.221L214.292 157.219Z" fill="#1A1A1A"/>
    <path fill-rule="evenodd" clip-rule="evenodd" d="M214.292 157.219C214.038 157.214 213.79 157.292 213.584 157.44C213.378 157.588 213.226 157.8 213.151 158.042L212.526 160.181C212.438 160.458 212.425 160.753 212.489 161.037C212.553 161.32 212.691 161.582 212.889 161.794L215.202 164.218C215.375 164.438 215.597 164.614 215.85 164.733C216.103 164.852 216.381 164.911 216.66 164.904H239.559C239.817 164.885 240.064 164.793 240.271 164.638C240.479 164.484 240.637 164.273 240.729 164.031L241.587 161.595C241.822 161.039 241.895 160.428 241.797 159.832L241.583 158.121C241.556 157.876 241.441 157.649 241.258 157.483C241.075 157.317 240.838 157.224 240.591 157.221L214.292 157.219Z" fill="#141414"/>
    <path fill-rule="evenodd" clip-rule="evenodd" d="M247.477 174.123C247.541 173.969 247.563 173.802 247.542 173.637C247.521 173.472 247.457 173.316 247.357 173.183C247.257 173.051 247.124 172.947 246.971 172.882C246.818 172.817 246.65 172.793 246.485 172.813C236.002 172.813 225.324 172.826 214.841 172.826C214.431 172.815 214.027 172.922 213.676 173.132C213.325 173.343 213.041 173.65 212.858 174.017L210.729 178.466C210.666 178.603 210.637 178.754 210.646 178.904C210.655 179.055 210.7 179.201 210.778 179.33C210.856 179.46 210.964 179.568 211.094 179.645C211.223 179.723 211.369 179.768 211.52 179.776H244.747C245.097 179.817 245.45 179.73 245.741 179.532C246.032 179.334 246.243 179.038 246.334 178.698L247.477 174.123Z" fill="#0F0F0F"/>
    <path fill-rule="evenodd" clip-rule="evenodd" d="M244.607 172.818H244.506C234.744 172.818 224.606 172.826 214.843 172.826C214.433 172.815 214.029 172.922 213.678 173.133C213.327 173.344 213.043 173.65 212.86 174.017L210.731 178.466C210.668 178.603 210.639 178.754 210.648 178.904C210.656 179.055 210.701 179.201 210.779 179.33C210.857 179.459 210.965 179.567 211.095 179.645C211.224 179.723 211.37 179.768 211.521 179.776H242.883C243.233 179.817 243.585 179.73 243.877 179.532C244.168 179.334 244.379 179.038 244.47 178.698L245.599 174.126C245.663 173.973 245.686 173.805 245.665 173.64C245.644 173.476 245.58 173.319 245.48 173.186C245.379 173.054 245.246 172.95 245.093 172.885C244.94 172.82 244.773 172.796 244.608 172.816" fill="#0F0F0F"/>
    <path fill-rule="evenodd" clip-rule="evenodd" d="M206.299 174.113C206.373 173.977 206.41 173.825 206.406 173.67C206.402 173.516 206.357 173.365 206.277 173.234C206.196 173.102 206.083 172.994 205.947 172.92C205.812 172.846 205.659 172.809 205.505 172.812L197.219 172.106C196.806 172.082 196.394 172.183 196.039 172.396C195.685 172.61 195.402 172.926 195.23 173.302L192.761 178.466C192.685 178.602 192.646 178.755 192.649 178.911C192.651 179.066 192.694 179.219 192.775 179.352C192.855 179.485 192.969 179.595 193.105 179.67C193.242 179.745 193.395 179.782 193.551 179.778L202.167 179.785C202.56 179.805 202.95 179.714 203.293 179.521C203.636 179.329 203.917 179.043 204.104 178.698L206.299 174.113Z" fill="#0F0F0F"/>
    <path fill-rule="evenodd" clip-rule="evenodd" d="M129.952 130.849C133.294 131.416 135.826 133.229 138.434 135.305C142.473 138.591 146.231 142.206 149.67 146.114L115.433 145.881C115.433 145.859 115.443 145.837 115.445 145.816C115.701 140.771 116.668 135.788 118.316 131.014C118.359 130.903 118.451 130.636 118.549 130.316C122.359 130.23 126.171 130.408 129.957 130.851M110.765 145.848L96.2239 145.748C96.5665 143.806 97.0082 141.844 97.5326 139.89C98.0834 137.848 98.7212 135.808 99.435 133.805C99.4625 133.728 99.5198 133.552 99.5837 133.328C101.217 132.703 102.896 132.203 104.606 131.834C107.934 131.133 111.31 130.68 114.705 130.477C112.682 135.309 111.359 140.406 110.779 145.612C110.768 145.69 110.762 145.769 110.761 145.848M95.0441 145.737C95.0429 145.697 95.0459 145.656 95.0529 145.616C95.4032 143.62 95.8571 141.599 96.398 139.585C96.9091 137.678 97.4995 135.78 98.1484 133.916C95.4127 135.15 92.7949 136.63 90.3271 138.338C89.601 140.728 89.1903 143.203 89.1055 145.7L95.0441 145.737Z" fill="#2E333D"/>
    <path fill-rule="evenodd" clip-rule="evenodd" d="M141.758 138.129C144.537 140.644 147.177 143.31 149.665 146.114L115.426 145.88C115.426 145.858 115.436 145.836 115.439 145.815C115.58 143.342 115.877 140.88 116.328 138.444C121.188 138.054 126.223 137.848 131.385 137.848C134.91 137.848 138.367 137.942 141.756 138.13M111.97 138.848C106.803 139.391 101.866 140.147 97.2228 141.087C96.8328 142.645 96.4968 144.204 96.2236 145.75L110.765 145.85C110.765 145.771 110.771 145.692 110.782 145.614C111.047 143.337 111.444 141.078 111.971 138.848M95.9505 141.351C93.6739 141.835 91.4707 142.363 89.341 142.936C89.2242 143.855 89.1482 144.778 89.1074 145.704L95.0438 145.742C95.0422 145.701 95.0448 145.66 95.0516 145.62C95.2994 144.205 95.6024 142.778 95.9471 141.351" fill="#1A1A1A"/>
    <path fill-rule="evenodd" clip-rule="evenodd" d="M197.215 172.107C196.805 172.1 196.401 172.208 196.049 172.42C195.697 172.631 195.412 172.937 195.226 173.303L192.757 178.468C192.681 178.603 192.642 178.757 192.645 178.912C192.647 179.068 192.691 179.22 192.771 179.353C192.851 179.486 192.965 179.596 193.101 179.671C193.238 179.746 193.391 179.783 193.547 179.78H200.013C200.395 179.789 200.772 179.693 201.103 179.502C201.434 179.31 201.705 179.031 201.886 178.695L204.277 173.958C204.358 173.823 204.4 173.669 204.399 173.512C204.398 173.355 204.355 173.201 204.273 173.068C204.191 172.934 204.074 172.825 203.935 172.752C203.796 172.68 203.64 172.647 203.483 172.657L197.215 172.107Z" fill="#0F0F0F"/>
    <path fill-rule="evenodd" clip-rule="evenodd" d="M172.405 128.292L139.665 128.86C139.176 128.86 139.005 129.157 139.419 129.439C145.835 133.951 151.596 139.33 156.536 145.423L170.698 144.379L205.178 143.97C195.713 136.122 184.454 130.736 172.405 128.292ZM174.011 128.941C184.927 131.418 195.142 136.33 203.893 143.309L203.286 143.317L170.668 143.704L156.846 144.724C154.009 141.2 150.869 137.931 147.462 134.955C145.309 133.023 143.053 131.208 140.705 129.518L172.341 128.967L174.011 128.941Z" fill="#121212"/>
    <path fill-rule="evenodd" clip-rule="evenodd" d="M96.4202 151.412H91.7583C91.488 151.412 91.2289 151.52 91.0377 151.711C90.8465 151.902 90.7389 152.161 90.7383 152.432C90.7389 152.702 90.8465 152.961 91.0377 153.152C91.2289 153.344 91.488 153.451 91.7583 153.452H96.4202C96.6906 153.451 96.9497 153.344 97.1409 153.152C97.3321 152.961 97.4397 152.702 97.4403 152.432C97.4397 152.161 97.3321 151.902 97.1409 151.711C96.9497 151.52 96.6906 151.412 96.4202 151.412Z" fill="#0B0C0B"/>
    <path fill-rule="evenodd" clip-rule="evenodd" d="M122.744 151.412H118.083C117.812 151.412 117.553 151.52 117.362 151.711C117.171 151.902 117.063 152.161 117.062 152.432C117.063 152.702 117.171 152.961 117.362 153.152C117.553 153.344 117.812 153.451 118.083 153.452H122.744C123.015 153.451 123.274 153.344 123.465 153.152C123.656 152.961 123.764 152.702 123.765 152.432C123.764 152.161 123.656 151.902 123.465 151.711C123.274 151.52 123.015 151.412 122.744 151.412Z" fill="#0B0C0B"/>
    <path fill-rule="evenodd" clip-rule="evenodd" d="M232.762 160.038H228.1C227.83 160.039 227.571 160.146 227.379 160.338C227.188 160.529 227.081 160.788 227.08 161.058C227.081 161.329 227.188 161.588 227.379 161.779C227.571 161.97 227.83 162.078 228.1 162.078H232.762C233.032 162.078 233.291 161.97 233.483 161.779C233.674 161.588 233.782 161.329 233.782 161.058C233.782 160.788 233.674 160.529 233.483 160.338C233.291 160.146 233.032 160.039 232.762 160.038Z" fill="#050505"/>
    <path fill-rule="evenodd" clip-rule="evenodd" d="M233.825 160.038H229.163C228.892 160.039 228.633 160.146 228.442 160.338C228.251 160.529 228.143 160.788 228.143 161.058C228.143 161.328 228.251 161.587 228.442 161.778C228.633 161.97 228.892 162.077 229.163 162.078H233.825C234.095 162.077 234.354 161.97 234.545 161.778C234.736 161.587 234.844 161.328 234.845 161.058C234.844 160.788 234.736 160.529 234.545 160.338C234.354 160.146 234.095 160.039 233.825 160.038Z" fill="#B2B2B2"/>
    <path fill-rule="evenodd" clip-rule="evenodd" d="M148.568 147.574C148.903 147.785 149.306 147.862 149.695 147.788C150.084 147.715 150.431 147.497 150.667 147.179C150.903 146.861 151.009 146.465 150.965 146.071C150.921 145.678 150.73 145.315 150.43 145.057L145.613 140.233C144.127 138.844 140.82 142.738 142.308 144.127L148.568 147.574Z" fill="#3A77FF"/>
    <path fill-rule="evenodd" clip-rule="evenodd" d="M137.058 139.913L143.381 139.276C147.179 138.892 147.889 146.611 144.086 146.257L137.637 145.658C133.835 145.305 133.259 140.297 137.058 139.913Z" fill="#3A77FF"/>
    <path fill-rule="evenodd" clip-rule="evenodd" d="M142.867 140.437L138.183 140.909C136.828 141.046 137.033 142.862 138.39 142.958L144.15 143.366C145.507 143.461 145.109 140.211 142.867 140.437Z" fill="#3A77FF"/>
    <path fill-rule="evenodd" clip-rule="evenodd" d="M193.028 177.906C192.774 177.837 193.235 176.68 193.615 176.68L202.809 176.945C203.635 176.974 203.345 178.221 202.507 178.193C199.348 178.083 196.189 177.999 193.034 177.907M204.119 174.283C204.945 174.328 204.653 175.569 203.817 175.524L194.416 175.02C194.113 175.02 194.589 173.808 194.996 173.808C198.037 173.971 201.079 174.119 204.119 174.283Z" fill="#3A77FF"/>
    <path fill-rule="evenodd" clip-rule="evenodd" d="M210.859 178.181C210.519 178.181 211.014 176.938 211.454 176.938H244.774C245.594 176.938 245.445 178.181 244.617 178.181H210.859ZM245.42 174.358C246.24 174.358 246.091 175.6 245.265 175.6H212.095C211.779 175.6 212.297 174.358 212.69 174.358H245.42Z" fill="#3A77FF"/>
    <path fill-rule="evenodd" clip-rule="evenodd" d="M246.337 163.916L244.602 164.288C244.108 164.417 243.958 163.9 244.067 163.577L244.543 162.187C244.573 162.066 244.633 161.953 244.715 161.859C244.798 161.765 244.902 161.692 245.019 161.646L246.317 161.23C246.945 161.469 247.007 163.735 246.336 163.915M245.03 156.845L246.251 156.45C247.158 157.34 246.787 159.372 246.295 159.482L245.457 159.632C245.143 159.689 244.932 159.554 244.875 159.113L244.709 157.6C244.668 157.304 244.72 156.913 245.03 156.845Z" fill="white"/>
    <path fill-rule="evenodd" clip-rule="evenodd" d="M158.817 155.409H156.654C156.317 155.448 155.991 155.556 155.698 155.727C155.404 155.897 155.149 156.127 154.949 156.401L153.544 158.348C153.151 158.893 153.275 159.34 153.821 159.34H155.984C156.321 159.301 156.647 159.193 156.94 159.022C157.234 158.852 157.489 158.622 157.689 158.348L159.094 156.401C159.487 155.855 159.363 155.409 158.817 155.409Z" fill="#212121"/>
    </g>
    <path d="M252.437 97.3272H171.964C170.4 97.3269 168.901 96.7055 167.795 95.5997C166.689 94.4939 166.068 92.9942 166.068 91.4305V72.5603C166.068 70.9966 166.689 69.4969 167.795 68.3911C168.901 67.2853 170.4 66.6639 171.964 66.6636H252.437C254.001 66.6636 255.5 67.2848 256.606 68.3907C257.712 69.4966 258.333 70.9964 258.333 72.5603V91.4316C258.333 92.9955 257.712 94.4953 256.606 95.6012C255.5 96.7071 254.001 97.3283 252.437 97.3283" fill="#EB2321"/>
    <path d="M191.962 94.9434L180.844 117.427L203.893 94.9434H191.962Z" fill="#EB2321"/>
    <path d="M174.641 76.9931C174.641 75.924 174.958 74.8789 175.552 73.99C176.145 73.1011 176.99 72.4082 177.977 71.9991C178.965 71.59 180.052 71.4829 181.101 71.6915C182.149 71.9001 183.112 72.4149 183.868 73.1709C184.624 73.9268 185.139 74.89 185.348 75.9386C185.556 76.9871 185.449 78.074 185.04 79.0617C184.631 80.0494 183.938 80.8936 183.049 81.4876C182.16 82.0816 181.115 82.3986 180.046 82.3986C178.612 82.3986 177.238 81.8291 176.224 80.8153C175.21 79.8016 174.641 78.4267 174.641 76.9931Z" fill="white"/>
    <path d="M207.226 71.9412L208.359 75.4299H212.027L209.06 77.5857L210.192 81.0744L207.226 78.9186L204.258 81.0744L205.391 77.5857L202.424 75.4299H206.092L207.226 71.9412Z" fill="white"/>
    <path d="M219.273 71.9412L220.407 75.4299H224.075L221.107 77.5857L222.24 81.0744L219.273 78.9186L216.305 81.0744L217.439 77.5857L214.473 75.4299H218.14L219.273 71.9412Z" fill="white"/>
    <path d="M231.319 71.9412L232.453 75.4299H236.12L233.153 77.5857L234.287 81.0744L231.319 78.9186L228.352 81.0744L229.484 77.5857L226.518 75.4299H230.186L231.319 71.9412Z" fill="white"/>
    <path d="M243.366 71.9412L244.498 75.4299H248.165L245.197 77.5857L246.331 81.0744L243.364 78.9186L240.397 81.0744L241.529 77.5857L238.562 75.4299H242.23L243.366 71.9412Z" fill="white"/>
    <path d="M249.161 85.5889H174.895V87.4417H249.161V85.5889Z" fill="white"/>
    <path d="M231.319 90.125H174.895V91.9779H231.319V90.125Z" fill="white"/>
    <path d="M437.468 94.4454H372.293C371.026 94.4454 369.812 93.9423 368.916 93.0467C368.021 92.1512 367.518 90.9365 367.518 89.67V74.3866C367.518 73.1201 368.021 71.9055 368.916 71.01C369.812 70.1144 371.026 69.6113 372.293 69.6113H437.468C438.735 69.6113 439.949 70.1144 440.845 71.01C441.74 71.9055 442.243 73.1201 442.243 74.3866V89.67C442.243 90.9365 441.74 92.1512 440.845 93.0467C439.949 93.9423 438.735 94.4454 437.468 94.4454Z" fill="#EB2321"/>
    <path d="M415.064 94.4465L438.214 115.775L425.436 94.4476L415.064 94.4465Z" fill="#EB2321"/>
    <path d="M373.713 78.8568C373.713 77.9635 373.978 77.0903 374.474 76.3476C374.97 75.6048 375.676 75.0259 376.501 74.6841C377.326 74.3423 378.234 74.2529 379.111 74.4271C379.987 74.6014 380.791 75.0315 381.423 75.6632C382.055 76.2948 382.485 77.0996 382.659 77.9757C382.833 78.8518 382.744 79.7599 382.402 80.5852C382.06 81.4105 381.481 82.1159 380.739 82.6121C379.996 83.1084 379.123 83.3733 378.229 83.3733C377.032 83.3733 375.883 82.8975 375.036 82.0505C374.189 81.2035 373.713 80.0546 373.713 78.8568Z" fill="white"/>
    <path d="M390.893 74.6323L391.842 77.5504H394.909L392.428 79.3537L393.376 82.2718L390.894 80.4685L388.412 82.2718L389.361 79.3537L386.879 77.5504H389.947L390.893 74.6323Z" fill="white"/>
    <path d="M400.97 74.6323L401.919 77.5504H404.987L402.504 79.3537L403.452 82.2718L400.97 80.4685L398.488 82.2718L399.437 79.3537L396.955 77.5504H400.023L400.97 74.6323Z" fill="white"/>
    <path d="M411.047 74.6323L411.996 77.5504H415.064L412.582 79.3537L413.53 82.2718L411.048 80.4685L408.567 82.2718L409.515 79.3537L407.033 77.5504H410.101L411.047 74.6323Z" fill="white"/>
    <path d="M421.124 74.6323L422.072 77.5504H425.14L422.658 79.3537L423.607 82.2718L421.125 80.4685L418.643 82.2718L419.591 79.3537L417.109 77.5504H420.177L421.124 74.6323Z" fill="white"/>
    <path d="M431.2 74.6323L432.148 77.5504H435.216L432.734 79.3537L433.683 82.2718L431.201 80.4685L428.719 82.2718L429.667 79.3537L427.186 77.5504H430.253L431.2 74.6323Z" fill="white"/>
    <path d="M436.047 86.0491H373.926V87.599H436.047V86.0491Z" fill="white"/>
    </g>
    <defs>
    <linearGradient id="paint0_linear_935_7825" x1="523.82" y1="197.175" x2="523.693" y2="197.092" gradientUnits="userSpaceOnUse">
    <stop stop-color="#B51715"/>
    <stop offset="1" stop-color="#C41516"/>
    </linearGradient>
    <linearGradient id="paint1_linear_935_7825" x1="511.271" y1="239.649" x2="511.144" y2="239.566" gradientUnits="userSpaceOnUse">
    <stop stop-color="#B51715"/>
    <stop offset="1" stop-color="#C41516"/>
    </linearGradient>
    <clipPath id="clip0_935_7825">
    <rect width="612.48" height="191.675" fill="white" transform="translate(0 0.674316)"/>
    </clipPath>
    </defs>
    </svg>
    