<svg width="10" height="10" viewBox="0 0 10 10" fill="none" xmlns="http://www.w3.org/2000/svg">
    <g clip-path="url(#clip0_1934_2902)">
        <path
            d="M9.28632 3.61056C9.28632 3.69241 9.23796 3.78169 9.14124 3.87842L7.11557 5.85386L7.59548 8.64404C7.5992 8.67008 7.60106 8.70729 7.60106 8.75565C7.60106 8.83378 7.58153 8.89981 7.54246 8.95375C7.5034 9.0077 7.44667 9.03467 7.37226 9.03467C7.30158 9.03467 7.22717 9.01235 7.14905 8.9677L4.64347 7.65074L2.13789 8.9677C2.05604 9.01235 1.98164 9.03467 1.91467 9.03467C1.83655 9.03467 1.77795 9.0077 1.73889 8.95375C1.69983 8.89981 1.6803 8.83378 1.6803 8.75565C1.6803 8.73333 1.68402 8.69613 1.69146 8.64404L2.17137 5.85386L0.140119 3.87842C0.0471133 3.77797 0.000610352 3.68869 0.000610352 3.61056C0.000610352 3.47291 0.104777 3.38735 0.31311 3.35386L3.11445 2.9465L4.37003 0.407434C4.44071 0.254905 4.53186 0.17864 4.64347 0.17864C4.75507 0.17864 4.84622 0.254905 4.9169 0.407434L6.17249 2.9465L8.97382 3.35386C9.18216 3.38735 9.28632 3.47291 9.28632 3.61056Z"
            fill="currentColor" />
    </g>
    <defs>
        <clipPath id="clip0_1934_2902">
            <rect width="9.2875" height="10" fill="white" transform="matrix(1 0 0 -1 0 10)" />
        </clipPath>
    </defs>
</svg>
    