<?xml version="1.0" encoding="UTF-8"?>
<svg version="1.1" xmlns="http://www.w3.org/2000/svg" width="512" height="512">
<path d="M0 0 C2.83536861 2.3458543 4.86480215 4.20569354 6.125 7.75 C6.85623668 16.34972819 5.30067392 24.53648614 3.625 32.9375 C3.38652344 34.17564453 3.14804687 35.41378906 2.90234375 36.68945312 C2.31893349 39.71151828 1.72634082 42.73146103 1.125 45.75 C2.86609466 44.2827854 4.59674809 42.80647693 6.31225586 41.30932617 C7.62912207 40.17655519 8.99187503 39.09646337 10.37890625 38.05078125 C13.82933242 33.50424654 14.47442101 27.46573702 15.74804688 21.99023438 C17.27059243 15.86271453 18.94802133 11.5414325 23.125 6.75 C25.85613104 5.83962299 27.50349141 5.61486382 30.31762695 5.58886719 C31.15892654 5.57925964 32.00022614 5.5696521 32.86701965 5.55975342 C34.22641914 5.5533786 34.22641914 5.5533786 35.61328125 5.546875 C36.5492363 5.54117493 37.48519135 5.53547485 38.44950867 5.52960205 C40.43076447 5.52015517 42.41203597 5.51361931 44.39331055 5.50976562 C47.41548286 5.50007063 50.43697197 5.46904862 53.45898438 5.4375 C55.38541264 5.43096861 57.31184575 5.42571868 59.23828125 5.421875 C60.5885717 5.4033548 60.5885717 5.4033548 61.96614075 5.38446045 C67.09244487 5.40254383 70.72143544 5.82200907 75.125 8.75 C77.65658645 12.54737967 77.46441121 14.21999169 77.125 18.75 C76.41708088 22.0030401 75.45535196 25.14446689 74.4375 28.3125 C74.07108398 29.5490332 74.07108398 29.5490332 73.69726562 30.81054688 C72.00964769 36.15538242 70.05451832 39.73160728 66.125 43.75 C62.8324599 45.39627005 59.17911148 44.7571322 55.56640625 44.6796875 C53.80014665 44.66877373 52.03386487 44.66106841 50.26757812 44.65625 C47.48788161 44.64843569 44.71349225 44.62572847 41.93481445 44.54785156 C29.38480038 43.96487706 29.38480038 43.96487706 18.7875824 49.76370239 C16.72912833 51.97695436 14.87608401 54.28806984 13.125 56.75 C13.84131592 57.24588623 14.55763184 57.74177246 15.2956543 58.25268555 C17.06315134 59.47976638 18.82478745 60.71531172 20.58203125 61.95703125 C22.37407024 63.22054261 24.18168047 64.46211075 26 65.6875 C31.63111997 71.1529988 32.87060479 77.93407192 33.375 85.5 C33.31723227 90.52579291 31.73629187 95.03438434 30.125 99.75 C29.76148438 100.84054688 29.39796875 101.93109375 29.0234375 103.0546875 C28.57871094 104.38886719 28.57871094 104.38886719 28.125 105.75 C29.13820313 105.85957031 30.15140625 105.96914062 31.1953125 106.08203125 C32.54694461 106.24159893 33.89850343 106.40178833 35.25 106.5625 C36.24773437 106.66788086 36.24773437 106.66788086 37.265625 106.77539062 C42.93855244 107.47060232 47.17846601 109.05958891 51.5 112.8125 C53.88055451 117.11581007 53.89473348 120.93916573 53.125 125.75 C51.07172943 129.85654114 49.39161002 132.10495142 45.125 133.75 C42.390625 133.98046875 42.390625 133.98046875 39.375 133.9375 C38.39015625 133.93105469 37.4053125 133.92460937 36.390625 133.91796875 C32.59424379 133.72270034 28.89515671 133.23618242 25.125 132.75 C25.12135437 133.70418823 25.11770874 134.65837646 25.11395264 135.64147949 C25.07676319 144.70183777 25.01873392 153.76186367 24.94109726 162.82196808 C24.9018462 167.47816734 24.86954942 172.13418381 24.85400391 176.79052734 C24.83868813 181.29712329 24.80398474 185.80321589 24.75669098 190.30958557 C24.74202911 192.01562587 24.73396789 193.7217381 24.73311615 195.42784119 C24.71641556 212.13060497 21.12866927 226.00219112 15.09765625 241.61328125 C14.62141213 242.86417191 14.14587871 244.11533335 13.67100525 245.366745 C12.68571913 247.95767885 11.69460734 250.54626952 10.69848633 253.13305664 C9.43480427 256.41499349 8.1823286 259.70106212 6.93373966 262.98876667 C5.95610618 265.56128956 4.97453702 268.13229579 3.99163628 270.70281029 C3.30769527 272.49182493 2.62538499 274.28146273 1.94313049 276.07112122 C-7.29086554 300.03827886 -7.29086554 300.03827886 -12.87890625 302.70703125 C-17.70738439 304.49626427 -21.71093247 304.79638723 -26.875 304.75 C-26.88046844 303.56848358 -26.88046844 303.56848358 -26.88604736 302.36309814 C-26.92412689 294.8907655 -26.98120224 287.4189205 -27.05890274 279.94690323 C-27.09818592 276.1066762 -27.13046706 272.2666719 -27.14599609 268.42626953 C-27.16129065 264.71066935 -27.19595711 260.99568229 -27.24330902 257.28035736 C-27.25799247 255.8724581 -27.26603341 254.46447124 -27.26688385 253.05649567 C-27.28494416 238.13024023 -30.59473873 226.50737669 -40.9765625 215.52734375 C-51.43654837 205.64025463 -62.81528174 202.20200823 -76.99609375 202.44140625 C-89.1164488 203.4056641 -100.28377258 208.59243898 -108.6875 217.4375 C-118.40824342 229.49496059 -120.15700124 242.21776664 -120.2890625 257.19140625 C-120.30780879 258.56860977 -120.32738468 259.94580222 -120.3477478 261.32298279 C-120.39871009 264.91819686 -120.43852587 268.51344803 -120.47589111 272.10882568 C-120.51615816 275.7894379 -120.56714598 279.46990063 -120.6171875 283.15039062 C-120.71352061 290.35015724 -120.79805918 297.54999723 -120.875 304.75 C-122.63714936 304.61352331 -124.39877673 304.47029556 -126.16015625 304.32421875 C-127.63174194 304.20566528 -127.63174194 304.20566528 -129.13305664 304.0847168 C-133.88262027 303.5049241 -136.7721492 302.14917145 -139.73681641 298.38793945 C-142.8393753 293.55101 -144.63916076 288.08411441 -146.6484375 282.73046875 C-147.09466461 281.55849442 -147.54089172 280.38652008 -148.00064087 279.17903137 C-148.94371569 276.69815551 -149.88398856 274.21644314 -150.81933594 271.73266602 C-152.23036088 267.98582356 -153.65380273 264.2437623 -155.078125 260.50195312 C-157.3150115 254.61515898 -159.52947995 248.72035272 -161.72839355 242.8192749 C-162.97858431 239.47272201 -164.24554597 236.13275042 -165.52178955 232.79605103 C-170.74653081 218.2649676 -172.32598647 204.31749264 -172.38671875 189 C-172.40361994 187.36375635 -172.42177717 185.72752525 -172.44111633 184.09130859 C-172.48803338 179.84350514 -172.51821569 175.59575252 -172.54455566 171.34777832 C-172.57466035 166.9895625 -172.62108539 162.63152123 -172.66601562 158.2734375 C-172.75138279 149.76571199 -172.81901893 141.25796947 -172.875 132.75 C-174.12982178 132.90863525 -175.38464355 133.06727051 -176.67749023 133.23071289 C-190.57894997 134.98814302 -190.57894997 134.98814302 -195.1640625 132.515625 C-198.1217608 130.05696222 -199.6438198 128.44354059 -200.875 124.75 C-201.25938818 120.06046415 -201.33395659 117.68556536 -199.25 113.4375 C-194.57544459 108.1478715 -189.18779021 107.2216041 -182.5 106.5625 C-181.76394531 106.48064453 -181.02789062 106.39878906 -180.26953125 106.31445312 C-178.47245375 106.11607444 -176.67385107 105.93159423 -174.875 105.75 C-175.2359375 104.98558594 -175.596875 104.22117187 -175.96875 103.43359375 C-180.2466097 93.55886762 -182.33588307 83.1939428 -178.375 72.75 C-174.58550628 65.63967787 -167.83667027 61.37586993 -160.875 57.75 C-163.33053634 52.55261849 -165.76979628 48.65430859 -170.875 45.75 C-177.4285151 44.35546698 -184.34230371 44.85283607 -191 45 C-193.737985 45.03906584 -196.47483808 45.06633435 -199.21310425 45.07073975 C-200.90953357 45.0755451 -202.60607233 45.10102725 -204.30178833 45.15045166 C-209.64101005 45.19252065 -212.66155009 44.34319174 -216.875 40.75 C-218.44921875 37.8671875 -218.44921875 37.8671875 -219.5625 34.625 C-220.15998047 32.90023437 -220.15998047 32.90023437 -220.76953125 31.140625 C-221.13433594 30.02171875 -221.49914062 28.9028125 -221.875 27.75 C-222.20886719 26.81671875 -222.54273438 25.8834375 -222.88671875 24.921875 C-224.58750053 19.90418396 -225.54490791 15.96846222 -223.875 10.75 C-220.28681304 7.25381783 -217.65075103 5.64093149 -212.70410156 5.55712891 C-211.84270569 5.54106598 -210.98130981 5.52500305 -210.09381104 5.50845337 C-206.1475097 5.46395454 -202.20137654 5.42292667 -198.25488281 5.39990234 C-196.17534178 5.38335685 -194.09585728 5.3560855 -192.01660156 5.31787109 C-189.01597637 5.2630107 -186.01668467 5.24121299 -183.015625 5.2265625 C-181.6278183 5.19255844 -181.6278183 5.19255844 -180.2119751 5.15786743 C-175.87382953 5.17201367 -172.82237635 5.30835974 -169.33959961 8.05541992 C-166.40217738 11.26694336 -165.25640077 14.31716984 -164.1875 18.4375 C-163.8776416 19.50206421 -163.8776416 19.50206421 -163.56152344 20.58813477 C-162.68787892 23.61183909 -161.90157817 26.63110593 -161.21484375 29.703125 C-159.49913801 36.92954123 -155.52744106 41.04142007 -149.875 45.75 C-149.215 46.08 -148.555 46.41 -147.875 46.75 C-148.15549194 45.41207397 -148.15549194 45.41207397 -148.44165039 44.04711914 C-149.136518 40.7000685 -149.81894616 37.35095377 -150.4934082 33.99975586 C-150.7863999 32.55670331 -151.0841521 31.11460807 -151.38696289 29.67358398 C-155.26396326 11.18573926 -155.26396326 11.18573926 -151.86425781 4.87329102 C-140.28272556 -11.99910336 -110.20903901 -18.37028215 -91.609375 -21.86328125 C-59.32539271 -25.20649699 -26.74984422 -18.97429535 0 0 Z M-119.875 8.75 C-117.88546067 17.11338173 -115.56108421 25.31441726 -112.9375 33.5 C-112.60298828 34.57121094 -112.26847656 35.64242187 -111.92382812 36.74609375 C-108.12644242 48.64310562 -103.41253887 59.26556068 -92.09765625 65.71875 C-82.18906175 70.31605922 -72.14409048 71.26460443 -61.6875 68.125 C-56.28929958 66.13031612 -52.0852744 63.65954051 -47.875 59.75 C-47.25882812 59.18667969 -46.64265625 58.62335938 -46.0078125 58.04296875 C-40.53105958 52.46044163 -38.22725904 46.07387233 -35.875 38.75 C-35.54790039 37.74291992 -35.22080078 36.73583984 -34.88378906 35.69824219 C-33.76175749 32.2200444 -32.65809375 28.73661255 -31.5625 25.25 C-31.200354 24.10354004 -30.83820801 22.95708008 -30.46508789 21.77587891 C-30.12985107 20.68452637 -29.79461426 19.59317383 -29.44921875 18.46875 C-28.99421997 16.99825195 -28.99421997 16.99825195 -28.5300293 15.49804688 C-27.887764 12.80354887 -27.74838247 10.50730874 -27.875 7.75 C-56.10501279 -2.68003959 -92.82445059 -9.28369961 -119.875 8.75 Z M-150.6875 80.5 C-153.90441229 86.59520223 -154.85364192 93.12274151 -152.875 99.75 C-149.8374548 105.63959145 -145.41308688 107.55535505 -139.40185547 109.63256836 C-132.7162953 111.75078855 -125.96946598 113.62538978 -119.19433594 115.43408203 C-116.61178523 116.12855357 -114.03675634 116.84742532 -111.4609375 117.56640625 C-109.80249137 118.01193834 -108.14364977 118.45600148 -106.484375 118.8984375 C-105.72380798 119.11494965 -104.96324097 119.33146179 -104.17962646 119.55453491 C-99.15840781 120.85320293 -95.82337744 120.77729857 -90.875 118.75 C-87.76970636 115.48546053 -86.61170477 112.7960342 -86.375 108.375 C-86.8125354 99.94891496 -91.84418884 93.32850032 -97.875 87.75 C-104.81316183 82.5585937 -112.73230866 79.53787236 -120.875 76.75 C-121.58398438 76.50121094 -122.29296875 76.25242187 -123.0234375 75.99609375 C-132.89038955 73.01935505 -143.06777066 73.14301994 -150.6875 80.5 Z M-54.1015625 92.49609375 C-58.58420395 98.19319533 -61.4235361 104.34476267 -60.875 111.75 C-58.84360711 116.32063401 -56.53468373 118.41538712 -51.89569092 120.28204346 C-48.06953904 121.16811306 -44.67618449 120.01545519 -40.9765625 118.9609375 C-40.14216644 118.74184723 -39.30777039 118.52275696 -38.4480896 118.29702759 C-35.79259165 117.59399308 -33.14685958 116.85980991 -30.5 116.125 C-28.72970041 115.65294171 -26.95886983 115.18287001 -25.1875 114.71484375 C-8.15784019 111.22045676 -8.15784019 111.22045676 4.9375 101.125 C7.02114147 95.20307162 6.76603739 89.92240449 5 83.9375 C2.29962838 79.34686825 -0.71045964 76.47151345 -5.875 74.75 C-22.95662673 73.04741956 -42.47328572 79.72228041 -54.1015625 92.49609375 Z " fill="#000000" transform="translate(329.875,82.25)"/>
<path d="M0 0 C5.50139596 3.50088834 8.95614775 8.86844326 11 15 C11.09897368 16.48742629 11.14345728 17.97881874 11.15390015 19.46949768 C11.16250061 20.38472702 11.17110107 21.29995636 11.17996216 22.24291992 C11.18422211 23.24500488 11.18848206 24.24708984 11.19287109 25.27954102 C11.20513733 26.86544289 11.20513733 26.86544289 11.21765137 28.48338318 C11.24250768 31.99021845 11.25902458 35.49701314 11.2734375 39.00390625 C11.27876118 40.20225538 11.28408485 41.40060452 11.28956985 42.63526726 C11.31630601 48.98152909 11.33567705 55.32777124 11.35009766 61.67407227 C11.36672117 68.21876896 11.4114792 74.76295974 11.4624691 81.30746555 C11.49618595 86.34765681 11.50768018 91.38772881 11.51332474 96.42802238 C11.52002783 98.83966869 11.53522512 101.25130741 11.55921555 103.6628437 C11.59095525 107.04720901 11.59088957 110.43022122 11.58349609 113.81469727 C11.59990143 114.80261261 11.61630676 115.79052795 11.63320923 116.80838013 C11.56464636 124.51460629 9.53041261 131.11847417 4.25862694 136.91455936 C-1.7437174 142.51021519 -8.86420253 145 -17 145 C-26.52576145 144.07908046 -32.02201206 140.35522359 -38.38671875 133.390625 C-42.90353794 126.69742077 -43.44124756 120.33927872 -43.40405273 112.50415039 C-43.41091599 111.48356033 -43.41777924 110.46297028 -43.42485046 109.41145325 C-43.44306735 106.05671046 -43.4392882 102.70243761 -43.43359375 99.34765625 C-43.4381579 97.00410308 -43.44346417 94.66055124 -43.44947815 92.31700134 C-43.45839918 87.41220655 -43.45599738 82.50757467 -43.44604492 77.6027832 C-43.43455528 71.33055532 -43.45477246 65.05889044 -43.48396206 58.78673649 C-43.50234477 53.94901483 -43.50202744 49.11142757 -43.49632454 44.27367973 C-43.49617159 41.9617172 -43.50219422 39.64974541 -43.51461601 37.33781624 C-43.52956325 34.09993714 -43.51882071 30.86309183 -43.50170898 27.62524414 C-43.51137695 26.6789917 -43.52104492 25.73273926 -43.53100586 24.7578125 C-43.43067074 15.64971605 -40.27981911 8.36295419 -34.03125 1.73046875 C-24.480617 -6.4059359 -10.43984398 -6.31654425 0 0 Z " fill="#000000" transform="translate(272,308)"/>
</svg>
