<svg width="10" height="10" viewBox="0 0 10 10" fill="none" xmlns="http://www.w3.org/2000/svg">
    <g clip-path="url(#clip0_36_5995)">
        <path
            d="M0.567976 2.27093L0.819976 2.17993L0.910976 1.92893C0.916231 1.91445 0.925816 1.90194 0.93843 1.8931C0.951043 1.88426 0.966073 1.87952 0.981476 1.87952C0.996879 1.87952 1.01191 1.88426 1.02452 1.8931C1.03713 1.90194 1.04672 1.91445 1.05198 1.92893L1.14298 2.17993L1.39398 2.27093C1.40845 2.27619 1.42096 2.28577 1.4298 2.29839C1.43865 2.311 1.44339 2.32603 1.44339 2.34143C1.44339 2.35684 1.43865 2.37187 1.4298 2.38448C1.42096 2.39709 1.40845 2.40668 1.39398 2.41193L1.14198 2.49993L1.05098 2.75093C1.04572 2.76541 1.03613 2.77792 1.02352 2.78676C1.01091 2.7956 0.995879 2.80034 0.980476 2.80034C0.965073 2.80034 0.950043 2.7956 0.93743 2.78676C0.924816 2.77792 0.915231 2.76541 0.909976 2.75093L0.819976 2.49993L0.568976 2.40893C0.555404 2.40327 0.543797 2.39374 0.535599 2.38153C0.527401 2.36932 0.522973 2.35497 0.522866 2.34026C0.52276 2.32556 0.526979 2.31114 0.535 2.29882C0.54302 2.28649 0.554487 2.27679 0.567976 2.27093ZM2.56298 0.952933L2.94198 1.08993L3.07898 1.46893C3.08678 1.49094 3.10121 1.50999 3.12028 1.52346C3.13935 1.53693 3.16213 1.54416 3.18548 1.54416C3.20882 1.54416 3.2316 1.53693 3.25067 1.52346C3.26974 1.50999 3.28417 1.49094 3.29198 1.46893L3.42898 1.08993L3.80798 0.952933C3.82998 0.945128 3.84903 0.930698 3.8625 0.911628C3.87597 0.892557 3.8832 0.869781 3.8832 0.846433C3.8832 0.823084 3.87597 0.800309 3.8625 0.781238C3.84903 0.762167 3.82998 0.747737 3.80798 0.739933L3.42898 0.599933L3.29198 0.222933C3.28417 0.200927 3.26974 0.181879 3.25067 0.168409C3.2316 0.154938 3.20882 0.147705 3.18548 0.147705C3.16213 0.147705 3.13935 0.154938 3.12028 0.168409C3.10121 0.181879 3.08678 0.200927 3.07898 0.222933L2.94198 0.599933L2.56298 0.739933C2.54097 0.747737 2.52192 0.762167 2.50845 0.781238C2.49498 0.800309 2.48775 0.823084 2.48775 0.846433C2.48775 0.869781 2.49498 0.892557 2.50845 0.911628C2.52192 0.930698 2.54097 0.945128 2.56298 0.952933ZM0.0999756 5.03893C0.0999756 4.89993 0.0999756 4.78293 0.0999756 4.67593C0.101533 4.54381 0.154712 4.41753 0.248144 4.3241C0.341577 4.23067 0.467851 4.17749 0.599976 4.17593C0.662976 4.17593 0.725976 4.17593 0.788976 4.17593C1.00452 4.18646 1.20827 4.27746 1.35998 4.43093C1.59998 3.82193 1.91098 3.13393 2.09998 2.85793C2.44098 2.36793 2.93798 2.23093 3.28198 2.17093C3.85032 2.08403 4.42517 2.04689 4.99998 2.05993C5.57378 2.04706 6.14762 2.0842 6.71498 2.17093C7.05898 2.23093 7.55598 2.37093 7.89698 2.85793C8.08898 3.13393 8.39698 3.82193 8.63898 4.42793C8.79068 4.27446 8.99443 4.18346 9.20998 4.17293C9.27298 4.17293 9.33598 4.17293 9.39898 4.17293C9.5311 4.17449 9.65737 4.22767 9.75081 4.3211C9.84424 4.41453 9.89742 4.54081 9.89898 4.67293C9.89898 4.77993 9.89898 4.89493 9.89898 5.03593C9.89566 5.17155 9.84017 5.30067 9.74405 5.39641C9.64794 5.49215 9.51861 5.54714 9.38298 5.54993H9.16298H9.13398C9.15998 5.58393 9.18464 5.61727 9.20798 5.64993C9.45136 6.02031 9.57398 6.457 9.55898 6.89993V9.33993C9.55898 9.47546 9.50514 9.60543 9.40931 9.70126C9.31348 9.7971 9.1835 9.85093 9.04798 9.85093H8.38898C8.25345 9.85093 8.12348 9.7971 8.02764 9.70126C7.93181 9.60543 7.87798 9.47546 7.87798 9.33993V8.95593H2.12198V9.33993C2.12198 9.47546 2.06814 9.60543 1.97231 9.70126C1.87648 9.7971 1.7465 9.85093 1.61098 9.85093H0.949976C0.81445 9.85093 0.684475 9.7971 0.588644 9.70126C0.492813 9.60543 0.438976 9.47546 0.438976 9.33993V6.89993C0.427021 6.45962 0.550973 6.02631 0.793976 5.65893C0.817309 5.6236 0.841976 5.59027 0.867976 5.55893H0.838976H0.618976C0.481801 5.55686 0.350841 5.50138 0.253926 5.40428C0.157011 5.30718 0.101782 5.17611 0.0999756 5.03893ZM6.51998 6.75793C6.51998 6.86402 6.56212 6.96576 6.63713 7.04078C6.71215 7.11579 6.81389 7.15793 6.91998 7.15793H7.85598C7.96206 7.15793 8.0638 7.11579 8.13882 7.04078C8.21383 6.96576 8.25598 6.86402 8.25598 6.75793V6.51193C8.25548 6.45117 8.24113 6.39131 8.21404 6.33691C8.18695 6.28251 8.14783 6.235 8.09963 6.19799C8.05143 6.16097 7.99543 6.13543 7.93589 6.12329C7.87634 6.11115 7.81482 6.11274 7.75598 6.12793L6.81998 6.37293C6.73449 6.395 6.65871 6.44473 6.60445 6.51437C6.55018 6.58401 6.52048 6.66965 6.51998 6.75793ZM3.05098 3.98393L3.42998 4.12093L3.56798 4.49993C3.57578 4.52194 3.59021 4.54099 3.60928 4.55446C3.62835 4.56793 3.65113 4.57516 3.67448 4.57516C3.69782 4.57516 3.7206 4.56793 3.73967 4.55446C3.75874 4.54099 3.77317 4.52194 3.78098 4.49993L3.91798 4.12093L4.29998 3.98393C4.32198 3.97613 4.34103 3.9617 4.3545 3.94263C4.36797 3.92356 4.3752 3.90078 4.3752 3.87743C4.3752 3.85408 4.36797 3.83131 4.3545 3.81224C4.34103 3.79317 4.32198 3.77874 4.29998 3.77093L3.92098 3.63393L3.77998 3.25493C3.77217 3.23293 3.75774 3.21388 3.73867 3.20041C3.7196 3.18694 3.69682 3.17971 3.67348 3.17971C3.65013 3.17971 3.62735 3.18694 3.60828 3.20041C3.58921 3.21388 3.57478 3.23293 3.56698 3.25493L3.42998 3.63393L3.05098 3.77093C3.02897 3.77874 3.00992 3.79317 2.99645 3.81224C2.98298 3.83131 2.97575 3.85408 2.97575 3.87743C2.97575 3.90078 2.98298 3.92356 2.99645 3.94263C3.00992 3.9617 3.02897 3.97613 3.05098 3.98393ZM1.75098 6.75693C1.75098 6.86302 1.79312 6.96476 1.86813 7.03978C1.94315 7.11479 2.04489 7.15693 2.15098 7.15693H3.08698C3.18119 7.15283 3.27092 7.11557 3.34033 7.05173C3.40974 6.9879 3.45437 6.90159 3.46633 6.80805C3.47829 6.71451 3.45682 6.61975 3.40571 6.5405C3.35459 6.46126 3.27712 6.40261 3.18698 6.37493L2.25098 6.12993C2.19214 6.11474 2.13061 6.11315 2.07106 6.12529C2.01152 6.13743 1.95552 6.16297 1.90732 6.19999C1.85913 6.237 1.82 6.28451 1.79291 6.33891C1.76582 6.39331 1.75148 6.45317 1.75098 6.51393V6.75693Z"
            fill="currentColor" />
    </g>
    <defs>
        <clipPath id="clip0_36_5995">
            <rect width="10" height="10" fill="white" />
        </clipPath>
    </defs>
</svg>
    