<svg width="10" height="8" viewBox="0 0 10 8" fill="none" xmlns="http://www.w3.org/2000/svg">
    <path fill-rule="evenodd" clip-rule="evenodd"
        d="M7.35825 0C7.60309 0 7.92526 0.130582 8.06701 0.313398C8.23454 0.88796 8.40206 1.47558 8.5567 2.0632C8.77577 1.89344 10 1.77592 10 2.45495C10 2.95116 9.53608 2.9381 9.20103 2.9381C9.29124 3.14704 9.36856 3.43432 9.38144 3.86524C9.38144 4.70097 9.39433 5.52363 9.39433 6.35936C9.39433 6.51606 9.26546 6.63359 9.11082 6.63359H7.8866C7.74485 6.63359 7.61598 6.51606 7.61598 6.35936C7.61598 6.2549 7.61598 6.13737 7.61598 6.03291H2.37113C2.37113 6.13737 2.37113 6.2549 2.37113 6.35936C2.37113 6.51606 2.25515 6.63359 2.10052 6.63359H0.876289C0.734536 6.63359 0.60567 6.51606 0.60567 6.35936C0.60567 5.52363 0.60567 4.70097 0.618557 3.86524C0.618557 3.43432 0.695876 3.14704 0.798969 2.9381C0.451031 2.9381 0 2.95116 0 2.44189C0 1.82815 1.17268 1.85427 1.4433 2.0632C1.59794 1.47558 1.75258 0.88796 1.9201 0.313398C2.07474 0.130582 2.39691 0 2.62887 0H7.35825ZM8.00258 2.01097C7.87371 1.51476 7.73196 1.01854 7.60309 0.535388H2.38402C2.25515 1.01854 2.12629 1.51476 1.99742 2.01097H8.00258ZM1.94588 4.27004C1.89433 3.9697 1.85567 3.66937 1.80412 3.36903C2.33247 3.34291 2.80928 3.39514 3.24742 3.53878C3.42783 3.64325 3.56959 3.83912 3.69845 4.06111C3.76289 4.21781 3.76289 4.33534 3.60825 4.37451C3.04124 4.38757 2.48711 4.36145 1.94588 4.27004ZM8.05412 4.27004C8.09278 3.9697 8.14433 3.66937 8.18299 3.36903C7.66753 3.34291 7.17783 3.39514 6.75258 3.53878C6.57217 3.64325 6.43041 3.83912 6.30155 4.06111C6.23711 4.21781 6.23711 4.33534 6.39175 4.37451C6.94588 4.38757 7.5 4.36145 8.05412 4.27004Z"
        fill="currentColor" />
</svg>
    