<svg width="10" height="10" viewBox="0 0 10 10" fill="none" xmlns="http://www.w3.org/2000/svg">
<path d="M8.54834 5.8975L5.89751 8.54833C5.82945 8.61556 5.75293 8.66597 5.66793 8.69958C5.58293 8.73319 5.49821 8.75 5.41376 8.75C5.32932 8.75 5.24529 8.73319 5.16168 8.69958C5.07807 8.66597 5.00223 8.61556 4.93418 8.54833L1.45001 5.07083C1.38418 5.01056 1.33446 4.93861 1.30084 4.855C1.26723 4.77167 1.25043 4.68389 1.25043 4.59167V1.93083C1.25043 1.74361 1.31598 1.58333 1.44709 1.45C1.57821 1.31667 1.73959 1.25 1.93126 1.25H4.59209C4.68209 1.25 4.76945 1.26819 4.85418 1.30458C4.9389 1.34097 5.01209 1.39014 5.07376 1.45208L8.54834 4.92875C8.61779 4.99681 8.66834 5.07333 8.70001 5.15833C8.73168 5.24333 8.74751 5.32903 8.74751 5.41542C8.74751 5.50181 8.73168 5.58653 8.70001 5.66958C8.66834 5.75264 8.61779 5.82861 8.54834 5.8975ZM2.72918 3.14917C2.84612 3.14917 2.94529 3.10861 3.02668 3.0275C3.10807 2.94639 3.1489 2.84806 3.14918 2.7325C3.14918 2.61444 3.10862 2.51417 3.02751 2.43167C2.9464 2.34917 2.84807 2.30792 2.73251 2.30792C2.61446 2.30792 2.51418 2.34889 2.43168 2.43083C2.34918 2.51278 2.30793 2.61222 2.30793 2.72917C2.30793 2.84611 2.3489 2.94542 2.43084 3.02708C2.51279 3.10875 2.61223 3.14944 2.72918 3.14917Z" fill="black"/>
</svg>
