<svg width="10" height="8" viewBox="0 0 10 8" fill="none" xmlns="http://www.w3.org/2000/svg">
    <path fill-rule="evenodd" clip-rule="evenodd"
        d="M7.35825 0C7.60309 0 7.92526 0.130002 8.06701 0.312005C8.23454 0.884014 8.40206 1.46902 8.5567 2.05403C8.77577 1.88503 10 1.76803 10 2.44404C10 2.93805 9.53608 2.92505 9.20103 2.92505C9.29124 3.13305 9.36856 3.41905 9.38144 3.84806C9.38144 4.68007 9.39433 5.49909 9.39433 6.3311C9.39433 6.4871 9.26546 6.6041 9.11082 6.6041H7.8866C7.74485 6.6041 7.61598 6.4871 7.61598 6.3311C7.61598 6.2271 7.61598 6.1101 7.61598 6.00609H2.37113C2.37113 6.1101 2.37113 6.2271 2.37113 6.3311C2.37113 6.4871 2.25515 6.6041 2.10052 6.6041H0.876289C0.734536 6.6041 0.60567 6.4871 0.60567 6.3311C0.60567 5.49909 0.60567 4.68007 0.618557 3.84806C0.618557 3.41905 0.695876 3.13305 0.798969 2.92505C0.451031 2.92505 0 2.93805 0 2.43104C0 1.82003 1.17268 1.84603 1.4433 2.05403C1.59794 1.46902 1.75258 0.884014 1.9201 0.312005C2.07474 0.130002 2.39691 0 2.62887 0H7.35825ZM8.00258 2.00203C7.87371 1.50802 7.73196 1.01402 7.60309 0.533008H2.38402C2.25515 1.01402 2.12629 1.50802 1.99742 2.00203H8.00258ZM1.94588 4.25107C1.89433 3.95206 1.85567 3.65306 1.80412 3.35405C2.33247 3.32805 2.80928 3.38005 3.24742 3.52306C3.42783 3.62706 3.56959 3.82206 3.69845 4.04306C3.76289 4.19907 3.76289 4.31607 3.60825 4.35507C3.04124 4.36807 2.48711 4.34207 1.94588 4.25107ZM8.05412 4.25107C8.09278 3.95206 8.14433 3.65306 8.18299 3.35405C7.66753 3.32805 7.17783 3.38005 6.75258 3.52306C6.57217 3.62706 6.43041 3.82206 6.30155 4.04306C6.23711 4.19907 6.23711 4.31607 6.39175 4.35507C6.94588 4.36807 7.5 4.34207 8.05412 4.25107Z"
        fill="currentColor" />
</svg>
    