<svg width="20" height="20" viewBox="0 0 20 20" fill="none" xmlns="http://www.w3.org/2000/svg">
<path d="M15.3311 19.1976C14.2972 20.253 13.1685 20.0864 12.0819 19.5864C10.9321 19.0754 9.87714 19.0532 8.66399 19.5864C7.14491 20.2752 6.34317 20.0752 5.43595 19.1976C0.287953 13.6094 1.04749 5.09936 6.89173 4.78828C8.31587 4.86605 9.30749 5.6104 10.1409 5.67706C11.3857 5.41043 12.5777 4.64386 13.9069 4.74385C15.4998 4.87716 16.7025 5.54374 17.4936 6.74359C14.2023 8.82111 14.9829 13.3872 18 14.6648C17.3987 16.3313 16.6181 17.9866 15.3205 19.2087L15.3311 19.1976ZM10.0354 4.72163C9.87714 2.24416 11.7865 0.199975 13.9808 0C14.2867 2.8663 11.5123 4.99937 10.0354 4.72163Z" fill="#333333"/>
</svg>
