<svg width="27" height="24" viewBox="0 0 27 24" fill="none" xmlns="http://www.w3.org/2000/svg">
    <g clip-path="url(#clip0_621_1755)">
        <path
            d="M18.9069 3.33395C18.9069 2.99222 18.7544 2.66445 18.4828 2.42259C18.2112 2.18074 17.8427 2.04456 17.4583 2.04395H10.4487C10.0642 2.04456 9.69574 2.18074 9.42414 2.42259C9.15254 2.66445 9 2.99222 9 3.33395V4.69548H18.9069V3.33395Z"
            fill="currentColor" />
        <path
            d="M13.5593 15.8292C13.9492 15.8292 14.3232 15.6917 14.5992 15.4468C14.8752 15.2019 15.0306 14.8697 15.0313 14.523V12.46H12.0898V14.523C12.0905 14.8693 12.2456 15.2011 12.521 15.446C12.7964 15.6908 13.1698 15.8286 13.5593 15.8292Z"
            fill="currentColor" />
        <path
            d="M15.5516 12.46V14.523C15.5329 14.9811 15.3151 15.4149 14.944 15.7331C14.5728 16.0513 14.0773 16.2291 13.5616 16.2291C13.0459 16.2291 12.5504 16.0513 12.1792 15.7331C11.8081 15.4149 11.5903 14.9811 11.5717 14.523V12.46H1.03906V19.6369C1.04317 20.2498 1.3198 20.8364 1.80859 21.2687C2.29737 21.701 2.95866 21.944 3.6482 21.9446H23.366C24.0533 21.9409 24.7112 21.6966 25.1972 21.2647C25.6832 20.8327 25.9581 20.2478 25.9621 19.6369V12.46H15.5516Z"
            fill="currentColor" />
        <path
            d="M23.3139 6.15698H3.59615C2.90887 6.16062 2.2509 6.40491 1.76491 6.8369C1.27892 7.2689 1.00409 7.85376 1 8.46467V10.9985H25.9231V8.47621C25.9224 7.8613 25.6473 7.27175 25.1581 6.83694C24.669 6.40214 24.0057 6.15759 23.3139 6.15698Z"
            fill="currentColor" />
    </g>
    <defs>
        <clipPath id="clip0_621_1755">
            <rect width="27" height="24" fill="currentColor" />
        </clipPath>
    </defs>
</svg>