<svg width="27" height="22" viewBox="0 0 27 22" fill="none" xmlns="http://www.w3.org/2000/svg">
    <path
        d="M0 3.5H27C27 1.84531 25.6547 0.5 24 0.5H3C1.34531 0.5 0 1.84531 0 3.5ZM0 5V18.5C0 20.1547 1.34531 21.5 3 21.5H24C25.6547 21.5 27 20.1547 27 18.5V5H0ZM3 17.9984C3 16.6156 4.12031 15.5 5.49844 15.5H11.0016C12.3844 15.5 13.5 16.6203 13.5 17.9984C13.5 18.275 13.275 18.5 12.9984 18.5H3.50156C3.225 18.5 3 18.275 3 17.9984ZM8.25 8C9.04565 8 9.80871 8.31607 10.3713 8.87868C10.9339 9.44129 11.25 10.2044 11.25 11C11.25 11.7956 10.9339 12.5587 10.3713 13.1213C9.80871 13.6839 9.04565 14 8.25 14C7.45435 14 6.69129 13.6839 6.12868 13.1213C5.56607 12.5587 5.25 11.7956 5.25 11C5.25 10.2044 5.56607 9.44129 6.12868 8.87868C6.69129 8.31607 7.45435 8 8.25 8ZM16.5 8.75C16.5 8.3375 16.8375 8 17.25 8H23.25C23.6625 8 24 8.3375 24 8.75C24 9.1625 23.6625 9.5 23.25 9.5H17.25C16.8375 9.5 16.5 9.1625 16.5 8.75ZM16.5 11.75C16.5 11.3375 16.8375 11 17.25 11H23.25C23.6625 11 24 11.3375 24 11.75C24 12.1625 23.6625 12.5 23.25 12.5H17.25C16.8375 12.5 16.5 12.1625 16.5 11.75ZM16.5 14.75C16.5 14.3375 16.8375 14 17.25 14H23.25C23.6625 14 24 14.3375 24 14.75C24 15.1625 23.6625 15.5 23.25 15.5H17.25C16.8375 15.5 16.5 15.1625 16.5 14.75Z"
        fill="currentColor" />
</svg>